<svg width="25" height="28" viewBox="0 0 25 28" fill="none" xmlns="http://www.w3.org/2000/svg">
<path d="M0 10.8458C0 8.7218 1.7218 7 3.84575 7H19.1542C21.2782 7 23 8.7218 23 10.8458C23 14.2744 22.679 17.6955 22.0413 21.0643L22.0016 21.2741C21.5925 23.4354 19.7039 25 17.5042 25H11.5H5.49576C3.29612 25 1.40752 23.4354 0.998393 21.2741L0.958675 21.0643C0.320958 17.6955 0 14.2744 0 10.8458Z" fill="white"/>
<circle cx="20" cy="23" r="5" fill="#2A1A5E"/>
<path d="M17 23H23M20 20V26" stroke="white" stroke-width="2"/>
<path d="M7 7V6.5C7 4.01472 9.01472 2 11.5 2V2C13.9853 2 16 4.01472 16 6.5V7" stroke="white" stroke-width="3"/>
</svg>
