<svg width="36" height="36" viewBox="0 0 36 36" fill="none" xmlns="http://www.w3.org/2000/svg">
<ellipse cx="17.8435" cy="18" rx="17.8435" ry="18" fill="white"/>
<path d="M10.3576 12.8367C10.2509 12.3138 9.63784 12.1336 9.49601 12.6491C9.23854 13.5849 9.11023 14.7784 9.45325 16.0847C10.0329 18.3018 11.58 18.2449 12.5377 18.9881C12.9608 19.3137 13.9316 19.2341 13.9004 18.6993C13.8397 17.6573 13.4976 16.5098 12.4657 15.7444C11.2264 14.8267 10.5772 13.9127 10.3576 12.8367Z" fill="#FF671D"/>
<path d="M14.4945 14.5324C14.0053 14.4277 13.8405 15.1136 14.1921 15.4696C14.5063 15.7876 14.793 16.1863 14.952 16.6693C14.9745 16.7375 14.9941 16.8051 15.011 16.8719C15.1461 17.404 16.0583 17.9495 16.257 17.4364C16.4996 16.8098 16.4876 16.0725 15.8596 15.297C15.5093 14.863 14.9993 14.6404 14.4945 14.5324Z" fill="#FF671D"/>
<path d="M23.9043 10.963C24.1429 11.4471 24.2749 11.8789 24.2267 12.1316C24.1795 12.3789 24.3416 12.6183 24.5888 12.6663L25.0813 12.762C25.3319 12.8106 25.6013 12.7644 25.7645 12.5685C26.1439 12.113 26.3449 11.3982 26.4405 10.7621C26.5321 10.1529 26.21 9.58311 25.6138 9.42755C25.3925 9.36981 25.1497 9.31766 24.8992 9.27138C24.0256 9.11 23.5108 10.165 23.9043 10.963Z" fill="#FF671D"/>
<path d="M19.5702 17.1062C18.3542 21.5133 16.5135 24.3649 11.9206 26.7498C11.0306 27.2119 11.198 28.5597 12.1996 28.6305C21.3624 29.2783 25.6083 24.491 28.0739 20.0568C29.5009 17.4904 27.7409 14.207 24.8556 13.6468C22.4672 13.183 20.2171 14.7616 19.5702 17.1062Z" fill="#FF671D"/>
</svg>
