<svg width="36" height="39" viewBox="0 0 36 39" fill="none" xmlns="http://www.w3.org/2000/svg">
<path d="M18 28.0167C27.4077 28.0167 35.0342 24.7482 35.0342 20.7163C35.0342 16.6845 27.4077 13.416 18 13.416C8.59237 13.416 0.965942 16.6845 0.965942 20.7163C0.965942 24.7482 8.59237 28.0167 18 28.0167Z" fill="#2A1A5E"/>
<path d="M0.965942 20.7168V21.5604C0.965942 30.5966 7.8282 38.3998 16.8319 38.9676C17.2213 38.9838 17.6107 39.0001 18 39.0001C18.3894 39.0001 18.7787 38.9838 19.1681 38.9676C28.188 38.3998 35.0342 30.5804 35.0342 21.5604V20.7168H0.965942Z" fill="#2A1A5E"/>
<path d="M17.9998 26.3298C26.1352 26.3298 32.7303 23.8167 32.7303 20.7167C32.7303 17.6166 26.1352 15.1035 17.9998 15.1035C9.86442 15.1035 3.26935 17.6166 3.26935 20.7167C3.26935 23.8167 9.86442 26.3298 17.9998 26.3298Z" fill="white"/>
<path d="M16.0046 0C16.0046 0 9.66134 3.76373 9.33688 10.3178C9.09353 15.1036 13.0844 15.9472 14.9501 18.0237C16.8319 20.1002 15.9884 23.0204 15.9884 23.0204C15.9884 23.0204 21.8935 16.4014 17.2862 11.5021C13.3278 7.30033 13.2954 4.07196 16.0046 0Z" fill="#2A1A5E"/>
<path d="M19.0542 9.71777C19.0542 9.71777 22.3312 12.3297 22.4124 15.8501C22.4935 19.3704 19.8005 21.3172 19.8005 21.3172C19.8005 21.3172 27.7659 19.3218 25.3487 13.4977C24.0347 10.318 19.0542 9.71777 19.0542 9.71777Z" fill="#2A1A5E"/>
</svg>
