<svg width="36" height="36" viewBox="0 0 36 36" fill="none" xmlns="http://www.w3.org/2000/svg">
<ellipse cx="17.8435" cy="18" rx="17.8435" ry="18" fill="white"/>
<path d="M17.8326 11.1771C13.4351 11.4358 10.8267 14.5183 10.0723 16.0273V19.9075C11.0962 21.6859 14.0818 25.2427 17.8326 25.2427C22.2301 25.372 23.0061 20.6619 22.8445 18.2907C23.0061 15.8117 22.2301 10.9184 17.8326 11.1771Z" fill="#FF671D" stroke="#FF671D"/>
<path d="M23.2077 20.8582C24.2496 23.2108 27.7482 23.1488 27.7482 23.1488C27.7482 23.1488 27.2602 22.9554 26.9187 22.2078L25.1322 21.4852L26.7234 21.6445C26.6876 21.4987 26.6583 21.3358 26.6394 21.1621L24.5844 20.328L26.5431 20.5234C26.5093 20.3807 26.4692 20.2419 26.4238 20.115L24.2817 19.2451L26.0385 19.421C25.3356 18.5168 24.168 18.2981 23.3651 18.2684C24.1651 18.1704 25.3116 17.8628 25.9379 16.9073L24.2002 17.2202L26.2639 16.1796C26.3017 16.048 26.3305 15.909 26.3503 15.7626L24.4133 16.1147L26.3929 15.1185C26.3983 14.9424 26.4135 14.7818 26.4365 14.6335L24.8615 14.9174L26.5806 14.055C26.8582 13.2845 27.3286 13.053 27.3286 13.053C27.3286 13.053 23.8372 13.2702 22.9916 15.6977C22.8345 16.1463 22.7276 16.5719 22.6515 16.9436C22.468 17.8361 22.5083 18.7691 22.7625 19.645C22.8739 20.0065 23.0152 20.4226 23.2077 20.8582Z" fill="#FF671D"/>
<path fill-rule="evenodd" clip-rule="evenodd" d="M11.2035 21.1909C10.5029 20.4365 9.19876 17.2461 10.8802 15.0474C9.85622 15.5324 7.38802 17.1913 7 17.9673C7.32335 18.7757 10.2335 20.7059 11.2035 21.1909ZM8.77806 18.2907C9.04593 18.2907 9.26308 18.0735 9.26308 17.8057C9.26308 17.5378 9.04593 17.3207 8.77806 17.3207C8.51019 17.3207 8.29304 17.5378 8.29304 17.8057C8.29304 18.0735 8.51019 18.2907 8.77806 18.2907Z" fill="#FF671D"/>
</svg>
