<svg width="36" height="21" viewBox="0 0 36 21" fill="none" xmlns="http://www.w3.org/2000/svg">
<path d="M23.823 7.07748C25.8123 7.07748 27.4204 9.09059 27.4204 11.5921V15.666C27.4204 18.3938 22.2983 19.6088 15.9612 19.6088C9.63597 19.6088 4.50195 18.3938 4.50195 15.666V11.5921C4.50195 9.10251 6.11005 7.07748 8.09933 7.07748H23.823Z" fill="#2A1A5E"/>
<path d="M0 12.6637C4.80049 14.5696 6.49198 10.7102 17.2722 11.3058C28.7791 11.949 31.1258 15.9037 30.5302 12.89C29.5772 8.10145 21.9894 3.02699 15.9738 3.34861C8.46936 3.75361 3.28768 6.86261 0 12.6637Z" fill="white"/>
<path d="M0 10.8292C4.80049 12.7351 6.49198 8.87568 17.2722 9.47128C28.7791 10.1145 31.1258 14.0693 30.5302 11.0556C29.5772 6.26698 21.9894 1.19251 15.9738 1.51413C8.46936 1.91914 3.28768 5.02814 0 10.8292Z" fill="#2A1A5E"/>
<path d="M15.9739 0.906921C16.8792 0.906921 17.7607 0.954569 18.6302 1.01413V20.0732H13.3057V1.01413C14.1871 0.942657 15.0686 0.906921 15.9739 0.906921Z" fill="white"/>
<path d="M27.4204 10.7936C27.3608 11.4249 28.0994 12.9615 28.9689 14.5935C30.1244 16.7376 31.2798 18.2028 31.5062 17.3689C31.7325 16.5351 30.5532 13.569 30.5532 13.569C30.5532 13.569 33.1619 15.868 33.686 15.3796C34.2102 14.8912 31.8992 12.3659 31.8992 12.3659C31.8992 12.3659 33.7218 13.2236 34.7819 13.5214C35.8421 13.8311 36.3186 13.6881 35.7706 13.1164C35.2227 12.5327 33.5669 11.2462 31.9112 10.3528C30.2554 9.47134 29.0285 9.00677 29.0285 9.00677L27.4204 10.055C27.4204 10.055 27.468 10.1622 27.4204 10.7936Z" fill="#2A1A5E"/>
</svg>
