<svg width="41" height="33" viewBox="0 0 41 33" fill="none" xmlns="http://www.w3.org/2000/svg">
<path d="M17.6826 1.90735e-05V13.6052H23.9155V1.90735e-05H17.6826Z" fill="#2A1A5E"/>
<path d="M17.6947 13.6141C19.3048 13.6141 20.6101 10.5684 20.6101 6.81145C20.6101 3.05448 19.3048 0.0088501 17.6947 0.0088501C16.0846 0.0088501 14.7793 3.05448 14.7793 6.81145C14.7793 10.5684 16.0846 13.6141 17.6947 13.6141Z" fill="#2A1A5E"/>
<path d="M23.9281 13.614C25.5382 13.614 26.8435 10.5684 26.8435 6.81142C26.8435 3.05445 25.5382 0.00881958 23.9281 0.00881958C22.318 0.00881958 21.0127 3.05445 21.0127 6.81142C21.0127 10.5684 22.318 13.614 23.9281 13.614Z" fill="#2A1A5E"/>
<path d="M17.6941 12.4586C19.0359 12.4586 20.1237 9.93062 20.1237 6.81215C20.1237 3.69367 19.0359 1.16565 17.6941 1.16565C16.3524 1.16565 15.2646 3.69367 15.2646 6.81215C15.2646 9.93062 16.3524 12.4586 17.6941 12.4586Z" fill="white"/>
<path d="M17.6958 11.1685C18.7229 11.1685 19.5556 9.2181 19.5556 6.81216C19.5556 4.40621 18.7229 2.45581 17.6958 2.45581C16.6686 2.45581 15.8359 4.40621 15.8359 6.81216C15.8359 9.2181 16.6686 11.1685 17.6958 11.1685Z" fill="#2A1A5E"/>
<path d="M24.1396 8.24358V21.8488H30.3726V8.24358H24.1396Z" fill="#2A1A5E"/>
<path d="M24.1429 21.841C25.7531 21.841 27.0583 18.7953 27.0583 15.0384C27.0583 11.2814 25.7531 8.23575 24.1429 8.23575C22.5328 8.23575 21.2275 11.2814 21.2275 15.0384C21.2275 18.7953 22.5328 21.841 24.1429 21.841Z" fill="#2A1A5E"/>
<path d="M30.3754 21.8404C31.9855 21.8404 33.2908 18.7948 33.2908 15.0378C33.2908 11.2808 31.9855 8.2352 30.3754 8.2352C28.7652 8.2352 27.46 11.2808 27.46 15.0378C27.46 18.7948 28.7652 21.8404 30.3754 21.8404Z" fill="#2A1A5E"/>
<path d="M24.1424 20.6842C25.4842 20.6842 26.5719 18.1562 26.5719 15.0377C26.5719 11.9192 25.4842 9.3912 24.1424 9.3912C22.8006 9.3912 21.7129 11.9192 21.7129 15.0377C21.7129 18.1562 22.8006 20.6842 24.1424 20.6842Z" fill="white"/>
<path d="M24.1411 19.3941C25.1682 19.3941 26.0009 17.4437 26.0009 15.0377C26.0009 12.6318 25.1682 10.6814 24.1411 10.6814C23.1139 10.6814 22.2812 12.6318 22.2812 15.0377C22.2812 17.4437 23.1139 19.3941 24.1411 19.3941Z" fill="#2A1A5E"/>
<path d="M31.0459 17.0931V30.6983H37.2788V17.0931H31.0459Z" fill="#2A1A5E"/>
<path d="M31.0453 30.6881C32.6554 30.6881 33.9607 27.6425 33.9607 23.8855C33.9607 20.1285 32.6554 17.0829 31.0453 17.0829C29.4352 17.0829 28.1299 20.1285 28.1299 23.8855C28.1299 27.6425 29.4352 30.6881 31.0453 30.6881Z" fill="#2A1A5E"/>
<path d="M37.2797 30.6882C38.8898 30.6882 40.1951 27.6426 40.1951 23.8856C40.1951 20.1287 38.8898 17.083 37.2797 17.083C35.6695 17.083 34.3643 20.1287 34.3643 23.8856C34.3643 27.6426 35.6695 30.6882 37.2797 30.6882Z" fill="#2A1A5E"/>
<path d="M31.0447 29.532C32.3865 29.532 33.4742 27.004 33.4742 23.8855C33.4742 20.7671 32.3865 18.239 31.0447 18.239C29.703 18.239 28.6152 20.7671 28.6152 23.8855C28.6152 27.004 29.703 29.532 31.0447 29.532Z" fill="white"/>
<path d="M31.0463 28.2419C32.0735 28.2419 32.9062 26.2915 32.9062 23.8856C32.9062 21.4796 32.0735 19.5292 31.0463 19.5292C30.0192 19.5292 29.1865 21.4796 29.1865 23.8856C29.1865 26.2915 30.0192 28.2419 31.0463 28.2419Z" fill="#2A1A5E"/>
<path d="M13.6052 8.53754H0V14.7705H13.6052V8.53754Z" fill="#2A1A5E"/>
<path d="M6.8026 11.4526C10.5596 11.4526 13.6052 10.1473 13.6052 8.5372C13.6052 6.92706 10.5596 5.6218 6.8026 5.6218C3.04563 5.6218 0 6.92706 0 8.5372C0 10.1473 3.04563 11.4526 6.8026 11.4526Z" fill="#2A1A5E"/>
<path d="M6.8026 17.6862C10.5596 17.6862 13.6052 16.381 13.6052 14.7708C13.6052 13.1607 10.5596 11.8554 6.8026 11.8554C3.04563 11.8554 0 13.1607 0 14.7708C0 16.381 3.04563 17.6862 6.8026 17.6862Z" fill="#2A1A5E"/>
<path d="M6.80177 10.9671C9.92024 10.9671 12.4483 9.8794 12.4483 8.53762C12.4483 7.19585 9.92024 6.10812 6.80177 6.10812C3.6833 6.10812 1.15527 7.19585 1.15527 8.53762C1.15527 9.8794 3.6833 10.9671 6.80177 10.9671Z" fill="white"/>
<path d="M6.80166 10.3968C9.2076 10.3968 11.158 9.5641 11.158 8.53695C11.158 7.5098 9.2076 6.67712 6.80166 6.67712C4.39571 6.67712 2.44531 7.5098 2.44531 8.53695C2.44531 9.5641 4.39571 10.3968 6.80166 10.3968Z" fill="#2A1A5E"/>
<path d="M20.2234 15.6752H6.61816V21.9081H20.2234V15.6752Z" fill="#2A1A5E"/>
<path d="M13.4208 18.5907C17.1777 18.5907 20.2234 17.2854 20.2234 15.6753C20.2234 14.0652 17.1777 12.7599 13.4208 12.7599C9.66379 12.7599 6.61816 14.0652 6.61816 15.6753C6.61816 17.2854 9.66379 18.5907 13.4208 18.5907Z" fill="#2A1A5E"/>
<path d="M13.4208 24.8239C17.1777 24.8239 20.2234 23.5186 20.2234 21.9085C20.2234 20.2984 17.1777 18.9931 13.4208 18.9931C9.66379 18.9931 6.61816 20.2984 6.61816 21.9085C6.61816 23.5186 9.66379 24.8239 13.4208 24.8239Z" fill="#2A1A5E"/>
<path d="M13.4219 18.1044C16.5404 18.1044 19.0684 17.0166 19.0684 15.6749C19.0684 14.3331 16.5404 13.2454 13.4219 13.2454C10.3034 13.2454 7.77539 14.3331 7.77539 15.6749C7.77539 17.0166 10.3034 18.1044 13.4219 18.1044Z" fill="white"/>
<path d="M13.4218 17.5344C15.8277 17.5344 17.7781 16.7018 17.7781 15.6746C17.7781 14.6475 15.8277 13.8148 13.4218 13.8148C11.0158 13.8148 9.06543 14.6475 9.06543 15.6746C9.06543 16.7018 11.0158 17.5344 13.4218 17.5344Z" fill="#2A1A5E"/>
<path d="M26.5398 23.8517H12.9346V30.0846H26.5398V23.8517Z" fill="#2A1A5E"/>
<path d="M19.7372 26.7671C23.4941 26.7671 26.5398 25.4618 26.5398 23.8516C26.5398 22.2415 23.4941 20.9362 19.7372 20.9362C15.9802 20.9362 12.9346 22.2415 12.9346 23.8516C12.9346 25.4618 15.9802 26.7671 19.7372 26.7671Z" fill="#2A1A5E"/>
<path d="M19.7372 33C23.4941 33 26.5398 31.6947 26.5398 30.0846C26.5398 28.4744 23.4941 27.1692 19.7372 27.1692C15.9802 27.1692 12.9346 28.4744 12.9346 30.0846C12.9346 31.6947 15.9802 33 19.7372 33Z" fill="#2A1A5E"/>
<path d="M19.7383 26.2813C22.8568 26.2813 25.3848 25.1936 25.3848 23.8518C25.3848 22.51 22.8568 21.4223 19.7383 21.4223C16.6198 21.4223 14.0918 22.51 14.0918 23.8518C14.0918 25.1936 16.6198 26.2813 19.7383 26.2813Z" fill="white"/>
<path d="M19.7382 25.7109C22.1441 25.7109 24.0945 24.8783 24.0945 23.8511C24.0945 22.8239 22.1441 21.9913 19.7382 21.9913C17.3322 21.9913 15.3818 22.8239 15.3818 23.8511C15.3818 24.8783 17.3322 25.7109 19.7382 25.7109Z" fill="#2A1A5E"/>
</svg>
