<svg width="37" height="36" viewBox="0 0 37 36" fill="none" xmlns="http://www.w3.org/2000/svg">
<ellipse cx="18.3132" cy="18" rx="17.8435" ry="18" fill="#D53939"/>
<path d="M10.8273 12.8367C10.7206 12.3138 10.1076 12.1336 9.96574 12.6491C9.70826 13.5849 9.57996 14.7784 9.92298 16.0847C10.5027 18.3018 12.0498 18.2449 13.0074 18.9881C13.4305 19.3137 14.4013 19.2341 14.3701 18.6993C14.3094 17.6573 13.9673 16.5098 12.9355 15.7444C11.6961 14.8267 11.0469 13.9127 10.8273 12.8367Z" fill="white"/>
<path d="M14.9642 14.5324C14.475 14.4277 14.3102 15.1136 14.6618 15.4696C14.976 15.7876 15.2627 16.1863 15.4217 16.6693C15.4442 16.7375 15.4638 16.8051 15.4807 16.8719C15.6158 17.404 16.528 17.9495 16.7267 17.4364C16.9693 16.8098 16.9573 16.0725 16.3294 15.297C15.979 14.863 15.469 14.6404 14.9642 14.5324Z" fill="white"/>
<path d="M24.374 10.963C24.6126 11.4471 24.7446 11.8789 24.6964 12.1316C24.6492 12.3789 24.8113 12.6183 25.0585 12.6663L25.551 12.762C25.8016 12.8106 26.0711 12.7644 26.2342 12.5685C26.6137 12.113 26.8146 11.3982 26.9103 10.7621C27.0019 10.1529 26.6797 9.58311 26.0836 9.42755C25.8623 9.36981 25.6194 9.31766 25.3689 9.27138C24.4954 9.11 23.9805 10.165 24.374 10.963Z" fill="white"/>
<path d="M20.0399 17.1062C18.8239 21.5133 16.9833 24.3649 12.3904 26.7498C11.5003 27.2119 11.6677 28.5597 12.6694 28.6305C21.8322 29.2783 26.0781 24.491 28.5437 20.0568C29.9706 17.4904 28.2106 14.207 25.3253 13.6468C22.937 13.183 20.6868 14.7616 20.0399 17.1062Z" fill="white"/>
</svg>
