<svg width="29" height="43" viewBox="0 0 29 43" fill="none" xmlns="http://www.w3.org/2000/svg">
<path d="M21.5399 37.6593H4.02866L1.4393 13.7803H24.1484L21.5399 37.6593Z" fill="#2A1A5E"/>
<path d="M12.7931 12.6484H0L0.901516 20.282H12.7931H24.6654L25.586 12.6484H12.7931Z" fill="#2A1A5E"/>
<path d="M12.7931 17.3479C19.8585 17.3479 25.586 15.1668 25.586 12.4762C25.586 9.78562 19.8585 7.60449 12.7931 7.60449C5.7277 7.60449 0 9.78562 0 12.4762C0 15.1668 5.7277 17.3479 12.7931 17.3479Z" fill="#2A1A5E"/>
<path d="M12.7935 27.7822C19.3504 27.7822 24.6658 25.6698 24.6658 23.064C24.6658 20.4581 19.3504 18.3457 12.7935 18.3457C6.23655 18.3457 0.921112 20.4581 0.921112 23.064C0.921112 25.6698 6.23655 27.7822 12.7935 27.7822Z" fill="white"/>
<path d="M12.7935 24.9238C19.3504 24.9238 24.6658 22.8114 24.6658 20.2056C24.6658 17.5997 19.3504 15.4873 12.7935 15.4873C6.23655 15.4873 0.921112 17.5997 0.921112 20.2056C0.921112 22.8114 6.23655 24.9238 12.7935 24.9238Z" fill="#2A1A5E"/>
<path d="M12.7926 42.1278C17.6335 42.1278 21.5577 40.0497 21.5577 37.4863C21.5577 34.9228 17.6335 32.8447 12.7926 32.8447C7.95168 32.8447 4.02734 34.9228 4.02734 37.4863C4.02734 40.0497 7.95168 42.1278 12.7926 42.1278Z" fill="#2A1A5E"/>
<path d="M12.7941 15.8711C18.5884 15.8711 23.2855 14.4027 23.2855 12.5913C23.2855 10.7799 18.5884 9.31152 12.7941 9.31152C6.99987 9.31152 2.30264 10.7799 2.30264 12.5913C2.30264 14.4027 6.99987 15.8711 12.7941 15.8711Z" fill="white"/>
<path d="M15.728 19.3229L13.2539 18.9202L16.1117 1.65824C16.1692 1.29382 16.3802 0.986942 16.687 0.795143C16.9939 0.603344 17.3775 0.564985 17.7227 0.660885L29.0005 4.24753L28.2334 6.64502L18.3365 3.49951L15.728 19.3229Z" fill="#2A1A5E"/>
</svg>
