<svg width="28" height="41" viewBox="0 0 28 41" fill="none" xmlns="http://www.w3.org/2000/svg">
<path d="M12.614 0.815277C12.614 0.815277 9.7555 2.72459 9.60929 6.04943C9.49963 8.47722 11.2981 8.90518 12.1388 9.95859C12.9868 11.012 12.6067 12.4934 12.6067 12.4934C12.6067 12.4934 15.2678 9.13561 13.1915 6.65021C11.4077 4.51869 11.3931 2.88096 12.614 0.815277Z" fill="#2A1A5E"/>
<path d="M13.9824 5.19455C13.9824 5.19455 15.3996 6.50936 15.4346 8.28149C15.4697 10.0536 14.3052 11.0336 14.3052 11.0336C14.3052 11.0336 17.7498 10.0291 16.7044 7.09734C16.1362 5.49671 13.9824 5.19455 13.9824 5.19455Z" fill="#2A1A5E"/>
<path d="M0.287109 24.0479C0.287109 23.2573 0.846019 21.8123 1.3095 21.0353C1.70483 20.3809 1.1732 18.8405 1.8548 18.2407C2.44097 17.7227 3.9541 18.3907 4.71749 17.9544C5.41272 17.5591 5.54905 15.9096 6.36696 15.5961C7.11672 15.3098 8.34361 16.414 9.18879 16.2095C9.97944 16.0187 10.552 14.4647 11.3972 14.3556C12.2151 14.2602 13.1284 15.637 13.9872 15.637C14.846 15.637 15.7594 14.2602 16.5773 14.3556C17.4225 14.451 17.995 16.0051 18.7857 16.2095C19.6308 16.414 20.8577 15.3098 21.6075 15.5961C22.4254 15.9096 22.5617 17.5591 23.2569 17.9544C24.0203 18.4043 25.5335 17.7363 26.1333 18.2407C26.8149 18.8405 26.2832 20.3809 26.6785 21.0353C27.142 21.8123 27.7009 23.2573 27.7009 24.0479H0.287109Z" fill="#2A1A5E"/>
<path d="M25.7776 24.3886H2.20801V35.1851H25.7776V24.3886Z" fill="#2A1A5E"/>
<path d="M13.986 40.2291C20.4983 40.2291 25.7776 37.9709 25.7776 35.1852C25.7776 32.3996 20.4983 30.1414 13.986 30.1414C7.47362 30.1414 2.19434 32.3996 2.19434 35.1852C2.19434 37.9709 7.47362 40.2291 13.986 40.2291Z" fill="#2A1A5E"/>
<path d="M28 27.0198C28 30.9458 21.7293 34.1221 14 34.1221C6.2707 34.1221 0 30.9458 0 27.0198C0 23.0938 6.2707 18.8952 14 18.8952C21.7293 18.8952 28 23.0938 28 27.0198Z" fill="white"/>
<path d="M28 24.7565C28 28.6825 21.7293 31.8588 14 31.8588C6.2707 31.8588 0 28.6825 0 24.7565C0 20.8305 6.2707 16.6319 14 16.6319C21.7293 16.6319 28 20.8442 28 24.7565Z" fill="#2A1A5E"/>
</svg>
