<svg width="25" height="25" viewBox="0 0 25 25" fill="none" xmlns="http://www.w3.org/2000/svg">
<path d="M4.16699 14.5833C4.16699 12.7604 4.60102 11.1372 5.46908 9.71354C6.33713 8.28993 7.29199 7.09201 8.33366 6.11979C9.37533 5.14757 10.3302 4.40538 11.1982 3.89323L12.5003 3.125V6.5625C12.5003 7.20486 12.7173 7.71267 13.1514 8.08594C13.5854 8.4592 14.0715 8.64583 14.6097 8.64583C14.9048 8.64583 15.187 8.58507 15.4561 8.46354C15.7252 8.34201 15.9725 8.14236 16.1982 7.86458L16.667 7.29167C17.917 8.02083 18.9239 9.03212 19.6878 10.3255C20.4517 11.6189 20.8337 13.0382 20.8337 14.5833C20.8337 16.2326 20.4083 17.7214 19.5576 19.0495C18.7069 20.3776 17.5871 21.3802 16.1982 22.0573C16.5975 21.6059 16.9057 21.1024 17.1227 20.5469C17.3397 19.9913 17.4482 19.4097 17.4482 18.8021C17.4482 18.1424 17.3267 17.5217 17.0837 16.9401C16.8406 16.3585 16.4847 15.8333 16.016 15.3646L12.5003 11.9271L9.01074 15.3646C8.52463 15.8333 8.16005 16.3585 7.91699 16.9401C7.67394 17.5217 7.55241 18.1424 7.55241 18.8021C7.55241 19.4097 7.66092 19.9913 7.87793 20.5469C8.09494 21.1024 8.4031 21.6059 8.80241 22.0573C7.41352 21.3802 6.29373 20.3776 5.44303 19.0495C4.59234 17.7214 4.16699 16.2326 4.16699 14.5833ZM12.5003 14.1146L14.8962 16.4583C15.2087 16.7708 15.4517 17.1267 15.6253 17.526C15.7989 17.9253 15.8857 18.3507 15.8857 18.8021C15.8857 19.7222 15.5559 20.5078 14.8962 21.1589C14.2364 21.8099 13.4378 22.1354 12.5003 22.1354C11.5628 22.1354 10.7642 21.8099 10.1045 21.1589C9.44477 20.5078 9.11491 19.7222 9.11491 18.8021C9.11491 18.3507 9.19737 17.9253 9.3623 17.526C9.52724 17.1267 9.77463 16.7708 10.1045 16.4583L12.5003 14.1146Z" fill="white"/>
</svg>
