<svg width="65" height="46" viewBox="0 0 65 46" fill="none" xmlns="http://www.w3.org/2000/svg">
<path d="M35.6929 22.1587C37.406 10.4316 23.6173 2.0863 23.6173 2.0863C23.6173 2.0863 25.0448 4.03802 24.541 7.79003L29.7307 14.9912L23.9196 10.4652C23.7012 11.1214 23.4157 11.8281 23.063 12.5516L29.0253 20.8464L21.8706 15.2772C21.6522 15.9166 21.4675 16.5559 21.3331 17.1617L27.5473 25.8098L21.1316 20.8127C21.6522 26.0622 25.6662 29.7805 28.7229 31.8668C25.3639 30.2853 20.1407 28.6701 15.3541 30.8573L22.8951 33.9027L12.2974 32.8932C11.8271 33.3138 11.3736 33.7849 10.937 34.3065L19.3513 37.6884L9.19028 36.7125C8.73681 37.3855 8.28334 37.9744 7.82987 38.496L14.6655 41.2553L5.84806 40.3972C2.87534 42.7191 0.473633 42.4667 0.473633 42.4667C0.473633 42.4667 14.6151 50.1894 23.8692 42.8032C25.5823 41.4404 27.0434 40.0439 28.2527 38.782C31.1582 35.7535 33.2912 32.0183 34.4501 27.9802C34.9035 26.2977 35.3738 24.3292 35.6929 22.1587Z" fill="#F45905"/>
<path d="M49.045 17.414C43.4354 15.883 40.2444 14.6715 40.2444 12.2319C40.2444 9.91002 42.9988 8.37893 47.2815 8.36211C49.4649 8.36211 51.6482 8.76591 53.6804 9.53987C56.8379 10.7345 60.3817 9.6913 62.3467 6.9488L63.5559 5.26628C62.3635 4.4082 61.1374 3.65106 59.8946 3.01171C56.1661 1.11046 52.1353 0.201904 47.6006 0.201904C40.3619 0.201904 35.0211 2.59108 32.5018 6.71324C35.8944 10.6167 38.9175 16.0344 37.977 22.4784C37.9434 22.6635 37.9098 22.8318 37.8762 23.0168C40.681 24.4638 43.9225 25.3892 46.8616 26.2136C51.8162 27.6437 55.0072 28.2999 55.0072 30.9415C55.0072 33.583 52.2528 35.1309 47.5334 35.1309C43.1163 35.1309 39.0351 33.7008 35.7937 31.1434C34.7356 33.8522 33.2408 36.3928 31.4102 38.6642C35.6761 41.575 41.336 43.1902 47.3319 43.1734C58.2151 43.1734 64.5972 38.4287 64.5972 30.2685C64.5468 21.6876 55.9646 19.2816 49.045 17.414Z" fill="#2A1A5E"/>
</svg>

