<svg width="331" height="49" viewBox="0 0 331 49" fill="none" xmlns="http://www.w3.org/2000/svg">
<path d="M39.6645 10.1326C43.0723 7.40368 58.6752 1.99744 83.65 2.14394C108.625 2.29045 119.214 10.5992 136.789 10.7023" stroke="#B3BCF3"/>
<path d="M39.5862 23.4185C44.187 27.5688 58.96 32.2369 83.264 32.3795C107.568 32.5221 119.227 22.5112 136.718 22.6138" stroke="#B3BCF3"/>
<path d="M146.637 3.22066C146.288 3.6563 145.926 4.23651 145.626 4.99523L140.916 7.32353L141.223 8.26434L145.023 7.60246C145.009 7.7479 144.998 7.89694 144.988 8.0498L139.625 10.7093L139.934 11.6497L144.721 10.8086C144.704 10.8811 144.687 10.9527 144.668 11.0235L139.003 13.8384L139.311 14.7788L142.922 14.1504C141.195 15.8877 138.69 16.5237 136.783 16.746L136.82 17.7422C138.728 17.8239 141.271 18.2934 143.117 19.9145L139.475 19.5285L139.232 20.4879L145.077 22.9016C145.099 22.9706 145.121 23.0409 145.142 23.1122L140.315 22.6019L140.072 23.5613L145.609 25.8468C145.629 25.9999 145.651 26.1498 145.676 26.2961L141.848 25.8904L141.605 26.85L146.475 28.8529C146.829 29.5919 147.233 30.1476 147.613 30.5593C146.66 30.4671 145.37 30.2772 143.995 29.8874C141.208 29.0971 138.179 27.5175 136.811 24.3794C136.284 23.1677 135.897 22.0081 135.591 20.993C134.908 18.5849 134.813 16.0243 135.33 13.5802L135.33 13.5799C135.549 12.5442 135.853 11.3625 136.297 10.12L136.297 10.1192C137.441 6.8966 140.351 5.11508 143.075 4.1372C144.42 3.65463 145.694 3.37733 146.637 3.22066Z" fill="#B3BCF3" stroke="#B3BCF3"/>
<path fill-rule="evenodd" clip-rule="evenodd" d="M42.321 25.8863C40.3483 23.7367 36.7058 14.6746 41.5069 8.47194C38.5973 9.82931 31.5756 14.4892 30.4632 16.6818C31.366 18.9778 39.5804 24.4958 42.321 25.8863ZM35.4969 17.6276C36.256 17.6321 36.8749 17.0203 36.8794 16.2613C36.8839 15.5022 36.2721 14.8833 35.5131 14.8788C34.754 14.8744 34.1351 15.4861 34.1306 16.2452C34.1262 17.0042 34.7379 17.6232 35.4969 17.6276Z" fill="#B3BCF3"/>
<path d="M41.5069 8.47194L41.9023 8.77799L41.2955 8.01882L41.5069 8.47194ZM42.321 25.8863L42.0948 26.3322L42.6894 25.5483L42.321 25.8863ZM30.4632 16.6818L30.0173 16.4555L29.9157 16.6558L29.9979 16.8647L30.4632 16.6818ZM41.1115 8.16589C38.5949 11.4171 38.3103 15.3933 38.8807 18.782C39.1666 20.4802 39.6692 22.0474 40.228 23.3304C40.783 24.6047 41.407 25.6299 41.9526 26.2244L42.6894 25.5483C42.2487 25.068 41.6776 24.1543 41.1448 22.9311C40.6158 21.7165 40.1381 20.2274 39.8668 18.616C39.3231 15.3856 39.6177 11.7295 41.9023 8.77799L41.1115 8.16589ZM30.9091 16.908C31.1407 16.4514 31.7234 15.8028 32.5815 15.0382C33.4236 14.2879 34.4809 13.469 35.6012 12.6709C37.8468 11.0711 40.3019 9.5858 41.7183 8.92506L41.2955 8.01882C39.8022 8.71546 37.2917 10.2387 35.021 11.8564C33.8831 12.6671 32.7945 13.509 31.9163 14.2915C31.0541 15.0598 30.3418 15.8159 30.0173 16.4555L30.9091 16.908ZM42.5473 25.4404C41.2109 24.7624 38.4966 23.0527 35.9986 21.2204C34.7519 20.306 33.5707 19.3695 32.6494 18.5246C32.1886 18.102 31.7992 17.7081 31.501 17.3562C31.1973 16.9979 31.0115 16.71 30.9285 16.4988L29.9979 16.8647C30.1405 17.2276 30.409 17.6144 30.738 18.0027C31.0725 18.3974 31.4944 18.8222 31.9735 19.2616C32.932 20.1405 34.145 21.101 35.4072 22.0268C37.9273 23.8752 40.6905 25.6197 42.0948 26.3322L42.5473 25.4404ZM36.3794 16.2583C36.3766 16.7413 35.9828 17.1305 35.4999 17.1276L35.494 18.1276C36.5292 18.1337 37.3733 17.2994 37.3794 16.2642L36.3794 16.2583ZM35.5101 15.3788C35.9931 15.3816 36.3822 15.7754 36.3794 16.2583L37.3794 16.2642C37.3855 15.229 36.5512 14.3849 35.516 14.3788L35.5101 15.3788ZM34.6306 16.2481C34.6334 15.7652 35.0272 15.376 35.5101 15.3788L35.516 14.3788C34.4808 14.3728 33.6367 15.207 33.6306 16.2422L34.6306 16.2481ZM35.4999 17.1276C35.017 17.1248 34.6278 16.731 34.6306 16.2481L33.6306 16.2422C33.6245 17.2774 34.4588 18.1215 35.494 18.1276L35.4999 17.1276Z" fill="#B3BCF3"/>
<path d="M283.003 5.96649C284.337 4.89825 290.444 2.78195 300.221 2.8393C309.997 2.89665 314.143 6.14917 321.022 6.18952" stroke="#B3BCF3" stroke-width="0.5"/>
<path d="M282.973 11.1673C284.774 12.7919 290.557 14.6193 300.071 14.6751C309.585 14.7309 314.149 10.8121 320.996 10.8523" stroke="#B3BCF3" stroke-width="0.5"/>
<path d="M324.261 3.7011C324.256 3.71172 324.252 3.72243 324.247 3.73323L322.505 4.59409L322.808 5.5191L322 5.91966L322.309 6.86006L322.34 6.85456L321.756 7.14466L322.043 8.02089C321.686 8.14367 321.32 8.21435 320.987 8.25311L321.024 9.24929C321.356 9.26353 321.727 9.30873 322.092 9.40765L321.865 10.3013L322.461 10.5476L322.437 10.5451L322.194 11.5045L323.033 11.8507L322.794 12.792L324.595 13.5327C324.601 13.5436 324.607 13.5544 324.612 13.5651C324.397 13.5257 324.166 13.4742 323.929 13.4069C322.872 13.1071 321.794 12.5265 321.312 11.4222C321.113 10.9637 320.966 10.5228 320.848 10.1324C320.594 9.23731 320.56 8.28597 320.752 7.37908L320.752 7.37879C320.835 6.98328 320.951 6.53435 321.119 6.06378L321.119 6.06302C321.521 4.92916 322.555 4.27683 323.588 3.90593C323.821 3.82241 324.049 3.75515 324.261 3.7011Z" fill="#B3BCF3" stroke="#B3BCF3"/>
<path fill-rule="evenodd" clip-rule="evenodd" d="M284.043 12.1333C283.271 11.2918 281.845 7.74442 283.724 5.31636C282.585 5.84771 279.836 7.67184 279.401 8.53014C279.754 9.42893 282.97 11.589 284.043 12.1333ZM281.372 8.90035C281.669 8.9021 281.911 8.66263 281.913 8.36549C281.914 8.06836 281.675 7.82607 281.378 7.82432C281.081 7.82258 280.838 8.06204 280.837 8.35918C280.835 8.65632 281.074 8.89861 281.372 8.90035Z" fill="#B3BCF3"/>
<path d="M283.724 5.31636L284.119 5.62241L283.513 4.86324L283.724 5.31636ZM284.043 12.1333L283.817 12.5792L284.411 11.7952L284.043 12.1333ZM279.401 8.53014L278.955 8.30391L278.853 8.50415L278.936 8.71311L279.401 8.53014ZM283.329 5.01031C282.273 6.3742 282.165 8.02812 282.396 9.4028C282.512 10.094 282.717 10.7312 282.944 11.2543C283.168 11.7686 283.429 12.2039 283.674 12.4714L284.411 11.7952C284.271 11.642 284.063 11.3183 283.861 10.855C283.663 10.4003 283.484 9.84119 283.382 9.23681C283.177 8.02039 283.296 6.68658 284.119 5.62241L283.329 5.01031ZM279.847 8.75636C279.909 8.63331 280.098 8.41211 280.433 8.11393C280.751 7.83003 281.156 7.51646 281.589 7.20787C282.46 6.5871 283.404 6.0172 283.935 5.76947L283.513 4.86324C282.905 5.14686 281.905 5.75471 281.009 6.39341C280.558 6.71456 280.122 7.05117 279.767 7.36729C279.429 7.66913 279.11 7.99781 278.955 8.30391L279.847 8.75636ZM284.269 11.6874C283.767 11.4325 282.719 10.7738 281.748 10.0615C281.264 9.70695 280.812 9.34764 280.462 9.02726C280.288 8.86694 280.145 8.72219 280.039 8.59744C279.928 8.4663 279.881 8.38368 279.866 8.34717L278.936 8.71311C279.01 8.90129 279.14 9.08278 279.276 9.24394C279.418 9.41148 279.593 9.58719 279.786 9.76427C280.173 10.1187 280.658 10.5019 281.156 10.8678C282.15 11.5963 283.246 12.2898 283.817 12.5792L284.269 11.6874ZM281.413 8.36256C281.413 8.38356 281.395 8.40048 281.374 8.40036L281.369 9.40034C281.942 9.40371 282.409 8.9417 282.413 8.36843L281.413 8.36256ZM281.375 8.32431C281.396 8.32444 281.413 8.34156 281.413 8.36256L282.413 8.36843C282.416 7.79515 281.954 7.32769 281.381 7.32433L281.375 8.32431ZM281.337 8.36211C281.337 8.34111 281.354 8.32419 281.375 8.32431L281.381 7.32433C280.808 7.32097 280.34 7.78297 280.337 8.35625L281.337 8.36211ZM281.374 8.40036C281.353 8.40024 281.337 8.38311 281.337 8.36211L280.337 8.35625C280.333 8.92952 280.795 9.39698 281.369 9.40034L281.374 8.40036Z" fill="#B3BCF3"/>
<path d="M5.00255 38.9665C6.33653 37.8983 12.4444 35.7819 22.2209 35.8393C31.9974 35.8967 36.1425 39.1492 43.0223 39.1895" stroke="#B3BCF3" stroke-width="0.5"/>
<path d="M4.97311 44.1673C6.77411 45.7919 12.5571 47.6193 22.071 47.6751C31.5849 47.7309 36.1488 43.8121 42.996 43.8523" stroke="#B3BCF3" stroke-width="0.5"/>
<path d="M46.2612 36.7011C46.2564 36.7117 46.2517 36.7224 46.2469 36.7332L44.5055 37.5941L44.8077 38.5191L43.9999 38.9197L44.3086 39.8601L44.3399 39.8546L43.756 40.1447L44.0432 41.0209C43.6861 41.1437 43.3198 41.2144 42.9874 41.2531L43.0239 42.2493C43.3565 42.2635 43.7265 42.3087 44.0918 42.4076L43.8649 43.3013L44.4614 43.5476L44.437 43.5451L44.1937 44.5045L45.0326 44.8507L44.7944 45.792L46.5953 46.5327C46.601 46.5436 46.6067 46.5544 46.6124 46.5651C46.3971 46.5257 46.1661 46.4742 45.9288 46.4069C44.8717 46.1071 43.794 45.5265 43.3124 44.4222C43.113 43.9637 42.9657 43.5228 42.8479 43.1324C42.5944 42.2373 42.5596 41.286 42.7515 40.3791L42.7516 40.3788C42.835 39.9833 42.9508 39.5343 43.1187 39.0638L43.1189 39.063C43.5214 37.9292 44.5551 37.2768 45.5884 36.9059C45.8211 36.8224 46.0486 36.7551 46.2612 36.7011Z" fill="#B3BCF3" stroke="#B3BCF3"/>
<path fill-rule="evenodd" clip-rule="evenodd" d="M6.04274 45.1333C5.27052 44.2918 3.84461 40.7444 5.72404 38.3164C4.58506 38.8477 1.83638 40.6718 1.40092 41.5301C1.75434 42.4289 4.9699 44.589 6.04274 45.1333ZM3.37155 41.9004C3.66868 41.9021 3.91097 41.6626 3.91272 41.3655C3.91446 41.0684 3.675 40.8261 3.37786 40.8243C3.08072 40.8226 2.83843 41.062 2.83669 41.3592C2.83494 41.6563 3.07441 41.8986 3.37155 41.9004Z" fill="#B3BCF3"/>
<path d="M5.72404 38.3164L6.11943 38.6224L5.51265 37.8632L5.72404 38.3164ZM6.04274 45.1333L5.81651 45.5792L6.41113 44.7952L6.04274 45.1333ZM1.40092 41.5301L0.955027 41.3039L0.853436 41.5041L0.935601 41.7131L1.40092 41.5301ZM5.32865 38.0103C4.27294 39.3742 4.16456 41.0281 4.39596 42.4028C4.5123 43.094 4.71666 43.7312 4.94446 44.2543C5.16848 44.7686 5.42886 45.2039 5.67435 45.4714L6.41113 44.7952C6.2705 44.642 6.06307 44.3183 5.86128 43.855C5.66326 43.4003 5.48382 42.8412 5.38208 42.2368C5.17733 41.0204 5.29572 39.6866 6.11943 38.6224L5.32865 38.0103ZM1.84682 41.7564C1.90925 41.6333 2.09789 41.4121 2.43257 41.1139C2.75121 40.83 3.1556 40.5165 3.58877 40.2079C4.46016 39.5871 5.40441 39.0172 5.93543 38.7695L5.51265 37.8632C4.9047 38.1469 3.90511 38.7547 3.00855 39.3934C2.55775 39.7146 2.12214 40.0512 1.76733 40.3673C1.42856 40.6691 1.11033 40.9978 0.955027 41.3039L1.84682 41.7564ZM6.26897 44.6874C5.76651 44.4325 4.71891 43.7738 3.74777 43.0615C3.26442 42.7069 2.81173 42.3476 2.46237 42.0273C2.28755 41.8669 2.14501 41.7222 2.0393 41.5974C1.92817 41.4663 1.8806 41.3837 1.86624 41.3472L0.935601 41.7131C1.0096 41.9013 1.13982 42.0828 1.27638 42.2439C1.41836 42.4115 1.5934 42.5872 1.78649 42.7643C2.17298 43.1187 2.6575 43.5019 3.15633 43.8678C4.14953 44.5963 5.24613 45.2898 5.81651 45.5792L6.26897 44.6874ZM3.41273 41.3626C3.4126 41.3836 3.39548 41.4005 3.37448 41.4004L3.36861 42.4003C3.94189 42.4037 4.40935 41.9417 4.41271 41.3684L3.41273 41.3626ZM3.37493 41.3243C3.39593 41.3244 3.41285 41.3416 3.41273 41.3626L4.41271 41.3684C4.41607 40.7952 3.95407 40.3277 3.38079 40.3243L3.37493 41.3243ZM3.33668 41.3621C3.3368 41.3411 3.35393 41.3242 3.37493 41.3243L3.38079 40.3243C2.80752 40.321 2.34006 40.783 2.3367 41.3562L3.33668 41.3621ZM3.37448 41.4004C3.35348 41.4002 3.33656 41.3831 3.33668 41.3621L2.3367 41.3562C2.33333 41.9295 2.79534 42.397 3.36861 42.4003L3.37448 41.4004Z" fill="#B3BCF3"/>
</svg>
