<svg width="200" height="41" viewBox="0 0 200 41" fill="none" xmlns="http://www.w3.org/2000/svg">
<path d="M151.644 15.9665C152.978 14.8982 159.086 12.7819 168.862 12.8393C178.639 12.8966 182.784 16.1492 189.664 16.1895" stroke="#B3BCF3" stroke-width="0.5"/>
<path d="M151.615 21.1673C153.416 22.792 159.199 24.6193 168.713 24.6751C178.227 24.7309 182.79 20.8121 189.638 20.8523" stroke="#B3BCF3" stroke-width="0.5"/>
<path d="M192.901 13.7011C192.896 13.7117 192.891 13.7224 192.887 13.7332L191.145 14.5941L191.447 15.5191L190.64 15.9196L190.948 16.86L190.98 16.8545L190.396 17.1446L190.683 18.0209C190.326 18.1437 189.959 18.2143 189.627 18.2531L189.664 19.2493C189.996 19.2635 190.366 19.3087 190.731 19.4076L190.505 20.3013L191.101 20.5476L191.077 20.5451L190.833 21.5045L191.672 21.8507L191.434 22.792L193.235 23.5327C193.241 23.5436 193.246 23.5544 193.252 23.5651C193.037 23.5257 192.806 23.4741 192.568 23.4069C191.511 23.1071 190.434 22.5265 189.952 21.4221C189.753 20.9636 189.605 20.5228 189.488 20.1324C189.234 19.2373 189.199 18.286 189.391 17.3791L189.391 17.3788C189.475 16.9833 189.59 16.5343 189.758 16.0638L189.759 16.063C190.161 14.9291 191.195 14.2768 192.228 13.9059C192.461 13.8224 192.688 13.7551 192.901 13.7011Z" fill="#B3BCF3" stroke="#B3BCF3"/>
<path fill-rule="evenodd" clip-rule="evenodd" d="M152.684 22.1333C151.912 21.2919 150.486 17.7444 152.366 15.3164C151.227 15.8477 148.478 17.6719 148.043 18.5302C148.396 19.429 151.612 21.589 152.684 22.1333ZM150.013 18.9004C150.31 18.9021 150.553 18.6627 150.554 18.3655C150.556 18.0684 150.317 17.8261 150.019 17.8244C149.722 17.8226 149.48 18.0621 149.478 18.3592C149.477 18.6564 149.716 18.8987 150.013 18.9004Z" fill="#B3BCF3"/>
<path d="M152.366 15.3164L152.761 15.6224L152.154 14.8633L152.366 15.3164ZM152.684 22.1333L152.458 22.5792L153.053 21.7953L152.684 22.1333ZM148.043 18.5302L147.597 18.3039L147.495 18.5042L147.577 18.7131L148.043 18.5302ZM151.97 15.0103C150.915 16.3742 150.806 18.0281 151.038 19.4028C151.154 20.094 151.358 20.7313 151.586 21.2543C151.81 21.7686 152.07 22.2039 152.316 22.4714L153.053 21.7953C152.912 21.642 152.705 21.3183 152.503 20.855C152.305 20.4003 152.125 19.8412 152.024 19.2368C151.819 18.0204 151.937 16.6866 152.761 15.6224L151.97 15.0103ZM148.488 18.7564C148.551 18.6333 148.739 18.4121 149.074 18.114C149.393 17.8301 149.797 17.5165 150.23 17.2079C151.102 16.5871 152.046 16.0172 152.577 15.7695L152.154 14.8633C151.546 15.1469 150.547 15.7547 149.65 16.3934C149.199 16.7146 148.764 17.0512 148.409 17.3673C148.07 17.6692 147.752 17.9978 147.597 18.3039L148.488 18.7564ZM152.911 21.6875C152.408 21.4325 151.361 20.7738 150.389 20.0615C149.906 19.707 149.453 19.3477 149.104 19.0273C148.929 18.867 148.787 18.7222 148.681 18.5975C148.57 18.4663 148.522 18.3837 148.508 18.3472L147.577 18.7131C147.651 18.9013 147.781 19.0828 147.918 19.244C148.06 19.4115 148.235 19.5872 148.428 19.7643C148.815 20.1187 149.299 20.502 149.798 20.8679C150.791 21.5963 151.888 22.2898 152.458 22.5792L152.911 21.6875ZM150.054 18.3626C150.054 18.3836 150.037 18.4005 150.016 18.4004L150.01 19.4004C150.583 19.4038 151.051 18.9418 151.054 18.3685L150.054 18.3626ZM150.017 18.3244C150.038 18.3245 150.054 18.3416 150.054 18.3626L151.054 18.3685C151.058 17.7952 150.596 17.3277 150.022 17.3244L150.017 18.3244ZM149.978 18.3622C149.978 18.3412 149.996 18.3242 150.017 18.3244L150.022 17.3244C149.449 17.321 148.982 17.783 148.978 18.3563L149.978 18.3622ZM150.016 18.4004C149.995 18.4003 149.978 18.3832 149.978 18.3622L148.978 18.3563C148.975 18.9296 149.437 19.397 150.01 19.4004L150.016 18.4004Z" fill="#B3BCF3"/>
<path d="M11.5016 12.2228C15.3469 9.14346 32.9535 3.04296 61.1355 3.20829C89.3174 3.37361 101.266 12.7494 121.098 12.8657" stroke="#B3BCF3"/>
<path d="M11.4126 27.2148C16.6042 31.8981 33.2743 37.1657 60.6993 37.3266C88.1244 37.4875 101.28 26.1911 121.018 26.3068" stroke="#B3BCF3"/>
<path d="M132.368 4.33263C131.942 4.83609 131.488 5.53224 131.12 6.47235L125.783 9.11062L126.09 10.0514L130.461 9.29004C130.441 9.49149 130.424 9.69916 130.412 9.91356L124.327 12.9312L124.635 13.8716L130.131 12.9058C130.104 13.0303 130.075 13.1526 130.043 13.2727L123.624 16.4621L123.932 17.4025L128.202 16.6595C126.234 18.7438 123.305 19.4921 121.099 19.7493L121.135 20.7455C123.343 20.8401 126.317 21.394 128.428 23.3457L124.122 22.8892L123.878 23.8486L130.502 26.5836C130.54 26.7005 130.577 26.8206 130.612 26.9431L125.069 26.3573L124.826 27.3167L131.109 29.91C131.136 30.124 131.167 30.3327 131.203 30.5348L126.799 30.0681L126.556 31.0277L132.074 33.2972C132.51 34.2129 133.014 34.8782 133.475 35.3525C133.427 35.3482 133.378 35.3437 133.329 35.3389C132.249 35.2355 130.779 35.0207 129.212 34.5763C126.06 33.6825 122.618 31.8921 121.063 28.3248C120.467 26.9542 120.03 25.6428 119.684 24.4959C118.91 21.7686 118.803 18.8684 119.389 16.0999L119.389 16.0996C119.636 14.9288 119.98 13.5924 120.481 12.187L120.482 12.1863C121.782 8.5229 125.088 6.50309 128.169 5.39712C129.701 4.84722 131.152 4.53294 132.221 4.35637C132.271 4.34816 132.32 4.34025 132.368 4.33263Z" fill="#B3BCF3" stroke="#B3BCF3"/>
<path fill-rule="evenodd" clip-rule="evenodd" d="M14.4992 29.9996C12.2731 27.5739 8.16281 17.348 13.5805 10.3489C10.2972 11.8806 2.37384 17.1388 1.11857 19.613C2.13733 22.2039 11.4066 28.4305 14.4992 29.9996ZM6.79783 20.6803C7.65437 20.6853 8.3528 19.995 8.35782 19.1385C8.36285 18.2819 7.67256 17.5835 6.81603 17.5785C5.9595 17.5735 5.26106 18.2637 5.25604 19.1203C5.25101 19.9768 5.9413 20.6752 6.79783 20.6803Z" fill="#B3BCF3"/>
<path d="M13.5805 10.3489L13.9759 10.6549L13.3691 9.89575L13.5805 10.3489ZM14.4992 29.9996L14.2729 30.4455L14.8676 29.6615L14.4992 29.9996ZM1.11857 19.613L0.672673 19.3867L0.571083 19.587L0.653248 19.7959L1.11857 19.613ZM13.1851 10.0428C10.3603 13.6923 10.0384 18.1586 10.6804 21.9723C11.002 23.883 11.5676 25.6464 12.1962 27.0897C12.8211 28.5244 13.5218 29.6741 14.1308 30.3376L14.8676 29.6615C14.3635 29.1122 13.7157 28.0741 13.1131 26.6904C12.5142 25.3155 11.9735 23.6302 11.6665 21.8063C11.0512 18.1509 11.383 14.0046 13.9759 10.6549L13.1851 10.0428ZM1.56446 19.8392C1.83185 19.3122 2.49763 18.5734 3.46622 17.7104C4.41878 16.8617 5.61388 15.9361 6.87914 15.0347C9.41472 13.2284 12.1887 11.5499 13.7919 10.802L13.3691 9.89575C11.689 10.6795 8.85968 12.396 6.29893 14.2203C5.01603 15.1342 3.78971 16.0828 2.80099 16.9638C1.8283 17.8304 1.03292 18.6767 0.672673 19.3867L1.56446 19.8392ZM14.7254 29.5537C13.2131 28.7864 10.1471 26.8548 7.3269 24.7863C5.91902 23.7536 4.58414 22.6953 3.54212 21.7398C3.02097 21.2618 2.57949 20.8154 2.24063 20.4155C1.89635 20.0093 1.68141 19.678 1.58389 19.43L0.653248 19.7959C0.810412 20.1956 1.108 20.6257 1.47771 21.062C1.85284 21.5047 2.32682 21.9821 2.86624 22.4768C3.94538 23.4664 5.31211 24.5486 6.73546 25.5926C9.57772 27.6774 12.6927 29.6437 14.2729 30.4455L14.7254 29.5537ZM7.85783 19.1355C7.85443 19.7159 7.38116 20.1837 6.80077 20.1803L6.7949 21.1803C7.92757 21.1869 8.85117 20.2741 8.85781 19.1414L7.85783 19.1355ZM6.8131 18.0785C7.39349 18.0819 7.86124 18.5551 7.85783 19.1355L8.85781 19.1414C8.86446 18.0087 7.95163 17.0851 6.81896 17.0785L6.8131 18.0785ZM5.75603 19.1232C5.75943 18.5428 6.2327 18.0751 6.8131 18.0785L6.81896 17.0785C5.68629 17.0719 4.76269 17.9847 4.75605 19.1173L5.75603 19.1232ZM6.80077 20.1803C6.22037 20.1769 5.75263 19.7036 5.75603 19.1232L4.75605 19.1173C4.7494 20.25 5.66223 21.1736 6.7949 21.1803L6.80077 20.1803Z" fill="#B3BCF3"/>
</svg>
