<svg width="213" height="49" viewBox="0 0 213 49" fill="none" xmlns="http://www.w3.org/2000/svg">
<path d="M39.3056 10.1326C42.7134 7.40368 58.3163 1.99744 83.2911 2.14394C108.266 2.29045 118.855 10.5992 136.43 10.7023" stroke="#B3BCF3"/>
<path d="M39.2273 23.4185C43.8281 27.5688 58.6011 32.2369 82.9051 32.3795C107.209 32.5221 118.868 22.5112 136.359 22.6138" stroke="#B3BCF3"/>
<path d="M146.278 3.22066C145.929 3.6563 145.567 4.23651 145.267 4.99523L140.557 7.32353L140.864 8.26434L144.664 7.60246C144.65 7.7479 144.639 7.89694 144.629 8.0498L139.266 10.7093L139.575 11.6497L144.362 10.8086C144.345 10.8811 144.328 10.9527 144.309 11.0235L138.644 13.8384L138.952 14.7788L142.563 14.1504C140.836 15.8877 138.331 16.5237 136.424 16.746L136.461 17.7422C138.369 17.8239 140.912 18.2934 142.758 19.9145L139.117 19.5285L138.873 20.4879L144.718 22.9016C144.74 22.9706 144.762 23.0409 144.783 23.1122L139.956 22.6019L139.713 23.5613L145.25 25.8468C145.27 25.9999 145.292 26.1498 145.317 26.2961L141.489 25.8904L141.246 26.85L146.116 28.8529C146.47 29.5919 146.874 30.1476 147.254 30.5593C146.302 30.4671 145.011 30.2772 143.637 29.8874C140.849 29.0971 137.82 27.5175 136.452 24.3794C135.925 23.1677 135.538 22.0081 135.232 20.993C134.549 18.5849 134.454 16.0243 134.972 13.5802L134.972 13.5799C135.19 12.5442 135.495 11.3625 135.938 10.12L135.938 10.1192C137.082 6.8966 139.992 5.11508 142.716 4.1372C144.061 3.65463 145.335 3.37733 146.278 3.22066Z" fill="#B3BCF3" stroke="#B3BCF3"/>
<path fill-rule="evenodd" clip-rule="evenodd" d="M41.9621 25.8863C39.9894 23.7367 36.3469 14.6746 41.148 8.47194C38.2384 9.82931 31.2167 14.4892 30.1043 16.6818C31.0071 18.9778 39.2215 24.4958 41.9621 25.8863ZM35.1381 17.6276C35.8971 17.6321 36.5161 17.0203 36.5205 16.2613C36.525 15.5022 35.9132 14.8833 35.1542 14.8788C34.3951 14.8744 33.7762 15.4861 33.7717 16.2452C33.7673 17.0042 34.379 17.6232 35.1381 17.6276Z" fill="#B3BCF3"/>
<path d="M41.148 8.47194L41.5434 8.77799L40.9366 8.01882L41.148 8.47194ZM41.9621 25.8863L41.7359 26.3322L42.3305 25.5483L41.9621 25.8863ZM30.1043 16.6818L29.6584 16.4555L29.5568 16.6558L29.639 16.8647L30.1043 16.6818ZM40.7526 8.16589C38.2361 11.4171 37.9514 15.3933 38.5218 18.782C38.8077 20.4802 39.3104 22.0474 39.8691 23.3304C40.4241 24.6047 41.0481 25.6299 41.5938 26.2244L42.3305 25.5483C41.8898 25.068 41.3187 24.1543 40.786 22.9311C40.257 21.7165 39.7792 20.2274 39.508 18.616C38.9642 15.3856 39.2588 11.7295 41.5434 8.77799L40.7526 8.16589ZM30.5502 16.908C30.7819 16.4514 31.3645 15.8028 32.2226 15.0382C33.0647 14.2879 34.122 13.469 35.2423 12.6709C37.4879 11.0711 39.9431 9.5858 41.3594 8.92506L40.9366 8.01882C39.4434 8.71546 36.9329 10.2387 34.6621 11.8564C33.5242 12.6671 32.4357 13.509 31.5574 14.2915C30.6952 15.0598 29.9829 15.8159 29.6584 16.4555L30.5502 16.908ZM42.1884 25.4404C40.852 24.7624 38.1378 23.0527 35.6398 21.2204C34.393 20.306 33.2118 19.3695 32.2905 18.5246C31.8297 18.102 31.4403 17.7081 31.1421 17.3562C30.8384 16.9979 30.6526 16.71 30.5696 16.4988L29.639 16.8647C29.7816 17.2276 30.0501 17.6144 30.3792 18.0027C30.7137 18.3974 31.1355 18.8222 31.6146 19.2616C32.5731 20.1405 33.7861 21.101 35.0483 22.0268C37.5684 23.8752 40.3316 25.6197 41.7359 26.3322L42.1884 25.4404ZM36.0205 16.2583C36.0177 16.7413 35.6239 17.1305 35.141 17.1276L35.1351 18.1276C36.1703 18.1337 37.0144 17.2994 37.0205 16.2642L36.0205 16.2583ZM35.1512 15.3788C35.6342 15.3816 36.0234 15.7754 36.0205 16.2583L37.0205 16.2642C37.0266 15.229 36.1923 14.3849 35.1571 14.3788L35.1512 15.3788ZM34.2717 16.2481C34.2745 15.7652 34.6683 15.376 35.1512 15.3788L35.1571 14.3788C34.1219 14.3728 33.2778 15.207 33.2717 16.2422L34.2717 16.2481ZM35.141 17.1276C34.6581 17.1248 34.2689 16.731 34.2717 16.2481L33.2717 16.2422C33.2657 17.2774 34.0999 18.1215 35.1351 18.1276L35.141 17.1276Z" fill="#B3BCF3"/>
<path d="M165.003 5.96649C166.337 4.89825 172.445 2.78195 182.221 2.8393C191.998 2.89665 196.143 6.14917 203.023 6.18952" stroke="#B3BCF3" stroke-width="0.5"/>
<path d="M164.974 11.1673C166.775 12.7919 172.558 14.6193 182.071 14.6751C191.585 14.7309 196.149 10.8121 202.996 10.8523" stroke="#B3BCF3" stroke-width="0.5"/>
<path d="M206.262 3.7011C206.257 3.71172 206.252 3.72243 206.247 3.73323L204.506 4.59409L204.808 5.5191L204 5.91966L204.309 6.86006L204.34 6.85456L203.757 7.14466L204.044 8.02089C203.687 8.14367 203.32 8.21435 202.988 8.25311L203.024 9.24929C203.357 9.26353 203.727 9.30873 204.092 9.40765L203.865 10.3013L204.462 10.5476L204.438 10.5451L204.194 11.5045L205.033 11.8507L204.795 12.792L206.596 13.5327C206.601 13.5436 206.607 13.5544 206.613 13.5651C206.398 13.5257 206.167 13.4742 205.929 13.4069C204.872 13.1071 203.794 12.5265 203.313 11.4222C203.114 10.9637 202.966 10.5228 202.848 10.1324C202.595 9.23731 202.56 8.28597 202.752 7.37908L202.752 7.37879C202.836 6.98328 202.951 6.53435 203.119 6.06378L203.119 6.06302C203.522 4.92916 204.556 4.27683 205.589 3.90593C205.822 3.82241 206.049 3.75515 206.262 3.7011Z" fill="#B3BCF3" stroke="#B3BCF3"/>
<path fill-rule="evenodd" clip-rule="evenodd" d="M166.043 12.1333C165.271 11.2918 163.845 7.74442 165.725 5.31636C164.586 5.84771 161.837 7.67184 161.401 8.53014C161.755 9.42893 164.97 11.589 166.043 12.1333ZM163.372 8.90035C163.669 8.9021 163.911 8.66263 163.913 8.36549C163.915 8.06836 163.675 7.82607 163.378 7.82432C163.081 7.82258 162.839 8.06204 162.837 8.35918C162.835 8.65632 163.075 8.89861 163.372 8.90035Z" fill="#B3BCF3"/>
<path d="M165.725 5.31636L166.12 5.62241L165.513 4.86324L165.725 5.31636ZM166.043 12.1333L165.817 12.5792L166.412 11.7952L166.043 12.1333ZM161.401 8.53014L160.956 8.30391L160.854 8.50415L160.936 8.71311L161.401 8.53014ZM165.329 5.01031C164.273 6.3742 164.165 8.02812 164.396 9.4028C164.513 10.094 164.717 10.7312 164.945 11.2543C165.169 11.7686 165.429 12.2039 165.675 12.4714L166.412 11.7952C166.271 11.642 166.064 11.3183 165.862 10.855C165.664 10.4003 165.484 9.84119 165.383 9.23681C165.178 8.02039 165.296 6.68658 166.12 5.62241L165.329 5.01031ZM161.847 8.75636C161.91 8.63331 162.098 8.41211 162.433 8.11393C162.752 7.83003 163.156 7.51646 163.589 7.20787C164.461 6.5871 165.405 6.0172 165.936 5.76947L165.513 4.86324C164.905 5.14686 163.906 5.75471 163.009 6.39341C162.558 6.71456 162.123 7.05117 161.768 7.36729C161.429 7.66913 161.111 7.99781 160.956 8.30391L161.847 8.75636ZM166.269 11.6874C165.767 11.4325 164.719 10.7738 163.748 10.0615C163.265 9.70695 162.812 9.34764 162.463 9.02726C162.288 8.86694 162.145 8.72219 162.04 8.59744C161.929 8.4663 161.881 8.38368 161.867 8.34717L160.936 8.71311C161.01 8.90129 161.14 9.08278 161.277 9.24394C161.419 9.41148 161.594 9.58719 161.787 9.76427C162.173 10.1187 162.658 10.5019 163.157 10.8678C164.15 11.5963 165.247 12.2898 165.817 12.5792L166.269 11.6874ZM163.413 8.36256C163.413 8.38356 163.396 8.40048 163.375 8.40036L163.369 9.40034C163.942 9.40371 164.41 8.9417 164.413 8.36843L163.413 8.36256ZM163.375 8.32431C163.396 8.32444 163.413 8.34156 163.413 8.36256L164.413 8.36843C164.417 7.79515 163.955 7.32769 163.381 7.32433L163.375 8.32431ZM163.337 8.36211C163.337 8.34111 163.354 8.32419 163.375 8.32431L163.381 7.32433C162.808 7.32097 162.341 7.78297 162.337 8.35625L163.337 8.36211ZM163.375 8.40036C163.354 8.40024 163.337 8.38311 163.337 8.36211L162.337 8.35625C162.334 8.92952 162.796 9.39698 163.369 9.40034L163.375 8.40036Z" fill="#B3BCF3"/>
<path d="M4.64415 38.9665C5.97813 37.8983 12.086 35.7819 21.8625 35.8393C31.639 35.8967 35.7841 39.1492 42.6639 39.1895" stroke="#B3BCF3" stroke-width="0.5"/>
<path d="M4.61472 44.1673C6.41571 45.7919 12.1987 47.6193 21.7126 47.6751C31.2265 47.7309 35.7904 43.8121 42.6376 43.8523" stroke="#B3BCF3" stroke-width="0.5"/>
<path d="M45.9028 36.7011C45.898 36.7117 45.8933 36.7224 45.8885 36.7332L44.1471 37.5941L44.4493 38.5191L43.6415 38.9197L43.9502 39.8601L43.9815 39.8546L43.3976 40.1447L43.6848 41.0209C43.3277 41.1437 42.9614 41.2144 42.629 41.2531L42.6655 42.2493C42.9981 42.2635 43.3681 42.3087 43.7334 42.4076L43.5065 43.3013L44.103 43.5476L44.0786 43.5451L43.8353 44.5045L44.6742 44.8507L44.436 45.792L46.2369 46.5327C46.2426 46.5436 46.2483 46.5544 46.254 46.5651C46.0387 46.5257 45.8077 46.4742 45.5704 46.4069C44.5133 46.1071 43.4356 45.5265 42.954 44.4222C42.7546 43.9637 42.6073 43.5228 42.4895 43.1324C42.236 42.2373 42.2012 41.286 42.3931 40.3791L42.3932 40.3788C42.4766 39.9833 42.5924 39.5343 42.7603 39.0638L42.7605 39.063C43.163 37.9292 44.1967 37.2768 45.23 36.9059C45.4627 36.8224 45.6902 36.7551 45.9028 36.7011Z" fill="#B3BCF3" stroke="#B3BCF3"/>
<path fill-rule="evenodd" clip-rule="evenodd" d="M5.68434 45.1333C4.91212 44.2918 3.48622 40.7444 5.36564 38.3164C4.22667 38.8477 1.47798 40.6718 1.04252 41.5301C1.39594 42.4289 4.6115 44.589 5.68434 45.1333ZM3.01315 41.9004C3.31029 41.9021 3.55258 41.6626 3.55432 41.3655C3.55606 41.0684 3.3166 40.8261 3.01946 40.8243C2.72232 40.8226 2.48003 41.062 2.47829 41.3592C2.47655 41.6563 2.71601 41.8986 3.01315 41.9004Z" fill="#B3BCF3"/>
<path d="M5.36564 38.3164L5.76103 38.6224L5.15426 37.8632L5.36564 38.3164ZM5.68434 45.1333L5.45811 45.5792L6.05273 44.7952L5.68434 45.1333ZM1.04252 41.5301L0.596628 41.3039L0.495038 41.5041L0.577203 41.7131L1.04252 41.5301ZM4.97025 38.0103C3.91454 39.3742 3.80616 41.0281 4.03756 42.4028C4.1539 43.094 4.35826 43.7312 4.58606 44.2543C4.81008 44.7686 5.07047 45.2039 5.31595 45.4714L6.05273 44.7952C5.9121 44.642 5.70467 44.3183 5.50288 43.855C5.30486 43.4003 5.12542 42.8412 5.02369 42.2368C4.81893 41.0204 4.93732 39.6866 5.76103 38.6224L4.97025 38.0103ZM1.48842 41.7564C1.55085 41.6333 1.7395 41.4121 2.07417 41.1139C2.39281 40.83 2.7972 40.5165 3.23037 40.2079C4.10176 39.5871 5.04601 39.0172 5.57703 38.7695L5.15426 37.8632C4.5463 38.1469 3.54672 38.7547 2.65016 39.3934C2.19935 39.7146 1.76374 40.0512 1.40893 40.3673C1.07016 40.6691 0.751928 40.9978 0.596628 41.3039L1.48842 41.7564ZM5.91057 44.6874C5.40811 44.4325 4.36051 43.7738 3.38937 43.0615C2.90602 42.7069 2.45333 42.3476 2.10398 42.0273C1.92915 41.8669 1.78661 41.7222 1.6809 41.5974C1.56977 41.4663 1.5222 41.3837 1.50784 41.3472L0.577203 41.7131C0.651199 41.9013 0.781423 42.0828 0.917984 42.2439C1.05996 42.4115 1.235 42.5872 1.4281 42.7643C1.81458 43.1187 2.2991 43.5019 2.79793 43.8678C3.79113 44.5963 4.88773 45.2898 5.45811 45.5792L5.91057 44.6874ZM3.05433 41.3626C3.0542 41.3836 3.03708 41.4005 3.01608 41.4004L3.01021 42.4003C3.58349 42.4037 4.05095 41.9417 4.05431 41.3684L3.05433 41.3626ZM3.01653 41.3243C3.03753 41.3244 3.05445 41.3416 3.05433 41.3626L4.05431 41.3684C4.05767 40.7952 3.59567 40.3277 3.02239 40.3243L3.01653 41.3243ZM2.97828 41.3621C2.9784 41.3411 2.99553 41.3242 3.01653 41.3243L3.02239 40.3243C2.44912 40.321 1.98166 40.783 1.9783 41.3562L2.97828 41.3621ZM3.01608 41.4004C2.99508 41.4002 2.97816 41.3831 2.97828 41.3621L1.9783 41.3562C1.97493 41.9295 2.43694 42.397 3.01021 42.4003L3.01608 41.4004Z" fill="#B3BCF3"/>
</svg>
