<svg width="41" height="41" viewBox="0 0 41 41" fill="none" xmlns="http://www.w3.org/2000/svg">
<path d="M18.4953 40.9006C7.22991 39.7957 -1.00552 29.7606 0.0993719 18.4952C1.20426 7.22991 11.2394 -1.00552 22.5048 0.0993719C33.7701 1.20426 42.0055 11.2394 40.9006 22.5048C39.7957 33.7701 29.7606 42.0055 18.4953 40.9006Z" fill="#37296C"/>
<path d="M21.279 5.92467L16.496 5.45305L11.1952 14.3128L7.78522 4.79053C6.536 5.76746 5.39933 6.86792 4.39771 8.13682L8.5505 19.512L8.16786 23.3411L12.3769 23.7566L12.7596 19.9274L21.279 5.92467Z" fill="#FF671D"/>
<path d="M22.1905 22.3406C23.541 16.8833 17.4075 12.3018 17.4075 12.3018C17.4075 12.3018 17.9927 13.2899 17.5763 15.0304L19.6921 18.6687L17.1486 16.2656C17.0136 16.5688 16.8448 16.8833 16.6422 17.2089L19.0844 21.3974L15.9557 18.4329C15.8206 18.7248 15.7081 19.0168 15.6181 19.2975L18.1615 23.6657L15.348 21.0156C15.348 23.5197 17.0811 25.4511 18.4316 26.5852C16.9123 25.6757 14.5152 24.6763 12.1518 25.496L15.5843 27.2815L10.61 26.3045C10.3736 26.4842 10.1373 26.6863 9.90094 26.9109L13.7274 28.8984L8.95559 27.9664C8.70799 28.2584 8.4604 28.5279 8.22406 28.7525L11.3302 30.3695L7.18868 29.561C5.68062 30.5154 4.54395 30.2909 4.54395 30.2909C4.54395 30.2909 10.8801 34.5916 15.6068 31.5373C16.4846 30.9758 17.2387 30.3807 17.8689 29.8417C19.3882 28.5503 20.5699 26.8884 21.3014 25.0356C21.6278 24.2608 21.9429 23.3512 22.1905 22.3406Z" fill="#FF671D"/>
<path d="M28.7404 20.7241C26.152 19.7359 24.7002 19.0173 24.8127 17.8719C24.914 16.7827 26.2983 16.1763 28.324 16.3784C29.3594 16.4795 30.3723 16.7714 31.3064 17.2318C32.7469 17.9393 34.4801 17.6136 35.538 16.4121L36.1907 15.671C35.6617 15.2106 35.1215 14.7951 34.5588 14.4358C32.882 13.369 31.0138 12.7514 28.8642 12.5381C25.4317 12.2012 22.787 13.0771 21.4027 14.9074C22.8207 16.9062 24.0024 19.6012 23.2596 22.5994C23.2371 22.678 23.2146 22.7678 23.1921 22.8464C24.4526 23.6549 25.9494 24.2501 27.2999 24.7666C29.5845 25.6762 31.0588 26.1253 30.935 27.383C30.8112 28.6294 29.4382 29.2358 27.1986 29.0112C25.1053 28.8091 23.2371 27.9445 21.8191 26.5857C21.1889 27.8209 20.3673 28.9438 19.3882 29.932C21.2789 31.5041 23.8786 32.5259 26.7147 32.8067C31.8803 33.312 35.1215 31.3693 35.4929 27.5177C35.8868 23.464 31.9366 21.9256 28.7404 20.7241Z" fill="#FF671D"/>
</svg>
