<svg width="103" height="24" viewBox="0 0 103 24" fill="none" xmlns="http://www.w3.org/2000/svg">
<path d="M0 1.61596H2.9454C3.5194 1.61596 4.04801 1.71964 4.53139 1.927C5.01476 2.12668 5.43009 2.407 5.77752 2.76796C6.13245 3.12892 6.40816 3.55514 6.6045 4.04668C6.80083 4.53822 6.89904 5.07196 6.89904 5.64796C6.89904 6.22396 6.80083 6.7577 6.6045 7.24924C6.40816 7.74078 6.13245 8.16702 5.77752 8.52796C5.43009 8.8889 5.01476 9.17308 4.53139 9.38044C4.04801 9.5801 3.5194 9.67996 2.9454 9.67996H0V1.61596ZM1.60864 3.11356V8.18236H2.75282C3.13799 8.18236 3.48159 8.12094 3.78371 7.99804C4.09333 7.87514 4.35388 7.70234 4.56537 7.47964C4.78436 7.25694 4.95054 6.99198 5.06383 6.68476C5.18469 6.3699 5.24508 6.0243 5.24508 5.64796C5.24508 5.27162 5.18469 4.9299 5.06383 4.62268C4.95054 4.30782 4.78436 4.03898 4.56537 3.81628C4.35388 3.59358 4.09333 3.42078 3.78371 3.29788C3.48159 3.175 3.13799 3.11356 2.75282 3.11356H1.60864ZM8.33039 1.61596H13.5641V3.11356H9.93903V4.7494H13.111V6.247H9.93903V8.18236H13.5641V9.67996H8.33039V1.61596ZM17.1541 9.67996L14.3106 1.61596H16.0779L18.0377 7.64092L19.9975 1.61596H21.7194L18.876 9.67996H17.1541ZM22.8118 1.61596H28.0456V3.11356H24.4205V4.7494H27.5925V6.247H24.4205V8.18236H28.0456V9.67996H22.8118V1.61596ZM29.4717 1.61596H31.0804V8.18236H34.7055V9.67996H29.4717V1.61596ZM39.8167 9.86428C39.205 9.86428 38.6456 9.7606 38.1401 9.55324C37.6339 9.33818 37.1956 9.04254 36.826 8.6662C36.4557 8.28986 36.169 7.84446 35.965 7.32988C35.7611 6.8153 35.6592 6.2547 35.6592 5.64796C35.6592 5.04122 35.7611 4.48062 35.965 3.96604C36.169 3.45146 36.4557 3.00604 36.826 2.62972C37.1956 2.2534 37.6339 1.96156 38.1401 1.7542C38.6456 1.53916 39.205 1.43164 39.8167 1.43164C40.4207 1.43164 40.9758 1.53916 41.482 1.7542C41.9875 1.96156 42.4223 2.2534 42.7848 2.62972C43.1544 3.00604 43.4418 3.45146 43.6458 3.96604C43.8497 4.48062 43.9516 5.04122 43.9516 5.64796C43.9516 6.2547 43.8497 6.8153 43.6458 7.32988C43.4418 7.84446 43.1544 8.28986 42.7848 8.6662C42.4223 9.04254 41.9875 9.33818 41.482 9.55324C40.9758 9.7606 40.4207 9.86428 39.8167 9.86428ZM39.8394 8.3206C40.2019 8.3206 40.5304 8.2553 40.825 8.12476C41.1266 7.98652 41.3871 7.79838 41.6066 7.56028C41.8254 7.31454 41.9953 7.03036 42.1164 6.7078C42.2368 6.37754 42.2977 6.0166 42.2977 5.62492C42.2977 5.24858 42.2368 4.89916 42.1164 4.5766C41.9953 4.25404 41.8254 3.97374 41.6066 3.73564C41.3871 3.49754 41.1266 3.31322 40.825 3.18268C40.5304 3.04444 40.2019 2.97532 39.8394 2.97532C39.4613 2.97532 39.1179 3.04444 38.8085 3.18268C38.4984 3.31322 38.2307 3.49754 38.0042 3.73564C37.7847 3.97374 37.6148 4.25404 37.4944 4.5766C37.3733 4.89916 37.3131 5.24858 37.3131 5.62492C37.3131 6.0166 37.3733 6.37754 37.4944 6.7078C37.6148 7.03036 37.7847 7.31454 38.0042 7.56028C38.2307 7.79838 38.4984 7.98652 38.8085 8.12476C39.1179 8.2553 39.4613 8.3206 39.8394 8.3206ZM46.9438 5.53276H48.4844C48.8618 5.53276 49.1599 5.41756 49.3794 5.18716C49.6059 4.95676 49.7192 4.66106 49.7192 4.30012C49.7192 3.93918 49.6059 3.64348 49.3794 3.41308C49.1599 3.18268 48.8618 3.06748 48.4844 3.06748H46.9438V5.53276ZM45.3804 9.67996V1.61596H48.5751C48.9829 1.61596 49.3525 1.68124 49.6852 1.8118C50.0251 1.93468 50.3154 2.11516 50.5575 2.35324C50.8068 2.59132 50.9951 2.87548 51.124 3.20572C51.2599 3.52828 51.3279 3.8931 51.3279 4.30012C51.3279 4.70714 51.2599 5.07578 51.124 5.40604C50.9951 5.7363 50.8068 6.02042 50.5575 6.25852C50.3154 6.48892 50.0251 6.66942 49.6852 6.79996C49.3525 6.92286 48.9829 6.98428 48.5751 6.98428H46.9438V9.67996H45.3804ZM52.6158 1.61596H57.8495V3.11356H54.2244V4.7494H57.3957V6.247H54.2244V8.18236H57.8495V9.67996H52.6158V1.61596ZM59.2755 1.61596H62.2209C62.7944 1.61596 63.3233 1.71964 63.8069 1.927C64.2898 2.12668 64.7054 2.407 65.053 2.76796C65.4077 3.12892 65.6832 3.55514 65.88 4.04668C66.0761 4.53822 66.1745 5.07196 66.1745 5.64796C66.1745 6.22396 66.0761 6.7577 65.88 7.24924C65.6832 7.74078 65.4077 8.16702 65.053 8.52796C64.7054 8.8889 64.2898 9.17308 63.8069 9.38044C63.3233 9.5801 62.7944 9.67996 62.2209 9.67996H59.2755V1.61596ZM60.8841 3.11356V8.18236H62.0283C62.4135 8.18236 62.7569 8.12094 63.0592 7.99804C63.3686 7.87514 63.6292 7.70234 63.8409 7.47964C64.0596 7.25694 64.226 6.99198 64.3393 6.68476C64.4597 6.3699 64.5206 6.0243 64.5206 5.64796C64.5206 5.27162 64.4597 4.9299 64.3393 4.62268C64.226 4.30782 64.0596 4.03898 63.8409 3.81628C63.6292 3.59358 63.3686 3.42078 63.0592 3.29788C62.7569 3.175 62.4135 3.11356 62.0283 3.11356H60.8841ZM69.869 9.67996L72.3386 5.52124L70.039 1.61596H71.8515L73.4035 4.35772L74.9555 1.61596H76.7227L74.4231 5.52124L76.8927 9.67996H75.0121L73.3582 6.71932L71.7042 9.67996H69.869Z" fill="white"  />
<path d="M2.9454 14.1843H0V22.2483H2.9454C3.51962 22.2483 4.04781 22.1485 4.53139 21.9488C5.01498 21.7414 5.42988 21.4573 5.77752 21.0963C6.13224 20.7354 6.40838 20.3091 6.6045 19.8176C6.80062 19.3261 6.89904 18.7923 6.89904 18.2163C6.89904 17.6403 6.80062 17.1066 6.6045 16.615C6.40838 16.1235 6.13224 15.6973 5.77752 15.3363C5.42988 14.9754 5.01498 14.695 4.53139 14.4954C4.04781 14.288 3.51962 14.1843 2.9454 14.1843Z" fill="white"  />
<path d="M13.5644 14.1843H8.33067V22.2483H13.5644V20.7507H9.93931V18.8154H13.1106V17.3178H9.93931V15.6819H13.5644V14.1843Z" fill="white"  />
<path d="M14.4013 20.2208C15.0506 21.6954 16.2096 22.4326 17.8792 22.4326C18.3698 22.4326 18.8081 22.3712 19.1933 22.2483C19.5855 22.1331 19.9218 21.9641 20.2015 21.7414C20.4804 21.511 20.6922 21.2384 20.8359 20.9235C20.9867 20.6087 21.0625 20.2554 21.0625 19.8637C21.0625 19.3568 20.9449 18.9536 20.7113 18.6541C20.4847 18.3469 20.1972 18.1049 19.8503 17.9283C19.5027 17.744 19.1288 17.6019 18.7288 17.5021C18.328 17.4022 17.9542 17.3062 17.6073 17.2141C17.2596 17.1219 16.9686 17.0105 16.735 16.88C16.5084 16.7495 16.3951 16.5651 16.3951 16.327C16.3951 16.0966 16.512 15.8931 16.7463 15.7165C16.98 15.5398 17.3127 15.4515 17.7432 15.4515C18.1808 15.4515 18.5624 15.5552 18.8874 15.7626C19.2117 15.9622 19.4609 16.2464 19.6351 16.615L20.9832 15.9008C20.6582 15.2634 20.2164 14.7872 19.6577 14.4723C19.0984 14.1574 18.4569 14 17.7319 14C17.2787 14 16.8709 14.0576 16.5084 14.1728C16.1459 14.288 15.8358 14.4531 15.5795 14.6682C15.3302 14.8832 15.1334 15.1405 14.9904 15.44C14.8545 15.7318 14.7865 16.0583 14.7865 16.4192C14.7865 16.903 14.8998 17.2909 15.1263 17.5827C15.36 17.8745 15.6474 18.1088 15.9873 18.2854C16.3342 18.4544 16.7081 18.5888 17.1088 18.6886C17.5089 18.7885 17.8791 18.8883 18.219 18.9882C18.5659 19.088 18.8534 19.2109 19.08 19.3568C19.3136 19.5027 19.4312 19.7101 19.4312 19.9789C19.4312 20.2784 19.2874 20.5165 19.0007 20.6931C18.7132 20.8697 18.3507 20.9581 17.9131 20.9581C17.4069 20.9581 16.98 20.8352 16.633 20.5894C16.2854 20.3437 16.0022 19.9904 15.7834 19.5296L14.4013 20.2208Z" fill="white"  />
<path d="M23.9668 14.1843H22.3581V22.2483H23.9668V14.1843Z" fill="white"  />
<path d="M33.1188 20.1632C33.3 19.6794 33.3907 19.1379 33.3907 18.5389C33.3907 18.4314 33.3864 18.32 33.3793 18.2048C33.3715 18.0819 33.3602 17.9437 33.3454 17.7901H28.8593V19.2416H31.7594C31.6687 19.7869 31.4308 20.2055 31.0457 20.4973C30.6676 20.7891 30.1847 20.935 29.5956 20.935C29.1878 20.935 28.821 20.8659 28.4968 20.7277C28.1796 20.5894 27.9077 20.4013 27.6811 20.1632C27.4616 19.9175 27.2917 19.6295 27.1713 19.2992C27.058 18.9613 27.0014 18.6003 27.0014 18.2163C27.0014 17.8246 27.0616 17.4637 27.1827 17.1334C27.303 16.7955 27.4729 16.5075 27.6924 16.2694C27.9112 16.0237 28.1753 15.8355 28.4854 15.705C28.7948 15.5667 29.1382 15.4976 29.5163 15.4976C30.0148 15.4976 30.4488 15.6166 30.8191 15.8547C31.1887 16.0928 31.4832 16.4345 31.7027 16.88L33.0621 16.039C32.7449 15.3939 32.2762 14.8947 31.6574 14.5414C31.0457 14.1805 30.3355 14 29.5276 14C28.9081 14 28.3452 14.1075 27.8397 14.3226C27.3335 14.5299 26.8994 14.8218 26.5369 15.1981C26.1744 15.5744 25.8912 16.0198 25.6873 16.5344C25.4905 17.049 25.3928 17.6058 25.3928 18.2048C25.3928 18.8115 25.4905 19.3721 25.6873 19.8867C25.8912 20.4013 26.178 20.8467 26.5483 21.223C26.9179 21.5994 27.3597 21.895 27.8737 22.1101C28.387 22.3251 28.9612 22.4326 29.5956 22.4326C30.1691 22.4326 30.6902 22.3443 31.1589 22.1677C31.627 21.9834 32.0235 21.7222 32.3484 21.3843C32.6805 21.0464 32.9375 20.6393 33.1188 20.1632Z" fill="white"  />
<path d="M36.4918 14.1843H34.8152V22.2483H36.3332V16.6957L39.879 22.2483H41.5556V14.1843H40.0376V19.737L36.4918 14.1843Z" fill="white"  />
<path d="M48.5559 14.1843H43.3222V22.2483H48.5559V20.7507H44.9308V18.8154H48.1028V17.3178H44.9308V15.6819H48.5559V14.1843Z" fill="white"  />
<path d="M52.928 14.1843H49.9826V22.2483H52.928C53.5015 22.2483 54.0304 22.1485 54.514 21.9488C54.9969 21.7414 55.4125 21.4573 55.7601 21.0963C56.1149 20.7354 56.3903 20.3091 56.5871 19.8176C56.7832 19.3261 56.8817 18.7923 56.8817 18.2163C56.8817 17.6403 56.7832 17.1066 56.5871 16.615C56.3903 16.1235 56.1149 15.6973 55.7601 15.3363C55.4125 14.9754 54.9969 14.695 54.514 14.4954C54.0304 14.288 53.5015 14.1843 52.928 14.1843Z" fill="white"  />
<path d="M64.5978 14.1843H61.2559V22.2483H64.7677C65.1677 22.2483 65.5267 22.1945 65.8439 22.087C66.1682 21.9718 66.44 21.8144 66.6595 21.6147C66.8783 21.4151 67.0447 21.177 67.158 20.9005C67.2784 20.624 67.3392 20.3168 67.3392 19.9789C67.3392 19.4873 67.2182 19.0765 66.9767 18.7462C66.7346 18.4083 66.3721 18.1664 65.8892 18.0205C66.2517 17.8745 66.5307 17.6518 66.7275 17.3523C66.9236 17.0528 67.022 16.6957 67.022 16.281C67.022 15.9584 66.9612 15.6704 66.8408 15.417C66.7275 15.1558 66.5611 14.9331 66.3423 14.7488C66.1306 14.5645 65.8736 14.4262 65.572 14.3341C65.2775 14.2342 64.9525 14.1843 64.5978 14.1843Z" fill="white"  />
<path d="M70.2521 19.0918V22.2483H71.8607V19.0918L74.5342 14.1843H72.835L71.0791 17.6864L69.3231 14.1843H67.5786L70.2521 19.0918Z" fill="white"  />
<path d="M1.60864 20.7509V15.6821H2.75282C3.13798 15.6821 3.48139 15.7436 3.78371 15.8664C4.09312 15.9894 4.35367 16.1622 4.56537 16.3848C4.78415 16.6075 4.95054 16.8764 5.06383 17.1912C5.1849 17.4985 5.24509 17.8402 5.24509 18.2165C5.24509 18.5929 5.1849 18.9385 5.06383 19.2533C4.95054 19.5606 4.78415 19.8255 4.56537 20.0482C4.35367 20.2709 4.09312 20.4437 3.78371 20.5666C3.48139 20.6895 3.13798 20.7509 2.75282 20.7509H1.60864Z" fill="#2A1A5E"/>
<path d="M62.8191 20.843V18.7924H64.643C64.9673 18.7924 65.2278 18.8846 65.4246 19.0689C65.6285 19.2532 65.7305 19.5028 65.7305 19.8177C65.7305 20.1325 65.6285 20.3822 65.4246 20.5665C65.2278 20.7508 64.9673 20.843 64.643 20.843H62.8191Z" fill="#2A1A5E"/>
<path d="M64.4504 17.433H62.8191V15.5898H64.4504C64.7294 15.5898 64.9602 15.6743 65.1414 15.8433C65.3227 16.0123 65.4133 16.235 65.4133 16.5114C65.4133 16.7879 65.3227 17.0106 65.1414 17.1796C64.9602 17.3486 64.7294 17.433 64.4504 17.433Z" fill="#2A1A5E"/>
<path d="M51.5913 20.7509V15.6821H52.7355C53.1207 15.6821 53.4641 15.7436 53.7664 15.8664C54.0758 15.9894 54.3363 16.1622 54.548 16.3848C54.7668 16.6075 54.9332 16.8764 55.0465 17.1912C55.1669 17.4985 55.2278 17.8402 55.2278 18.2165C55.2278 18.5929 55.1669 18.9385 55.0465 19.2533C54.9332 19.5606 54.7668 19.8255 54.548 20.0482C54.3363 20.2709 54.0758 20.4437 53.7664 20.5666C53.4641 20.6895 53.1207 20.7509 52.7355 20.7509H51.5913Z" fill="#2A1A5E"/>
<path fill-rule="evenodd" clip-rule="evenodd" d="M80.0179 0H102.982C102.992 0 103 0.00835793 103 0.018666V23.9813C103 23.9916 102.992 24 102.982 24H80.0179C80.008 24 80 23.9916 80 23.9813V0.018666C80 0.00835793 80.008 0 80.0179 0ZM93.3069 20.0001L94.0238 15.1431C93.2529 15.5413 92.3819 15.7674 91.462 15.7674C88.3066 15.7674 85.75 13.133 85.75 9.88241C85.75 8.43472 86.2587 7.10812 87.1015 6.08289C87.6719 5.38059 88.4017 4.8209 89.2316 4.4657C89.9177 4.16432 90.6706 4.00016 91.462 4.00016C94.6173 4.00016 97.2434 6.63453 97.2434 9.88241C97.3175 10.4724 96.7493 14.6748 96.2968 18.0203C96.2004 18.7337 96.1092 19.4081 96.0306 20.0001H93.3069ZM92.256 7.1512C92.0041 7.07314 91.7395 7.03282 91.462 7.03282C89.9331 7.03282 88.6946 8.30824 88.6946 9.88241C88.6946 11.349 89.7661 12.5545 91.1459 12.7159H91.1485H91.1536L91.2025 12.7213H91.2076L91.2102 12.724H91.2153H91.2204H91.2256H91.2307H91.2359L91.259 12.7267H91.2642H91.2693H91.2744L91.3001 12.7294H91.3052H91.3078H91.3129L91.3284 12.7321H91.3335H91.3387L91.3875 12.7348H91.39H91.3926H91.3977H91.462C92.9908 12.7348 94.2319 11.4566 94.2319 9.88241C94.2319 9.87197 94.2313 9.86153 94.2307 9.85079C94.23 9.83939 94.2294 9.82763 94.2294 9.81515V9.79097L94.2268 9.74789V9.72101L94.2242 9.67793L94.2216 9.65639L94.2165 9.60257V9.58913C94.2139 9.56489 94.2114 9.54341 94.2088 9.52187L94.2062 9.51107L94.1985 9.45461L94.196 9.43577L94.1882 9.38999L94.1857 9.36851L94.178 9.32273L94.1728 9.30119L94.1626 9.25007L94.16 9.23933L94.1574 9.23123C94.1548 9.21239 94.1497 9.19355 94.1446 9.17471L94.1394 9.15857L94.1292 9.11555L94.1214 9.08591L94.1112 9.05093L94.1034 9.02675L94.0906 8.98097L94.0829 8.96482C94.0803 8.9554 94.0771 8.94598 94.0739 8.93663C94.0707 8.92721 94.0675 8.91778 94.0649 8.90837L94.0623 8.90296L94.0572 8.88952L94.0418 8.84644L94.0315 8.8222L94.0186 8.78722L94.0084 8.76034L93.993 8.72806L93.9827 8.70112L93.9672 8.66884L93.957 8.6473V8.6446C93.9492 8.62846 93.9416 8.61232 93.9339 8.59348H93.9313L93.9158 8.5585L93.903 8.53966L93.8876 8.50738L93.8748 8.4832L93.8568 8.45086L93.8439 8.42938L93.8259 8.39974V8.39704L93.7977 8.34862L93.7771 8.31904L93.7643 8.2975L93.7411 8.26522L93.7334 8.25178L93.7078 8.2168L93.7 8.2033C93.6589 8.14684 93.6178 8.09302 93.5741 8.0419L93.5664 8.0311L93.5407 7.99882L93.5279 7.98538L93.4996 7.9531L93.4945 7.9477L93.4921 7.945C93.457 7.90564 93.4243 7.86886 93.3866 7.83466L93.3814 7.82932L93.348 7.79434L93.3428 7.78894C93.2632 7.71628 93.181 7.64362 93.0936 7.57906L93.0885 7.57636C93.0166 7.52254 92.942 7.47142 92.8649 7.423H92.8624C92.6748 7.30996 92.4718 7.21846 92.2585 7.1512H92.256Z" fill="white"  />
</svg>
