<svg width="191" height="72" viewBox="0 0 191 72" fill="none" xmlns="http://www.w3.org/2000/svg">
<path d="M12.8298 13.9695C17.528 10.2073 39.0392 2.75385 73.4712 2.95584C107.903 3.15782 122.502 14.6129 146.732 14.755" stroke="#FF671D"/>
<path d="M12.7218 32.2864C19.0647 38.0083 39.4318 44.4441 72.939 44.6407C106.446 44.8372 122.52 31.0356 146.635 31.177" stroke="#FF671D"/>
<path d="M146.131 33.8862C150.148 43.101 163.817 42.9389 163.817 42.9389C163.817 42.9389 161.915 42.1722 160.598 39.2437L153.635 36.3799L159.848 37.0384C159.711 36.4679 159.601 35.831 159.531 35.152L151.522 31.8462L159.169 32.6545C159.041 32.0962 158.887 31.5529 158.713 31.0564L150.364 27.6089L157.223 28.3361C154.498 24.7877 149.941 23.9063 146.805 23.772C149.933 23.4074 154.419 22.2322 156.888 18.5135L150.092 19.6961L158.178 15.6783C158.329 15.1647 158.444 14.6223 158.526 14.0511L150.95 15.3823L158.707 11.5358C158.732 10.848 158.795 10.2207 158.888 9.64194L152.728 10.7148L159.464 7.38501C160.566 4.38139 162.409 3.48786 162.409 3.48786C162.409 3.48786 148.764 4.25634 145.405 13.7206C144.781 15.4694 144.354 17.1296 144.048 18.58C143.311 22.0626 143.447 25.7083 144.42 29.1361C144.847 30.5511 145.389 32.1798 146.131 33.8862Z" fill="#FF671D"/>
<path fill-rule="evenodd" clip-rule="evenodd" d="M16.4911 35.6887C13.7714 32.7251 8.74951 20.2314 15.3687 11.68C11.3573 13.5514 1.6767 19.9758 0.143042 22.9987C1.38774 26.1641 12.7127 33.7717 16.4911 35.6887ZM7.08337 24.3027C8.12986 24.3088 8.98319 23.4654 8.98933 22.4189C8.99547 21.3724 8.15209 20.5191 7.1056 20.513C6.05911 20.5068 5.20579 21.3502 5.19965 22.3967C5.19351 23.4432 6.03688 24.2965 7.08337 24.3027Z" fill="#FF671D"/>
<path d="M109.201 54.7524C111.472 52.9339 121.87 49.3313 138.513 49.4289C155.155 49.5265 162.212 55.0634 173.923 55.1321" stroke="#FF671D" stroke-width="0.5"/>
<path d="M109.15 63.6058C112.215 66.3716 122.06 69.4823 138.256 69.5773C154.452 69.6724 162.221 63.0013 173.877 63.0696" stroke="#FF671D" stroke-width="0.5"/>
<path d="M173.633 64.3791C175.575 68.8332 182.182 68.7548 182.182 68.7548C182.182 68.7548 181.262 68.3842 180.626 66.9687L177.26 65.5845L180.263 65.9028C180.197 65.627 180.144 65.3192 180.11 64.991L176.239 63.3931L179.935 63.7838C179.873 63.514 179.799 63.2514 179.715 63.0114L175.679 61.345L178.995 61.6965C177.677 59.9813 175.475 59.5553 173.959 59.4904C175.471 59.3142 177.639 58.7462 178.833 56.9487L175.548 57.5203L179.456 55.5783C179.529 55.33 179.585 55.0679 179.624 54.7918L175.962 55.4352L179.712 53.576C179.724 53.2435 179.754 52.9403 179.799 52.6606L176.822 53.1792L180.078 51.5697C180.61 50.1179 181.501 49.686 181.501 49.686C181.501 49.686 174.906 50.0574 173.282 54.632C172.981 55.4773 172.774 56.2798 172.626 56.9808C172.27 58.6642 172.336 60.4263 172.806 62.0832C173.012 62.7671 173.275 63.5543 173.633 64.3791Z" fill="#FF671D"/>
<path fill-rule="evenodd" clip-rule="evenodd" d="M110.971 65.2504C109.657 63.8179 107.229 57.779 110.429 53.6457C108.49 54.5502 103.811 57.6555 103.069 59.1166C103.671 60.6466 109.145 64.3238 110.971 65.2504ZM106.424 59.7468C106.93 59.7498 107.342 59.3421 107.345 58.8363C107.348 58.3305 106.941 57.918 106.435 57.9151C105.929 57.9121 105.516 58.3198 105.513 58.8256C105.51 59.3314 105.918 59.7439 106.424 59.7468Z" fill="#FF671D"/>
</svg>
