<svg width="25" height="16" viewBox="0 0 25 16" fill="none" xmlns="http://www.w3.org/2000/svg">
<path d="M10.8326 1.17704C6.43507 1.43572 3.82674 4.51829 3.07227 6.02724V9.9074C4.0962 11.6858 7.08176 15.2426 10.8326 15.2426C15.2301 15.372 16.0061 10.6619 15.8445 8.29066C16.0061 5.81167 15.2301 0.918362 10.8326 1.17704Z" fill="white" stroke="white"/>
<path d="M16.2077 10.8582C17.2496 13.2108 20.7482 13.1488 20.7482 13.1488C20.7482 13.1488 20.2602 12.9554 19.9187 12.2078L18.1322 11.4852L19.7234 11.6444C19.6876 11.4986 19.6583 11.3358 19.6394 11.1621L17.5844 10.3279L19.5431 10.5234C19.5093 10.3807 19.4692 10.2418 19.4238 10.115L17.2817 9.24512L19.0385 9.42094C18.3356 8.51678 17.168 8.29803 16.3651 8.26836C17.1651 8.17033 18.3116 7.86281 18.9379 6.90724L17.2002 7.22015L19.2639 6.17961C19.3017 6.04793 19.3305 5.90892 19.3503 5.76259L17.4133 6.11471L19.3929 5.11851C19.3983 4.94241 19.4135 4.78176 19.4365 4.63348L17.8615 4.91734L19.5806 4.05493C19.8582 3.28447 20.3286 3.05299 20.3286 3.05299C20.3286 3.05299 16.8372 3.27018 15.9916 5.6977C15.8345 6.14625 15.7276 6.57184 15.6515 6.94356C15.468 7.83607 15.5083 8.76902 15.7625 9.64493C15.8739 10.0065 16.0152 10.4225 16.2077 10.8582Z" fill="white"/>
<path fill-rule="evenodd" clip-rule="evenodd" d="M4.20351 11.1909C3.50292 10.4364 2.19876 7.24606 3.88016 5.0473C2.85622 5.53232 0.388016 7.19125 0 7.96728C0.323347 8.77565 3.2335 10.7059 4.20351 11.1909ZM1.77806 8.29063C2.04593 8.29063 2.26308 8.07348 2.26308 7.80561C2.26308 7.53774 2.04593 7.32059 1.77806 7.32059C1.51019 7.32059 1.29304 7.53774 1.29304 7.80561C1.29304 8.07348 1.51019 8.29063 1.77806 8.29063Z" fill="white"/>
</svg>
