<svg width="64" height="64" viewBox="0 0 64 64" fill="none" xmlns="http://www.w3.org/2000/svg">
<rect width="64" height="64" rx="24" fill="#FF671D"/>
<path d="M21 28.8458C21 26.7218 22.7218 25 24.8458 25H40.1542C42.2782 25 44 26.7218 44 28.8458C44 32.2744 43.679 35.6955 43.0413 39.0643L43.0016 39.2741C42.5925 41.4354 40.7039 43 38.5042 43H32.5H26.4958C24.2961 43 22.4075 41.4354 21.9984 39.2741L21.9587 39.0643C21.321 35.6955 21 32.2744 21 28.8458Z" fill="white"/>
<circle cx="41" cy="41" r="5" fill="#2A1A5E"/>
<path d="M38 41H44M41 38V44" stroke="white" stroke-width="2"/>
<path d="M28 25V24.5C28 22.0147 30.0147 20 32.5 20V20C34.9853 20 37 22.0147 37 24.5V25" stroke="white" stroke-width="3"/>
</svg>
