<svg width="41" height="34" viewBox="0 0 41 34" fill="none" xmlns="http://www.w3.org/2000/svg">
<circle cx="17" cy="12" r="12" fill="#2A1A5E"/>
<path d="M20.6343 6.85427L9.82882 10.7563C8.41867 11.2655 8.54556 13.3002 10.008 13.6303L11.3874 13.9416C11.9075 14.059 12.4529 13.9638 12.9025 13.6773L14.8875 12.4124C15.3694 12.1053 15.8906 12.7428 15.4938 13.154C14.6123 14.0675 14.8382 15.5687 15.9495 16.1824L19.163 17.957C20.0781 18.4623 21.2166 17.9001 21.3715 16.8662L22.6272 8.48742C22.7956 7.36405 21.7027 6.46847 20.6343 6.85427Z" fill="white"/>
<circle cx="28" cy="4" r="3" fill="#CDE211"/>
<rect x="17" y="20" width="23" height="12" rx="6" fill="#2A1A5E"/>
<path d="M22 25.5V28C22 28.5523 22.4477 29 23 29H24.25C25.2165 29 26 28.2165 26 27.25V27.25C26 26.2835 25.2165 25.5 24.25 25.5H22ZM22 25.5V24.5" stroke="white"/>
<path d="M22 25.5V24.5C22 23.6716 22.6716 23 23.5 23H23.75C24.4404 23 25 23.5596 25 24.25C25 24.9404 24.4404 25.5 23.75 25.5H22Z" stroke="white"/>
<path d="M31.5 24.5H33M34.5 24.5H33M33 24.5V27.5C33 28.3284 33.6716 29 34.5 29V29M33 24.5V23M30.5 27.5V26.5C30.5 25.6716 29.8284 25 29 25V25C28.1716 25 27.5 25.6716 27.5 26.5V27.5C27.5 28.3284 28.1716 29 29 29V29C29.8284 29 30.5 28.3284 30.5 27.5Z" stroke="white" stroke-linecap="round"/>
</svg>
