<svg width="38" height="33" viewBox="0 0 38 33" fill="none" xmlns="http://www.w3.org/2000/svg">
<path d="M15 10.6923V10.6923C16.2745 10.6923 17.3077 11.7255 17.3077 13V13M15 7V7C18.3137 7 21 9.68629 21 13V13" stroke="#2A1A5E" stroke-width="2" stroke-linecap="round" stroke-linejoin="round"/>
<path d="M9.46292 15.3745C7.46857 13.3802 7.20837 10.2363 8.84772 7.94122C9.3658 7.21591 10.4111 7.1294 11.0414 7.75966L12.2407 8.95896C12.9959 9.71417 12.9118 10.962 12.0621 11.6091C11.2124 12.2561 11.1283 13.504 11.8835 14.2592L13.2425 15.6183C13.9978 16.3735 15.2456 16.2894 15.8927 15.4396C16.5397 14.5899 17.7876 14.5058 18.5428 15.261L19.7421 16.4603C20.3723 17.0906 20.2858 18.1359 19.5605 18.654C17.2654 20.2933 14.1215 20.0331 12.1272 18.0388L9.46292 15.3745Z" fill="#2A1A5E"/>
<path d="M8.54512 23.4781L8.54508 23.4781C5.5858 23.2518 3.25635 20.8939 3.12975 17.9591C3.05615 16.2527 3 14.4602 3 12.9683C3 11.8748 3.03017 10.6186 3.0754 9.35156C3.21108 5.55025 6.13397 2.46574 9.90382 2.19547C11.5049 2.08069 13.1229 2 14.5 2C15.8771 2 17.4951 2.08069 19.0962 2.19547C22.866 2.46574 25.7889 5.55025 25.9246 9.35156C25.9698 10.6186 26 11.8748 26 12.9683C26 13.9539 25.9755 15.0722 25.9375 16.2119C25.8063 20.1455 22.6719 23.3086 18.7024 23.6122L15.9031 23.8263C14.7508 23.9144 13.6458 24.3217 12.712 25.0026L10.0954 26.9105C9.67563 27.2166 9.0961 26.8585 9.18199 26.3461L9.46562 24.654L8.47938 24.4887L9.46562 24.654C9.56389 24.0677 9.13785 23.5235 8.54512 23.4781Z" stroke="#2A1A5E" stroke-width="2"/>
<rect x="15" y="21" width="23" height="12" rx="6" fill="#2A1A5E"/>
<path d="M20 26.5V29C20 29.5523 20.4477 30 21 30H22.25C23.2165 30 24 29.2165 24 28.25V28.25C24 27.2835 23.2165 26.5 22.25 26.5H20ZM20 26.5V25.5" stroke="white"/>
<path d="M20 26.5V25.5C20 24.6716 20.6716 24 21.5 24H21.75C22.4404 24 23 24.5596 23 25.25C23 25.9404 22.4404 26.5 21.75 26.5H20Z" stroke="white"/>
<path d="M29.5 25.5H31M32.5 25.5H31M31 25.5V28.5C31 29.3284 31.6716 30 32.5 30V30M31 25.5V24M28.5 28.5V27.5C28.5 26.6716 27.8284 26 27 26V26C26.1716 26 25.5 26.6716 25.5 27.5V28.5C25.5 29.3284 26.1716 30 27 30V30C27.8284 30 28.5 29.3284 28.5 28.5Z" stroke="white" stroke-linecap="round"/>
<circle cx="25" cy="3" r="3" fill="#CDE211"/>
</svg>
