<svg width="28" height="23" viewBox="0 0 28 23" fill="none" xmlns="http://www.w3.org/2000/svg">
<path d="M4.05957 12.8706C4.05957 12.8706 4.05957 12.882 4.05957 12.8706C4.09386 12.8935 4.13955 12.9163 4.18527 12.9392C4.13955 12.9163 4.10528 12.8935 4.05957 12.8706Z" fill="#FF671D"/>
<path d="M13.9788 14.7213C6.72165 14.7213 0.835938 12.3213 0.835938 9.36133V9.97847C0.835938 16.607 6.12736 22.3442 13.0759 22.7556C13.3731 22.7785 13.6702 22.7785 13.9788 22.7785C14.2759 22.7785 14.5845 22.767 14.8817 22.7556C21.8302 22.3442 27.1217 16.607 27.1217 9.97847V9.36133C27.1217 12.3328 21.2359 14.7213 13.9788 14.7213Z" fill="#FF671D"/>
<path d="M18.0126 2.80217C18.0126 2.80217 17.7612 1.52217 17.8984 1.08789C18.0355 0.653602 18.4469 0.0478881 19.1555 0.0136024C20.3212 -0.0435404 20.5269 0.950745 20.5269 0.950745C20.5269 0.950745 21.2355 0.413602 22.1041 1.00789C22.8698 1.5336 22.7098 2.35646 22.7098 2.35646C22.7098 2.35646 23.6012 2.07075 24.1955 3.0536C24.6412 3.78503 24.3098 4.79075 23.7612 5.17932C23.2126 5.56789 22.5498 5.71646 22.5498 5.71646C22.5498 5.71646 22.2526 4.87075 20.6412 3.7736C19.1669 2.77932 18.0126 2.80217 18.0126 2.80217Z" fill="#FF671D"/>
<path d="M23.0298 11.4305L23.384 11.1219C23.384 11.1219 24.4812 10.0705 24.6298 8.95052C24.7783 7.83052 24.2298 7.55624 23.8869 7.53338C23.624 7.52195 23.384 7.45338 22.9955 7.69338C22.9955 8.19624 22.904 8.73338 22.7212 9.29338C22.5726 9.75052 21.8183 10.9962 21.0869 12.1277C21.8755 11.9219 22.5269 11.6934 23.0298 11.4305Z" fill="#FF671D"/>
<path d="M13.9788 12.8702C16.1045 12.8702 18.0816 12.6988 19.7045 12.413C20.0702 11.8188 20.4473 11.1902 20.813 10.5045C21.0873 10.0016 21.2702 9.81875 21.613 8.87018C21.9902 7.78446 21.8645 6.92732 21.3273 6.19589C20.7902 5.46446 19.1788 4.21875 17.8416 4.21875C16.5045 4.21875 15.7616 5.31589 15.0073 6.90446C14.5845 7.80732 14.093 8.87018 13.6588 10.3559C13.4188 11.1902 13.1788 12.0359 12.9502 12.8473C13.2931 12.8702 13.6359 12.8702 13.9788 12.8702Z" fill="#FF671D"/>
<path d="M5.85278 6.73329C6.16135 6.92758 6.43564 7.16758 6.67564 7.43044C6.91564 7.16758 7.18993 6.93901 7.4985 6.74472C8.24136 6.27615 9.10995 5.99044 9.80709 5.99044C10.3557 5.99044 10.8014 6.16187 11.1328 6.50472C11.8414 7.23615 11.9899 8.50472 11.2585 10.1047C10.6985 11.3276 9.68138 12.2419 9.13281 12.539C9.92138 12.6419 11.0299 12.7904 11.9214 12.8362C11.9328 12.8133 11.9442 12.7904 11.9442 12.7676C12.1842 11.8304 12.4814 10.7447 12.8357 9.56758C13.0642 8.69901 13.43 7.51044 13.99 6.34472C14.2642 5.76187 14.6756 4.93901 15.2814 4.25329C15.3042 4.23044 15.3271 4.20758 15.3385 4.18472C15.4299 4.08187 15.5099 3.97901 15.6128 3.88758C15.5671 3.83044 15.5328 3.77329 15.4757 3.70472C14.5842 2.51615 13.4528 2.50472 13.4528 2.50472C13.3728 1.49901 12.3214 -0.226706 9.94423 0.024723C7.88709 0.241866 7.39565 2.63044 7.39565 2.63044C7.39565 2.63044 6.38994 2.53901 5.3728 3.95615C4.74423 4.82472 4.7328 5.77329 4.76709 6.23044C5.12137 6.33329 5.4985 6.50472 5.85278 6.73329Z" fill="#FF671D"/>
<path d="M4.46965 11.2361C5.23536 11.6133 6.29824 11.9447 7.55538 12.219C8.28681 11.8533 8.62967 11.5218 8.94967 11.2476C9.26967 10.9847 9.84109 10.3904 10.1611 9.59041C10.5839 8.53898 10.6297 7.72755 10.3097 7.39613C9.97824 7.05327 8.90393 7.28184 8.06964 7.81898C7.23536 8.3447 6.76681 9.3047 6.66395 9.79612C6.56109 9.3047 6.09251 8.35613 5.25822 7.81898C4.42394 7.29327 3.34966 7.05327 3.01823 7.39613C2.69823 7.72755 2.76681 8.52755 3.16681 9.59041C3.55538 10.619 4.42394 11.2018 4.46965 11.2361Z" fill="#FF671D"/>
</svg>
