<svg width="35" height="19" viewBox="0 0 35 19" fill="none" xmlns="http://www.w3.org/2000/svg">
<path d="M23.1529 5.92041C25.0614 5.92041 26.6043 7.85184 26.6043 10.2518V14.1604C26.6043 16.7776 21.69 17.9433 15.61 17.9433C9.54143 17.9433 4.61572 16.7776 4.61572 14.1604V10.2518C4.61572 7.86327 6.15857 5.92041 8.06714 5.92041H23.1529Z" fill="#FF671D"/>
<path d="M0.295898 11.2797C4.90161 13.1083 6.52447 9.40541 16.8673 9.97684C27.9073 10.594 30.1588 14.3883 29.5873 11.4968C28.673 6.90255 21.393 2.03398 15.6216 2.34255C8.42162 2.73113 3.45018 5.71398 0.295898 11.2797Z" fill="white"/>
<path d="M0.295898 9.51993C4.90161 11.3485 6.52447 7.64565 16.8673 8.21708C27.9073 8.83422 30.1588 12.6285 29.5873 9.73707C28.673 5.14279 21.393 0.274218 15.6216 0.582789C8.42162 0.971361 3.45018 3.95422 0.295898 9.51993Z" fill="#FF671D"/>
<path d="M15.6215 0C16.4901 0 17.3358 0.0457145 18.1701 0.102857V18.3886H13.0615V0.102857C13.9072 0.0342859 14.7529 0 15.6215 0Z" fill="white"/>
<path d="M26.6043 9.48528C26.5472 10.091 27.2558 11.5653 28.09 13.131C29.1986 15.1881 30.3072 16.5939 30.5243 15.7939C30.7415 14.9939 29.61 12.1481 29.61 12.1481C29.61 12.1481 32.1129 14.3539 32.6157 13.8853C33.1186 13.4167 30.9015 10.9939 30.9015 10.9939C30.9015 10.9939 32.65 11.8167 33.6672 12.1024C34.6843 12.3996 35.1415 12.2624 34.6157 11.7139C34.09 11.1539 32.5015 9.91957 30.9129 9.06242C29.3243 8.21671 28.1472 7.771 28.1472 7.771L26.6043 8.77671C26.6043 8.77671 26.65 8.87957 26.6043 9.48528Z" fill="#FF671D"/>
</svg>
