<svg width="25" height="27" viewBox="0 0 25 27" fill="none" xmlns="http://www.w3.org/2000/svg">
<path d="M24.2846 9.71397L20.4332 6.58254C20.056 6.27397 19.5532 6.10254 19.0275 6.10254H5.7132C5.18749 6.10254 4.68462 6.27397 4.30748 6.58254L0.456055 9.71397H24.2846Z" fill="#FF671D"/>
<path d="M3.92749 1.21226L3.81494 2.5332L22.2626 4.10507L22.3751 2.78412L3.92749 1.21226Z" fill="#FF671D"/>
<path d="M8.14798 11.3373H6.8223C6.8223 10.8916 6.63943 10.6973 6.34229 10.3773C5.988 10.0002 5.49658 9.47447 5.49658 8.51447C5.49658 7.54304 5.988 7.02876 6.34229 6.64018C6.63943 6.32018 6.8223 6.1259 6.8223 5.68018C6.8223 5.23447 6.63943 5.05161 6.34229 4.73161C5.988 4.35447 5.49658 3.82876 5.49658 2.86876C5.49658 1.89733 5.988 1.38304 6.34229 1.0059C6.63943 0.685899 6.8223 0.491613 6.8223 0.0458984H8.14798C8.14798 1.01733 7.65657 1.53161 7.30228 1.90876C7.00514 2.22876 6.8223 2.42304 6.8223 2.85733C6.8223 3.30304 7.00514 3.49733 7.30228 3.81733C7.65657 4.19447 8.14798 4.72018 8.14798 5.68018C8.14798 6.65161 7.65657 7.1659 7.30228 7.55447C7.00514 7.87447 6.8223 8.06876 6.8223 8.51447C6.8223 8.96019 7.00514 9.15447 7.30228 9.47447C7.668 9.85161 8.14798 10.3659 8.14798 11.3373Z" fill="#FF671D"/>
<path d="M10.4683 11.3373H9.14261C9.14261 10.8916 8.95974 10.6973 8.6626 10.3773C8.30831 10.0002 7.81689 9.47447 7.81689 8.51447C7.81689 7.54304 8.30831 7.02876 8.6626 6.64018C8.95974 6.32018 9.14261 6.1259 9.14261 5.68018C9.14261 5.23447 8.95974 5.05161 8.6626 4.73161C8.30831 4.35447 7.81689 3.82876 7.81689 2.86876C7.81689 1.89733 8.30831 1.38304 8.6626 1.0059C8.95974 0.685899 9.14261 0.491613 9.14261 0.0458984H10.4683C10.4683 1.01733 9.97688 1.53161 9.62259 1.90876C9.32545 2.22876 9.14261 2.42304 9.14261 2.85733C9.14261 3.30304 9.32545 3.49733 9.62259 3.81733C9.97688 4.19447 10.4683 4.72018 10.4683 5.68018C10.4683 6.65161 9.97688 7.1659 9.62259 7.55447C9.32545 7.87447 9.14261 8.06876 9.14261 8.51447C9.14261 8.96019 9.32545 9.15447 9.62259 9.47447C9.97688 9.85161 10.4683 10.3659 10.4683 11.3373Z" fill="#FF671D"/>
<path d="M12.7877 11.3373H11.4619C11.4619 10.8916 11.2791 10.6973 10.9819 10.3773C10.6276 10.0002 10.1362 9.47447 10.1362 8.51447C10.1362 7.54304 10.6276 7.02876 10.9819 6.64018C11.2791 6.32018 11.4619 6.1259 11.4619 5.68018C11.4619 5.23447 11.2791 5.05161 10.9819 4.73161C10.6276 4.35447 10.1362 3.82876 10.1362 2.86876C10.1362 1.89733 10.6276 1.38304 10.9819 1.0059C11.2791 0.685899 11.4619 0.491613 11.4619 0.0458984H12.7877C12.7877 1.01733 12.2962 1.53161 11.9419 1.90876C11.6448 2.22876 11.4619 2.42304 11.4619 2.85733C11.4619 3.30304 11.6448 3.49733 11.9419 3.81733C12.2962 4.19447 12.7877 4.72018 12.7877 5.68018C12.7877 6.65161 12.2962 7.1659 11.9419 7.55447C11.6448 7.87447 11.4619 8.06876 11.4619 8.51447C11.4619 8.96019 11.6448 9.15447 11.9419 9.47447C12.2962 9.85161 12.7877 10.3659 12.7877 11.3373Z" fill="#FF671D"/>
<path d="M22.3307 0H3.87354V1.32571H22.3307V0Z" fill="#FF671D"/>
<path d="M19.8733 26.3315H4.89045C4.10188 26.3315 3.42759 25.8401 3.3133 25.1658L0.479004 9.71436H24.2961L21.4619 25.1658C21.3362 25.8286 20.6619 26.3315 19.8733 26.3315Z" fill="#FF671D"/>
<path d="M22.5137 9.71436L19.8052 17.2344C19.6795 17.5772 19.3595 17.8058 18.9938 17.8058H5.74805C5.38233 17.8058 5.06231 17.5772 4.93659 17.2344L2.22803 9.71436H22.5137Z" fill="white"/>
<path d="M14.1253 17.3486H10.6167V19.2115H14.1253V17.3486Z" fill="white"/>
<path d="M9.55371 18.7314V19.4286H9.56515C9.61086 20.9372 10.8451 22.16 12.3766 22.16C13.8966 22.16 15.1308 20.9486 15.188 19.4286H15.1994V18.7314H9.55371Z" fill="white"/>
</svg>
