<svg width="25" height="28" viewBox="0 0 25 28" fill="none" xmlns="http://www.w3.org/2000/svg">
<path d="M12.1211 19.7369C18.7485 19.7369 24.1211 17.4344 24.1211 14.594C24.1211 11.7537 18.7485 9.45117 12.1211 9.45117C5.49368 9.45117 0.121094 11.7537 0.121094 14.594C0.121094 17.4344 5.49368 19.7369 12.1211 19.7369Z" fill="#FF671D"/>
<path d="M0.121094 14.5942V15.1885C0.121094 21.5542 4.95534 27.0514 11.2982 27.4514C11.5725 27.4628 11.8468 27.4742 12.1211 27.4742C12.3954 27.4742 12.6696 27.4628 12.9439 27.4514C19.2982 27.0514 24.1211 21.5428 24.1211 15.1885V14.5942H0.121094Z" fill="#FF671D"/>
<path d="M12.1208 18.5487C17.852 18.5487 22.498 16.7783 22.498 14.5944C22.498 12.4105 17.852 10.6401 12.1208 10.6401C6.38968 10.6401 1.74365 12.4105 1.74365 14.5944C1.74365 16.7783 6.38968 18.5487 12.1208 18.5487Z" fill="white"/>
<path d="M10.7154 0C10.7154 0 6.24681 2.65143 6.01824 7.26857C5.84681 10.64 8.65827 11.2343 9.97255 12.6971C11.2983 14.16 10.704 16.2171 10.704 16.2171C10.704 16.2171 14.864 11.5543 11.6183 8.10286C8.8297 5.14286 8.80687 2.86857 10.7154 0Z" fill="#FF671D"/>
<path d="M12.8638 6.8457C12.8638 6.8457 15.1723 8.6857 15.2295 11.1657C15.2866 13.6457 13.3895 15.0171 13.3895 15.0171C13.3895 15.0171 19.0009 13.6114 17.2981 9.50856C16.3723 7.26856 12.8638 6.8457 12.8638 6.8457Z" fill="#FF671D"/>
</svg>
