<svg width="26" height="30" viewBox="0 0 26 30" fill="none" xmlns="http://www.w3.org/2000/svg">
<mask id="path-1-inside-1_202_6826" fill="white">
<path fill-rule="evenodd" clip-rule="evenodd" d="M0.0117387 11.0387L2.5489 24.8786C2.65176 25.4729 3.25746 25.9186 3.96603 25.9186H17.3946C18.1032 25.9186 18.7089 25.4729 18.8117 24.8786L21.3488 11.0386H21.3484L17.8972 8.22725C17.5543 7.95297 17.1086 7.79297 16.64 7.79297H4.70857C4.23999 7.79297 3.78288 7.94154 3.45145 8.22725L0 11.0387H0.0117387Z"/>
</mask>
<path fill-rule="evenodd" clip-rule="evenodd" d="M0.0117387 11.0387L2.5489 24.8786C2.65176 25.4729 3.25746 25.9186 3.96603 25.9186H17.3946C18.1032 25.9186 18.7089 25.4729 18.8117 24.8786L21.3488 11.0386H21.3484L17.8972 8.22725C17.5543 7.95297 17.1086 7.79297 16.64 7.79297H4.70857C4.23999 7.79297 3.78288 7.94154 3.45145 8.22725L0 11.0387H0.0117387Z" fill="white"/>
<path d="M2.5489 24.8786L3.0416 24.7933L3.0407 24.7884L2.5489 24.8786ZM0.0117387 11.0387L0.503543 10.9485L0.42841 10.5387H0.0117387V11.0387ZM18.8117 24.8786L18.3199 24.7884L18.3191 24.7933L18.8117 24.8786ZM21.3488 11.0386L21.8406 11.1287L21.9488 10.5386H21.3488V11.0386ZM21.3484 11.0386L21.0326 11.4262L21.1706 11.5386H21.3484V11.0386ZM17.8972 8.22725L18.213 7.83958L18.2095 7.83682L17.8972 8.22725ZM3.45145 8.22725L3.76735 8.61507L3.77792 8.60596L3.45145 8.22725ZM0 11.0387L-0.315778 10.651L-1.40552 11.5387H0V11.0387ZM3.0407 24.7884L0.503543 10.9485L-0.480066 11.1288L2.05709 24.9687L3.0407 24.7884ZM3.96603 25.4186C3.44077 25.4186 3.0935 25.0933 3.04157 24.7933L2.05622 24.9638C2.21001 25.8524 3.07415 26.4186 3.96603 26.4186V25.4186ZM17.3946 25.4186H3.96603V26.4186H17.3946V25.4186ZM18.3191 24.7933C18.2671 25.0933 17.9199 25.4186 17.3946 25.4186V26.4186C18.2865 26.4186 19.1506 25.8524 19.3044 24.9638L18.3191 24.7933ZM20.857 10.9484L18.3199 24.7884L19.3035 24.9687L21.8406 11.1287L20.857 10.9484ZM21.3484 11.5386H21.3488V10.5386H21.3484V11.5386ZM21.6642 10.6509L18.213 7.83959L17.5814 8.61492L21.0326 11.4262L21.6642 10.6509ZM18.2095 7.83682C17.7771 7.4909 17.221 7.29297 16.64 7.29297V8.29297C16.9962 8.29297 17.3315 8.41504 17.5848 8.61769L18.2095 7.83682ZM16.64 7.29297H4.70857V8.29297H16.64V7.29297ZM4.70857 7.29297C4.1408 7.29297 3.56168 7.47208 3.12498 7.84855L3.77792 8.60596C4.00408 8.411 4.33919 8.29297 4.70857 8.29297V7.29297ZM3.13567 7.83959L-0.315778 10.651L0.315778 11.4263L3.76723 8.61492L3.13567 7.83959ZM0 11.5387H0.0117387V10.5387H0V11.5387Z" fill="#2A1A5E" mask="url(#path-1-inside-1_202_6826)"/>
<path d="M10.0813 14.8114L9.21743 14.3133L17.2736 0.34116L18.1375 0.839233L10.0813 14.8114Z" fill="white" stroke="#2A1A5E" stroke-width="0.5"/>
<path d="M10.969 15.3563L10.1562 14.7787L19.5061 1.62298L20.3189 2.20063L10.969 15.3563Z" fill="white" stroke="#2A1A5E" stroke-width="0.5"/>
<mask id="path-5-inside-2_202_6826" fill="white">
<path fill-rule="evenodd" clip-rule="evenodd" d="M19.771 11.0386L17.3481 17.7814C17.2339 18.09 16.9482 18.2957 16.6168 18.2957H12.2513V19.1179H13.2116V19.7465H13.2001C13.1544 21.1065 12.0573 22.1922 10.6859 22.1922C9.3259 22.1922 8.21731 21.1065 8.1716 19.7465H8.16016V19.1179H9.1084V18.2957H4.75391C4.42248 18.2957 4.13675 18.09 4.02246 17.7814L1.59961 11.0386H19.771Z"/>
</mask>
<path fill-rule="evenodd" clip-rule="evenodd" d="M19.771 11.0386L17.3481 17.7814C17.2339 18.09 16.9482 18.2957 16.6168 18.2957H12.2513V19.1179H13.2116V19.7465H13.2001C13.1544 21.1065 12.0573 22.1922 10.6859 22.1922C9.3259 22.1922 8.21731 21.1065 8.1716 19.7465H8.16016V19.1179H9.1084V18.2957H4.75391C4.42248 18.2957 4.13675 18.09 4.02246 17.7814L1.59961 11.0386H19.771Z" fill="white"/>
<path d="M17.3481 17.7814L17.817 17.9551L17.8187 17.9505L17.3481 17.7814ZM19.771 11.0386L20.2415 11.2077L20.482 10.5386H19.771V11.0386ZM12.2513 18.2957V17.7957H11.7513V18.2957H12.2513ZM12.2513 19.1179H11.7513V19.6179H12.2513V19.1179ZM13.2116 19.1179H13.7116V18.6179H13.2116V19.1179ZM13.2116 19.7465V20.2465H13.7116V19.7465H13.2116ZM13.2001 19.7465V19.2465H12.7167L12.7004 19.7297L13.2001 19.7465ZM8.1716 19.7465L8.67131 19.7297L8.65507 19.2465H8.1716V19.7465ZM8.16016 19.7465H7.66016V20.2465H8.16016V19.7465ZM8.16016 19.1179V18.6179H7.66016V19.1179H8.16016ZM9.1084 19.1179V19.6179H9.6084V19.1179H9.1084ZM9.1084 18.2957H9.6084V17.7957H9.1084V18.2957ZM4.02246 17.7814L3.55189 17.9505L3.55359 17.9551L4.02246 17.7814ZM1.59961 11.0386V10.5386H0.88865L1.12906 11.2077L1.59961 11.0386ZM17.8187 17.9505L20.2415 11.2077L19.3005 10.8695L16.8776 17.6124L17.8187 17.9505ZM16.6168 18.7957C17.1638 18.7957 17.6324 18.4537 17.817 17.9551L16.8793 17.6078C16.8354 17.7263 16.7326 17.7957 16.6168 17.7957V18.7957ZM12.2513 18.7957H16.6168V17.7957H12.2513V18.7957ZM12.7513 19.1179V18.2957H11.7513V19.1179H12.7513ZM13.2116 18.6179H12.2513V19.6179H13.2116V18.6179ZM13.7116 19.7465V19.1179H12.7116V19.7465H13.7116ZM13.2001 20.2465H13.2116V19.2465H13.2001V20.2465ZM10.6859 22.6922C12.3321 22.6922 13.6452 21.3875 13.6998 19.7633L12.7004 19.7297C12.6636 20.8255 11.7825 21.6922 10.6859 21.6922V22.6922ZM7.67188 19.7633C7.72652 21.389 9.05257 22.6922 10.6859 22.6922V21.6922C9.59922 21.6922 8.7081 20.824 8.67131 19.7297L7.67188 19.7633ZM8.16016 20.2465H8.1716V19.2465H8.16016V20.2465ZM7.66016 19.1179V19.7465H8.66016V19.1179H7.66016ZM9.1084 18.6179H8.16016V19.6179H9.1084V18.6179ZM8.6084 18.2957V19.1179H9.6084V18.2957H8.6084ZM4.75391 18.7957H9.1084V17.7957H4.75391V18.7957ZM3.55359 17.9551C3.73827 18.4537 4.20691 18.7957 4.75391 18.7957V17.7957C4.63804 17.7957 4.53522 17.7263 4.49134 17.6078L3.55359 17.9551ZM1.12906 11.2077L3.55192 17.9505L4.49301 17.6124L2.07015 10.8695L1.12906 11.2077ZM19.771 10.5386H1.59961V11.5386H19.771V10.5386Z" fill="#2A1A5E" mask="url(#path-5-inside-2_202_6826)"/>
<mask id="path-7-inside-3_202_6826" fill="white">
<path fill-rule="evenodd" clip-rule="evenodd" d="M14.1486 22.3982V22.3984V27.4496C14.1486 27.4496 14.1486 27.4497 14.1486 27.4497C14.1486 28.7562 16.6148 29.8154 19.6571 29.8154C22.6994 29.8154 25.1657 28.7562 25.1657 27.4497C25.1657 27.4497 25.1657 27.4496 25.1657 27.4496H25.1772V22.3982H25.1657C25.1654 21.0918 22.6993 20.0327 19.6571 20.0327C16.615 20.0327 14.1489 21.0918 14.1486 22.3982Z"/>
</mask>
<path fill-rule="evenodd" clip-rule="evenodd" d="M14.1486 22.3982V22.3984V27.4496C14.1486 27.4496 14.1486 27.4497 14.1486 27.4497C14.1486 28.7562 16.6148 29.8154 19.6571 29.8154C22.6994 29.8154 25.1657 28.7562 25.1657 27.4497C25.1657 27.4497 25.1657 27.4496 25.1657 27.4496H25.1772V22.3982H25.1657C25.1654 21.0918 22.6993 20.0327 19.6571 20.0327C16.615 20.0327 14.1489 21.0918 14.1486 22.3982Z" fill="white"/>
<path d="M14.1486 22.3982L13.6486 22.3981V22.3982H14.1486ZM25.1657 27.4496V26.9496H24.6657V27.4496H25.1657ZM25.1772 27.4496V27.9496H25.6772V27.4496H25.1772ZM25.1772 22.3982H25.6772V21.8982H25.1772V22.3982ZM25.1657 22.3982L24.6657 22.3983L24.6658 22.8982H25.1657V22.3982ZM14.6486 22.3984V22.3982H13.6486V22.3984H14.6486ZM14.6486 27.4496V22.3984H13.6486V27.4496H14.6486ZM13.6486 27.4496V27.4496C13.6486 27.4496 13.6486 27.4496 13.6486 27.4496C13.6486 27.4496 13.6486 27.4496 13.6486 27.4496C13.6486 27.4496 13.6486 27.4496 13.6486 27.4496V27.4496C13.6486 27.4496 13.6486 27.4496 13.6486 27.4496C13.6486 27.4496 13.6486 27.4496 13.6486 27.4496C13.6486 27.4496 13.6486 27.4496 13.6486 27.4496V27.4496V27.4496C13.6486 27.4496 13.6486 27.4496 13.6486 27.4496C13.6486 27.4496 13.6486 27.4496 13.6486 27.4496C13.6486 27.4496 13.6486 27.4496 13.6486 27.4496V27.4496V27.4496C13.6486 27.4496 13.6486 27.4496 13.6486 27.4496C13.6486 27.4496 13.6486 27.4496 13.6486 27.4496C13.6486 27.4496 13.6486 27.4496 13.6486 27.4496V27.4496V27.4496C13.6486 27.4496 13.6486 27.4496 13.6486 27.4496C13.6486 27.4496 13.6486 27.4496 13.6486 27.4496C13.6486 27.4496 13.6486 27.4496 13.6486 27.4496V27.4496C13.6486 27.4496 13.6486 27.4496 13.6486 27.4496C13.6486 27.4496 13.6486 27.4496 13.6486 27.4496C13.6486 27.4496 13.6486 27.4496 13.6486 27.4496C13.6486 27.4496 13.6486 27.4496 13.6486 27.4496V27.4496C13.6486 27.4496 13.6486 27.4496 13.6486 27.4496C13.6486 27.4496 13.6486 27.4496 13.6486 27.4496C13.6486 27.4496 13.6486 27.4496 13.6486 27.4496C13.6486 27.4496 13.6486 27.4496 13.6486 27.4496V27.4496C13.6486 27.4496 13.6486 27.4496 13.6486 27.4496C13.6486 27.4496 13.6486 27.4496 13.6486 27.4496C13.6486 27.4496 13.6486 27.4496 13.6486 27.4496C13.6486 27.4496 13.6486 27.4496 13.6486 27.4496V27.4496C13.6486 27.4496 13.6486 27.4496 13.6486 27.4496C13.6486 27.4496 13.6486 27.4496 13.6486 27.4496C13.6486 27.4496 13.6486 27.4496 13.6486 27.4496C13.6486 27.4496 13.6486 27.4496 13.6486 27.4496V27.4496C13.6486 27.4496 13.6486 27.4496 13.6486 27.4496C13.6486 27.4496 13.6486 27.4496 13.6486 27.4496C13.6486 27.4496 13.6486 27.4496 13.6486 27.4496C13.6486 27.4496 13.6486 27.4496 13.6486 27.4496V27.4496V27.4496C13.6486 27.4496 13.6486 27.4496 13.6486 27.4496C13.6486 27.4496 13.6486 27.4496 13.6486 27.4496C13.6486 27.4496 13.6486 27.4496 13.6486 27.4496V27.4496V27.4496C13.6486 27.4496 13.6486 27.4496 13.6486 27.4496C13.6486 27.4496 13.6486 27.4496 13.6486 27.4496C13.6486 27.4496 13.6486 27.4496 13.6486 27.4496V27.4497V27.4497C13.6486 27.4497 13.6486 27.4497 13.6486 27.4497C13.6486 27.4497 13.6486 27.4497 13.6486 27.4497C13.6486 27.4497 13.6486 27.4497 13.6486 27.4497V27.4497V27.4497C13.6486 27.4497 13.6486 27.4497 13.6486 27.4497C13.6486 27.4497 13.6486 27.4497 13.6486 27.4497C13.6486 27.4497 13.6486 27.4497 13.6486 27.4497C13.6486 27.4497 13.6486 27.4497 13.6486 27.4497V27.4497C13.6486 27.4497 13.6486 27.4497 13.6486 27.4497C13.6486 27.4497 13.6486 27.4497 13.6486 27.4497C13.6486 27.4497 13.6486 27.4497 13.6486 27.4497C13.6486 27.4497 13.6486 27.4497 13.6486 27.4497V27.4497V27.4497C13.6486 27.4497 13.6486 27.4497 13.6486 27.4497C13.6486 27.4497 13.6486 27.4497 13.6486 27.4497C13.6486 27.4497 13.6486 27.4497 13.6486 27.4497V27.4497V27.4497C13.6486 27.4497 13.6486 27.4497 13.6486 27.4497C13.6486 27.4497 13.6486 27.4497 13.6486 27.4497C13.6486 27.4497 13.6486 27.4497 13.6486 27.4497V27.4497V27.4497C13.6486 27.4497 13.6486 27.4497 13.6486 27.4497C13.6486 27.4497 13.6486 27.4497 13.6486 27.4497C13.6486 27.4497 13.6486 27.4497 13.6486 27.4497C13.6486 27.4497 13.6486 27.4497 13.6486 27.4497V27.4497C13.6486 27.4497 13.6486 27.4497 13.6486 27.4497C13.6486 27.4497 13.6486 27.4497 13.6486 27.4497C13.6486 27.4497 13.6486 27.4497 13.6486 27.4497C13.6486 27.4497 13.6486 27.4497 13.6486 27.4497V27.4497V27.4497C13.6486 27.4497 13.6486 27.4497 13.6486 27.4497C13.6486 27.4497 13.6486 27.4497 13.6486 27.4497C13.6486 27.4497 13.6486 27.4497 13.6486 27.4497V27.4497V27.4497C13.6486 27.4497 13.6486 27.4497 13.6486 27.4497C13.6486 27.4497 13.6486 27.4497 13.6486 27.4497C13.6486 27.4497 13.6486 27.4497 13.6486 27.4497V27.4497V27.4497C13.6486 27.4497 13.6486 27.4497 13.6486 27.4497C13.6486 27.4497 13.6486 27.4497 13.6486 27.4497C13.6486 27.4497 13.6486 27.4497 13.6486 27.4497V27.4497V27.4497C13.6486 27.4497 13.6486 27.4497 13.6486 27.4497C13.6486 27.4497 13.6486 27.4497 13.6486 27.4497C13.6486 27.4497 13.6486 27.4497 13.6486 27.4497C13.6486 27.4497 13.6486 27.4497 13.6486 27.4497V27.4497C13.6486 27.4497 13.6486 27.4497 13.6486 27.4497C13.6486 27.4497 13.6486 27.4497 13.6486 27.4497C13.6486 27.4497 13.6486 27.4497 13.6486 27.4497C13.6486 27.4497 13.6486 27.4497 13.6486 27.4497V27.4497C13.6486 27.4497 13.6486 27.4497 13.6486 27.4497C13.6486 27.4497 13.6486 27.4497 13.6486 27.4497C13.6486 27.4497 13.6486 27.4497 13.6486 27.4497C13.6486 27.4497 13.6486 27.4497 13.6486 27.4497V27.4497C13.6486 27.4497 13.6486 27.4497 13.6486 27.4497C13.6486 27.4497 13.6486 27.4497 13.6486 27.4497C13.6486 27.4497 13.6486 27.4497 13.6486 27.4497C13.6486 27.4497 13.6486 27.4497 13.6486 27.4497V27.4497C13.6486 27.4497 13.6486 27.4497 13.6486 27.4497C13.6486 27.4497 13.6486 27.4497 13.6486 27.4497C13.6486 27.4497 13.6486 27.4497 13.6486 27.4497C13.6486 27.4497 13.6486 27.4497 13.6486 27.4497V27.4497C13.6486 27.4497 13.6486 27.4497 13.6486 27.4497C13.6486 27.4497 13.6486 27.4497 13.6486 27.4497C13.6486 27.4497 13.6486 27.4497 13.6486 27.4497V27.4497V27.4497C13.6486 27.4497 13.6486 27.4497 13.6486 27.4497C13.6486 27.4497 13.6486 27.4497 13.6486 27.4497C13.6486 27.4497 13.6486 27.4497 13.6486 27.4497V27.4497V27.4497C13.6486 27.4497 13.6486 27.4497 13.6486 27.4497C13.6486 27.4497 13.6486 27.4497 13.6486 27.4497C13.6486 27.4497 13.6486 27.4497 13.6486 27.4497V27.4497V27.4497C13.6486 27.4497 13.6486 27.4497 13.6486 27.4497C13.6486 27.4497 13.6486 27.4497 13.6486 27.4497C13.6486 27.4497 13.6486 27.4497 13.6486 27.4497V27.4497C13.6486 27.4497 13.6486 27.4497 13.6486 27.4497C13.6486 27.4497 13.6486 27.4497 13.6486 27.4497C13.6486 27.4497 13.6486 27.4497 13.6486 27.4497V27.4497H14.6486V27.4497C14.6486 27.4497 14.6486 27.4497 14.6486 27.4497C14.6486 27.4497 14.6486 27.4497 14.6486 27.4497C14.6486 27.4497 14.6486 27.4497 14.6486 27.4497V27.4497C14.6486 27.4497 14.6486 27.4497 14.6486 27.4497C14.6486 27.4497 14.6486 27.4497 14.6486 27.4497C14.6486 27.4497 14.6486 27.4497 14.6486 27.4497V27.4497V27.4497C14.6486 27.4497 14.6486 27.4497 14.6486 27.4497C14.6486 27.4497 14.6486 27.4497 14.6486 27.4497C14.6486 27.4497 14.6486 27.4497 14.6486 27.4497V27.4497V27.4497C14.6486 27.4497 14.6486 27.4497 14.6486 27.4497C14.6486 27.4497 14.6486 27.4497 14.6486 27.4497C14.6486 27.4497 14.6486 27.4497 14.6486 27.4497V27.4497V27.4497C14.6486 27.4497 14.6486 27.4497 14.6486 27.4497C14.6486 27.4497 14.6486 27.4497 14.6486 27.4497C14.6486 27.4497 14.6486 27.4497 14.6486 27.4497V27.4497C14.6486 27.4497 14.6486 27.4497 14.6486 27.4497C14.6486 27.4497 14.6486 27.4497 14.6486 27.4497C14.6486 27.4497 14.6486 27.4497 14.6486 27.4497C14.6486 27.4497 14.6486 27.4497 14.6486 27.4497V27.4497C14.6486 27.4497 14.6486 27.4497 14.6486 27.4497C14.6486 27.4497 14.6486 27.4497 14.6486 27.4497C14.6486 27.4497 14.6486 27.4497 14.6486 27.4497C14.6486 27.4497 14.6486 27.4497 14.6486 27.4497V27.4497C14.6486 27.4497 14.6486 27.4497 14.6486 27.4497C14.6486 27.4497 14.6486 27.4497 14.6486 27.4497C14.6486 27.4497 14.6486 27.4497 14.6486 27.4497C14.6486 27.4497 14.6486 27.4497 14.6486 27.4497V27.4497C14.6486 27.4497 14.6486 27.4497 14.6486 27.4497C14.6486 27.4497 14.6486 27.4497 14.6486 27.4497C14.6486 27.4497 14.6486 27.4497 14.6486 27.4497C14.6486 27.4497 14.6486 27.4497 14.6486 27.4497V27.4497C14.6486 27.4497 14.6486 27.4497 14.6486 27.4497C14.6486 27.4497 14.6486 27.4497 14.6486 27.4497C14.6486 27.4497 14.6486 27.4497 14.6486 27.4497C14.6486 27.4497 14.6486 27.4497 14.6486 27.4497V27.4497V27.4497C14.6486 27.4497 14.6486 27.4497 14.6486 27.4497C14.6486 27.4497 14.6486 27.4497 14.6486 27.4497C14.6486 27.4497 14.6486 27.4497 14.6486 27.4497V27.4497V27.4497C14.6486 27.4497 14.6486 27.4497 14.6486 27.4497C14.6486 27.4497 14.6486 27.4497 14.6486 27.4497C14.6486 27.4497 14.6486 27.4497 14.6486 27.4497V27.4497V27.4497C14.6486 27.4497 14.6486 27.4497 14.6486 27.4497C14.6486 27.4497 14.6486 27.4497 14.6486 27.4497C14.6486 27.4497 14.6486 27.4497 14.6486 27.4497V27.4497V27.4497C14.6486 27.4497 14.6486 27.4497 14.6486 27.4497C14.6486 27.4497 14.6486 27.4497 14.6486 27.4497C14.6486 27.4497 14.6486 27.4497 14.6486 27.4497C14.6486 27.4497 14.6486 27.4497 14.6486 27.4497V27.4497C14.6486 27.4497 14.6486 27.4497 14.6486 27.4497C14.6486 27.4497 14.6486 27.4497 14.6486 27.4497C14.6486 27.4497 14.6486 27.4497 14.6486 27.4497C14.6486 27.4497 14.6486 27.4497 14.6486 27.4497V27.4497V27.4497C14.6486 27.4497 14.6486 27.4497 14.6486 27.4497C14.6486 27.4497 14.6486 27.4497 14.6486 27.4497C14.6486 27.4497 14.6486 27.4497 14.6486 27.4497V27.4497V27.4497C14.6486 27.4497 14.6486 27.4497 14.6486 27.4497C14.6486 27.4497 14.6486 27.4497 14.6486 27.4497C14.6486 27.4497 14.6486 27.4497 14.6486 27.4497V27.4497V27.4497C14.6486 27.4497 14.6486 27.4497 14.6486 27.4497C14.6486 27.4497 14.6486 27.4497 14.6486 27.4497C14.6486 27.4497 14.6486 27.4497 14.6486 27.4497C14.6486 27.4497 14.6486 27.4497 14.6486 27.4497V27.4497C14.6486 27.4497 14.6486 27.4497 14.6486 27.4497C14.6486 27.4497 14.6486 27.4497 14.6486 27.4497C14.6486 27.4497 14.6486 27.4497 14.6486 27.4497C14.6486 27.4497 14.6486 27.4497 14.6486 27.4497V27.4497V27.4497C14.6486 27.4497 14.6486 27.4497 14.6486 27.4497C14.6486 27.4497 14.6486 27.4497 14.6486 27.4497C14.6486 27.4497 14.6486 27.4497 14.6486 27.4497V27.4497V27.4496C14.6486 27.4496 14.6486 27.4496 14.6486 27.4496C14.6486 27.4496 14.6486 27.4496 14.6486 27.4496C14.6486 27.4496 14.6486 27.4496 14.6486 27.4496V27.4496V27.4496C14.6486 27.4496 14.6486 27.4496 14.6486 27.4496C14.6486 27.4496 14.6486 27.4496 14.6486 27.4496C14.6486 27.4496 14.6486 27.4496 14.6486 27.4496V27.4496V27.4496C14.6486 27.4496 14.6486 27.4496 14.6486 27.4496C14.6486 27.4496 14.6486 27.4496 14.6486 27.4496C14.6486 27.4496 14.6486 27.4496 14.6486 27.4496C14.6486 27.4496 14.6486 27.4496 14.6486 27.4496V27.4496C14.6486 27.4496 14.6486 27.4496 14.6486 27.4496C14.6486 27.4496 14.6486 27.4496 14.6486 27.4496C14.6486 27.4496 14.6486 27.4496 14.6486 27.4496C14.6486 27.4496 14.6486 27.4496 14.6486 27.4496V27.4496C14.6486 27.4496 14.6486 27.4496 14.6486 27.4496C14.6486 27.4496 14.6486 27.4496 14.6486 27.4496C14.6486 27.4496 14.6486 27.4496 14.6486 27.4496C14.6486 27.4496 14.6486 27.4496 14.6486 27.4496V27.4496C14.6486 27.4496 14.6486 27.4496 14.6486 27.4496C14.6486 27.4496 14.6486 27.4496 14.6486 27.4496C14.6486 27.4496 14.6486 27.4496 14.6486 27.4496C14.6486 27.4496 14.6486 27.4496 14.6486 27.4496V27.4496C14.6486 27.4496 14.6486 27.4496 14.6486 27.4496C14.6486 27.4496 14.6486 27.4496 14.6486 27.4496C14.6486 27.4496 14.6486 27.4496 14.6486 27.4496C14.6486 27.4496 14.6486 27.4496 14.6486 27.4496V27.4496C14.6486 27.4496 14.6486 27.4496 14.6486 27.4496C14.6486 27.4496 14.6486 27.4496 14.6486 27.4496C14.6486 27.4496 14.6486 27.4496 14.6486 27.4496V27.4496V27.4496C14.6486 27.4496 14.6486 27.4496 14.6486 27.4496C14.6486 27.4496 14.6486 27.4496 14.6486 27.4496C14.6486 27.4496 14.6486 27.4496 14.6486 27.4496V27.4496V27.4496C14.6486 27.4496 14.6486 27.4496 14.6486 27.4496C14.6486 27.4496 14.6486 27.4496 14.6486 27.4496C14.6486 27.4496 14.6486 27.4496 14.6486 27.4496V27.4496V27.4496C14.6486 27.4496 14.6486 27.4496 14.6486 27.4496C14.6486 27.4496 14.6486 27.4496 14.6486 27.4496C14.6486 27.4496 14.6486 27.4496 14.6486 27.4496V27.4496C14.6486 27.4496 14.6486 27.4496 14.6486 27.4496C14.6486 27.4496 14.6486 27.4496 14.6486 27.4496C14.6486 27.4496 14.6486 27.4496 14.6486 27.4496V27.4496H13.6486ZM13.6486 27.4497C13.6486 27.945 13.8844 28.3754 14.2252 28.7214C14.5638 29.0652 15.0291 29.3519 15.5647 29.5819C16.6375 30.0427 18.0848 30.3154 19.6571 30.3154V29.3154C18.1872 29.3154 16.8802 29.0586 15.9593 28.6631C15.498 28.465 15.1566 28.2419 14.9377 28.0197C14.721 27.7996 14.6486 27.6076 14.6486 27.4497H13.6486ZM19.6571 30.3154C21.2295 30.3154 22.6768 30.0427 23.7496 29.5819C24.2851 29.3519 24.7504 29.0652 25.0891 28.7214C25.4298 28.3754 25.6657 27.945 25.6657 27.4497H24.6657C24.6657 27.6076 24.5933 27.7996 24.3766 28.0197C24.1577 28.2419 23.8163 28.465 23.355 28.6631C22.4341 29.0586 21.1271 29.3154 19.6571 29.3154V30.3154ZM25.6657 27.4497V27.4497C25.6657 27.4497 25.6657 27.4497 25.6657 27.4497C25.6657 27.4497 25.6657 27.4497 25.6657 27.4497C25.6657 27.4497 25.6657 27.4497 25.6657 27.4497V27.4497C25.6657 27.4497 25.6657 27.4497 25.6657 27.4497C25.6657 27.4497 25.6657 27.4497 25.6657 27.4497C25.6657 27.4497 25.6657 27.4497 25.6657 27.4497V27.4497V27.4497C25.6657 27.4497 25.6657 27.4497 25.6657 27.4497C25.6657 27.4497 25.6657 27.4497 25.6657 27.4497C25.6657 27.4497 25.6657 27.4497 25.6657 27.4497V27.4497V27.4497C25.6657 27.4497 25.6657 27.4497 25.6657 27.4497C25.6657 27.4497 25.6657 27.4497 25.6657 27.4497C25.6657 27.4497 25.6657 27.4497 25.6657 27.4497V27.4497V27.4497C25.6657 27.4497 25.6657 27.4497 25.6657 27.4497C25.6657 27.4497 25.6657 27.4497 25.6657 27.4497C25.6657 27.4497 25.6657 27.4497 25.6657 27.4497V27.4497C25.6657 27.4497 25.6657 27.4497 25.6657 27.4497C25.6657 27.4497 25.6657 27.4497 25.6657 27.4497C25.6657 27.4497 25.6657 27.4497 25.6657 27.4497C25.6657 27.4497 25.6657 27.4497 25.6657 27.4497V27.4497C25.6657 27.4497 25.6657 27.4497 25.6657 27.4497C25.6657 27.4497 25.6657 27.4497 25.6657 27.4497C25.6657 27.4497 25.6657 27.4497 25.6657 27.4497C25.6657 27.4497 25.6657 27.4497 25.6657 27.4497V27.4497C25.6657 27.4497 25.6657 27.4497 25.6657 27.4497C25.6657 27.4497 25.6657 27.4497 25.6657 27.4497C25.6657 27.4497 25.6657 27.4497 25.6657 27.4497C25.6657 27.4497 25.6657 27.4497 25.6657 27.4497V27.4497C25.6657 27.4497 25.6657 27.4497 25.6657 27.4497C25.6657 27.4497 25.6657 27.4497 25.6657 27.4497C25.6657 27.4497 25.6657 27.4497 25.6657 27.4497C25.6657 27.4497 25.6657 27.4497 25.6657 27.4497V27.4497C25.6657 27.4497 25.6657 27.4497 25.6657 27.4497C25.6657 27.4497 25.6657 27.4497 25.6657 27.4497C25.6657 27.4497 25.6657 27.4497 25.6657 27.4497C25.6657 27.4497 25.6657 27.4497 25.6657 27.4497V27.4497V27.4497C25.6657 27.4497 25.6657 27.4497 25.6657 27.4497C25.6657 27.4497 25.6657 27.4497 25.6657 27.4497C25.6657 27.4497 25.6657 27.4497 25.6657 27.4497V27.4497V27.4497C25.6657 27.4497 25.6657 27.4497 25.6657 27.4497C25.6657 27.4497 25.6657 27.4497 25.6657 27.4497C25.6657 27.4497 25.6657 27.4497 25.6657 27.4497V27.4497V27.4497C25.6657 27.4497 25.6657 27.4497 25.6657 27.4497C25.6657 27.4497 25.6657 27.4497 25.6657 27.4497C25.6657 27.4497 25.6657 27.4497 25.6657 27.4497V27.4497V27.4497C25.6657 27.4497 25.6657 27.4497 25.6657 27.4497C25.6657 27.4497 25.6657 27.4497 25.6657 27.4497C25.6657 27.4497 25.6657 27.4497 25.6657 27.4497C25.6657 27.4497 25.6657 27.4497 25.6657 27.4497V27.4497C25.6657 27.4497 25.6657 27.4497 25.6657 27.4497C25.6657 27.4497 25.6657 27.4497 25.6657 27.4497C25.6657 27.4497 25.6657 27.4497 25.6657 27.4497C25.6657 27.4497 25.6657 27.4497 25.6657 27.4497V27.4497V27.4497C25.6657 27.4497 25.6657 27.4497 25.6657 27.4497C25.6657 27.4497 25.6657 27.4497 25.6657 27.4497C25.6657 27.4497 25.6657 27.4497 25.6657 27.4497V27.4497V27.4497C25.6657 27.4497 25.6657 27.4497 25.6657 27.4497C25.6657 27.4497 25.6657 27.4497 25.6657 27.4497C25.6657 27.4497 25.6657 27.4497 25.6657 27.4497V27.4497V27.4497C25.6657 27.4497 25.6657 27.4497 25.6657 27.4497C25.6657 27.4497 25.6657 27.4497 25.6657 27.4497C25.6657 27.4497 25.6657 27.4497 25.6657 27.4497C25.6657 27.4497 25.6657 27.4497 25.6657 27.4497V27.4497C25.6657 27.4497 25.6657 27.4497 25.6657 27.4497C25.6657 27.4497 25.6657 27.4497 25.6657 27.4497C25.6657 27.4497 25.6657 27.4497 25.6657 27.4497C25.6657 27.4497 25.6657 27.4497 25.6657 27.4497V27.4497V27.4497C25.6657 27.4497 25.6657 27.4497 25.6657 27.4497C25.6657 27.4497 25.6657 27.4497 25.6657 27.4497C25.6657 27.4497 25.6657 27.4497 25.6657 27.4497V27.4497V27.4496C25.6657 27.4496 25.6657 27.4496 25.6657 27.4496C25.6657 27.4496 25.6657 27.4496 25.6657 27.4496C25.6657 27.4496 25.6657 27.4496 25.6657 27.4496V27.4496V27.4496C25.6657 27.4496 25.6657 27.4496 25.6657 27.4496C25.6657 27.4496 25.6657 27.4496 25.6657 27.4496C25.6657 27.4496 25.6657 27.4496 25.6657 27.4496V27.4496V27.4496C25.6657 27.4496 25.6657 27.4496 25.6657 27.4496C25.6657 27.4496 25.6657 27.4496 25.6657 27.4496C25.6657 27.4496 25.6657 27.4496 25.6657 27.4496C25.6657 27.4496 25.6657 27.4496 25.6657 27.4496V27.4496C25.6657 27.4496 25.6657 27.4496 25.6657 27.4496C25.6657 27.4496 25.6657 27.4496 25.6657 27.4496C25.6657 27.4496 25.6657 27.4496 25.6657 27.4496C25.6657 27.4496 25.6657 27.4496 25.6657 27.4496V27.4496C25.6657 27.4496 25.6657 27.4496 25.6657 27.4496C25.6657 27.4496 25.6657 27.4496 25.6657 27.4496C25.6657 27.4496 25.6657 27.4496 25.6657 27.4496C25.6657 27.4496 25.6657 27.4496 25.6657 27.4496V27.4496C25.6657 27.4496 25.6657 27.4496 25.6657 27.4496C25.6657 27.4496 25.6657 27.4496 25.6657 27.4496C25.6657 27.4496 25.6657 27.4496 25.6657 27.4496C25.6657 27.4496 25.6657 27.4496 25.6657 27.4496V27.4496C25.6657 27.4496 25.6657 27.4496 25.6657 27.4496C25.6657 27.4496 25.6657 27.4496 25.6657 27.4496C25.6657 27.4496 25.6657 27.4496 25.6657 27.4496C25.6657 27.4496 25.6657 27.4496 25.6657 27.4496V27.4496C25.6657 27.4496 25.6657 27.4496 25.6657 27.4496C25.6657 27.4496 25.6657 27.4496 25.6657 27.4496C25.6657 27.4496 25.6657 27.4496 25.6657 27.4496V27.4496V27.4496C25.6657 27.4496 25.6657 27.4496 25.6657 27.4496C25.6657 27.4496 25.6657 27.4496 25.6657 27.4496C25.6657 27.4496 25.6657 27.4496 25.6657 27.4496V27.4496V27.4496C25.6657 27.4496 25.6657 27.4496 25.6657 27.4496C25.6657 27.4496 25.6657 27.4496 25.6657 27.4496C25.6657 27.4496 25.6657 27.4496 25.6657 27.4496V27.4496V27.4496C25.6657 27.4496 25.6657 27.4496 25.6657 27.4496C25.6657 27.4496 25.6657 27.4496 25.6657 27.4496C25.6657 27.4496 25.6657 27.4496 25.6657 27.4496V27.4496C25.6657 27.4496 25.6657 27.4496 25.6657 27.4496C25.6657 27.4496 25.6657 27.4496 25.6657 27.4496C25.6657 27.4496 25.6657 27.4496 25.6657 27.4496V27.4496H24.6657V27.4496C24.6657 27.4496 24.6657 27.4496 24.6657 27.4496C24.6657 27.4496 24.6657 27.4496 24.6657 27.4496C24.6657 27.4496 24.6657 27.4496 24.6657 27.4496V27.4496C24.6657 27.4496 24.6657 27.4496 24.6657 27.4496C24.6657 27.4496 24.6657 27.4496 24.6657 27.4496C24.6657 27.4496 24.6657 27.4496 24.6657 27.4496V27.4496V27.4496C24.6657 27.4496 24.6657 27.4496 24.6657 27.4496C24.6657 27.4496 24.6657 27.4496 24.6657 27.4496C24.6657 27.4496 24.6657 27.4496 24.6657 27.4496V27.4496V27.4496C24.6657 27.4496 24.6657 27.4496 24.6657 27.4496C24.6657 27.4496 24.6657 27.4496 24.6657 27.4496C24.6657 27.4496 24.6657 27.4496 24.6657 27.4496V27.4496V27.4496C24.6657 27.4496 24.6657 27.4496 24.6657 27.4496C24.6657 27.4496 24.6657 27.4496 24.6657 27.4496C24.6657 27.4496 24.6657 27.4496 24.6657 27.4496V27.4496C24.6657 27.4496 24.6657 27.4496 24.6657 27.4496C24.6657 27.4496 24.6657 27.4496 24.6657 27.4496C24.6657 27.4496 24.6657 27.4496 24.6657 27.4496C24.6657 27.4496 24.6657 27.4496 24.6657 27.4496V27.4496C24.6657 27.4496 24.6657 27.4496 24.6657 27.4496C24.6657 27.4496 24.6657 27.4496 24.6657 27.4496C24.6657 27.4496 24.6657 27.4496 24.6657 27.4496C24.6657 27.4496 24.6657 27.4496 24.6657 27.4496V27.4496C24.6657 27.4496 24.6657 27.4496 24.6657 27.4496C24.6657 27.4496 24.6657 27.4496 24.6657 27.4496C24.6657 27.4496 24.6657 27.4496 24.6657 27.4496C24.6657 27.4496 24.6657 27.4496 24.6657 27.4496V27.4496C24.6657 27.4496 24.6657 27.4496 24.6657 27.4496C24.6657 27.4496 24.6657 27.4496 24.6657 27.4496C24.6657 27.4496 24.6657 27.4496 24.6657 27.4496C24.6657 27.4496 24.6657 27.4496 24.6657 27.4496V27.4496C24.6657 27.4496 24.6657 27.4496 24.6657 27.4496C24.6657 27.4496 24.6657 27.4496 24.6657 27.4496C24.6657 27.4496 24.6657 27.4496 24.6657 27.4496C24.6657 27.4496 24.6657 27.4496 24.6657 27.4496V27.4496V27.4496C24.6657 27.4496 24.6657 27.4496 24.6657 27.4496C24.6657 27.4496 24.6657 27.4496 24.6657 27.4496C24.6657 27.4496 24.6657 27.4496 24.6657 27.4496V27.4496V27.4496C24.6657 27.4496 24.6657 27.4496 24.6657 27.4496C24.6657 27.4496 24.6657 27.4496 24.6657 27.4496C24.6657 27.4496 24.6657 27.4496 24.6657 27.4496V27.4497V27.4497C24.6657 27.4497 24.6657 27.4497 24.6657 27.4497C24.6657 27.4497 24.6657 27.4497 24.6657 27.4497C24.6657 27.4497 24.6657 27.4497 24.6657 27.4497V27.4497V27.4497C24.6657 27.4497 24.6657 27.4497 24.6657 27.4497C24.6657 27.4497 24.6657 27.4497 24.6657 27.4497C24.6657 27.4497 24.6657 27.4497 24.6657 27.4497C24.6657 27.4497 24.6657 27.4497 24.6657 27.4497V27.4497C24.6657 27.4497 24.6657 27.4497 24.6657 27.4497C24.6657 27.4497 24.6657 27.4497 24.6657 27.4497C24.6657 27.4497 24.6657 27.4497 24.6657 27.4497C24.6657 27.4497 24.6657 27.4497 24.6657 27.4497V27.4497V27.4497C24.6657 27.4497 24.6657 27.4497 24.6657 27.4497C24.6657 27.4497 24.6657 27.4497 24.6657 27.4497C24.6657 27.4497 24.6657 27.4497 24.6657 27.4497V27.4497V27.4497C24.6657 27.4497 24.6657 27.4497 24.6657 27.4497C24.6657 27.4497 24.6657 27.4497 24.6657 27.4497C24.6657 27.4497 24.6657 27.4497 24.6657 27.4497V27.4497V27.4497C24.6657 27.4497 24.6657 27.4497 24.6657 27.4497C24.6657 27.4497 24.6657 27.4497 24.6657 27.4497C24.6657 27.4497 24.6657 27.4497 24.6657 27.4497C24.6657 27.4497 24.6657 27.4497 24.6657 27.4497V27.4497C24.6657 27.4497 24.6657 27.4497 24.6657 27.4497C24.6657 27.4497 24.6657 27.4497 24.6657 27.4497C24.6657 27.4497 24.6657 27.4497 24.6657 27.4497C24.6657 27.4497 24.6657 27.4497 24.6657 27.4497V27.4497V27.4497C24.6657 27.4497 24.6657 27.4497 24.6657 27.4497C24.6657 27.4497 24.6657 27.4497 24.6657 27.4497C24.6657 27.4497 24.6657 27.4497 24.6657 27.4497V27.4497V27.4497C24.6657 27.4497 24.6657 27.4497 24.6657 27.4497C24.6657 27.4497 24.6657 27.4497 24.6657 27.4497C24.6657 27.4497 24.6657 27.4497 24.6657 27.4497V27.4497V27.4497C24.6657 27.4497 24.6657 27.4497 24.6657 27.4497C24.6657 27.4497 24.6657 27.4497 24.6657 27.4497C24.6657 27.4497 24.6657 27.4497 24.6657 27.4497V27.4497V27.4497C24.6657 27.4497 24.6657 27.4497 24.6657 27.4497C24.6657 27.4497 24.6657 27.4497 24.6657 27.4497C24.6657 27.4497 24.6657 27.4497 24.6657 27.4497C24.6657 27.4497 24.6657 27.4497 24.6657 27.4497V27.4497C24.6657 27.4497 24.6657 27.4497 24.6657 27.4497C24.6657 27.4497 24.6657 27.4497 24.6657 27.4497C24.6657 27.4497 24.6657 27.4497 24.6657 27.4497C24.6657 27.4497 24.6657 27.4497 24.6657 27.4497V27.4497C24.6657 27.4497 24.6657 27.4497 24.6657 27.4497C24.6657 27.4497 24.6657 27.4497 24.6657 27.4497C24.6657 27.4497 24.6657 27.4497 24.6657 27.4497C24.6657 27.4497 24.6657 27.4497 24.6657 27.4497V27.4497C24.6657 27.4497 24.6657 27.4497 24.6657 27.4497C24.6657 27.4497 24.6657 27.4497 24.6657 27.4497C24.6657 27.4497 24.6657 27.4497 24.6657 27.4497C24.6657 27.4497 24.6657 27.4497 24.6657 27.4497V27.4497C24.6657 27.4497 24.6657 27.4497 24.6657 27.4497C24.6657 27.4497 24.6657 27.4497 24.6657 27.4497C24.6657 27.4497 24.6657 27.4497 24.6657 27.4497C24.6657 27.4497 24.6657 27.4497 24.6657 27.4497V27.4497C24.6657 27.4497 24.6657 27.4497 24.6657 27.4497C24.6657 27.4497 24.6657 27.4497 24.6657 27.4497C24.6657 27.4497 24.6657 27.4497 24.6657 27.4497V27.4497V27.4497C24.6657 27.4497 24.6657 27.4497 24.6657 27.4497C24.6657 27.4497 24.6657 27.4497 24.6657 27.4497C24.6657 27.4497 24.6657 27.4497 24.6657 27.4497V27.4497V27.4497C24.6657 27.4497 24.6657 27.4497 24.6657 27.4497C24.6657 27.4497 24.6657 27.4497 24.6657 27.4497C24.6657 27.4497 24.6657 27.4497 24.6657 27.4497V27.4497V27.4497C24.6657 27.4497 24.6657 27.4497 24.6657 27.4497C24.6657 27.4497 24.6657 27.4497 24.6657 27.4497C24.6657 27.4497 24.6657 27.4497 24.6657 27.4497V27.4497C24.6657 27.4497 24.6657 27.4497 24.6657 27.4497C24.6657 27.4497 24.6657 27.4497 24.6657 27.4497C24.6657 27.4497 24.6657 27.4497 24.6657 27.4497V27.4497H25.6657ZM25.1772 26.9496H25.1657V27.9496H25.1772V26.9496ZM24.6772 22.3982V27.4496H25.6772V22.3982H24.6772ZM25.1657 22.8982H25.1772V21.8982H25.1657V22.8982ZM19.6571 20.5327C21.127 20.5327 22.434 20.7895 23.3548 21.185C23.8161 21.3831 24.1576 21.6061 24.3765 21.8283C24.5932 22.0484 24.6657 22.2404 24.6657 22.3983L25.6657 22.3981C25.6656 21.9028 25.4297 21.4725 25.0889 21.1265C24.7502 20.7828 24.2849 20.4961 23.7494 20.2661C22.6766 19.8054 21.2294 19.5327 19.6571 19.5327V20.5327ZM14.6486 22.3983C14.6486 22.2404 14.721 22.0484 14.9378 21.8283C15.1567 21.6061 15.4981 21.3831 15.9595 21.185C16.8803 20.7895 18.1873 20.5327 19.6571 20.5327V19.5327C18.0849 19.5327 16.6377 19.8054 15.5649 20.2661C15.0293 20.4961 14.5641 20.7828 14.2254 21.1265C13.8846 21.4725 13.6487 21.9028 13.6486 22.3981L14.6486 22.3983Z" fill="#2A1A5E" mask="url(#path-7-inside-3_202_6826)"/>
<path d="M23.9901 22.3983C23.9901 22.5853 23.9028 22.7842 23.7019 22.9879C23.5 23.1927 23.1954 23.3886 22.7992 23.5585C22.0079 23.898 20.8972 24.114 19.6572 24.114C18.4173 24.114 17.3066 23.898 16.5152 23.5585C16.1191 23.3886 15.8144 23.1927 15.6125 22.9879C15.4116 22.7842 15.3243 22.5853 15.3243 22.3983C15.3243 22.2114 15.4116 22.0124 15.6125 21.8087C15.8144 21.6039 16.1191 21.408 16.5152 21.2381C17.3066 20.8987 18.4173 20.6826 19.6572 20.6826C20.8972 20.6826 22.0079 20.8987 22.7992 21.2381C23.1954 21.408 23.5 21.6039 23.7019 21.8087C23.9028 22.0124 23.9901 22.2114 23.9901 22.3983Z" fill="white" stroke="#2A1A5E" stroke-width="0.5"/>
</svg>
