<svg width="24" height="21" viewBox="0 0 24 21" fill="none" xmlns="http://www.w3.org/2000/svg">
<path d="M23.2751 4.89111H0.417969V15.3597H23.2751V4.89111Z" fill="#FF671D"/>
<path d="M11.8465 9.78286C18.1584 9.78286 23.2751 7.59289 23.2751 4.89143C23.2751 2.18997 18.1584 0 11.8465 0C5.53471 0 0.417969 2.18997 0.417969 4.89143C0.417969 7.59289 5.53471 9.78286 11.8465 9.78286Z" fill="#FF671D"/>
<path d="M11.8465 20.2628C18.1584 20.2628 23.2751 18.0729 23.2751 15.3714C23.2751 12.6699 18.1584 10.48 11.8465 10.48C5.53471 10.48 0.417969 12.6699 0.417969 15.3714C0.417969 18.0729 5.53471 20.2628 11.8465 20.2628Z" fill="#FF671D"/>
<path d="M11.847 8.96039C17.0859 8.96039 21.3328 7.13882 21.3328 4.89181C21.3328 2.6448 17.0859 0.823242 11.847 0.823242C6.60823 0.823242 2.36133 2.6448 2.36133 4.89181C2.36133 7.13882 6.60823 8.96039 11.847 8.96039Z" fill="white"/>
<path d="M11.846 8.02311C15.8856 8.02311 19.1603 6.62112 19.1603 4.89168C19.1603 3.16224 15.8856 1.76025 11.846 1.76025C7.80646 1.76025 4.53174 3.16224 4.53174 4.89168C4.53174 6.62112 7.80646 8.02311 11.846 8.02311Z" fill="#FF671D"/>
</svg>
