<svg width="28" height="23" viewBox="0 0 28 23" fill="none" xmlns="http://www.w3.org/2000/svg">
<path d="M4.05933 12.8704C4.05933 12.8704 4.05933 12.8818 4.05933 12.8704C4.09361 12.8932 4.13931 12.9161 4.18502 12.9389C4.13931 12.9161 4.10504 12.8932 4.05933 12.8704Z" fill="#2A1A5E"/>
<path d="M13.0953 22.5066L13.0954 22.5066L13.091 22.5063C6.62167 22.1232 1.62037 17.0353 1.12631 10.9667C1.28535 11.1958 1.4765 11.4165 1.69571 11.6278C2.39134 12.2984 3.38476 12.8908 4.59178 13.3831C7.00707 14.368 10.3263 14.9716 13.979 14.9716C17.6316 14.9716 20.9508 14.3709 23.3662 13.3874C24.5732 12.8959 25.5667 12.3038 26.2624 11.6326C26.4815 11.4212 26.6725 11.2005 26.8314 10.9713C26.3353 17.0371 21.3361 22.122 14.8697 22.5061C14.5728 22.5176 14.2698 22.5287 13.979 22.5287C13.6688 22.5287 13.3813 22.5286 13.0953 22.5066Z" stroke="#2A1A5E" stroke-width="0.5"/>
<path d="M19.1677 0.263066L19.1679 0.263058C19.6653 0.238673 19.9339 0.433774 20.0848 0.618621C20.1639 0.715488 20.2145 0.814812 20.2451 0.890115C20.2602 0.92746 20.2701 0.957954 20.2759 0.977923C20.2788 0.987876 20.2807 0.995114 20.2817 0.999166L20.2825 1.00255L20.3625 1.38898L20.6768 1.1507L20.6773 1.15029L20.6777 1.15003L20.6778 1.14989L20.6788 1.14928C20.6815 1.14735 20.6867 1.14378 20.6942 1.13896C20.7093 1.1293 20.7334 1.11474 20.7655 1.09826C20.8301 1.06512 20.9246 1.02538 21.0413 1.00088C21.2683 0.953201 21.5914 0.959749 21.9629 1.21389C22.2822 1.4332 22.4039 1.70827 22.4493 1.92934C22.4724 2.04171 22.4756 2.14063 22.4731 2.21054C22.4719 2.24531 22.4692 2.2723 22.4671 2.28946C22.4661 2.29802 22.4652 2.30407 22.4646 2.30734L22.4642 2.30986L22.4642 2.30987L22.4642 2.31012L22.3838 2.72324L22.7845 2.59482L22.7869 2.59414C22.7903 2.59321 22.7966 2.59153 22.8056 2.58946C22.8236 2.58529 22.8522 2.57959 22.889 2.57506C22.9631 2.56594 23.0679 2.56189 23.1873 2.58255C23.4172 2.62234 23.7241 2.7567 23.9817 3.18271L23.9821 3.18345C24.1631 3.48045 24.1921 3.8435 24.1085 4.1854C24.0241 4.53063 23.8326 4.82224 23.6168 4.97507C23.3671 5.15197 23.0865 5.27718 22.864 5.35858C22.7965 5.38328 22.7351 5.40366 22.6826 5.42002C22.6223 5.31371 22.5309 5.17163 22.396 5.00112C22.1031 4.63083 21.6067 4.12819 20.782 3.56671L20.7811 3.56609C20.0177 3.05121 19.3333 2.79725 18.835 2.67229C18.586 2.60986 18.3838 2.5797 18.2415 2.56519C18.2355 2.56457 18.2296 2.56399 18.2238 2.56343C18.2233 2.56014 18.2227 2.55683 18.2221 2.55348C18.2011 2.42921 18.1746 2.2596 18.1523 2.07733C18.13 1.89434 18.1124 1.70253 18.1084 1.5328C18.1042 1.35549 18.1159 1.22949 18.1369 1.16293C18.2602 0.772513 18.612 0.289954 19.1677 0.263066Z" stroke="#2A1A5E" stroke-width="0.5"/>
<path d="M23.2147 10.9379L22.8881 11.2224C22.5496 11.3966 22.1372 11.5574 21.652 11.7076C21.8976 11.3183 22.1346 10.9321 22.3384 10.584C22.6339 10.0792 22.8746 9.62996 22.9588 9.37098C23.131 8.84368 23.2267 8.331 23.243 7.84239C23.3486 7.79222 23.4339 7.77431 23.5085 7.76828C23.5865 7.76198 23.6463 7.76682 23.7232 7.77304C23.7658 7.77649 23.8137 7.78037 23.8728 7.783C23.9901 7.7914 24.137 7.84222 24.2439 7.98224C24.3517 8.12342 24.451 8.39737 24.3819 8.91765C24.3159 9.41586 24.0335 9.91791 23.749 10.3092C23.609 10.5018 23.4732 10.6613 23.3725 10.7723C23.3223 10.8277 23.2811 10.8708 23.2528 10.8997C23.2387 10.9141 23.2278 10.925 23.2207 10.932L23.2147 10.9379Z" stroke="#2A1A5E" stroke-width="0.5"/>
<path d="M20.5935 10.3848L20.5935 10.3847L20.5924 10.3868C20.2498 11.0292 19.8966 11.6219 19.5506 12.186C17.9647 12.4574 16.0437 12.6202 13.9788 12.6202C13.7408 12.6202 13.5075 12.6201 13.2761 12.6128C13.4786 11.8953 13.6887 11.156 13.8989 10.4255C14.3274 8.95959 14.8119 7.91125 15.2334 7.0111C15.6092 6.21986 15.9695 5.57973 16.3875 5.13766C16.7968 4.70491 17.2542 4.46875 17.8416 4.46875C18.4411 4.46875 19.1301 4.75186 19.7509 5.14434C20.3692 5.53529 20.8804 6.00964 21.1258 6.34387C21.6068 6.99882 21.7312 7.76708 21.3774 8.78668C21.1293 9.4727 20.9746 9.73284 20.7945 10.0357C20.7322 10.1405 20.6669 10.2504 20.5935 10.3848Z" stroke="#2A1A5E" stroke-width="0.5"/>
<path d="M7.64027 2.68082L7.64024 2.68099L7.64022 2.6811L7.6402 2.68116L7.59525 2.89964L7.37502 2.87962C7.3746 2.87959 7.37401 2.87956 7.37324 2.87953C7.36978 2.87938 7.36278 2.87917 7.35247 2.87927C7.33186 2.87945 7.29807 2.88086 7.25293 2.88642C7.16279 2.89752 7.02693 2.92525 6.85976 2.99338C6.52773 3.1287 6.05869 3.42894 5.57566 4.10193L5.57509 4.10272C5.06393 4.80904 4.99436 5.57704 5.00752 6.04441C5.3337 6.15588 5.66955 6.31786 5.98689 6.52246C6.23951 6.68165 6.46918 6.86848 6.67621 7.07135C6.88478 6.87034 7.11445 6.69097 7.36488 6.53327L7.64027 2.68082ZM7.64027 2.68082L7.64031 2.68065L7.64107 2.67714L7.64486 2.66046C7.64843 2.6452 7.65411 2.62186 7.66216 2.59154C7.67828 2.53085 7.7038 2.44249 7.74073 2.33517C7.81482 2.11985 7.93355 1.83186 8.11181 1.539C8.46901 0.952184 9.04772 0.370717 9.97023 0.273342L9.97028 0.273336C11.0885 0.15506 11.874 0.500968 12.3902 0.977067C12.915 1.46106 13.1685 2.0858 13.2034 2.52455L13.2215 2.7524L13.4488 2.75469C13.4487 2.75469 13.4488 2.75469 13.4492 2.7547L13.4492 2.7547L13.4496 2.75471L13.4498 2.75471M7.64027 2.68082L13.4498 2.75471M9.8057 12.3742C10.3743 11.907 11.0574 11.1437 11.4856 10.2088L11.4856 10.2087C12.2391 8.5604 12.1216 7.16653 11.3122 6.33089M9.8057 12.3742L7.36497 6.53322C8.13685 6.04636 9.05113 5.74044 9.80685 5.74044C10.4112 5.74044 10.926 5.93138 11.3122 6.33089M9.8057 12.3742C10.4229 12.4527 11.1202 12.5347 11.7354 12.5749C11.9698 11.6661 12.2563 10.6246 12.5948 9.49973C12.8254 8.62382 13.1955 7.42079 13.7639 6.23737M9.8057 12.3742L15.4077 4.10495C15.4727 4.02932 15.5363 3.95531 15.6125 3.88758M11.3122 6.33089C11.3123 6.33092 11.3123 6.33094 11.3123 6.33097L11.1326 6.50472L11.3121 6.33078C11.3122 6.33081 11.3122 6.33085 11.3122 6.33089ZM13.7639 6.23737C13.7641 6.23707 13.7642 6.23677 13.7644 6.23647L13.9897 6.34472L13.7635 6.23827C13.7636 6.23797 13.7638 6.23767 13.7639 6.23737ZM13.7639 6.23737C14.0393 5.6522 14.4631 4.80175 15.0937 4.08779L15.0989 4.08199L15.1043 4.07652L15.1185 4.06217L15.1218 4.05874M15.1218 4.05874L15.1147 4.07292C15.1191 4.06403 15.1231 4.05826 15.1248 4.05591C15.1265 4.05349 15.1272 4.05285 15.1259 4.05434L15.1218 4.05874ZM15.1218 4.05874L15.1295 4.04334L15.1514 4.01863C15.1696 3.99822 15.1889 3.97568 15.2095 3.95179C15.2329 3.92451 15.2579 3.89547 15.2842 3.86582M15.2842 3.86582C15.3063 3.89233 15.3245 3.91732 15.3448 3.94574C15.3472 3.94913 15.3498 3.95265 15.3523 3.95629C15.3705 3.98181 15.3926 4.01289 15.4173 4.04375L15.6125 3.88758M15.2842 3.86582C15.2839 3.86547 15.2836 3.86512 15.2834 3.86477L15.2751 3.85492L15.2754 3.85472C14.8616 3.30302 14.3966 3.02933 14.0401 2.89239C13.861 2.82363 13.7085 2.78909 13.6029 2.7718C13.5501 2.76316 13.5092 2.75886 13.4828 2.75673C13.4696 2.75566 13.4601 2.75515 13.4545 2.7549L13.4498 2.75471M15.2842 3.86582C15.2863 3.86351 15.2884 3.86119 15.2904 3.85887C15.305 3.84258 15.32 3.82614 15.3354 3.80974C15.3704 3.77249 15.4074 3.73541 15.4465 3.70073L15.4602 3.71615L15.4608 3.71688L15.6125 3.88758M15.6125 3.88758L13.4498 2.75471" stroke="#2A1A5E" stroke-width="0.5"/>
<path d="M3.01872 7.39588L3.19857 7.56953C3.11384 7.65728 3.04683 7.84871 3.07236 8.20065C3.09711 8.54197 3.20581 8.98269 3.40124 9.50201C3.73583 10.3875 4.45881 10.9199 4.5989 11.0206C5.32011 11.3728 6.32286 11.6892 7.5223 11.9554C8.09415 11.6599 8.40177 11.3924 8.68002 11.1505C8.71615 11.1191 8.7518 11.0881 8.78746 11.0575L8.79143 11.0541L8.79147 11.0541C9.08977 10.8091 9.62959 10.247 9.92946 9.49732L9.92963 9.49688C10.1349 8.98642 10.2429 8.54764 10.265 8.2069C10.2876 7.85612 10.2169 7.65933 10.1304 7.56964C10.1037 7.54203 10.0398 7.50513 9.90916 7.49015C9.78206 7.47557 9.61773 7.48511 9.42693 7.52262C9.04573 7.59754 8.5979 7.77628 8.20547 8.02894L8.20342 8.03026L8.20341 8.03025C7.82529 8.26851 7.52387 8.60969 7.30375 8.95465C7.08262 9.30118 6.95329 9.63613 6.90914 9.8471H6.41974C6.32811 9.40931 5.89221 8.52447 5.12439 8.02959C4.73108 7.78194 4.2827 7.60306 3.90112 7.52674C3.7099 7.4885 3.54545 7.47803 3.41834 7.49191C3.28766 7.50617 3.22456 7.54265 3.19847 7.56964L3.01872 7.39588ZM3.01872 7.39588C2.69872 7.72731 2.7673 8.52731 3.1673 9.59017L3.01872 7.39588Z" stroke="#2A1A5E" stroke-width="0.5"/>
</svg>
