<svg width="27" height="26" viewBox="0 0 27 26" fill="none" xmlns="http://www.w3.org/2000/svg">
<path d="M22.5009 9.00418e-05L0.0917969 22.4092L1.15043 23.4678L23.5595 1.05872L22.5009 9.00418e-05Z" fill="#FF671D"/>
<path d="M25.7267 3.58346L0.491211 22.77L1.39728 23.9617L26.6327 4.77518L25.7267 3.58346Z" fill="#FF671D"/>
<path d="M13.6325 19.7146C19.1301 19.7146 23.5867 17.9084 23.5867 15.6803C23.5867 13.4522 19.1301 11.646 13.6325 11.646C8.13486 11.646 3.67822 13.4522 3.67822 15.6803C3.67822 17.9084 8.13486 19.7146 13.6325 19.7146Z" fill="white"/>
<path d="M13.632 19.7035C9.94062 19.7035 6.72913 18.8921 5.00342 17.6807L7.44915 23.0178C7.44915 23.0178 7.44915 23.0178 7.44915 23.0292L7.49491 23.1321H7.50635C8.18063 24.3778 10.6606 25.3035 13.6206 25.3035C16.5806 25.3035 19.0606 24.3778 19.7349 23.1321H19.7463L19.7921 23.0292C19.7921 23.0292 19.7921 23.0292 19.7921 23.0178L22.2378 17.6807C20.5349 18.8807 17.3235 19.7035 13.632 19.7035Z" fill="#FF671D"/>
<path d="M13.6325 18.4914C19.1301 18.4914 23.5867 16.6852 23.5867 14.4571C23.5867 12.2291 19.1301 10.4229 13.6325 10.4229C8.13486 10.4229 3.67822 12.2291 3.67822 14.4571C3.67822 16.6852 8.13486 18.4914 13.6325 18.4914Z" fill="#FF671D"/>
<path d="M14.5926 14.7433C14.9583 13.6348 11.9641 12.8462 11.9641 12.8462C11.9641 12.8462 12.2726 13.029 12.1698 13.3833L13.3012 14.069L12.0326 13.6462C11.9869 13.7033 11.9183 13.7719 11.8497 13.8405L13.1526 14.6291L11.5984 14.1033C11.5526 14.1605 11.507 14.229 11.4841 14.2862L12.8326 15.1091L11.4383 14.6405C11.5526 15.1319 12.4213 15.4862 13.0956 15.6919C12.3641 15.5433 11.2327 15.3948 10.1812 15.6005L11.827 15.8862L9.51841 15.7948C9.41556 15.829 9.31269 15.8748 9.22126 15.9319L11.0498 16.2519L8.83259 16.1605C8.72973 16.2291 8.63843 16.2862 8.53557 16.3319L10.0212 16.5948L8.10128 16.5148C7.46128 16.7319 6.93555 16.709 6.93555 16.709C6.93555 16.709 10.0098 17.4405 12.0326 16.7433C12.4098 16.6176 12.7297 16.4805 12.9926 16.3662C13.6212 16.0805 14.0898 15.7262 14.3412 15.349C14.4212 15.1319 14.5241 14.949 14.5926 14.7433Z" fill="white"/>
<path d="M17.4957 14.2859C16.2728 14.1374 15.5756 14.0231 15.5756 13.7945C15.5756 13.5774 16.17 13.4288 17.1071 13.4288C17.5871 13.4288 18.0557 13.4631 18.5014 13.5431C19.1871 13.6574 19.9643 13.5545 20.3871 13.3031L20.65 13.1431C20.3871 13.0631 20.1242 12.9945 19.8499 12.9259C19.0385 12.7431 18.1585 12.6631 17.1756 12.6631C15.5985 12.6631 14.4328 12.8917 13.8842 13.2802C14.6156 13.6459 15.2785 14.1602 15.0728 14.7774C15.0614 14.7888 15.0614 14.8117 15.0499 14.8231C15.6557 14.9602 16.3642 15.0517 17.0042 15.1202C18.0785 15.2574 18.7757 15.3145 18.7757 15.5659C18.7757 15.8174 18.1813 15.9659 17.1528 15.9659C16.1928 15.9659 15.3013 15.8288 14.5928 15.5888C14.3642 15.8402 14.0328 16.0917 13.6328 16.2974C14.5585 16.5717 15.7928 16.7202 17.0957 16.7202C19.4614 16.7202 20.8556 16.2745 20.8556 15.4974C20.8785 14.6974 19.0042 14.4688 17.4957 14.2859Z" fill="white"/>
<path d="M9.22084 13.36L7.11789 11.4058C6.55789 11.6 6.05509 11.8286 5.60938 12.0686L8.24944 14.4458V15.2115H10.1808V14.4458L13.4265 11.4972H11.2323L9.22084 13.36Z" fill="white"/>
</svg>
