<svg width="20" height="27" viewBox="0 0 20 27" fill="none" xmlns="http://www.w3.org/2000/svg">
<path d="M8.91517 0C8.91517 0 6.95696 1.30796 6.8568 3.58562C6.78168 5.24877 8.01369 5.54193 8.58963 6.26357C9.17057 6.9852 8.91016 8 8.91016 8C8.91016 8 10.7331 5.69979 9.3108 3.99718C8.08882 2.537 8.07881 1.41508 8.91517 0Z" fill="#FF671D"/>
<path d="M9.85352 3C9.85352 3 10.8243 3.9007 10.8483 5.11469C10.8724 6.32867 10.0746 7 10.0746 7C10.0746 7 12.4343 6.31189 11.7182 4.3035C11.3289 3.20699 9.85352 3 9.85352 3Z" fill="#FF671D"/>
<path d="M0.470703 15.9154C0.470703 15.3737 0.853581 14.3839 1.17109 13.8516C1.4419 13.4033 1.07771 12.3481 1.54464 11.9372C1.94619 11.5823 2.98275 12.0399 3.50571 11.7411C3.98197 11.4702 4.07536 10.3403 4.63567 10.1255C5.14928 9.9294 5.98975 10.6858 6.56874 10.5457C7.11037 10.415 7.50258 9.35042 8.08157 9.27571C8.64188 9.21034 9.26755 10.1535 9.85587 10.1535C10.4442 10.1535 11.0699 9.21034 11.6302 9.27571C12.2092 9.34108 12.6014 10.4057 13.143 10.5457C13.722 10.6858 14.5625 9.9294 15.0761 10.1255C15.6364 10.3403 15.7298 11.4702 16.206 11.7411C16.729 12.0492 17.7656 11.5916 18.1765 11.9372C18.6434 12.3481 18.2792 13.4033 18.55 13.8516C18.8675 14.3839 19.2504 15.3737 19.2504 15.9154H0.470703Z" fill="#FF671D"/>
<path d="M17.9338 16.1489H1.7876V23.545H17.9338V16.1489Z" fill="#FF671D"/>
<path d="M9.85561 27.0003C14.3168 27.0003 17.9334 25.4534 17.9334 23.5451C17.9334 21.6368 14.3168 20.0898 9.85561 20.0898C5.39437 20.0898 1.77783 21.6368 1.77783 23.5451C1.77783 25.4534 5.39437 27.0003 9.85561 27.0003Z" fill="#FF671D"/>
<path d="M19.4556 17.9515C19.4556 20.641 15.1599 22.8168 9.86503 22.8168C4.57012 22.8168 0.274414 20.641 0.274414 17.9515C0.274414 15.262 4.57012 12.3857 9.86503 12.3857C15.1599 12.3857 19.4556 15.262 19.4556 17.9515Z" fill="white"/>
<path d="M19.4556 16.4007C19.4556 19.0902 15.1599 21.266 9.86503 21.266C4.57012 21.266 0.274414 19.0902 0.274414 16.4007C0.274414 13.7112 4.57012 10.835 9.86503 10.835C15.1599 10.835 19.4556 13.7205 19.4556 16.4007Z" fill="#FF671D"/>
</svg>
