<svg width="21" height="25" viewBox="0 0 21 25" fill="none" xmlns="http://www.w3.org/2000/svg">
<path d="M10.2742 24.0073C6.62849 24.0073 0.457031 23.2645 0.457031 20.4987V20.4187L2.31989 9.13874C2.44561 6.71588 7.35992 6.06445 10.2742 6.06445C13.1885 6.06445 18.1027 6.71588 18.2284 9.13874L20.0913 20.4187V20.4987C20.0799 23.2645 13.9199 24.0073 10.2742 24.0073Z" fill="#FF671D"/>
<path d="M17.2457 9.22993C17.2457 8.0185 14.1257 7.03564 10.2743 7.03564C6.42285 7.03564 3.3028 8.0185 3.3028 9.22993L1.43994 20.4985C1.43994 21.8928 5.39427 23.0242 10.2743 23.0242C15.1543 23.0242 19.1085 21.8928 19.1085 20.4985L17.2457 9.22993Z" fill="#FF671D"/>
<path d="M17.543 11.2073L17.2459 9.23013H13.3145C12.3887 9.10441 11.3602 9.02441 10.2745 9.02441C9.18877 9.02441 8.16016 9.09299 7.23444 9.23013H3.30301L3.00586 11.2187C3.00586 11.6644 3.44018 12.0758 4.18304 12.4187C4.46875 12.5558 4.65158 12.8416 4.65158 13.1616V16.9216C4.65158 17.3216 4.98302 17.653 5.38302 17.653C5.78302 17.653 6.11447 17.3216 6.11447 16.9216V15.493C6.11447 14.9444 6.56019 14.4873 7.12019 14.4873C7.66876 14.4873 8.12591 14.933 8.12591 15.493V15.8358C8.12591 16.3387 8.53732 16.7501 9.04018 16.7501C9.54304 16.7501 9.95445 16.3387 9.95445 15.8358V14.2016C9.95445 13.7558 10.3202 13.3787 10.7659 13.3787C11.0516 13.3787 11.3144 13.3673 11.3716 13.3673C11.5202 13.3558 11.6687 13.3558 11.8173 13.3444C12.2745 13.3101 12.7201 13.2644 13.143 13.2187C13.6344 13.1501 14.0687 13.5387 14.0687 14.0301V16.773C14.0687 17.2187 14.4344 17.5844 14.8802 17.5844C15.3259 17.5844 15.6916 17.2187 15.6916 16.773V13.2301C15.6916 12.8987 15.8859 12.6016 16.1945 12.4758C17.0402 12.1216 17.543 11.6758 17.543 11.2073Z" fill="white"/>
<path d="M10.2742 11.4242C14.1244 11.4242 17.2456 10.4418 17.2456 9.22993C17.2456 8.01806 14.1244 7.03564 10.2742 7.03564C6.42399 7.03564 3.30273 8.01806 3.30273 9.22993C3.30273 10.4418 6.42399 11.4242 10.2742 11.4242Z" fill="white"/>
<path d="M6.0915 4.46433C6.0915 4.46433 5.92009 4.3729 5.61152 4.39576C5.23437 4.41862 5.05148 4.55576 4.50291 5.0129C3.95434 5.47004 3.89725 5.55004 3.92011 5.75576C3.9544 5.96147 4.04582 6.01862 4.69724 6.28147C5.34867 6.55576 5.5772 6.6129 5.94292 6.5329C6.24006 6.46433 6.37721 6.32719 6.37721 6.32719L7.87435 5.02433L6.0915 4.46433Z" fill="#FF671D"/>
<path d="M7.55444 2.46448C7.55444 2.46448 7.4173 2.32733 7.34873 2.03019C7.2573 1.66448 7.32584 1.44734 7.60013 0.784478C7.87441 0.121621 7.93159 0.0416204 8.13731 0.0073347C8.34302 -0.026951 8.42298 0.0416207 8.88012 0.590192C9.33726 1.13876 9.46295 1.32162 9.49724 1.69876C9.5201 1.99591 9.42867 2.17876 9.42867 2.17876L8.6401 3.99591L7.55444 2.46448Z" fill="#FF671D"/>
<path d="M8.02294 2.76147C8.02294 2.76147 7.94298 2.51004 7.63441 2.23575C7.25727 1.90432 6.94869 1.84718 5.98869 1.76718C5.04012 1.68718 4.89151 1.69861 4.73151 1.92718C4.57151 2.15575 4.59439 2.29289 4.97153 3.17289C5.33725 4.05289 5.48584 4.32718 5.92013 4.59004C6.27441 4.80718 6.53724 4.80718 6.53724 4.80718L8.02294 2.76147Z" fill="#FF671D"/>
<path d="M14.6397 7.44728L13.5197 3.98442C12.6968 1.44728 9.34824 0.910137 7.78252 3.07014L6.75399 4.47585C5.18828 6.63585 6.71969 9.65299 9.38255 9.66442L13.0283 9.67585C14.1711 9.67585 14.9939 8.54442 14.6397 7.44728Z" fill="#FF671D"/>
<path d="M10.1258 1.74477L8.29722 4.25905C6.82293 6.29334 8.25154 9.13905 10.7658 9.17334L14.183 9.20762C14.6401 8.77334 14.8458 8.11048 14.6401 7.45905L13.5201 3.99619C13.0058 2.41905 11.543 1.63048 10.1258 1.74477Z" fill="#FF671D"/>
</svg>
