<svg width="26" height="30" viewBox="0 0 26 30" fill="none" xmlns="http://www.w3.org/2000/svg">
<path d="M17.1819 -4.54505e-05L8.87598 14.4053L10.173 15.1531L18.4789 0.747777L17.1819 -4.54505e-05Z" fill="#FF671D"/>
<path d="M19.4477 1.27463L9.80811 14.8379L11.0284 15.7052L20.668 2.14192L19.4477 1.27463Z" fill="#FF671D"/>
<path d="M21.3486 11.0387L17.8972 8.22725C17.5543 7.95297 17.1086 7.79297 16.64 7.79297H4.70857C4.23999 7.79297 3.78288 7.94154 3.45145 8.22725L0 11.0387H21.3486Z" fill="#FF671D"/>
<path d="M17.3941 25.9186H3.96554C3.25697 25.9186 2.65127 25.4729 2.54841 24.8786L0.0112305 11.0386H21.3484L18.8112 24.8786C18.7084 25.4729 18.1027 25.9186 17.3941 25.9186Z" fill="#FF671D"/>
<path d="M19.771 11.0386L17.3481 17.7814C17.2339 18.09 16.9482 18.2957 16.6168 18.2957H4.75391C4.42248 18.2957 4.13675 18.09 4.02246 17.7814L1.59961 11.0386H19.771Z" fill="white"/>
<path d="M12.2513 17.8726H9.1084V19.5411H12.2513V17.8726Z" fill="white"/>
<path d="M8.15967 19.1182V19.7467H8.17111C8.21682 21.1067 9.32541 22.1924 10.6854 22.1924C12.0568 22.1924 13.1539 21.1067 13.1996 19.7467H13.2111V19.1182H8.15967Z" fill="white"/>
<path d="M25.177 22.3979H14.1484V27.4494H25.177V22.3979Z" fill="#FF671D"/>
<path d="M19.657 24.7641C22.6993 24.7641 25.1656 23.705 25.1656 22.3984C25.1656 21.0919 22.6993 20.0327 19.657 20.0327C16.6147 20.0327 14.1484 21.0919 14.1484 22.3984C14.1484 23.705 16.6147 24.7641 19.657 24.7641Z" fill="white"/>
<path d="M19.657 29.8154C22.6993 29.8154 25.1656 28.7562 25.1656 27.4497C25.1656 26.1432 22.6993 25.084 19.657 25.084C16.6147 25.084 14.1484 26.1432 14.1484 27.4497C14.1484 28.7562 16.6147 29.8154 19.657 29.8154Z" fill="#FF671D"/>
<path d="M19.6571 24.364C22.1881 24.364 24.24 23.484 24.24 22.3983C24.24 21.3127 22.1881 20.4326 19.6571 20.4326C17.126 20.4326 15.0742 21.3127 15.0742 22.3983C15.0742 23.484 17.126 24.364 19.6571 24.364Z" fill="white"/>
<path d="M19.6569 23.6779C21.9355 23.6779 23.7826 23.0384 23.7826 22.2494C23.7826 21.4604 21.9355 20.8208 19.6569 20.8208C17.3784 20.8208 15.5312 21.4604 15.5312 22.2494C15.5312 23.0384 17.3784 23.6779 19.6569 23.6779Z" fill="#FF671D"/>
</svg>
