<svg width="35" height="18" viewBox="0 0 35 18" fill="none" xmlns="http://www.w3.org/2000/svg">
<path d="M23.1524 6.17017C24.8731 6.17017 26.3538 7.93391 26.3538 10.2516V14.1602C26.3538 14.7251 26.0923 15.224 25.578 15.6657C25.0585 16.112 24.2902 16.4902 23.3124 16.7943C21.3584 17.4021 18.6384 17.693 15.6095 17.693C12.5864 17.693 9.86638 17.4021 7.91087 16.7943C6.93235 16.4901 6.1629 16.1119 5.64244 15.6656C5.12723 15.2237 4.86523 14.7249 4.86523 14.1602V10.2516C4.86523 7.94488 6.34634 6.17017 8.06665 6.17017H23.1524Z" stroke="#2A1A5E" stroke-width="0.5"/>
<path d="M0.295898 11.2797C4.90161 13.1083 6.52447 9.40541 16.8673 9.97684C27.9073 10.594 30.1588 14.3883 29.5873 11.4968C28.673 6.90255 21.393 2.03398 15.6216 2.34255C8.42162 2.73113 3.45018 5.71398 0.295898 11.2797Z" fill="white"/>
<mask id="path-3-inside-1_202_6796" fill="white">
<path fill-rule="evenodd" clip-rule="evenodd" d="M6.26193 9.38603C4.07804 9.98784 2.54153 10.4113 0.295898 9.51969C3.45018 3.95397 8.42162 0.971116 15.6216 0.582545C20.726 0.309638 27.0104 4.08629 29.0274 8.14123C29.5125 8.3572 30.1672 8.66591 30.9124 9.06267C32.501 9.91981 34.0895 11.1541 34.6153 11.7141C35.141 12.2627 34.6838 12.3998 33.6667 12.1027C32.6496 11.817 30.901 10.9941 30.901 10.9941C30.901 10.9941 33.1181 13.417 32.6153 13.8855C32.1124 14.3541 29.6095 12.1484 29.6095 12.1484C29.6095 12.1484 30.741 14.9941 30.5238 15.7941C30.3067 16.5941 29.1981 15.1884 28.0896 13.1312C27.4309 11.8951 26.8506 10.716 26.6636 9.97631C24.6897 9.32224 21.5788 8.48021 16.8673 8.21683C11.5674 7.92402 8.55713 8.75354 6.26193 9.38603Z"/>
</mask>
<path d="M0.295898 9.51969L-0.1391 9.27316L-0.422137 9.77258L0.111397 9.9844L0.295898 9.51969ZM6.26193 9.38603L6.1291 8.90399H6.1291L6.26193 9.38603ZM15.6216 0.582545L15.5949 0.0832581L15.5947 0.0832716L15.6216 0.582545ZM29.0274 8.14123L28.5797 8.36391L28.6598 8.52489L28.824 8.59801L29.0274 8.14123ZM30.9124 9.06267L31.1498 8.62263L31.1474 8.62132L30.9124 9.06267ZM34.6153 11.7141L34.2507 12.0563L34.2543 12.06L34.6153 11.7141ZM33.6667 12.1027L33.8069 11.6227L33.8019 11.6213L33.6667 12.1027ZM30.901 10.9941L31.1139 10.5417L30.5321 11.3316L30.901 10.9941ZM29.6095 12.1484L29.9401 11.7733L29.1449 12.3331L29.6095 12.1484ZM30.5238 15.7941L31.0064 15.9251V15.9251L30.5238 15.7941ZM28.0896 13.1312L27.6483 13.3664L27.6494 13.3684L28.0896 13.1312ZM26.6636 9.97631L27.1483 9.85375L27.0811 9.58793L26.8208 9.50169L26.6636 9.97631ZM16.8673 8.21683L16.8952 7.71761L16.8949 7.71759L16.8673 8.21683ZM0.111397 9.9844C2.52583 10.943 4.2097 10.4702 6.39477 9.86806L6.1291 8.90399C3.94639 9.50548 2.55722 9.87952 0.4804 9.05497L0.111397 9.9844ZM15.5947 0.0832716C8.24271 0.480044 3.10786 3.54392 -0.1391 9.27316L0.730897 9.76622C3.79251 4.36403 8.60052 1.46219 15.6486 1.08182L15.5947 0.0832716ZM29.475 7.91855C28.409 5.77545 26.2473 3.75379 23.7317 2.30562C21.2134 0.855891 18.2704 -0.0597861 15.5949 0.0832582L15.6483 1.08183C18.0772 0.951969 20.8285 1.78816 23.2328 3.17227C25.6398 4.55793 27.6287 6.45206 28.5797 8.36391L29.475 7.91855ZM31.1474 8.62132C30.3901 8.21816 29.7246 7.90435 29.2307 7.68446L28.824 8.59801C29.3003 8.81005 29.9442 9.11367 30.6774 9.50402L31.1474 8.62132ZM34.9798 11.3719C34.4076 10.7623 32.7715 9.49763 31.1498 8.62264L30.675 9.5027C32.2305 10.342 33.7715 11.5458 34.2507 12.0563L34.9798 11.3719ZM33.5265 12.5826C33.7979 12.6619 34.0463 12.7166 34.261 12.7412C34.4584 12.7638 34.6923 12.7695 34.8947 12.6938C35.0041 12.6529 35.1402 12.5745 35.2351 12.4265C35.3352 12.2707 35.3492 12.1011 35.3241 11.9605C35.2814 11.72 35.1188 11.5169 34.9762 11.3681L34.2543 12.06C34.3053 12.1134 34.3333 12.1502 34.3467 12.1711C34.3621 12.195 34.3477 12.1812 34.3396 12.1356C34.3298 12.0803 34.3315 11.983 34.3935 11.8864C34.4505 11.7976 34.5229 11.7653 34.5444 11.7572C34.5711 11.7472 34.5328 11.7658 34.3749 11.7477C34.2342 11.7316 34.0441 11.692 33.8069 11.6227L33.5265 12.5826ZM30.901 10.9941C30.6881 11.4465 30.6881 11.4465 30.6881 11.4465C30.6882 11.4465 30.6882 11.4466 30.6882 11.4466C30.6883 11.4466 30.6884 11.4467 30.6886 11.4467C30.6888 11.4469 30.6892 11.447 30.6897 11.4473C30.6906 11.4477 30.692 11.4483 30.6938 11.4492C30.6973 11.4509 30.7025 11.4533 30.7093 11.4564C30.7228 11.4628 30.7426 11.472 30.768 11.4837C30.8188 11.5073 30.8923 11.5411 30.9835 11.5824C31.1657 11.6651 31.4195 11.7785 31.7057 11.9009C32.2709 12.1427 32.9886 12.4315 33.5315 12.584L33.8019 11.6213C33.3277 11.4881 32.6625 11.2226 32.0991 10.9815C31.8211 10.8626 31.5741 10.7523 31.3967 10.6718C31.3081 10.6316 31.2369 10.5989 31.1882 10.5763C31.1638 10.565 31.145 10.5562 31.1324 10.5504C31.1261 10.5474 31.1214 10.5452 31.1183 10.5437C31.1167 10.543 31.1156 10.5425 31.1148 10.5421C31.1145 10.542 31.1142 10.5418 31.114 10.5418C31.1139 10.5417 31.1139 10.5417 31.1139 10.5417C31.1139 10.5417 31.1139 10.5417 31.1138 10.5417C31.1139 10.5417 31.1139 10.5417 30.901 10.9941ZM32.9561 14.2513C33.1832 14.0398 33.2041 13.7594 33.1828 13.5708C33.1615 13.3811 33.0905 13.1909 33.0124 13.0241C32.8537 12.6849 32.5997 12.306 32.3486 11.9667C32.0936 11.622 31.8242 11.2949 31.6199 11.0555C31.5175 10.9354 31.4306 10.8364 31.3691 10.7671C31.3384 10.7325 31.3139 10.7052 31.297 10.6865C31.2885 10.6771 31.2819 10.6698 31.2773 10.6648C31.275 10.6622 31.2733 10.6603 31.272 10.6589C31.2714 10.6582 31.2709 10.6577 31.2705 10.6573C31.2703 10.6571 31.2702 10.6569 31.2701 10.6568C31.27 10.6567 31.27 10.6567 31.2699 10.6567C31.2699 10.6566 31.2698 10.6565 30.901 10.9941C30.5321 11.3316 30.5321 11.3316 30.5321 11.3316C30.5321 11.3316 30.5321 11.3316 30.5321 11.3316C30.5321 11.3316 30.5321 11.3317 30.5322 11.3318C30.5324 11.332 30.5327 11.3323 30.5332 11.3328C30.534 11.3337 30.5354 11.3353 30.5373 11.3374C30.5411 11.3415 30.5469 11.3479 30.5545 11.3564C30.5698 11.3733 30.5925 11.3986 30.6214 11.4311C30.6792 11.4962 30.7616 11.5901 30.8591 11.7045C31.0549 11.934 31.3083 12.2419 31.5447 12.5615C31.7851 12.8864 31.9911 13.2011 32.1067 13.448C32.1658 13.5743 32.1855 13.6502 32.1891 13.6827C32.1929 13.7163 32.1731 13.6141 32.2744 13.5197L32.9561 14.2513ZM29.6095 12.1484C29.279 12.5235 29.279 12.5235 29.2791 12.5236C29.2791 12.5236 29.2792 12.5237 29.2792 12.5237C29.2793 12.5238 29.2795 12.524 29.2797 12.5242C29.2801 12.5245 29.2807 12.525 29.2814 12.5256C29.2828 12.5269 29.2848 12.5286 29.2874 12.5309C29.2926 12.5354 29.3001 12.542 29.3098 12.5504C29.3291 12.5672 29.3572 12.5916 29.393 12.6222C29.4645 12.6833 29.5667 12.7698 29.6908 12.8719C29.9383 13.0754 30.2762 13.344 30.6328 13.5993C30.9844 13.8509 31.375 14.1048 31.724 14.2658C31.8961 14.3452 32.0875 14.4161 32.276 14.4411C32.4569 14.4651 32.7343 14.458 32.9561 14.2513L32.2744 13.5197C32.3705 13.4302 32.4597 13.4567 32.4075 13.4498C32.3628 13.4438 32.2762 13.4192 32.1429 13.3578C31.8812 13.237 31.5518 13.0273 31.2148 12.7861C30.8828 12.5485 30.5636 12.2949 30.3261 12.0996C30.2077 12.0022 30.1105 11.92 30.0431 11.8623C30.0095 11.8335 29.9833 11.8109 29.9658 11.7957C29.957 11.788 29.9504 11.7823 29.9461 11.7785C29.9439 11.7766 29.9423 11.7752 29.9413 11.7743C29.9408 11.7739 29.9405 11.7736 29.9403 11.7734C29.9402 11.7733 29.9401 11.7733 29.9401 11.7732C29.9401 11.7732 29.9401 11.7732 29.9401 11.7732C29.9401 11.7732 29.9401 11.7733 29.6095 12.1484ZM31.0064 15.9251C31.0547 15.7471 31.0574 15.5513 31.0458 15.3749C31.0337 15.1914 31.0033 14.9916 30.963 14.7893C30.8824 14.3846 30.7553 13.9344 30.625 13.521C30.4941 13.1055 30.3566 12.717 30.2522 12.433C30.1999 12.2908 30.1557 12.1742 30.1244 12.0928C30.1088 12.0521 30.0964 12.0202 30.0878 11.9983C30.0835 11.9873 30.0802 11.9789 30.0779 11.9731C30.0767 11.9701 30.0758 11.9679 30.0752 11.9663C30.0749 11.9655 30.0747 11.9649 30.0745 11.9645C30.0744 11.9642 30.0743 11.9641 30.0743 11.9639C30.0742 11.9639 30.0742 11.9638 30.0742 11.9638C30.0742 11.9637 30.0742 11.9637 29.6095 12.1484C29.1449 12.3331 29.1449 12.3331 29.1449 12.3331C29.1449 12.3331 29.1449 12.3331 29.1449 12.3331C29.1449 12.3331 29.145 12.3332 29.145 12.3333C29.1451 12.3336 29.1453 12.334 29.1455 12.3346C29.146 12.3358 29.1467 12.3376 29.1477 12.3401C29.1496 12.3451 29.1526 12.3527 29.1566 12.3628C29.1645 12.3829 29.1762 12.4129 29.191 12.4516C29.2208 12.529 29.2633 12.641 29.3136 12.7781C29.4146 13.0526 29.5465 13.4256 29.6712 13.8215C29.7967 14.2195 29.9118 14.6308 29.9822 14.9846C30.0175 15.1616 30.0397 15.3154 30.048 15.4406C30.0567 15.573 30.0473 15.6411 30.0413 15.6631L31.0064 15.9251ZM27.6494 13.3684C28.2092 14.4072 28.7843 15.3117 29.2639 15.8624C29.3854 16.002 29.5081 16.1274 29.6298 16.2291C29.7465 16.3267 29.8879 16.4243 30.0473 16.4784C30.2156 16.5354 30.4511 16.5562 30.672 16.4148C30.8744 16.2852 30.964 16.0813 31.0064 15.9251L30.0413 15.6631C30.0294 15.7069 30.0369 15.6341 30.1327 15.5727C30.2471 15.4994 30.3517 15.5257 30.3682 15.5313C30.3759 15.5339 30.3446 15.5233 30.2712 15.4619C30.2028 15.4047 30.118 15.3205 30.0181 15.2057C29.6119 14.7394 29.0785 13.9124 28.5297 12.894L27.6494 13.3684ZM26.1788 10.0989C26.3836 10.9087 26.9966 12.1434 27.6483 13.3664L28.5308 12.8961C27.8652 11.6469 27.3176 10.5234 27.1483 9.85375L26.1788 10.0989ZM16.8394 8.71605C21.4998 8.97657 24.567 9.80831 26.5063 10.4509L26.8208 9.50169C24.8124 8.83617 21.6578 7.98384 16.8952 7.71761L16.8394 8.71605ZM6.39477 9.86806C8.66612 9.24215 11.617 8.42752 16.8397 8.71607L16.8949 7.71759C11.5178 7.42051 8.44814 8.26494 6.1291 8.90399L6.39477 9.86806Z" fill="#2A1A5E" mask="url(#path-3-inside-1_202_6796)"/>
<path d="M16.0067 0C17.0269 0 18.0201 0.0447485 19 0.100684V18H13V0.100684C13.9933 0.0335614 14.9866 0 16.0067 0Z" fill="white"/>
<path d="M13 0.878174V17.8329M19 1.00007V17.8329" stroke="#2A1A5E" stroke-width="0.5"/>
</svg>
