<svg width="28" height="23" viewBox="0 0 28 23" fill="none" xmlns="http://www.w3.org/2000/svg">
<path d="M12.0601 0.000273705V9.28027H16.3115V0.000273705H12.0601Z" fill="#FF671D"/>
<path d="M12.0682 9.28635C13.1664 9.28635 14.0567 7.20895 14.0567 4.64635C14.0567 2.08375 13.1664 0.00634766 12.0682 0.00634766C10.9699 0.00634766 10.0796 2.08375 10.0796 4.64635C10.0796 7.20895 10.9699 9.28635 12.0682 9.28635Z" fill="#FF671D"/>
<path d="M16.3201 9.28635C17.4184 9.28635 18.3087 7.20895 18.3087 4.64635C18.3087 2.08375 17.4184 0.00634766 16.3201 0.00634766C15.2219 0.00634766 14.3315 2.08375 14.3315 4.64635C14.3315 7.20895 15.2219 9.28635 16.3201 9.28635Z" fill="#FF671D"/>
<path d="M12.0683 8.49827C12.9835 8.49827 13.7254 6.77392 13.7254 4.64684C13.7254 2.51975 12.9835 0.79541 12.0683 0.79541C11.1531 0.79541 10.4111 2.51975 10.4111 4.64684C10.4111 6.77392 11.1531 8.49827 12.0683 8.49827Z" fill="white"/>
<path d="M12.0679 7.61815C12.7685 7.61815 13.3365 6.2878 13.3365 4.64672C13.3365 3.00565 12.7685 1.67529 12.0679 1.67529C11.3673 1.67529 10.7993 3.00565 10.7993 4.64672C10.7993 6.2878 11.3673 7.61815 12.0679 7.61815Z" fill="#FF671D"/>
<path d="M16.4663 5.62332V14.9033H20.7177V5.62332H16.4663Z" fill="#FF671D"/>
<path d="M16.4686 14.8982C17.5668 14.8982 18.4571 12.8208 18.4571 10.2582C18.4571 7.69556 17.5668 5.61816 16.4686 5.61816C15.3703 5.61816 14.48 7.69556 14.48 10.2582C14.48 12.8208 15.3703 14.8982 16.4686 14.8982Z" fill="#FF671D"/>
<path d="M20.72 14.8977C21.8183 14.8977 22.7086 12.8203 22.7086 10.2577C22.7086 7.69507 21.8183 5.61768 20.72 5.61768C19.6218 5.61768 18.7314 7.69507 18.7314 10.2577C18.7314 12.8203 19.6218 14.8977 20.72 14.8977Z" fill="#FF671D"/>
<path d="M16.4682 14.1091C17.3834 14.1091 18.1253 12.3848 18.1253 10.2577C18.1253 8.13059 17.3834 6.40625 16.4682 6.40625C15.553 6.40625 14.811 8.13059 14.811 10.2577C14.811 12.3848 15.553 14.1091 16.4682 14.1091Z" fill="white"/>
<path d="M16.4683 13.229C17.1689 13.229 17.7369 11.8986 17.7369 10.2576C17.7369 8.61649 17.1689 7.28613 16.4683 7.28613C15.7677 7.28613 15.1997 8.61649 15.1997 10.2576C15.1997 11.8986 15.7677 13.229 16.4683 13.229Z" fill="#FF671D"/>
<path d="M21.1777 11.6595V20.9395H25.4292V11.6595H21.1777Z" fill="#FF671D"/>
<path d="M21.177 20.9323C22.2753 20.9323 23.1656 18.8549 23.1656 16.2923C23.1656 13.7297 22.2753 11.6523 21.177 11.6523C20.0788 11.6523 19.1885 13.7297 19.1885 16.2923C19.1885 18.8549 20.0788 20.9323 21.177 20.9323Z" fill="#FF671D"/>
<path d="M25.4285 20.9323C26.5268 20.9323 27.4171 18.8549 27.4171 16.2923C27.4171 13.7297 26.5268 11.6523 25.4285 11.6523C24.3303 11.6523 23.4399 13.7297 23.4399 16.2923C23.4399 18.8549 24.3303 20.9323 25.4285 20.9323Z" fill="#FF671D"/>
<path d="M21.1772 20.1438C22.0924 20.1438 22.8343 18.4194 22.8343 16.2923C22.8343 14.1653 22.0924 12.4409 21.1772 12.4409C20.2619 12.4409 19.52 14.1653 19.52 16.2923C19.52 18.4194 20.2619 20.1438 21.1772 20.1438Z" fill="white"/>
<path d="M21.1768 19.2637C21.8774 19.2637 22.4453 17.9333 22.4453 16.2922C22.4453 14.6512 21.8774 13.3208 21.1768 13.3208C20.4762 13.3208 19.9082 14.6512 19.9082 16.2922C19.9082 17.9333 20.4762 19.2637 21.1768 19.2637Z" fill="#FF671D"/>
<path d="M9.28 5.82373H0V10.0752H9.28V5.82373Z" fill="#FF671D"/>
<path d="M4.64 7.8121C7.2026 7.8121 9.28 6.92179 9.28 5.82353C9.28 4.72527 7.2026 3.83496 4.64 3.83496C2.0774 3.83496 0 4.72527 0 5.82353C0 6.92179 2.0774 7.8121 4.64 7.8121Z" fill="#FF671D"/>
<path d="M4.64 12.0641C7.2026 12.0641 9.28 11.1737 9.28 10.0755C9.28 8.97723 7.2026 8.08691 4.64 8.08691C2.0774 8.08691 0 8.97723 0 10.0755C0 11.1737 2.0774 12.0641 4.64 12.0641Z" fill="#FF671D"/>
<path d="M4.64 7.48079C6.76709 7.48079 8.49143 6.73886 8.49143 5.82365C8.49143 4.90843 6.76709 4.1665 4.64 4.1665C2.51292 4.1665 0.788574 4.90843 0.788574 5.82365C0.788574 6.73886 2.51292 7.48079 4.64 7.48079Z" fill="white"/>
<path d="M4.63989 7.09183C6.28096 7.09183 7.61131 6.52387 7.61131 5.82326C7.61131 5.12265 6.28096 4.55469 4.63989 4.55469C2.99881 4.55469 1.66846 5.12265 1.66846 5.82326C1.66846 6.52387 2.99881 7.09183 4.63989 7.09183Z" fill="#FF671D"/>
<path d="M13.7942 10.6919H4.51416V14.9433H13.7942V10.6919Z" fill="#FF671D"/>
<path d="M9.15416 12.6808C11.7168 12.6808 13.7942 11.7904 13.7942 10.6922C13.7942 9.59393 11.7168 8.70361 9.15416 8.70361C6.59156 8.70361 4.51416 9.59393 4.51416 10.6922C4.51416 11.7904 6.59156 12.6808 9.15416 12.6808Z" fill="#FF671D"/>
<path d="M9.15416 16.9322C11.7168 16.9322 13.7942 16.0419 13.7942 14.9436C13.7942 13.8454 11.7168 12.9551 9.15416 12.9551C6.59156 12.9551 4.51416 13.8454 4.51416 14.9436C4.51416 16.0419 6.59156 16.9322 9.15416 16.9322Z" fill="#FF671D"/>
<path d="M9.15416 12.349C11.2812 12.349 13.0056 11.607 13.0056 10.6918C13.0056 9.77659 11.2812 9.03467 9.15416 9.03467C7.02708 9.03467 5.30273 9.77659 5.30273 10.6918C5.30273 11.607 7.02708 12.349 9.15416 12.349Z" fill="white"/>
<path d="M9.15453 11.9605C10.7956 11.9605 12.126 11.3925 12.126 10.6919C12.126 9.9913 10.7956 9.42334 9.15453 9.42334C7.51346 9.42334 6.18311 9.9913 6.18311 10.6919C6.18311 11.3925 7.51346 11.9605 9.15453 11.9605Z" fill="#FF671D"/>
<path d="M18.1023 16.2695H8.82227V20.521H18.1023V16.2695Z" fill="#FF671D"/>
<path d="M13.4623 18.2579C16.0249 18.2579 18.1023 17.3676 18.1023 16.2693C18.1023 15.1711 16.0249 14.2808 13.4623 14.2808C10.8997 14.2808 8.82227 15.1711 8.82227 16.2693C8.82227 17.3676 10.8997 18.2579 13.4623 18.2579Z" fill="#FF671D"/>
<path d="M13.4623 22.5094C16.0249 22.5094 18.1023 21.6191 18.1023 20.5208C18.1023 19.4225 16.0249 18.5322 13.4623 18.5322C10.8997 18.5322 8.82227 19.4225 8.82227 20.5208C8.82227 21.6191 10.8997 22.5094 13.4623 22.5094Z" fill="#FF671D"/>
<path d="M13.4623 17.9266C15.5894 17.9266 17.3137 17.1847 17.3137 16.2694C17.3137 15.3542 15.5894 14.6123 13.4623 14.6123C11.3352 14.6123 9.61084 15.3542 9.61084 16.2694C9.61084 17.1847 11.3352 17.9266 13.4623 17.9266Z" fill="white"/>
<path d="M13.4631 17.5376C15.1042 17.5376 16.4346 16.9697 16.4346 16.2691C16.4346 15.5684 15.1042 15.0005 13.4631 15.0005C11.8221 15.0005 10.4917 15.5684 10.4917 16.2691C10.4917 16.9697 11.8221 17.5376 13.4631 17.5376Z" fill="#FF671D"/>
</svg>
