<svg width="143" height="38" viewBox="0 0 143 38" fill="none" xmlns="http://www.w3.org/2000/svg">
<path d="M10 11C13.7016 8 30.6952 2 57.9524 2C85.2095 2 96.8191 11 116 11" stroke="#B3BCF3"/>
<path d="M10 25.5C15.0476 30 31.2 35 57.7251 35C84.2502 35 96.91 24 116 24" stroke="#B3BCF3"/>
<path d="M115.613 26.1468C118.835 33.4226 129.655 33.2308 129.655 33.2308C129.655 33.2308 128.146 32.6327 127.09 30.3207L121.565 28.086L126.486 28.5784C126.375 28.1275 126.285 27.6238 126.226 27.0866L119.871 24.5069L125.928 25.1113C125.824 24.67 125.7 24.2406 125.56 23.8484L118.935 21.1581L124.368 21.7019C122.194 18.9056 118.583 18.2291 116.1 18.1374C118.574 17.8342 122.12 16.8831 124.057 13.9279L118.683 14.8956L125.065 11.6776C125.182 11.2703 125.271 10.8404 125.332 10.3879L119.342 11.4769L125.464 8.39594C125.481 7.85133 125.528 7.35451 125.599 6.89593L120.728 7.77379L126.044 5.10667C126.903 2.7239 128.358 2.00802 128.358 2.00802C128.358 2.00802 117.56 2.67971 114.945 10.1872C114.459 11.5744 114.128 12.8906 113.893 14.0402C113.326 16.8004 113.45 19.6857 114.236 22.3946C114.581 23.5128 115.018 24.7995 115.613 26.1468Z" fill="#B3BCF3"/>
<path fill-rule="evenodd" clip-rule="evenodd" d="M13 28.1758C10.8333 25.8425 6.8 15.9758 12 9.17584C8.8333 10.6758 1.2 15.8063 0 18.2063C1 20.7063 10.0001 26.6758 13 28.1758ZM5.5 19.2063C6.32843 19.2063 7 18.5348 7 17.7063C7 16.8779 6.32843 16.2063 5.5 16.2063C4.67157 16.2063 4 16.8779 4 17.7063C4 18.5348 4.67157 19.2063 5.5 19.2063Z" fill="#B3BCF3"/>
</svg>
