<svg width="24" height="25" viewBox="0 0 24 25" fill="none" xmlns="http://www.w3.org/2000/svg">
<path d="M0.0302734 10.8458C0.0302734 8.7218 1.75208 7 3.87602 7H19.1845C21.3085 7 23.0303 8.7218 23.0303 10.8458V10.8458C23.0303 14.2744 22.7093 17.6955 22.0716 21.0643L22.0319 21.2741C21.6228 23.4354 19.7342 25 17.5345 25H11.5303H5.52603C3.32639 25 1.43779 23.4354 1.02867 21.2741L0.988949 21.0643C0.351232 17.6955 0.0302734 14.2744 0.0302734 10.8458V10.8458Z" fill="#2A1A5E"/>
<path d="M7.03027 7V6.5C7.03027 4.01472 9.04499 2 11.5303 2V2C14.0156 2 16.0303 4.01472 16.0303 6.5V7" stroke="#2A1A5E" stroke-width="3"/>
</svg>

