<svg width="30" height="36" viewBox="0 0 30 36" fill="none" xmlns="http://www.w3.org/2000/svg">
<path d="M15.1526 35.9995C9.68578 35.9995 0.431519 34.8856 0.431519 30.7383V30.6184L3.22493 13.7037C3.41344 10.0706 10.7826 9.09375 15.1526 9.09375C19.5227 9.09375 26.8917 10.0706 27.0802 13.7037L29.8736 30.6184V30.7383C29.8565 34.8856 20.6195 35.9995 15.1526 35.9995Z" fill="#2A1A5E"/>
<path d="M25.6066 13.8402C25.6066 12.0236 20.9281 10.5498 15.1528 10.5498C9.37745 10.5498 4.69887 12.0236 4.69887 13.8402L1.90546 30.7377C1.90546 32.8285 7.83508 34.5251 15.1528 34.5251C22.4705 34.5251 28.4 32.8285 28.4 30.7377L25.6066 13.8402Z" fill="#2A1A5E"/>
<path d="M26.0524 16.8055L25.6068 13.8407H19.7115C18.3234 13.6522 16.7811 13.5322 15.153 13.5322C13.525 13.5322 11.9825 13.6351 10.5944 13.8407H4.69913L4.25354 16.8226C4.25354 17.491 4.90481 18.1079 6.01875 18.622C6.44718 18.8277 6.72134 19.2561 6.72134 19.736V25.3742C6.72134 25.974 7.21835 26.471 7.81816 26.471C8.41797 26.471 8.91498 25.974 8.91498 25.3742V23.232C8.91498 22.4094 9.58335 21.7239 10.4231 21.7239C11.2457 21.7239 11.9312 22.3923 11.9312 23.232V23.7461C11.9312 24.5002 12.5481 25.1171 13.3022 25.1171C14.0562 25.1171 14.6731 24.5002 14.6731 23.7461V21.2955C14.6731 20.6271 15.2216 20.0616 15.8899 20.0616C16.3184 20.0616 16.7125 20.0445 16.7982 20.0445C17.0209 20.0273 17.2438 20.0273 17.4665 20.0102C18.152 19.9588 18.8204 19.8902 19.4544 19.8217C20.1913 19.7188 20.8426 20.3015 20.8426 21.0384V25.1514C20.8426 25.8198 21.391 26.3682 22.0594 26.3682C22.7277 26.3682 23.2762 25.8198 23.2762 25.1514V19.8388C23.2762 19.3418 23.5675 18.8962 24.0302 18.7077C25.2984 18.1765 26.0524 17.5081 26.0524 16.8055Z" fill="white"/>
<path d="M15.1526 17.1306C20.9261 17.1306 25.6064 15.6574 25.6064 13.8402C25.6064 12.023 20.9261 10.5498 15.1526 10.5498C9.37914 10.5498 4.69873 12.023 4.69873 13.8402C4.69873 15.6574 9.37914 17.1306 15.1526 17.1306Z" fill="white"/>
<path d="M8.88072 6.69426C8.88072 6.69426 8.62369 6.55716 8.16098 6.59144C7.59544 6.62571 7.32119 6.83136 6.49859 7.51686C5.67599 8.20236 5.59039 8.32232 5.62467 8.63079C5.67608 8.93927 5.81317 9.02495 6.79 9.41912C7.76684 9.83041 8.10953 9.9161 8.65792 9.79614C9.1035 9.69331 9.30916 9.48766 9.30916 9.48766L11.5542 7.534L8.88072 6.69426Z" fill="#2A1A5E"/>
<path d="M11.0745 3.69555C11.0745 3.69555 10.8688 3.4899 10.766 3.04433C10.6289 2.49593 10.7317 2.17032 11.143 1.17634C11.5543 0.182374 11.64 0.0624109 11.9485 0.0109986C12.257 -0.0404137 12.3769 0.0624113 13.0624 0.885008C13.7479 1.70761 13.9363 1.9818 13.9877 2.54734C14.022 2.99291 13.8849 3.26711 13.8849 3.26711L12.7024 5.99196L11.0745 3.69555Z" fill="#2A1A5E"/>
<path d="M11.777 4.14049C11.777 4.14049 11.6571 3.76346 11.1944 3.35216C10.6289 2.85518 10.1661 2.76949 8.7266 2.64953C7.30419 2.52957 7.08135 2.5467 6.84142 2.88945C6.6015 3.2322 6.63581 3.43785 7.20134 4.75743C7.74974 6.07702 7.97256 6.48831 8.62378 6.88248C9.15504 7.20809 9.54917 7.20809 9.54917 7.20809L11.777 4.14049Z" fill="#2A1A5E"/>
<path d="M21.6989 11.168L20.0195 5.97532C18.7856 2.17081 13.7643 1.36535 11.4165 4.60432L9.87416 6.71223C7.52633 9.9512 9.82273 14.4755 13.8157 14.4926L19.2826 14.5098C20.9963 14.5098 22.2302 12.8132 21.6989 11.168Z" fill="#2A1A5E"/>
<path d="M14.9303 2.61592L12.1883 6.38616C9.97755 9.43662 12.1198 13.7038 15.89 13.7553L21.0141 13.8067C21.6996 13.1554 22.008 12.1615 21.6995 11.1846L20.0201 5.992C19.2489 3.62703 17.0554 2.44455 14.9303 2.61592Z" fill="#2A1A5E"/>
</svg>
