<svg width="41" height="47" viewBox="0 0 41 47" fill="none" xmlns="http://www.w3.org/2000/svg">
<path d="M27.6805 0.000197802L14.6387 22.6191L16.6752 23.7934L29.717 1.17441L27.6805 0.000197802Z" fill="#2A1A5E"/>
<path d="M31.2374 2.00207L16.1016 23.2988L18.0177 24.6606L33.1535 3.36388L31.2374 2.00207Z" fill="#2A1A5E"/>
<path d="M34.2222 17.3327L28.8029 12.9182C28.2646 12.4876 27.5647 12.2363 26.8289 12.2363H8.09444C7.3587 12.2363 6.64094 12.4696 6.12054 12.9182L0.701141 17.3327H34.2222Z" fill="#2A1A5E"/>
<path d="M28.0138 40.6963H6.92852C5.81594 40.6963 4.86488 39.9965 4.70337 39.0633L0.719543 17.332H34.2227L30.2389 39.0633C30.0774 39.9965 29.1264 40.6963 28.0138 40.6963Z" fill="#2A1A5E"/>
<path d="M31.7452 17.332L27.9408 27.9195C27.7614 28.404 27.3129 28.727 26.7925 28.727H8.16563C7.64523 28.727 7.19658 28.404 7.01713 27.9195L3.21281 17.332H31.7452Z" fill="white"/>
<path d="M19.9378 28.0625H15.003V30.6825H19.9378V28.0625Z" fill="white"/>
<path d="M13.5145 30.0186V31.0055H13.5324C13.6042 33.141 15.3449 34.8457 17.4803 34.8457C19.6337 34.8457 21.3563 33.141 21.4281 31.0055H21.4461V30.0186H13.5145Z" fill="white"/>
<path d="M40.2331 35.1689H22.9162V43.1006H40.2331V35.1689Z" fill="#2A1A5E"/>
<path d="M31.5657 38.8843C36.3426 38.8843 40.2152 37.2212 40.2152 35.1697C40.2152 33.1182 36.3426 31.4551 31.5657 31.4551C26.7887 31.4551 22.9162 33.1182 22.9162 35.1697C22.9162 37.2212 26.7887 38.8843 31.5657 38.8843Z" fill="white"/>
<path d="M31.5657 46.8159C36.3426 46.8159 40.2152 45.1528 40.2152 43.1013C40.2152 41.0498 36.3426 39.3867 31.5657 39.3867C26.7887 39.3867 22.9162 41.0498 22.9162 43.1013C22.9162 45.1528 26.7887 46.8159 31.5657 46.8159Z" fill="#2A1A5E"/>
<path d="M31.5663 38.2561C35.5405 38.2561 38.7622 36.8742 38.7622 35.1695C38.7622 33.4649 35.5405 32.083 31.5663 32.083C27.5921 32.083 24.3704 33.4649 24.3704 35.1695C24.3704 36.8742 27.5921 38.2561 31.5663 38.2561Z" fill="white"/>
<path d="M31.5662 37.1786C35.144 37.1786 38.0443 36.1743 38.0443 34.9355C38.0443 33.6967 35.144 32.6924 31.5662 32.6924C27.9884 32.6924 25.0881 33.6967 25.0881 34.9355C25.0881 36.1743 27.9884 37.1786 31.5662 37.1786Z" fill="#2A1A5E"/>
</svg>
