<svg width="46" height="39" viewBox="0 0 46 39" fill="none" xmlns="http://www.w3.org/2000/svg">
<path d="M5.51953 22.0361C5.51953 22.0361 5.51953 22.0557 5.51953 22.0361C5.57823 22.0753 5.65647 22.1144 5.73474 22.1535C5.65647 22.1144 5.5978 22.0753 5.51953 22.0361Z" fill="#2A1A5E"/>
<path d="M22.5021 25.2054C10.0769 25.2054 -0.000244141 21.0962 -0.000244141 16.0283V17.085C-0.000244141 28.434 9.0594 38.2568 20.9563 38.9612C21.4651 39.0003 21.9738 39.0003 22.5021 39.0003C23.0109 39.0003 23.5392 38.9808 24.048 38.9612C35.9449 38.2568 45.0045 28.434 45.0045 17.085V16.0283C45.0045 21.1158 34.9274 25.2054 22.5021 25.2054Z" fill="#2A1A5E"/>
<path d="M29.4083 4.79801C29.4083 4.79801 28.9779 2.60647 29.2127 1.86292C29.4475 1.11936 30.1519 0.0822943 31.3651 0.0235924C33.3609 -0.0742441 33.7131 1.62811 33.7131 1.62811C33.7131 1.62811 34.9263 0.708448 36.4134 1.72595C37.7244 2.62604 37.4505 4.03489 37.4505 4.03489C37.4505 4.03489 38.9768 3.54571 39.9943 5.22849C40.7574 6.4808 40.1899 8.20272 39.2507 8.86801C38.3115 9.5333 37.1766 9.78767 37.1766 9.78767C37.1766 9.78767 36.6678 8.33969 33.9088 6.46123C31.3846 4.75888 29.4083 4.79801 29.4083 4.79801Z" fill="#2A1A5E"/>
<path d="M37.9983 19.571L38.6049 19.0427C38.6049 19.0427 40.4834 17.2425 40.7377 15.3249C40.9921 13.4073 40.0528 12.9377 39.4658 12.8986C39.0158 12.879 38.6049 12.7616 37.9396 13.1725C37.9396 14.0335 37.7831 14.9531 37.47 15.9119C37.2156 16.6946 35.9242 18.8275 34.6719 20.7646C36.022 20.4124 37.1373 20.0211 37.9983 19.571Z" fill="#2A1A5E"/>
<path d="M22.5025 22.0351C26.142 22.0351 29.5271 21.7416 32.3057 21.2524C32.9319 20.2349 33.5775 19.1587 34.2037 17.9847C34.6733 17.1237 34.9864 16.8106 35.5734 15.1865C36.2191 13.3277 36.0039 11.8601 35.0842 10.6078C34.1646 9.35549 31.4056 7.22266 29.1162 7.22266C26.8269 7.22266 25.555 9.10112 24.2635 11.821C23.5395 13.3668 22.6981 15.1865 21.9546 17.7303C21.5437 19.1587 21.1328 20.6067 20.7414 21.996C21.3284 22.0351 21.9155 22.0351 22.5025 22.0351Z" fill="#2A1A5E"/>
<path d="M8.58821 11.5283C9.11653 11.861 9.58615 12.2719 9.99706 12.7219C10.408 12.2719 10.8776 11.8805 11.4059 11.5479C12.6778 10.7456 14.1649 10.2565 15.3585 10.2565C16.2978 10.2565 17.0609 10.55 17.6284 11.137C18.8415 12.3893 19.0959 14.5613 17.8436 17.3007C16.8848 19.3944 15.1433 20.9598 14.2041 21.4685C15.5542 21.6446 17.4522 21.899 18.9784 21.9773C18.998 21.9381 19.0176 21.899 19.0176 21.8599C19.4285 20.2553 19.9373 18.3965 20.5439 16.381C20.9352 14.8939 21.5614 12.8589 22.5202 10.863C22.9898 9.86511 23.6942 8.45627 24.7312 7.28223C24.7704 7.24309 24.8095 7.20396 24.8291 7.16482C24.9856 6.98872 25.1226 6.81261 25.2987 6.65607C25.2204 6.55824 25.1617 6.4604 25.0639 6.343C23.5377 4.308 21.6005 4.28843 21.6005 4.28843C21.4635 2.56651 19.6633 -0.388151 15.5933 0.0423291C12.0712 0.414108 11.2298 4.50367 11.2298 4.50367C11.2298 4.50367 9.50791 4.34713 7.76642 6.77348C6.69022 8.26059 6.67066 9.88468 6.72936 10.6674C7.33594 10.8435 7.98163 11.137 8.58821 11.5283Z" fill="#2A1A5E"/>
<path d="M6.22121 19.2381C7.53221 19.8838 9.352 20.4513 11.5044 20.9209C12.7567 20.2948 13.3437 19.7273 13.8916 19.2577C14.4395 18.8076 15.4179 17.7901 15.9657 16.4204C16.6897 14.6202 16.768 13.231 16.2201 12.6635C15.6527 12.0765 13.8133 12.4678 12.3849 13.3875C10.9565 14.2876 10.1543 15.9313 9.97815 16.7726C9.80205 15.9313 8.99977 14.3072 7.57135 13.3875C6.14294 12.4874 4.30363 12.0765 3.73618 12.6635C3.1883 13.231 3.30571 14.6007 3.99057 16.4204C4.65585 18.1815 6.14294 19.1794 6.22121 19.2381Z" fill="#2A1A5E"/>
</svg>
