<svg width="36" height="40" viewBox="0 0 36 40" fill="none" xmlns="http://www.w3.org/2000/svg">
<path d="M35.5926 14.5096L29.8397 9.83221C29.2763 9.3713 28.5252 9.11523 27.74 9.11523H7.85243C7.06717 9.11523 6.31603 9.3713 5.75269 9.83221L-0.000183105 14.5096H35.5926Z" fill="#2A1A5E"/>
<path d="M5.18509 1.81108L5.01697 3.78418L32.5722 6.13207L32.7403 4.15897L5.18509 1.81108Z" fill="#2A1A5E"/>
<path d="M11.4893 16.9344H9.5091C9.5091 16.2686 9.23594 15.9784 8.7921 15.5004C8.2629 14.9371 7.52887 14.1518 7.52887 12.7179C7.52887 11.2669 8.2629 10.4987 8.7921 9.91825C9.23594 9.44027 9.5091 9.15006 9.5091 8.4843C9.5091 7.81853 9.23594 7.5454 8.7921 7.06742C8.2629 6.50408 7.52887 5.71882 7.52887 4.28486C7.52887 2.83384 8.2629 2.06565 8.7921 1.50231C9.23594 1.02433 9.5091 0.734123 9.5091 0.0683594H11.4893C11.4893 1.51938 10.7552 2.28757 10.226 2.85091C9.7822 3.3289 9.5091 3.6191 9.5091 4.26779C9.5091 4.93356 9.7822 5.22376 10.226 5.70175C10.7552 6.26509 11.4893 7.05035 11.4893 8.4843C11.4893 9.93532 10.7552 10.7035 10.226 11.2839C9.7822 11.7619 9.5091 12.0521 9.5091 12.7179C9.5091 13.3836 9.7822 13.6738 10.226 14.1518C10.7723 14.7152 11.4893 15.4834 11.4893 16.9344Z" fill="#2A1A5E"/>
<path d="M14.9552 16.9344H12.975C12.975 16.2686 12.7018 15.9784 12.258 15.5004C11.7288 14.9371 10.9948 14.1518 10.9948 12.7179C10.9948 11.2669 11.7288 10.4987 12.258 9.91825C12.7018 9.44027 12.975 9.15006 12.975 8.4843C12.975 7.81853 12.7018 7.5454 12.258 7.06742C11.7288 6.50408 10.9948 5.71882 10.9948 4.28486C10.9948 2.83384 11.7288 2.06565 12.258 1.50231C12.7018 1.02433 12.975 0.734123 12.975 0.0683594H14.9552C14.9552 1.51938 14.2211 2.28757 13.6919 2.85091C13.2481 3.3289 12.975 3.6191 12.975 4.26779C12.975 4.93356 13.2481 5.22376 13.6919 5.70175C14.2211 6.26509 14.9552 7.05035 14.9552 8.4843C14.9552 9.93532 14.2211 10.7035 13.6919 11.2839C13.2481 11.7619 12.975 12.0521 12.975 12.7179C12.975 13.3836 13.2481 13.6738 13.6919 14.1518C14.2211 14.7152 14.9552 15.4834 14.9552 16.9344Z" fill="#2A1A5E"/>
<path d="M18.4196 16.9344H16.4393C16.4393 16.2686 16.1662 15.9784 15.7223 15.5004C15.1931 14.9371 14.4591 14.1518 14.4591 12.7179C14.4591 11.2669 15.1931 10.4987 15.7223 9.91825C16.1662 9.44027 16.4393 9.15006 16.4393 8.4843C16.4393 7.81853 16.1662 7.5454 15.7223 7.06742C15.1931 6.50408 14.4591 5.71882 14.4591 4.28486C14.4591 2.83384 15.1931 2.06565 15.7223 1.50231C16.1662 1.02433 16.4393 0.734123 16.4393 0.0683594H18.4196C18.4196 1.51938 17.6855 2.28757 17.1563 2.85091C16.7124 3.3289 16.4393 3.6191 16.4393 4.26779C16.4393 4.93356 16.7124 5.22376 17.1563 5.70175C17.6855 6.26509 18.4196 7.05035 18.4196 8.4843C18.4196 9.93532 17.6855 10.7035 17.1563 11.2839C16.7124 11.7619 16.4393 12.0521 16.4393 12.7179C16.4393 13.3836 16.7124 13.6738 17.1563 14.1518C17.6855 14.7152 18.4196 15.4834 18.4196 16.9344Z" fill="#2A1A5E"/>
<path d="M32.674 0H5.10455V1.98022H32.674V0Z" fill="#2A1A5E"/>
<path d="M29.0034 39.3318H6.6235C5.44561 39.3318 4.43842 38.5977 4.26771 37.5906L0.0341187 14.5107H35.6098L31.3763 37.5906C31.1885 38.5807 30.1813 39.3318 29.0034 39.3318Z" fill="#2A1A5E"/>
<path d="M32.9475 14.5107L28.9017 25.7434C28.7139 26.2555 28.2359 26.5969 27.6897 26.5969H7.90453C7.35826 26.5969 6.88024 26.2555 6.69246 25.7434L2.64667 14.5107H32.9475Z" fill="white"/>
<path d="M20.4176 25.9141H15.1768V28.6966H20.4176V25.9141Z" fill="white"/>
<path d="M13.5891 27.9795V29.0208H13.6061C13.6744 31.2742 15.5181 33.1008 17.8056 33.1008C20.076 33.1008 21.9196 31.2912 22.005 29.0208H22.0221V27.9795H13.5891Z" fill="white"/>
</svg>
