<svg width="29" height="26" viewBox="0 0 29 26" fill="none" xmlns="http://www.w3.org/2000/svg">
<path d="M28.0337 6.20441H0V19.0438H28.0337V6.20441Z" fill="#2A1A5E"/>
<path d="M14.0168 12.2039C21.7581 12.2039 28.0337 9.51801 28.0337 6.20474C28.0337 2.89147 21.7581 0.205536 14.0168 0.205536C6.27555 0.205536 0 2.89147 0 6.20474C0 9.51801 6.27555 12.2039 14.0168 12.2039Z" fill="#2A1A5E"/>
<path d="M14.0168 25.0576C21.7581 25.0576 28.0337 22.3717 28.0337 19.0584C28.0337 15.7451 21.7581 13.0592 14.0168 13.0592C6.27555 13.0592 0 15.7451 0 19.0584C0 22.3717 6.27555 25.0576 14.0168 25.0576Z" fill="#2A1A5E"/>
<path d="M14.0178 11.1954C20.443 11.1954 25.6517 8.96126 25.6517 6.20536C25.6517 3.44946 20.443 1.21536 14.0178 1.21536C7.5925 1.21536 2.38379 3.44946 2.38379 6.20536C2.38379 8.96126 7.5925 11.1954 14.0178 11.1954Z" fill="white"/>
<path d="M14.0167 10.0457C18.9711 10.0457 22.9875 8.32623 22.9875 6.20512C22.9875 4.084 18.9711 2.3645 14.0167 2.3645C9.06225 2.3645 5.0459 4.084 5.0459 6.20512C5.0459 8.32623 9.06225 10.0457 14.0167 10.0457Z" fill="#2A1A5E"/>
</svg>
