<svg width="36" height="36" viewBox="0 0 36 36" fill="none" xmlns="http://www.w3.org/2000/svg">
<ellipse cx="17.8435" cy="18" rx="17.8435" ry="18" fill="#2A1A5E"/>
<g clip-path="url(#clip0_512_7645)">
<path d="M12.7461 14.2041C12.6978 15.3078 12.6736 16.4898 12.6736 17.7502C12.6736 19.0172 12.6978 20.2024 12.7461 21.3061H9.03792L6.53125 15.9576L6.7177 21.3061H4.05566C4.11091 20.0392 4.13853 18.8539 4.13853 17.7502C4.13853 16.6531 4.11091 15.471 4.05566 14.2041H7.86745L10.3845 19.6996L10.2084 14.2041H12.7461ZM16.0187 19.5135C18.6428 19.5004 20.5452 19.4645 21.726 19.4057C21.6777 19.6735 21.6467 19.951 21.6328 20.2384C21.6259 20.5192 21.6225 20.8751 21.6225 21.3061H13.5742C13.6295 20.0392 13.6571 18.8539 13.6571 17.7502C13.6571 16.6465 13.6295 15.4612 13.5742 14.1943H21.6225V15.9674H16.0187V16.9078C16.3502 16.9143 16.8405 16.9176 17.4896 16.9176C18.5875 16.9176 19.7235 16.898 20.8974 16.8588V18.5437C19.7235 18.5045 18.5875 18.4849 17.4896 18.4849C16.8405 18.4849 16.3502 18.4882 16.0187 18.4947V19.5135ZM29.4986 18.6319L30.0373 14.1943H32.5646L31.1767 21.3061H27.9967L27.2924 17.3388L26.4741 21.3061H23.4288L22.0408 14.1943H24.5682L25.0964 18.5731L25.9251 14.1943H28.6907L29.4986 18.6319Z" fill="white"/>
</g>
<defs>
<clipPath id="clip0_512_7645">
<rect width="29.1322" height="7.34694" fill="white" transform="translate(3.6416 13.9592)"/>
</clipPath>
</defs>
</svg>
