<svg width="41" height="40" viewBox="0 0 41 40" fill="none" xmlns="http://www.w3.org/2000/svg">
<path d="M34.6172 0.814422L0 35.4316L1.63535 37.067L36.2526 2.44978L34.6172 0.814422Z" fill="#2A1A5E"/>
<path d="M39.6002 6.35015L0.616852 35.9893L2.01654 37.8302L40.9999 8.19111L39.6002 6.35015Z" fill="#2A1A5E"/>
<path d="M20.915 31.2699C29.4077 31.2699 36.2922 28.4797 36.2922 25.0378C36.2922 21.5959 29.4077 18.8057 20.915 18.8057C12.4224 18.8057 5.53789 21.5959 5.53789 25.0378C5.53789 28.4797 12.4224 31.2699 20.915 31.2699Z" fill="white"/>
<path d="M20.9151 31.2518C15.2126 31.2518 10.2516 29.9983 7.58572 28.127L11.3639 36.3717C11.3639 36.3717 11.3639 36.3717 11.3639 36.3893L11.4345 36.5482H11.4522C12.4938 38.4726 16.3249 39.9026 20.8974 39.9026C25.47 39.9026 29.301 38.4726 30.3426 36.5482H30.3603L30.431 36.3893C30.431 36.3893 30.431 36.3893 30.431 36.3717L34.2091 28.127C31.5786 29.9807 26.6176 31.2518 20.9151 31.2518Z" fill="#2A1A5E"/>
<path d="M20.915 29.3802C29.4077 29.3802 36.2922 26.59 36.2922 23.1481C36.2922 19.7062 29.4077 16.916 20.915 16.916C12.4224 16.916 5.53789 19.7062 5.53789 23.1481C5.53789 26.59 12.4224 29.3802 20.915 29.3802Z" fill="#2A1A5E"/>
<path d="M22.3986 23.5908C22.9636 21.8783 18.3382 20.6602 18.3382 20.6602C18.3382 20.6602 18.8148 20.9426 18.6559 21.4899L20.4037 22.5492L18.444 21.896C18.3734 21.9843 18.2674 22.0902 18.1615 22.1961L20.1741 23.4143L17.7731 22.6022C17.7025 22.6904 17.6319 22.7964 17.5966 22.8846L19.6798 24.1558L17.5259 23.4319C17.7025 24.1911 19.0444 24.7384 20.086 25.0562C18.9561 24.8267 17.2082 24.5971 15.584 24.9149L18.1264 25.3563L14.5601 25.2151C14.4012 25.268 14.2423 25.3386 14.101 25.4269L16.9257 25.9213L13.5006 25.78C13.3417 25.8859 13.2007 25.9742 13.0418 26.0448L15.3368 26.4509L12.3709 26.3273C11.3822 26.6627 10.5701 26.6274 10.5701 26.6274C10.5701 26.6274 15.3191 27.7573 18.444 26.6804C19.0266 26.4862 19.5209 26.2743 19.9269 26.0978C20.898 25.6564 21.6219 25.1091 22.0103 24.5265C22.1339 24.1911 22.2927 23.9086 22.3986 23.5908Z" fill="white"/>
<path d="M26.8841 22.8839C24.995 22.6544 23.918 22.4779 23.918 22.1248C23.918 21.7893 24.8362 21.5598 26.2839 21.5598C27.0254 21.5598 27.7492 21.6128 28.4377 21.7364C29.497 21.9129 30.6975 21.754 31.3508 21.3656L31.7568 21.1184C31.3507 20.9949 30.9445 20.8889 30.5208 20.783C29.2673 20.5005 27.908 20.377 26.3897 20.377C23.9533 20.377 22.1526 20.73 21.3051 21.3303C22.435 21.8953 23.4591 22.6897 23.1413 23.6431C23.1236 23.6607 23.1236 23.696 23.1059 23.7137C24.0416 23.9255 25.1362 24.0668 26.1248 24.1727C27.7844 24.3846 28.8614 24.4728 28.8614 24.8612C28.8614 25.2496 27.9433 25.4792 26.3543 25.4792C24.8713 25.4792 23.4943 25.2673 22.3997 24.8966C22.0466 25.285 21.5347 25.6734 20.9168 25.9911C22.3468 26.4149 24.2536 26.6444 26.2662 26.6444C29.9207 26.6444 32.0744 25.9558 32.0744 24.7553C32.1098 23.5195 29.2145 23.1664 26.8841 22.8839Z" fill="white"/>
<path d="M14.101 21.4535L10.8523 18.4346C9.98726 18.7347 9.21055 19.0878 8.52202 19.4585L12.6004 23.1307V24.3136H15.5839V23.1307L20.5978 18.5758H17.2082L14.101 21.4535Z" fill="white"/>
</svg>
