<svg width="37" height="36" viewBox="0 0 37 36" fill="none" xmlns="http://www.w3.org/2000/svg">
<ellipse cx="18.3132" cy="18" rx="17.8435" ry="18" fill="#FF671D"/>
<path d="M12.2441 19.5307C12.2441 18.1914 12.5602 16.9988 13.1925 15.9529C13.8247 14.907 14.5201 14.0269 15.2787 13.3126C16.0374 12.5983 16.7328 12.053 17.365 11.6767L18.3134 11.1123V13.6378C18.3134 14.1098 18.4714 14.4829 18.7875 14.7571C19.1036 15.0313 19.4577 15.1685 19.8496 15.1685C20.0646 15.1685 20.27 15.1238 20.466 15.0345C20.662 14.9452 20.8422 14.7986 21.0066 14.5945L21.348 14.1736C22.2583 14.7093 22.9917 15.4523 23.548 16.4025C24.1044 17.3528 24.3826 18.3955 24.3826 19.5307C24.3826 20.7424 24.0728 21.8362 23.4532 22.812C22.8336 23.7877 22.0181 24.5243 21.0066 25.0218C21.2974 24.6901 21.5218 24.3202 21.6799 23.9121C21.8379 23.5039 21.9169 23.0766 21.9169 22.6302C21.9169 22.1455 21.8284 21.6895 21.6514 21.2622C21.4744 20.8349 21.2152 20.4491 20.8738 20.1047L18.3134 17.5792L15.7719 20.1047C15.4178 20.4491 15.1523 20.8349 14.9753 21.2622C14.7983 21.6895 14.7098 22.1455 14.7098 22.6302C14.7098 23.0766 14.7888 23.5039 14.9468 23.9121C15.1049 24.3202 15.3293 24.6901 15.6201 25.0218C14.6086 24.5243 13.7931 23.7877 13.1735 22.812C12.5539 21.8362 12.2441 20.7424 12.2441 19.5307ZM18.3134 19.1863L20.0582 20.9083C20.2858 21.1378 20.4629 21.3993 20.5893 21.6927C20.7157 21.9861 20.779 22.2986 20.779 22.6302C20.779 23.3062 20.5387 23.8834 20.0582 24.3617C19.5778 24.84 18.9961 25.0792 18.3134 25.0792C17.6306 25.0792 17.0489 24.84 16.5685 24.3617C16.088 23.8834 15.8477 23.3062 15.8477 22.6302C15.8477 22.2986 15.9078 21.9861 16.0279 21.6927C16.148 21.3993 16.3282 21.1378 16.5685 20.9083L18.3134 19.1863Z" fill="white"/>
</svg>
