<svg width="32" height="32" viewBox="0 0 32 32" fill="none" xmlns="http://www.w3.org/2000/svg">
<path d="M5.6997 9.87203C4.70588 11.5934 4.18507 13.5343 4.1727 15.5M15.1988 26.9648C12.5629 26.8785 10.0385 25.8809 8.0557 24.142C6.07289 22.4032 4.75435 20.0306 4.32475 17.4285C4.21893 16.7876 4.16866 16.1424 4.1727 15.5M15.1988 26.9648C17.8346 27.0511 20.4189 26.2207 22.5111 24.6153C24.6034 23.0098 26.0743 20.7285 26.6732 18.1601C26.8779 17.2823 26.9764 16.3895 26.9707 15.5M15.1988 26.9648L15.1988 25M12.6214 4.56084C13.4687 4.3338 14.3335 4.20682 15.1988 4.17851M26.9707 15.5C26.96 13.7871 26.5631 12.0868 25.7954 10.5299C24.629 8.16461 22.6785 6.27693 20.2763 5.18851C18.6731 4.46211 16.9349 4.1217 15.1988 4.17851M26.9707 15.5L25 15.5M4.1727 15.5L6 15.5M15.1988 4.17851L15.1988 5.99998" stroke="white" stroke-width="2" stroke-linecap="round"/>
<path d="M12.0086 13.9761L14.7839 16.8574L19.8251 12.0001" stroke="white" stroke-width="2" stroke-linecap="round"/>
</svg>
