<svg width="32" height="32" viewBox="0 0 32 32" fill="none" xmlns="http://www.w3.org/2000/svg">
<path d="M5.69958 9.87204C4.70576 11.5934 4.18494 13.5343 4.17258 15.5M15.1986 26.9648C12.5628 26.8785 10.0384 25.8809 8.05557 24.142C6.07277 22.4032 4.75423 20.0306 4.32463 17.4285C4.21881 16.7876 4.16853 16.1425 4.17258 15.5M15.1986 26.9648C17.8345 27.0511 20.4187 26.2207 22.511 24.6153C24.6033 23.0098 26.0742 20.7285 26.6731 18.1602C26.8777 17.2823 26.9762 16.3895 26.9706 15.5M15.1986 26.9648L15.1986 25M12.6213 4.56085C13.4686 4.33381 14.3334 4.20683 15.1986 4.17852M26.9706 15.5C26.9598 13.7871 26.563 12.0868 25.7953 10.5299C24.6288 8.16462 22.6783 6.27694 20.2761 5.18852C18.673 4.46213 16.9348 4.12172 15.1986 4.17852M26.9706 15.5L24.9999 15.5M4.17258 15.5L5.99988 15.5M15.1986 4.17852L15.1986 6" stroke="#2A1A5E" stroke-width="2" stroke-linecap="round"/>
<path d="M12.0085 13.9761L14.7838 16.8575L19.825 12.0001" stroke="#2A1A5E" stroke-width="2" stroke-linecap="round"/>
</svg>
