<svg width="94" height="28" viewBox="0 0 94 28" fill="none" xmlns="http://www.w3.org/2000/svg">
<path d="M3.64317 3.96649C4.97716 2.89825 11.085 0.781948 20.8615 0.839299C30.638 0.89665 34.7831 4.14917 41.6629 4.18952" stroke="#2A1A5E" stroke-width="0.5"/>
<path d="M3.61374 9.16728C5.41473 10.7919 11.1977 12.6193 20.7116 12.6751C30.2256 12.7309 34.7895 8.81213 41.6366 8.8523" stroke="#2A1A5E" stroke-width="0.5"/>
<path d="M41.4945 9.62153C42.635 12.238 46.5162 12.1919 46.5162 12.1919C46.5162 12.1919 45.9761 11.9742 45.6022 11.1427L43.6252 10.3296L45.3892 10.5166C45.3504 10.3546 45.319 10.1738 45.2991 9.98093L43.0251 9.0423L45.1965 9.27183C45.1599 9.1133 45.1164 8.95904 45.0669 8.81807L42.6964 7.83919L44.644 8.04566C43.8701 7.03813 42.5764 6.78788 41.6859 6.74975C42.574 6.64621 43.8477 6.31255 44.5487 5.25665L42.6191 5.59244L44.9151 4.45164C44.9578 4.30582 44.9907 4.15181 45.0137 3.98961L42.8627 4.3676L45.0651 3.27543C45.0723 3.08013 45.0902 2.90203 45.1166 2.7377L43.3677 3.04232L45.2802 2.09687C45.5931 1.24403 46.1164 0.990325 46.1164 0.990325C46.1164 0.990325 42.2422 1.20853 41.2884 3.89577C41.1112 4.39231 40.9899 4.86371 40.903 5.27555C40.6937 6.26438 40.7323 7.29954 41.0086 8.2728C41.1297 8.67459 41.2838 9.13702 41.4945 9.62153Z" fill="#2A1A5E"/>
<path fill-rule="evenodd" clip-rule="evenodd" d="M4.68336 10.1333C3.91114 9.29187 2.48524 5.74445 4.36467 3.31639C3.22569 3.84774 0.477008 5.67187 0.041546 6.53017C0.394962 7.42896 3.61052 9.58902 4.68336 10.1333ZM2.01217 6.90041C2.30931 6.90216 2.5516 6.66269 2.55334 6.36556C2.55509 6.06842 2.31562 5.82613 2.01848 5.82438C1.72135 5.82264 1.47906 6.06211 1.47731 6.35924C1.47557 6.65638 1.71503 6.89867 2.01217 6.90041Z" fill="#2A1A5E"/>
<path d="M45.6432 17.9665C46.9772 16.8983 53.085 14.7819 62.8615 14.8393C72.638 14.8967 76.7831 18.1492 83.6629 18.1895" stroke="#2A1A5E" stroke-width="0.5"/>
<path d="M45.6137 23.1673C47.4147 24.7919 53.1977 26.6193 62.7116 26.6751C72.2256 26.7309 76.7895 22.8121 83.6366 22.8523" stroke="#2A1A5E" stroke-width="0.5"/>
<path d="M83.4945 23.6215C84.635 26.238 88.5162 26.1919 88.5162 26.1919C88.5162 26.1919 87.9761 25.9742 87.6022 25.1427L85.6252 24.3296L87.3892 24.5166C87.3504 24.3546 87.319 24.1738 87.2991 23.9809L85.0251 23.0423L87.1965 23.2718C87.1599 23.1133 87.1164 22.959 87.0669 22.8181L84.6964 21.8392L86.644 22.0457C85.8701 21.0381 84.5764 20.7879 83.6859 20.7497C84.574 20.6462 85.8477 20.3126 86.5487 19.2566L84.6191 19.5924L86.9151 18.4516C86.9578 18.3058 86.9907 18.1518 87.0137 17.9896L84.8627 18.3676L87.0651 17.2754C87.0723 17.0801 87.0902 16.902 87.1166 16.7377L85.3677 17.0423L87.2802 16.0969C87.5931 15.244 88.1164 14.9903 88.1164 14.9903C88.1164 14.9903 84.2422 15.2085 83.2884 17.8958C83.1112 18.3923 82.9899 18.8637 82.903 19.2755C82.6937 20.2644 82.7323 21.2995 83.0086 22.2728C83.1297 22.6746 83.2838 23.137 83.4945 23.6215Z" fill="#2A1A5E"/>
<path fill-rule="evenodd" clip-rule="evenodd" d="M46.6834 24.1333C45.9111 23.2919 44.4852 19.7444 46.3647 17.3164C45.2257 17.8477 42.477 19.6719 42.0415 20.5302C42.395 21.429 45.6105 23.589 46.6834 24.1333ZM44.0122 20.9004C44.3093 20.9022 44.5516 20.6627 44.5533 20.3656C44.5551 20.0684 44.3156 19.8261 44.0185 19.8244C43.7213 19.8226 43.4791 20.0621 43.4773 20.3592C43.4756 20.6564 43.715 20.8987 44.0122 20.9004Z" fill="#2A1A5E"/>
</svg>
