<svg width="148" height="40" viewBox="0 0 148 40" fill="none" xmlns="http://www.w3.org/2000/svg">
<path d="M10.506 11.4337C14.3513 8.35438 31.9579 2.25388 60.1399 2.4192C88.3218 2.58452 100.271 11.9603 120.102 12.0766" stroke="#2A1A5E"/>
<path d="M10.417 26.4257C15.6086 31.109 32.2787 36.3766 59.7037 36.5375C87.1288 36.6984 100.285 25.402 120.022 25.5178" stroke="#2A1A5E"/>
<path d="M119.609 27.7351C122.897 35.2773 134.085 35.1447 134.085 35.1447C134.085 35.1447 132.528 34.5171 131.45 32.1202L125.751 29.7762L130.836 30.3152C130.724 29.8483 130.634 29.327 130.576 28.7711L124.021 26.0654L130.281 26.7271C130.175 26.2701 130.05 25.8254 129.907 25.419L123.074 22.5973L128.688 23.1925C126.457 20.2882 122.728 19.5668 120.161 19.4569C122.721 19.1584 126.393 18.1966 128.413 15.1528L122.851 16.1208L129.469 12.8323C129.592 12.4119 129.687 11.968 129.754 11.5004L123.553 12.5901L129.902 9.44174C129.922 8.87875 129.974 8.36536 130.05 7.89165L125.009 8.76976L130.522 6.04439C131.424 3.58599 132.932 2.85464 132.932 2.85464C132.932 2.85464 121.764 3.48363 119.015 11.23C118.504 12.6613 118.154 14.0201 117.904 15.2073C117.301 18.0577 117.412 21.0417 118.208 23.8473C118.558 25.0055 119.002 26.3385 119.609 27.7351Z" fill="#2A1A5E"/>
<path fill-rule="evenodd" clip-rule="evenodd" d="M13.5036 29.2105C11.2775 26.7848 7.1672 16.559 12.5849 9.55978C9.30163 11.0915 1.37823 16.3497 0.122962 18.8239C1.14173 21.4148 10.411 27.6414 13.5036 29.2105ZM5.80223 19.8912C6.65876 19.8962 7.35719 19.206 7.36222 18.3494C7.36724 17.4929 6.67696 16.7945 5.82042 16.7894C4.96389 16.7844 4.26546 17.4747 4.26043 18.3312C4.25541 19.1878 4.94569 19.8862 5.80223 19.8912Z" fill="#2A1A5E"/>
</svg>
