<svg width="156" height="59" viewBox="0 0 156 59" fill="none" xmlns="http://www.w3.org/2000/svg">
<path d="M107.643 3.96649C108.977 2.89825 115.085 0.781948 124.862 0.839299C134.638 0.89665 138.783 4.14917 145.663 4.18952" stroke="#2A1A5E" stroke-width="0.5"/>
<path d="M107.614 9.16728C109.415 10.7919 115.198 12.6193 124.712 12.6751C134.226 12.7309 138.789 8.81213 145.637 8.8523" stroke="#2A1A5E" stroke-width="0.5"/>
<path d="M145.493 9.62153C146.633 12.238 150.514 12.1919 150.514 12.1919C150.514 12.1919 149.974 11.9742 149.6 11.1427L147.623 10.3296L149.387 10.5166C149.348 10.3546 149.317 10.1738 149.297 9.98093L147.023 9.0423L149.195 9.27183C149.158 9.1133 149.114 8.95904 149.065 8.81807L146.694 7.83919L148.642 8.04566C147.868 7.03813 146.574 6.78788 145.684 6.74975C146.572 6.64621 147.846 6.31255 148.547 5.25665L146.617 5.59244L148.913 4.45164C148.956 4.30582 148.989 4.15181 149.012 3.98961L146.861 4.3676L149.063 3.27543C149.07 3.08013 149.088 2.90203 149.115 2.7377L147.366 3.04232L149.278 2.09687C149.591 1.24403 150.114 0.990325 150.114 0.990325C150.114 0.990325 146.24 1.20853 145.286 3.89577C145.109 4.39231 144.988 4.86371 144.901 5.27555C144.692 6.26438 144.73 7.29954 145.007 8.2728C145.128 8.67459 145.282 9.13702 145.493 9.62153Z" fill="#2A1A5E"/>
<path fill-rule="evenodd" clip-rule="evenodd" d="M108.683 10.1333C107.911 9.29187 106.485 5.74445 108.365 3.31639C107.226 3.84774 104.477 5.67187 104.042 6.53017C104.395 7.42896 107.611 9.58902 108.683 10.1333ZM106.012 6.90041C106.309 6.90216 106.552 6.66269 106.553 6.36556C106.555 6.06842 106.316 5.82613 106.018 5.82438C105.721 5.82264 105.479 6.06211 105.477 6.35924C105.476 6.65638 105.715 6.89867 106.012 6.90041Z" fill="#2A1A5E"/>
<path d="M10.506 30.2228C14.3513 27.1435 31.9579 21.043 60.1399 21.2083C88.3218 21.3736 100.271 30.7494 120.102 30.8658" stroke="#2A1A5E"/>
<path d="M10.417 45.2148C15.6086 49.8981 32.2787 55.1657 59.7037 55.3266C87.1288 55.4875 100.285 44.1911 120.022 44.3068" stroke="#2A1A5E"/>
<path d="M119.609 46.5242C122.897 54.0664 134.085 53.9338 134.085 53.9338C134.085 53.9338 132.528 53.3062 131.45 50.9093L125.751 48.5653L130.836 49.1042C130.724 48.6373 130.634 48.1161 130.576 47.5602L124.021 44.8545L130.281 45.5162C130.175 45.0592 130.05 44.6145 129.907 44.2081L123.074 41.3864L128.688 41.9816C126.457 39.0773 122.728 38.3559 120.161 38.246C122.721 37.9475 126.393 36.9857 128.413 33.9419L122.851 34.9099L129.469 31.6214C129.592 31.201 129.687 30.7571 129.754 30.2895L123.553 31.3791L129.902 28.2308C129.922 27.6678 129.974 27.1545 130.05 26.6807L125.009 27.5588L130.522 24.8335C131.424 22.3751 132.932 21.6437 132.932 21.6437C132.932 21.6437 121.764 22.2727 119.015 30.019C118.504 31.4504 118.154 32.8092 117.904 33.9964C117.301 36.8468 117.412 39.8308 118.208 42.6364C118.558 43.7946 119.002 45.1276 119.609 46.5242Z" fill="#2A1A5E"/>
<path fill-rule="evenodd" clip-rule="evenodd" d="M13.5036 47.9995C11.2775 45.5739 7.1672 35.348 12.5849 28.3488C9.30163 29.8805 1.37823 35.1388 0.122962 37.613C1.14173 40.2038 10.411 46.4305 13.5036 47.9995ZM5.80223 38.6802C6.65876 38.6853 7.35719 37.995 7.36222 37.1385C7.36724 36.2819 6.67696 35.5835 5.82042 35.5785C4.96389 35.5734 4.26546 36.2637 4.26043 37.1203C4.25541 37.9768 4.94569 38.6752 5.80223 38.6802Z" fill="#2A1A5E"/>
</svg>
