<svg width="18" height="18" viewBox="0 0 18 18" fill="none" xmlns="http://www.w3.org/2000/svg">
<path d="M8.71124 17.75C8.4372 17.75 8.20843 17.6583 8.02493 17.4748C7.84145 17.2913 7.74971 17.0625 7.74971 16.7885V9.81731L0.905959 1.15144C0.74248 0.973563 0.720845 0.778854 0.841053 0.567312C0.961241 0.355771 1.12791 0.25 1.34105 0.25H16.6584C16.8715 0.25 17.0382 0.355771 17.1584 0.567312C17.2786 0.778854 17.2569 0.973563 17.0935 1.15144L10.2497 9.81731V16.7885C10.2497 17.0625 10.158 17.2913 9.97449 17.4748C9.79099 17.6583 9.56222 17.75 9.28818 17.75H8.71124Z" fill="#2A1A5E"/>
</svg>
