<svg width="16" height="32" viewBox="0 0 16 32" fill="none" xmlns="http://www.w3.org/2000/svg">
<path d="M14.2175 7.81893C11.2767 0.424833 0.45734 0.201345 0.45734 0.201345C0.45734 0.201345 1.94264 0.856963 2.90926 3.2078L8.34444 5.65282L3.44603 4.97196C3.53936 5.42681 3.61058 5.93356 3.64838 6.47265L9.89993 9.29423L3.87004 8.45787C3.95773 8.90294 4.06495 9.33672 4.19017 9.73403L10.7068 12.6765L5.29867 11.9247C7.36372 14.8023 10.9461 15.6169 13.4238 15.8038C10.9397 16.0118 7.36031 16.8262 5.31134 19.7049L10.7186 18.9441L4.21741 21.9149C4.08517 22.3173 3.97965 22.7435 3.90084 23.1934L9.92886 22.335L3.69292 25.1788C3.65518 25.7223 3.58919 26.217 3.50061 26.6725L8.40166 25.9822L2.98652 28.4433C2.03745 30.7914 0.556199 31.451 0.556199 31.451C0.556199 31.451 11.3717 31.1941 14.273 23.7925C14.8116 22.4249 15.1924 21.1223 15.4719 19.9826C16.1447 17.2462 16.131 14.3582 15.4492 11.6212C15.1481 10.4906 14.7606 9.18811 14.2175 7.81893Z" fill="#FF671D"/>
</svg>
