<svg width="150" height="59" viewBox="0 0 150 59" fill="none" xmlns="http://www.w3.org/2000/svg">
<path d="M99.0025 3.96648C100.337 2.89824 106.444 0.78194 116.221 0.839291C125.997 0.896642 130.143 4.14916 137.022 4.18952" stroke="#B3BCF3" stroke-width="0.5"/>
<path d="M98.9731 9.16729C100.774 10.792 106.557 12.6193 116.071 12.6751C125.585 12.7309 130.149 8.81214 136.996 8.8523" stroke="#B3BCF3" stroke-width="0.5"/>
<path d="M140.259 1.70108C140.254 1.71171 140.25 1.72242 140.245 1.73321L138.504 2.59408L138.806 3.51908L137.998 3.91964L138.307 4.86004L138.338 4.85455L137.754 5.14465L138.041 6.02087C137.684 6.14366 137.318 6.21434 136.985 6.2531L137.022 7.24927C137.355 7.26352 137.725 7.30872 138.09 7.40763L137.863 8.30133L138.459 8.54763L138.435 8.54506L138.192 9.50446L139.031 9.85073L138.792 10.792L140.593 11.5327C140.599 11.5436 140.605 11.5544 140.61 11.5651C140.395 11.5257 140.164 11.4741 139.927 11.4069C138.87 11.1071 137.792 10.5265 137.31 9.42215C137.111 8.96364 136.964 8.52282 136.846 8.1324C136.592 7.23729 136.558 6.28595 136.75 5.37906L136.75 5.37878C136.833 4.98326 136.949 4.53433 137.117 4.06376L137.117 4.06301C137.519 2.92915 138.553 2.27681 139.586 1.90592C139.819 1.82239 140.047 1.75513 140.259 1.70108Z" fill="#B3BCF3" stroke="#B3BCF3"/>
<path fill-rule="evenodd" clip-rule="evenodd" d="M100.043 10.1333C99.2705 9.29187 97.8446 5.74444 99.724 3.31638C98.5851 3.84773 95.8364 5.67186 95.4009 6.53016C95.7543 7.42895 98.9699 9.58901 100.043 10.1333ZM97.3715 6.9004C97.6687 6.90214 97.911 6.66268 97.9127 6.36554C97.9145 6.0684 97.675 5.82611 97.3779 5.82437C97.0807 5.82263 96.8384 6.06209 96.8367 6.35923C96.8349 6.65636 97.0744 6.89866 97.3715 6.9004Z" fill="#B3BCF3"/>
<path d="M99.724 3.31638L100.119 3.62243L99.5127 2.86326L99.724 3.31638ZM100.043 10.1333L99.8165 10.5792L100.411 9.79527L100.043 10.1333ZM95.4009 6.53016L94.955 6.30393L94.8534 6.50417L94.9356 6.71313L95.4009 6.53016ZM99.3286 3.01033C98.2729 4.37422 98.1646 6.02814 98.396 7.40282C98.5123 8.09399 98.7167 8.73126 98.9445 9.25429C99.1685 9.76865 99.4289 10.2039 99.6744 10.4714L100.411 9.79527C100.271 9.64203 100.063 9.31831 99.8613 8.85499C99.6633 8.40034 99.4838 7.84122 99.3821 7.23683C99.1773 6.02042 99.2957 4.6866 100.119 3.62243L99.3286 3.01033ZM95.8468 6.75639C95.9092 6.63333 96.0979 6.41214 96.4326 6.11395C96.7512 5.83005 97.1556 5.51648 97.5888 5.20789C98.4602 4.58712 99.4044 4.01723 99.9354 3.7695L99.5127 2.86326C98.9047 3.14688 97.9051 3.75473 97.0086 4.39343C96.5578 4.71458 96.1221 5.05119 95.7673 5.36732C95.4286 5.66915 95.1103 5.99784 94.955 6.30393L95.8468 6.75639ZM100.269 9.68745C99.7665 9.43251 98.7189 8.77382 97.7478 8.0615C97.2644 7.70697 96.8117 7.34766 96.4624 7.02728C96.2876 6.86696 96.145 6.72221 96.0393 6.59746C95.9282 6.46632 95.8806 6.38371 95.8662 6.34719L94.9356 6.71313C95.0096 6.90131 95.1398 7.08281 95.2764 7.24396C95.4184 7.4115 95.5934 7.58721 95.7865 7.7643C96.173 8.11872 96.6575 8.50197 97.1563 8.86785C98.1495 9.59634 99.2461 10.2898 99.8165 10.5792L100.269 9.68745ZM97.4127 6.36261C97.4126 6.38361 97.3955 6.40053 97.3745 6.40041L97.3686 7.40039C97.9419 7.40375 98.4093 6.94175 98.4127 6.36847L97.4127 6.36261ZM97.3749 6.32436C97.3959 6.32448 97.4128 6.34161 97.4127 6.36261L98.4127 6.36847C98.4161 5.7952 97.9541 5.32774 97.3808 5.32438L97.3749 6.32436ZM97.3367 6.36216C97.3368 6.34116 97.3539 6.32424 97.3749 6.32436L97.3808 5.32438C96.8075 5.32101 96.3401 5.78302 96.3367 6.35629L97.3367 6.36216ZM97.3745 6.40041C97.3535 6.40028 97.3366 6.38316 97.3367 6.36216L96.3367 6.35629C96.3333 6.92957 96.7953 7.39703 97.3686 7.40039L97.3745 6.40041Z" fill="#B3BCF3"/>
<path d="M11.8614 30.2228C15.7068 27.1435 33.3134 21.043 61.4953 21.2083C89.6773 21.3736 101.626 30.7494 121.458 30.8657" stroke="#B3BCF3"/>
<path d="M11.7725 45.2148C16.964 49.8981 33.6341 55.1657 61.0592 55.3266C88.4843 55.4875 101.64 44.1911 121.378 44.3068" stroke="#B3BCF3"/>
<path d="M132.728 22.3326C132.302 22.8361 131.848 23.5322 131.48 24.4723L126.143 27.1106L126.45 28.0514L130.821 27.29C130.8 27.4915 130.784 27.6992 130.772 27.9136L124.686 30.9312L124.995 31.8716L130.491 30.9058C130.464 31.0303 130.435 31.1526 130.403 31.2727L123.984 34.4621L124.292 35.4025L128.562 34.6595C126.594 36.7438 123.664 37.4921 121.458 37.7493L121.495 38.7455C123.703 38.8401 126.677 39.394 128.788 41.3457L124.482 40.8892L124.238 41.8486L130.862 44.5836C130.9 44.7005 130.936 44.8206 130.972 44.9431L125.429 44.3573L125.186 45.3167L131.469 47.91C131.496 48.124 131.527 48.3327 131.563 48.5348L127.159 48.0681L126.916 49.0277L132.434 51.2972C132.87 52.2129 133.373 52.8782 133.835 53.3525C133.787 53.3482 133.738 53.3437 133.688 53.3389C132.609 53.2355 131.139 53.0207 129.572 52.5763C126.419 51.6825 122.978 49.8921 121.423 46.3248C120.827 44.9542 120.39 43.6428 120.044 42.4959C119.27 39.7686 119.163 36.8684 119.749 34.0999L119.749 34.0996C119.996 32.9288 120.34 31.5924 120.841 30.187L120.841 30.1863C122.142 26.5229 125.448 24.5031 128.529 23.3971C130.061 22.8472 131.512 22.5329 132.581 22.3564C132.631 22.3482 132.68 22.3402 132.728 22.3326Z" fill="#B3BCF3" stroke="#B3BCF3"/>
<path fill-rule="evenodd" clip-rule="evenodd" d="M14.859 47.9996C12.633 45.5739 8.52267 35.348 13.9403 28.3489C10.6571 29.8806 2.7337 35.1388 1.47843 37.613C2.4972 40.2039 11.7664 46.4305 14.859 47.9996ZM7.1577 38.6803C8.01423 38.6853 8.71266 37.995 8.71769 37.1385C8.72271 36.2819 8.03243 35.5835 7.17589 35.5785C6.31936 35.5735 5.62093 36.2637 5.6159 37.1203C5.61088 37.9768 6.30116 38.6752 7.1577 38.6803Z" fill="#B3BCF3"/>
<path d="M13.9403 28.3489L14.3357 28.6549L13.729 27.8958L13.9403 28.3489ZM14.859 47.9996L14.6328 48.4455L15.2274 47.6615L14.859 47.9996ZM1.47843 37.613L1.03254 37.3867L0.930946 37.587L1.01311 37.7959L1.47843 37.613ZM13.5449 28.0428C10.7201 31.6923 10.3983 36.1586 11.0402 39.9723C11.3619 41.883 11.9275 43.6464 12.5561 45.0897C13.1809 46.5244 13.8817 47.6741 14.4906 48.3376L15.2274 47.6615C14.7233 47.1122 14.0755 46.0741 13.4729 44.6904C12.8741 43.3155 12.3334 41.6302 12.0264 39.8063C11.4111 36.1509 11.7429 32.0046 14.3357 28.6549L13.5449 28.0428ZM1.92433 37.8392C2.19171 37.3122 2.85749 36.5734 3.82608 35.7104C4.77864 34.8617 5.97374 33.9361 7.23901 33.0347C9.77459 31.2284 12.5486 29.5499 14.1517 28.802L13.729 27.8958C12.0489 28.6795 9.21954 30.396 6.65879 32.2203C5.37589 33.1342 4.14957 34.0828 3.16085 34.9638C2.18816 35.8304 1.39279 36.6767 1.03254 37.3867L1.92433 37.8392ZM15.0853 47.5537C13.5729 46.7864 10.507 44.8548 7.68677 42.7863C6.27889 41.7536 4.944 40.6953 3.90199 39.7398C3.38083 39.2618 2.93935 38.8154 2.60049 38.4155C2.25621 38.0093 2.04128 37.678 1.94375 37.43L1.01311 37.7959C1.17028 38.1956 1.46786 38.6257 1.83757 39.062C2.2127 39.5047 2.68668 39.9821 3.22611 40.4768C4.30525 41.4664 5.67197 42.5486 7.09533 43.5926C9.93758 45.6774 13.0525 47.6437 14.6328 48.4455L15.0853 47.5537ZM8.2177 37.1355C8.21429 37.7159 7.74103 38.1837 7.16063 38.1803L7.15476 39.1803C8.28743 39.1869 9.21103 38.2741 9.21768 37.1414L8.2177 37.1355ZM7.17296 36.0785C7.75336 36.0819 8.2211 36.5551 8.2177 37.1355L9.21768 37.1414C9.22432 36.0087 8.3115 35.0851 7.17883 35.0785L7.17296 36.0785ZM6.11589 37.1232C6.1193 36.5428 6.59256 36.0751 7.17296 36.0785L7.17883 35.0785C6.04615 35.0719 5.12256 35.9847 5.11591 37.1173L6.11589 37.1232ZM7.16063 38.1803C6.58023 38.1769 6.11249 37.7036 6.11589 37.1232L5.11591 37.1173C5.10927 38.25 6.02209 39.1736 7.15476 39.1803L7.16063 38.1803Z" fill="#B3BCF3"/>
</svg>
