<svg width="77" height="21" viewBox="0 0 77 21" fill="none" xmlns="http://www.w3.org/2000/svg">
<path d="M65.0858 15.157C64.9621 15.1439 64.8476 15.2237 64.8171 15.3443C64.7866 15.4648 64.8493 15.5895 64.9644 15.6368L67.8222 16.8123C68.0528 17.2976 68.3202 17.6469 68.5632 17.8931C68.5309 17.8903 68.4978 17.8873 68.464 17.884C67.9052 17.8305 67.144 17.7193 66.3325 17.4892C64.7006 17.0265 62.9171 16.0991 62.1109 14.2499C61.8024 13.5403 61.576 12.8615 61.397 12.2679C60.9963 10.8554 60.9406 9.35351 61.2441 7.91973L61.2441 7.91959C61.372 7.31354 61.5502 6.62172 61.8097 5.89416L61.8099 5.89379C62.4839 3.99478 64.1974 2.94849 65.7925 2.37594C66.5857 2.09121 67.3371 1.92849 67.8906 1.83708C67.9244 1.8315 67.9574 1.82619 67.9897 1.82113C67.7651 2.08277 67.5238 2.44844 67.3289 2.94672L64.5646 4.3132C64.4532 4.36827 64.3991 4.49681 64.4377 4.61495C64.4763 4.73308 64.5958 4.80493 64.7183 4.7836L66.9913 4.3877C66.9798 4.49694 66.9706 4.60972 66.964 4.72637L63.8112 6.28988C63.6998 6.3451 63.646 6.47373 63.6847 6.59182C63.7235 6.70991 63.8431 6.78159 63.9655 6.76008L66.8219 6.25813C66.8068 6.32836 66.7903 6.39725 66.7724 6.4648L63.4477 8.11669C63.3365 8.17195 63.2827 8.30045 63.3214 8.41844C63.3601 8.53644 63.4795 8.60817 63.6019 8.58688L65.8364 8.19801C64.8163 9.29317 63.2868 9.68438 62.1382 9.81829C62.0087 9.83338 61.9126 9.94547 61.9174 10.0758C61.9221 10.206 62.0262 10.3108 62.1565 10.3164C63.306 10.3656 64.8589 10.6554 65.9542 11.6817L63.7006 11.4428C63.577 11.4297 63.4625 11.5094 63.4319 11.6299C63.4014 11.7504 63.4639 11.875 63.5788 11.9225L67.0092 13.3391C67.0307 13.4048 67.0514 13.4725 67.0711 13.5416L64.1908 13.2371C64.0671 13.2241 63.9527 13.3038 63.9221 13.4243C63.8916 13.5448 63.9542 13.6694 64.0691 13.7168L67.3243 15.0605C67.3389 15.1768 67.3562 15.2902 67.3757 15.3997L65.0858 15.157Z" fill="#716794" stroke="#716794" stroke-width="0.5" stroke-linejoin="round"/>
<mask id="path-2-inside-1_123_15797" fill="white">
<path fill-rule="evenodd" clip-rule="evenodd" d="M6.98386 15.113C5.83216 13.858 3.70556 8.56733 6.50855 4.9461C4.80987 5.73857 0.710468 8.45909 0.0610174 9.73916C0.588105 11.0796 5.38382 14.3012 6.98386 15.113ZM3.00006 10.2914C3.44322 10.294 3.80457 9.93682 3.80717 9.49367C3.80977 9.05051 3.45263 8.68916 3.00948 8.68656C2.56633 8.68396 2.20497 9.0411 2.20237 9.48425C2.19977 9.92741 2.55691 10.2888 3.00006 10.2914Z"/>
</mask>
<path fill-rule="evenodd" clip-rule="evenodd" d="M6.98386 15.113C5.83216 13.858 3.70556 8.56733 6.50855 4.9461C4.80987 5.73857 0.710468 8.45909 0.0610174 9.73916C0.588105 11.0796 5.38382 14.3012 6.98386 15.113ZM3.00006 10.2914C3.44322 10.294 3.80457 9.93682 3.80717 9.49367C3.80977 9.05051 3.45263 8.68916 3.00948 8.68656C2.56633 8.68396 2.20497 9.0411 2.20237 9.48425C2.19977 9.92741 2.55691 10.2888 3.00006 10.2914Z" fill="#716794"/>
<path d="M6.50855 4.9461L6.90394 5.25215L6.29717 4.49299L6.50855 4.9461ZM6.98386 15.113L6.75763 15.5589L7.35225 14.7749L6.98386 15.113ZM0.0610174 9.73916L-0.384877 9.51294L-0.486467 9.71317L-0.404302 9.92213L0.0610174 9.73916ZM6.11316 4.64005C4.59567 6.60053 4.43158 8.98855 4.77014 10.9999C4.94006 12.0094 5.23872 12.9406 5.57114 13.7038C5.89979 14.4584 6.27512 15.0802 6.61548 15.451L7.35225 14.7749C7.11676 14.5183 6.79438 14.0081 6.48796 13.3045C6.18532 12.6097 5.91158 11.7566 5.75626 10.8339C5.44434 8.98083 5.61845 6.91291 6.90394 5.25215L6.11316 4.64005ZM0.506912 9.96539C0.62284 9.73689 0.936031 9.38059 1.43617 8.93497C1.92028 8.50364 2.53107 8.03033 3.18143 7.56701C4.48722 6.63678 5.90907 5.77751 6.71994 5.39922L6.29717 4.49299C5.40936 4.90716 3.93217 5.80438 2.60122 6.75255C1.93322 7.22843 1.29121 7.72478 0.770937 8.18834C0.266699 8.63761 -0.17608 9.1014 -0.384877 9.51294L0.506912 9.96539ZM7.2101 14.6671C6.44403 14.2784 4.8696 13.2875 3.4158 12.2211C2.69113 11.6896 2.00817 11.1478 1.47801 10.6617C1.21279 10.4184 0.992218 10.1949 0.825646 9.99838C0.653662 9.79543 0.562404 9.64792 0.526337 9.55619L-0.404302 9.92213C-0.308597 10.1655 -0.134688 10.4119 0.0627313 10.6449C0.265563 10.8842 0.518634 11.1387 0.802132 11.3987C1.36942 11.9189 2.08422 12.4846 2.82436 13.0275C4.30021 14.11 5.92366 15.1357 6.75763 15.5589L7.2101 14.6671ZM3.30718 9.49073C3.3062 9.65775 3.17001 9.79235 3.003 9.79137L2.99713 10.7914C3.71642 10.7956 4.30294 10.2159 4.30716 9.4966L3.30718 9.49073ZM3.00655 9.18655C3.17356 9.18753 3.30816 9.32372 3.30718 9.49073L4.30716 9.4966C4.31138 8.77731 3.7317 8.19079 3.01241 8.18657L3.00655 9.18655ZM2.70236 9.48719C2.70334 9.32017 2.83953 9.18557 3.00655 9.18655L3.01241 8.18657C2.29312 8.18235 1.7066 8.76203 1.70238 9.48132L2.70236 9.48719ZM3.003 9.79137C2.83598 9.79039 2.70138 9.6542 2.70236 9.48719L1.70238 9.48132C1.69816 10.2006 2.27784 10.7871 2.99713 10.7914L3.003 9.79137Z" fill="#716794" mask="url(#path-2-inside-1_123_15797)"/>
<path d="M5.33545 9.60373L10.6714 9.60373M60.8239 9.60373L55.489 9.60373M10.6714 9.60373C11.0271 11.3822 12.4854 15.4727 15.4733 17.6069M10.6714 9.60373C11.0271 8.0031 12.8056 4.2683 17.0739 2.13413M10.6714 9.60373L18.141 9.60373M18.141 9.60373C18.8524 11.7379 21.0221 16.5398 24.01 18.674M18.141 9.60373C18.4967 7.82526 20.4886 3.73476 25.6106 1.60059M18.141 9.60373L27.2112 9.60373M27.2112 9.60373C27.3891 11.2044 28.7052 15.2593 32.5467 18.674M27.2112 9.60373C27.7448 7.82526 29.879 3.73476 34.1473 1.60059M27.2112 9.60373L36.2815 9.60373M36.2815 9.60373C36.9929 11.3822 39.4827 15.366 43.7511 17.0733M36.2815 9.60373C36.815 8.0031 39.0559 4.37501 43.7511 2.66767M36.2815 9.60373L45.3517 9.60373M45.3517 9.60373C46.4188 10.8487 49.5133 13.552 53.3549 14.4056M45.3517 9.60373C46.4188 8.18095 49.5133 5.22868 53.3549 4.80184M45.3517 9.60373L55.489 9.60373M55.489 9.60373C56.3783 10.1373 58.797 11.4178 61.358 12.2714M55.489 9.60373C56.734 8.89234 59.6507 7.36285 61.358 6.93602" stroke="#716794" stroke-width="0.5" stroke-linecap="round" stroke-linejoin="round"/>
</svg>
