<svg width="10" height="12" viewBox="0 0 10 12" fill="none" xmlns="http://www.w3.org/2000/svg">
<path fill-rule="evenodd" clip-rule="evenodd" d="M3.31966 10.9818L3.34929 11.0111L3.35161 11.0134C3.89442 11.5464 4.42072 11.9117 5.01601 11.9047C5.60859 11.8977 6.13274 11.5228 6.67521 10.9816C7.4187 10.2434 8.38073 9.24774 9.07574 8.06649C9.7734 6.88081 10.2236 5.47132 9.88486 3.92428C8.74029 -1.3041 1.26568 -1.31023 0.115133 3.91872C-0.214015 5.42191 0.201823 6.79695 0.864969 7.96231C1.52562 9.12334 2.45002 10.1091 3.19137 10.8536C3.23457 10.8969 3.2772 10.9395 3.31916 10.9813L3.31966 10.9818ZM5.00001 3.24523C4.02982 3.24523 3.24329 4.05113 3.24329 5.04524C3.24329 6.03934 4.02982 6.84524 5.00001 6.84524C5.9702 6.84524 6.75672 6.03934 6.75672 5.04524C6.75672 4.05113 5.9702 3.24523 5.00001 3.24523Z" fill="#323549" fill-opacity="0.7"/>
</svg>
