<svg width="33" height="35" viewBox="0 0 33 35" fill="none" xmlns="http://www.w3.org/2000/svg">
<path d="M3.11497 7.66942C3.08106 7.13717 2.47254 6.93772 2.28869 7.43836C1.79155 8.7921 1.40601 10.7289 1.9793 12.8931C2.77525 15.9108 4.8995 15.8333 6.21437 16.8449C6.44766 17.0229 6.64428 17.23 6.80991 17.4504C7.1391 17.8885 8.07109 17.8532 8.09261 17.3056C8.15568 15.7003 7.82467 13.6866 6.11559 12.4298C4.1116 10.9588 3.23127 9.49484 3.11497 7.66942Z" fill="white"/>
<path d="M8.27516 10.6856C7.77542 10.6376 7.63106 11.3233 8.02169 11.6387C8.61817 12.1203 9.23424 12.7996 9.5296 13.689C9.66789 14.1054 9.72731 14.5037 9.73452 14.8736C9.74523 15.4228 10.5638 16.0009 10.8776 15.5501C11.5671 14.5595 11.9325 13.237 10.7758 11.8211C10.1479 11.0501 9.14653 10.7692 8.27516 10.6856Z" fill="white"/>
<path d="M21.4029 5.16901C21.9819 6.11179 22.3559 7.04126 22.2652 7.51264C22.2004 7.84931 22.4208 8.17476 22.7575 8.23956L23.4408 8.37108C23.7837 8.43708 24.1526 8.3743 24.3772 8.10689C24.969 7.40213 25.2445 6.24168 25.3509 5.30097C25.4203 4.6877 25.1078 4.10977 24.5175 3.92965C23.9009 3.7415 23.0998 3.59015 22.325 3.48004C21.443 3.35469 20.9367 4.40984 21.4029 5.16901Z" fill="white"/>
<path d="M16.1278 13.3187C14.365 20.2324 11.7339 24.4387 4.23357 27.9674C3.3229 28.3959 3.47907 29.7515 4.4799 29.8575C18.7854 31.372 24.7846 23.6589 28.1737 17.138C29.7143 14.1738 27.7658 10.4677 24.4853 9.83623L22.1002 9.37715C19.3885 8.85521 16.8101 10.6429 16.1278 13.3187Z" fill="white"/>
</svg>
