<svg width="31" height="31" viewBox="0 0 31 31" fill="none" xmlns="http://www.w3.org/2000/svg">
<rect width="31" height="31" fill="white"/>
<path fill-rule="evenodd" clip-rule="evenodd" d="M12.9713 26.0619L13.0335 26.1233L13.0384 26.1282C14.1783 27.2474 15.2835 28.0146 16.5336 27.9998C17.778 27.9851 18.8787 27.198 20.0179 26.0614C21.5793 24.5112 23.5995 22.4202 25.0591 19.9396C26.5241 17.4497 27.4696 14.4898 26.7582 11.241C24.3546 0.261385 8.65793 0.248522 6.24178 11.2293C5.55057 14.386 6.42383 17.2736 7.81643 19.7208C9.2038 22.159 11.145 24.2291 12.7019 25.7925C12.7926 25.8836 12.8821 25.973 12.9702 26.0608L12.9713 26.0619ZM16.5 9.81499C14.4626 9.81499 12.8109 11.5074 12.8109 13.595C12.8109 15.6826 14.4626 17.375 16.5 17.375C18.5374 17.375 20.1891 15.6826 20.1891 13.595C20.1891 11.5074 18.5374 9.81499 16.5 9.81499Z" fill="#2A1A5E"/>
</svg>
