<svg width="49" height="49" viewBox="0 0 49 49" fill="none" xmlns="http://www.w3.org/2000/svg">
<path d="M22.1041 48.8812C8.64063 47.5608 -1.20172 35.5675 0.118762 22.1041C1.43924 8.64062 13.4325 -1.20172 26.8959 0.118762C40.3594 1.43924 50.2017 13.4325 48.8812 26.8959C47.5608 40.3594 35.5675 50.2017 22.1041 48.8812Z" fill="white"/>
<path d="M25.4311 7.08054L19.7147 6.51689L13.3797 17.1054L9.30435 5.7251C7.81139 6.89266 6.45292 8.20784 5.25586 9.72432L10.219 23.319L9.76165 27.8953L14.792 28.3918L15.2493 23.8155L25.4311 7.08054Z" fill="#2A1A5E"/>
<path d="M26.5205 26.6998C28.1345 20.1776 20.8042 14.7021 20.8042 14.7021C20.8042 14.7021 21.5036 15.8831 21.0059 17.9633L23.5345 22.3114L20.4948 19.4395C20.3334 19.8018 20.1317 20.1776 19.8896 20.5668L22.8082 25.5725L19.0691 22.0296C18.9077 22.3785 18.7732 22.7274 18.6656 23.0629L21.7053 28.2834L18.3428 25.1162C18.3428 28.1089 20.4141 30.4172 22.0281 31.7727C20.2124 30.6856 17.3475 29.4912 14.5229 30.4709L18.6252 32.6047L12.6803 31.4371C12.3978 31.6519 12.1154 31.8934 11.8329 32.1618L16.406 34.5372L10.7031 33.4233C10.4072 33.7723 10.1113 34.0944 9.82885 34.3628L13.5411 36.2953L8.59144 35.329C6.78913 36.4697 5.43066 36.2013 5.43066 36.2013C5.43066 36.2013 13.0031 41.3413 18.6521 37.691C19.7012 37.02 20.6024 36.3087 21.3556 35.6645C23.1714 34.1212 24.5837 32.135 25.4579 29.9207C25.848 28.9947 26.2246 27.9076 26.5205 26.6998Z" fill="#2A1A5E"/>
<path d="M34.3482 24.768C31.2547 23.587 29.5196 22.7281 29.6541 21.3592C29.7752 20.0575 31.4295 19.3328 33.8505 19.5743C35.088 19.6951 36.2985 20.044 37.4148 20.5943C39.1365 21.4397 41.2078 21.0506 42.4721 19.6146L43.2522 18.7289C42.62 18.1786 41.9744 17.6821 41.3019 17.2526C39.2979 15.9777 37.0651 15.2396 34.4962 14.9846C30.3939 14.582 27.2331 15.6288 25.5787 17.8163C27.2734 20.2051 28.6857 23.4259 27.798 27.0091C27.7711 27.1031 27.7442 27.2104 27.7173 27.3044C29.2237 28.2706 31.0126 28.9819 32.6266 29.5992C35.357 30.6863 37.1189 31.2231 36.971 32.7261C36.823 34.2158 35.1821 34.9405 32.5055 34.6721C30.0038 34.4305 27.7711 33.3972 26.0764 31.7733C25.3232 33.2495 24.3413 34.5915 23.1711 35.7725C25.4308 37.6514 28.5377 38.8726 31.9272 39.2081C38.1008 39.812 41.9744 37.4903 42.4183 32.8872C42.889 28.0425 38.168 26.2039 34.3482 24.768Z" fill="#2A1A5E"/>
</svg>
