<svg width="40" height="10" viewBox="0 0 40 10" fill="none" xmlns="http://www.w3.org/2000/svg">
<g clip-path="url(#clip0_30_26607)">
<path d="M12.5018 0.333158C12.4354 1.83538 12.4022 3.44427 12.4022 5.15982C12.4022 6.88427 12.4354 8.49757 12.5018 9.99982H7.41023L3.96845 2.71982L4.22445 9.99982H0.569336C0.645187 8.27538 0.683114 6.66205 0.683114 5.15982C0.683114 3.66649 0.645187 2.0576 0.569336 0.333158H5.80311L9.25911 7.81316L9.01734 0.333158H12.5018ZM16.9952 7.55982C20.5982 7.54205 23.2103 7.49316 24.8316 7.41316C24.7653 7.7776 24.7227 8.15538 24.7036 8.54649C24.6942 8.92874 24.6894 9.41316 24.6894 9.99982H13.6388C13.7147 8.27538 13.7525 6.66205 13.7525 5.15982C13.7525 3.6576 13.7147 2.04427 13.6388 0.319824H24.6894V2.73316H16.9952V4.01316C17.4503 4.02205 18.1236 4.02649 19.0148 4.02649C20.5223 4.02649 22.082 3.99982 23.6939 3.94649V6.23982C22.082 6.18649 20.5223 6.15982 19.0148 6.15982C18.1236 6.15982 17.4503 6.16427 16.9952 6.17316V7.55982ZM35.5038 6.35982L36.2434 0.319824H39.7135L37.8078 9.99982H33.4416L32.4745 4.59982L31.3509 9.99982H27.1696L25.2638 0.319824H28.734L29.4594 6.27982L30.5972 0.319824H34.3945L35.5038 6.35982Z" fill="white"/>
</g>
<defs>
<clipPath id="clip0_30_26607">
<rect width="40" height="10" fill="white"/>
</clipPath>
</defs>
</svg>
