<svg width="296" height="70" viewBox="0 0 296 70" fill="none" xmlns="http://www.w3.org/2000/svg">
<path d="M98.8303 13.9696C103.528 10.2073 125.04 2.75388 159.472 2.95587C193.904 3.15786 208.502 14.6129 232.732 14.7551" stroke="#FF671D"/>
<path d="M98.7223 32.2864C105.065 38.0083 125.432 44.4441 158.939 44.6407C192.447 44.8373 208.52 31.0356 232.635 31.1771" stroke="#FF671D"/>
<path d="M232.132 33.8862C236.148 43.101 249.818 42.9389 249.818 42.9389C249.818 42.9389 247.916 42.1722 246.599 39.2437L239.636 36.3799L245.848 37.0384C245.712 36.4679 245.601 35.831 245.531 35.152L237.522 31.8462L245.17 32.6545C245.041 32.0962 244.888 31.5529 244.713 31.0564L236.365 27.6089L243.224 28.3361C240.498 24.7877 235.942 23.9063 232.806 23.772C235.934 23.4074 240.42 22.2322 242.888 18.5135L236.093 19.6961L244.179 15.6783C244.329 15.1647 244.445 14.6223 244.526 14.0511L236.95 15.3823L244.707 11.5358C244.732 10.848 244.795 10.2207 244.888 9.64194L238.729 10.7148L245.465 7.38501C246.567 4.38139 248.41 3.48786 248.41 3.48786C248.41 3.48786 234.765 4.25634 231.406 13.7206C230.782 15.4694 230.355 17.1296 230.048 18.58C229.311 22.0626 229.447 25.7083 230.42 29.1361C230.847 30.5511 231.39 32.1798 232.132 33.8862Z" fill="#FF671D"/>
<path fill-rule="evenodd" clip-rule="evenodd" d="M102.492 35.6888C99.7719 32.7252 94.75 20.2315 101.369 11.68C97.3578 13.5514 87.6772 19.9758 86.1435 22.9987C87.3882 26.1642 98.7131 33.7717 102.492 35.6888ZM93.0839 24.3027C94.1304 24.3088 94.9837 23.4655 94.9898 22.419C94.996 21.3725 94.1526 20.5192 93.1061 20.513C92.0596 20.5069 91.2063 21.3502 91.2001 22.3967C91.194 23.4432 92.0374 24.2966 93.0839 24.3027Z" fill="#FF671D"/>
<path d="M237.451 57.8462C239.081 56.5411 246.544 53.9554 258.488 54.0255C270.433 54.0956 275.497 58.0694 283.903 58.1187" stroke="#FF671D" stroke-width="0.5"/>
<path d="M237.414 64.2004C239.615 66.1854 246.68 68.418 258.304 68.4862C269.928 68.5544 275.504 63.7665 283.87 63.8156" stroke="#FF671D" stroke-width="0.5"/>
<path d="M283.694 64.7554C285.088 67.9521 289.83 67.8959 289.83 67.8959C289.83 67.8959 289.17 67.6299 288.713 66.614L286.298 65.6205L288.453 65.8489C288.405 65.651 288.367 65.4301 288.343 65.1945L285.564 64.0477L288.217 64.3281C288.173 64.1344 288.12 63.946 288.059 63.7737L285.163 62.5778L287.542 62.83C286.597 61.5991 285.016 61.2933 283.928 61.2467C285.013 61.1202 286.569 60.7126 287.426 59.4225L285.068 59.8327L287.874 58.4389C287.926 58.2608 287.966 58.0726 287.994 57.8745L285.366 58.3363L288.057 57.0019C288.066 56.7633 288.087 56.5457 288.12 56.3449L285.983 56.7171L288.32 55.562C288.702 54.52 289.341 54.21 289.341 54.21C289.341 54.21 284.608 54.4766 283.443 57.7598C283.226 58.3665 283.078 58.9424 282.972 59.4456C282.716 60.6537 282.763 61.9184 283.101 63.1075C283.249 63.5984 283.437 64.1634 283.694 64.7554Z" fill="#FF671D"/>
<path fill-rule="evenodd" clip-rule="evenodd" d="M238.721 65.3807C237.778 64.3526 236.036 60.0184 238.332 57.0519C236.94 57.7011 233.582 59.9298 233.05 60.9784C233.482 62.0765 237.411 64.7156 238.721 65.3807ZM235.457 61.4308C235.82 61.4329 236.116 61.1403 236.118 60.7773C236.121 60.4143 235.828 60.1182 235.465 60.1161C235.102 60.114 234.806 60.4065 234.804 60.7696C234.802 61.1326 235.094 61.4286 235.457 61.4308Z" fill="#FF671D"/>
<path d="M4.45147 12.8462C6.0813 11.5411 13.5437 8.95542 25.4884 9.02549C37.433 9.09556 42.4974 13.0694 50.9029 13.1187" stroke="#FF671D" stroke-width="0.5"/>
<path d="M4.41419 19.2004C6.6146 21.1854 13.6801 23.418 25.3039 23.4862C36.9278 23.5544 42.5039 18.7665 50.8695 18.8156" stroke="#FF671D" stroke-width="0.5"/>
<path d="M50.6944 19.7554C52.0878 22.9521 56.8298 22.8959 56.8298 22.8959C56.8298 22.8959 56.1699 22.6299 55.713 21.614L53.2976 20.6205L55.4528 20.8489C55.4054 20.651 55.367 20.4301 55.3428 20.1945L52.5644 19.0477L55.2174 19.3281C55.1727 19.1344 55.1195 18.946 55.059 18.7737L52.1629 17.5778L54.5423 17.83C53.5968 16.5991 52.0162 16.2933 50.9282 16.2467C52.0133 16.1202 53.5695 15.7126 54.4259 14.4225L52.0684 14.8327L54.8736 13.4389C54.9258 13.2608 54.9659 13.0726 54.994 12.8745L52.366 13.3363L55.0568 12.0019C55.0656 11.7633 55.0875 11.5457 55.1198 11.3449L52.983 11.7171L55.3197 10.562C55.702 9.51998 56.3414 9.21001 56.3414 9.21001C56.3414 9.21001 51.6079 9.4766 50.4425 12.7598C50.2261 13.3665 50.0779 13.9424 49.9717 14.4456C49.716 15.6537 49.7631 16.9184 50.1007 18.1075C50.2487 18.5984 50.437 19.1634 50.6944 19.7554Z" fill="#FF671D"/>
<path fill-rule="evenodd" clip-rule="evenodd" d="M5.72128 20.3807C4.7778 19.3526 3.03567 15.0184 5.3319 12.0519C3.94033 12.7011 0.582063 14.9298 0.0500274 15.9784C0.481822 17.0765 4.41051 19.7156 5.72128 20.3807ZM2.45724 16.4308C2.82027 16.4329 3.1163 16.1403 3.11843 15.7773C3.12056 15.4143 2.82798 15.1182 2.46495 15.1161C2.10191 15.114 1.80589 15.4065 1.80376 15.7696C1.80163 16.1326 2.0942 16.4286 2.45724 16.4308Z" fill="#FF671D"/>
</svg>
