<svg width="78" height="46" viewBox="0 0 78 46" fill="none" xmlns="http://www.w3.org/2000/svg">
<path d="M9.5 16.0305C11.8333 11.3638 19.9 1.83051 33.5 1.03051C47.1 0.230506 49.5 15.3638 49 23.0305C49.5 30.3638 47.1 44.9305 33.5 44.5305C21.9 44.5305 12.6667 33.5305 9.5 28.0305" stroke="#B3BCF3"/>
<path d="M50.1247 30.9709C53.3471 38.2467 64.1671 38.0549 64.1671 38.0549C64.1671 38.0549 62.6577 37.4567 61.6016 35.1447L56.0766 32.91L60.9976 33.4024C60.8868 32.9515 60.7962 32.4479 60.7378 31.9106L54.3826 29.331L60.4401 29.9354C60.3354 29.494 60.2116 29.0646 60.0713 28.6724L53.4465 25.9822L58.8795 26.5259C56.7056 23.7297 53.0946 23.0532 50.6115 22.9614C53.0858 22.6582 56.6313 21.7072 58.5683 18.7519L53.1943 19.7196L59.5767 16.5016C59.6934 16.0944 59.7825 15.6645 59.844 15.2119L53.8533 16.3009L59.9755 13.22C59.9924 12.6754 60.0394 12.1785 60.1104 11.72L55.2394 12.5978L60.5562 9.93071C61.4145 7.54794 62.8693 6.83206 62.8693 6.83206C62.8693 6.83206 52.0717 7.50375 49.4565 15.0112C48.9707 16.3984 48.6402 17.7146 48.4046 18.8642C47.8373 21.6245 47.9618 24.5098 48.7481 27.2186C49.0924 28.3368 49.5295 29.6235 50.1247 30.9709Z" fill="#B3BCF3"/>
<path fill-rule="evenodd" clip-rule="evenodd" d="M13 32C10.8333 29.6667 6.8 19.8 12 13C8.8333 14.5 1.2 19.6305 0 22.0305C1 24.5305 10.0001 30.5 13 32ZM5.5 23.0305C6.32843 23.0305 7 22.3589 7 21.5305C7 20.7021 6.32843 20.0305 5.5 20.0305C4.67157 20.0305 4 20.7021 4 21.5305C4 22.3589 4.67157 23.0305 5.5 23.0305Z" fill="#B3BCF3"/>
</svg>
