<svg width="29" height="29" viewBox="0 0 29 29" fill="none" xmlns="http://www.w3.org/2000/svg">
<path d="M7.78604 16.2733C4.10831 12.5956 3.62849 6.79807 6.65157 2.56576C7.60693 1.22825 9.53463 1.06871 10.6969 2.23096L12.9085 4.44254C14.3011 5.83521 14.146 8.13635 12.5791 9.32953C11.0121 10.5227 10.857 12.8239 12.2497 14.2165L14.7559 16.7228C16.1486 18.1154 18.4497 17.9603 19.6429 16.3934C20.8361 14.8264 23.1372 14.6713 24.5299 16.064L26.7415 18.2756C27.9037 19.4378 27.7442 21.3655 26.4067 22.3209C22.1744 25.344 16.3768 24.8641 12.6991 21.1864L7.78604 16.2733Z" fill="#2A1A5E"/>
</svg>
