<svg width="412" height="46" viewBox="0 0 412 46" fill="none" xmlns="http://www.w3.org/2000/svg">
<g clip-path="url(#clip0_202_6951)">
<path d="M333.332 34.8785C338.052 34.8785 340.806 33.3306 340.789 30.6891C340.789 28.0475 337.598 27.3913 332.66 25.9612C325.623 23.9927 316.739 21.4689 316.722 12.4338C316.722 4.72785 323.188 -2.05394e-05 333.399 -0.0168457C339.446 -0.0168457 344.602 1.63202 349.321 5.0307L344.299 12.0973C341.226 9.5735 337.162 8.14336 333.097 8.14336C328.814 8.14336 326.077 9.69127 326.077 11.9963C326.077 14.4191 329.268 15.6306 334.861 17.1616C341.78 19.0292 350.346 21.4352 350.346 30.0161C350.346 38.1595 343.98 42.8873 333.114 42.9041C326.077 42.9041 319.493 40.7169 315.093 36.763L320.249 29.7132C323.658 33.011 328.277 34.8785 333.332 34.8785Z" fill="#2A1A5E"/>
<path d="M299.053 0.773905V25.4059C299.053 31.3452 295.761 34.7607 289.833 34.7607C283.904 34.7607 280.612 31.3621 280.595 25.4228L280.578 0.773905H271.14L271.156 25.7593C271.156 36.3255 278.194 43.1397 289.833 43.1228C301.472 43.1228 308.492 36.2918 308.492 25.7256L308.475 0.75708H299.053V0.773905Z" fill="#2A1A5E"/>
<path d="M383.952 0.723368V21.9231H366.821V0.723368L357.349 0.740193V42.5507L366.821 42.5339V31.0255H383.952V42.5171H393.391V0.706543L383.952 0.723368Z" fill="#2A1A5E"/>
<path d="M412 0.706543H402.544V42.5171H412V0.706543Z" fill="#2A1A5E"/>
<path d="M236.693 22.1586C238.406 10.4315 224.617 2.08618 224.617 2.08618C224.617 2.08618 226.045 4.0379 225.541 7.78991L230.731 14.9911L224.92 10.4651C224.701 11.1213 224.416 11.828 224.063 12.5514L230.025 20.8462L222.871 15.2771C222.652 15.9165 222.467 16.5558 222.333 17.1615L228.547 25.8097L222.132 20.8126C222.652 26.062 226.666 29.7804 229.723 31.8667C226.364 30.2852 221.141 28.6699 216.354 30.8572L223.895 33.9026L213.297 32.8931C212.827 33.3137 212.374 33.7848 211.937 34.3064L220.351 37.6882L210.19 36.7124C209.737 37.3854 209.283 37.9743 208.83 38.4958L215.665 41.2552L206.848 40.3971C203.875 42.719 201.474 42.4666 201.474 42.4666C201.474 42.4666 215.615 50.1893 224.869 42.8031C226.582 41.4402 228.043 40.0438 229.253 38.7819C232.158 35.7533 234.291 32.0181 235.45 27.9801C235.904 26.2976 236.374 24.3291 236.693 22.1586Z" fill="#F45905"/>
<path d="M250.045 17.414C244.435 15.883 241.244 14.6715 241.244 12.2319C241.244 9.91002 243.999 8.37893 248.281 8.36211C250.465 8.36211 252.648 8.76591 254.68 9.53987C257.838 10.7345 261.382 9.6913 263.347 6.9488L264.556 5.26628C263.363 4.4082 262.137 3.65106 260.895 3.01171C257.166 1.11046 253.135 0.201904 248.601 0.201904C241.362 0.201904 236.021 2.59108 233.502 6.71324C236.894 10.6167 239.918 16.0344 238.977 22.4784C238.943 22.6635 238.91 22.8318 238.876 23.0168C241.681 24.4638 244.922 25.3892 247.862 26.2136C252.816 27.6437 256.007 28.2999 256.007 30.9415C256.007 33.583 253.253 35.1309 248.533 35.1309C244.116 35.1309 240.035 33.7008 236.794 31.1434C235.736 33.8522 234.241 36.3928 232.41 38.6642C236.676 41.575 242.336 43.1902 248.332 43.1734C259.215 43.1734 265.597 38.4287 265.597 30.2685C265.547 21.6876 256.965 19.2816 250.045 17.414Z" fill="#2A1A5E"/>
<path d="M137.451 0.689941H127.173H120.488L120.522 42.5173H129.86V34.2898H137.468C146.722 34.2898 154.23 26.7689 154.23 17.4983C154.23 8.22761 146.705 0.689941 137.451 0.689941ZM136.88 26.1464H129.826V8.83332H136.88C141.65 8.83332 145.513 12.7031 145.513 17.4815C145.513 22.2598 141.65 26.1464 136.88 26.1464Z" fill="#2A1A5E"/>
<path d="M177.423 0.252441C167.027 0.252441 158.596 8.69867 158.596 19.1135V24.1274C158.596 34.5421 167.027 42.9884 177.423 42.9884C187.819 42.9884 196.251 35.0301 196.251 24.6153V19.1303C196.251 8.69868 187.819 0.252441 177.423 0.252441ZM187.651 23.5889C187.651 29.2422 183.066 33.8355 177.423 33.8355C171.78 33.8355 167.195 29.2422 167.195 23.5889V19.635C167.195 13.9818 171.78 9.38851 177.423 9.38851C183.066 9.38851 187.651 13.9818 187.651 19.635V23.5889Z" fill="#2A1A5E"/>
<path d="M98.6879 0.689941H88.4093H81.7249L81.7584 42.5173H91.0965V34.2898H98.7047C107.959 34.2898 115.466 26.7689 115.466 17.4983C115.466 8.22761 107.959 0.689941 98.6879 0.689941ZM98.1336 26.1464H91.0797V8.83332H98.1336C102.903 8.83332 106.766 12.7031 106.766 17.4815C106.766 22.2598 102.903 26.1464 98.1336 26.1464Z" fill="#2A1A5E"/>
<path d="M76.434 34.3402L60.2939 0.639404H55.6081H50.9223L34.7822 34.3402V42.5677H41.6682L45.5479 34.3234H65.6684L69.5312 42.5341L76.434 42.5509V34.3402ZM49.4107 26.1464L55.6249 12.9554L61.8391 26.1464H49.4107Z" fill="#2A1A5E"/>
<path d="M41.2319 0.639404H30.4831L20.6244 21.6204L10.7488 0.639404H0L15.8881 33.8186V42.5677H25.3438V33.8186L41.2319 0.639404Z" fill="#2A1A5E"/>
</g>
<defs>
<clipPath id="clip0_202_6951">
<rect width="412" height="46" fill="white"/>
</clipPath>
</defs>
</svg>
