<svg width="350" height="38" viewBox="0 0 350 38" fill="none" xmlns="http://www.w3.org/2000/svg">
<path d="M283.17 28.3667C287.18 28.3667 289.52 27.1084 289.505 24.961C289.505 22.8137 286.794 22.2803 282.6 21.1177C276.622 19.5175 269.074 17.4659 269.06 10.1212C269.06 3.85699 274.553 0.0136773 283.228 0C288.364 0 292.744 1.34037 296.753 4.10318L292.487 9.84764C289.876 7.79605 286.423 6.63348 282.971 6.63348C279.332 6.63348 277.007 7.89179 277.007 9.76558C277.007 11.7351 279.718 12.7199 284.469 13.9645C290.347 15.4827 297.624 17.4385 297.624 24.4139C297.624 31.0338 292.216 34.8771 282.985 34.8907C277.007 34.8907 271.414 33.1127 267.676 29.8985L272.056 24.1678C274.952 26.8485 278.876 28.3667 283.17 28.3667Z" fill="white"/>
<path d="M254.051 0.642584V20.6661C254.051 25.4942 251.254 28.2707 246.218 28.2707C241.181 28.2707 238.385 25.5079 238.371 20.6798L238.356 0.642584H230.338L230.352 20.9533C230.352 29.5427 236.33 35.082 246.218 35.0683C256.105 35.0683 262.069 29.5153 262.069 20.926L262.055 0.628906H254.051V0.642584Z" fill="white"/>
<path d="M326.173 0.601515V17.8349H311.62V0.601515L303.573 0.615192V34.6032L311.62 34.5896V25.2343H326.173V34.5759H334.192V0.587837L326.173 0.601515Z" fill="white"/>
<path d="M350 0.587837H341.968V34.5759H350V0.587837Z" fill="white"/>
<path d="M201.075 18.0268C202.53 8.49372 190.816 1.70979 190.816 1.70979C190.816 1.70979 192.029 3.29635 191.601 6.34638L196.01 12.2003L191.073 8.52107C190.887 9.05448 190.645 9.62893 190.345 10.2171L195.41 16.96L189.332 12.4328C189.147 12.9525 188.99 13.4722 188.876 13.9646L194.155 20.9948L188.704 16.9326C189.147 21.1999 192.557 24.2226 195.153 25.9186C192.3 24.6329 187.863 23.3199 183.796 25.0979L190.203 27.5735L181.2 26.7529C180.8 27.0948 180.415 27.4778 180.044 27.9018L187.192 30.6509L178.56 29.8576C178.175 30.4047 177.79 30.8834 177.405 31.3074L183.211 33.5505L175.721 32.853C173.196 34.7404 171.155 34.5353 171.155 34.5353C171.155 34.5353 183.169 40.8131 191.03 34.8088C192.485 33.7009 193.727 32.5657 194.754 31.5399C197.222 29.078 199.034 26.0417 200.019 22.7591C200.404 21.3914 200.803 19.7911 201.075 18.0268Z" fill="#FF671D"/>
<path d="M212.418 14.1693C207.652 12.9247 204.941 11.94 204.941 9.95675C204.941 8.06928 207.281 6.82465 210.919 6.81097C212.774 6.81097 214.629 7.13923 216.355 7.76838C219.038 8.73947 222.048 7.89148 223.718 5.66208L224.745 4.29435C223.732 3.59681 222.69 2.98133 221.634 2.4616C218.467 0.916063 215.043 0.17749 211.191 0.17749C205.041 0.17749 200.504 2.11966 198.364 5.4706C201.246 8.64373 203.814 13.0478 203.015 18.2862C202.987 18.4367 202.958 18.5734 202.93 18.7239C205.312 19.9001 208.066 20.6524 210.563 21.3226C214.772 22.4851 217.483 23.0185 217.483 25.1659C217.483 27.3132 215.143 28.5715 211.133 28.5715C207.381 28.5715 203.914 27.409 201.16 25.33C200.262 27.5321 198.992 29.5973 197.437 31.4438C201.061 33.8099 205.869 35.1229 210.962 35.1093C220.208 35.1093 225.629 31.2523 225.629 24.6188C225.587 17.6434 218.296 15.6875 212.418 14.1693Z" fill="white"/>
<path d="M116.767 0.575317H108.035H102.356L102.385 34.577H110.318V27.8888H116.781C124.643 27.8888 131.02 21.7751 131.02 14.2389C131.02 6.70274 124.628 0.575317 116.767 0.575317ZM116.282 21.269H110.289V7.19512H116.282C120.334 7.19512 123.615 10.3409 123.615 14.2252C123.615 18.1096 120.334 21.269 116.282 21.269Z" fill="white"/>
<path d="M150.724 0.21936C141.892 0.21936 134.729 7.08536 134.729 15.5516V19.6274C134.729 28.0937 141.892 34.9597 150.724 34.9597C159.555 34.9597 166.718 28.4903 166.718 20.0241V15.5653C166.718 7.08536 159.555 0.21936 150.724 0.21936ZM159.413 19.1898C159.413 23.7853 155.517 27.5192 150.724 27.5192C145.93 27.5192 142.035 23.7853 142.035 19.1898V15.9756C142.035 11.38 145.93 7.64612 150.724 7.64612C155.517 7.64612 159.413 11.38 159.413 15.9756V19.1898Z" fill="white"/>
<path d="M83.8371 0.575317H75.1053H69.4268L69.4553 34.577H77.3881V27.8888H83.8514C91.7128 27.8888 98.0905 21.7751 98.0905 14.2389C98.0905 6.70274 91.7128 0.575317 83.8371 0.575317ZM83.3663 21.269H77.3738V7.19512H83.3663C87.4183 7.19512 90.6998 10.3409 90.6998 14.2252C90.6998 18.1096 87.4183 21.269 83.3663 21.269Z" fill="white"/>
<path d="M64.9316 27.9299L51.2204 0.534302H47.2398H43.2591L29.5479 27.9299V34.6181H35.3976L38.6934 27.9162H55.7861L59.0676 34.5907L64.9316 34.6044V27.9299ZM41.975 21.2691L47.254 10.5461L52.5331 21.2691H41.975Z" fill="white"/>
<path d="M35.0271 0.534447H25.8958L17.5207 17.59L9.1313 0.534447H0L13.4972 27.506V34.6182H21.5299V27.506L35.0271 0.534447Z" fill="white"/>
</svg>
