<svg width="18" height="25" viewBox="0 0 18 25" fill="none" xmlns="http://www.w3.org/2000/svg">
<mask id="path-1-inside-1_202_6849" fill="white">
<path fill-rule="evenodd" clip-rule="evenodd" d="M2.58192 22.0757H2.5783L1.0354 7.84717H14.5669L13.024 21.971C13.024 21.9716 13.024 21.9722 13.024 21.9727C13.024 23.5002 10.6857 24.7385 7.80123 24.7385C4.98185 24.7385 2.68422 23.5555 2.58192 22.0757Z"/>
</mask>
<path d="M2.58192 22.0757L3.08073 22.0413L3.04855 21.5757H2.58192V22.0757ZM2.5783 22.0757L2.08121 22.1296L2.12959 22.5757H2.5783V22.0757ZM1.0354 7.84717V7.34717H0.478251L0.538314 7.90107L1.0354 7.84717ZM14.5669 7.84717L15.0639 7.90146L15.1245 7.34717H14.5669V7.84717ZM13.024 21.971L12.527 21.9167L12.524 21.9438V21.971H13.024ZM2.58192 21.5757H2.5783V22.5757H2.58192V21.5757ZM3.07539 22.0218L1.53249 7.79327L0.538314 7.90107L2.08121 22.1296L3.07539 22.0218ZM1.0354 8.34717H14.5669V7.34717H1.0354V8.34717ZM14.0698 7.79287L12.527 21.9167L13.5211 22.0253L15.0639 7.90146L14.0698 7.79287ZM13.524 21.9727C13.524 21.9722 13.524 21.9717 13.524 21.9715C13.524 21.9711 13.524 21.9711 13.524 21.971H12.524C12.524 21.9715 12.524 21.972 12.524 21.9723C12.524 21.9726 12.524 21.9727 12.524 21.9727H13.524ZM7.80123 25.2385C9.30841 25.2385 10.6977 24.916 11.7283 24.3703C12.7366 23.8363 13.524 23.0129 13.524 21.9727H12.524C12.524 22.4601 12.1423 23.0195 11.2603 23.4865C10.4007 23.9418 9.17857 24.2385 7.80123 24.2385V25.2385ZM2.08311 22.1102C2.15225 23.1103 2.94437 23.8952 3.94494 24.4071C4.96751 24.9303 6.32765 25.2385 7.80123 25.2385V24.2385C6.45543 24.2385 5.25707 23.9551 4.4004 23.5169C3.52174 23.0673 3.1139 22.5209 3.08073 22.0413L2.08311 22.1102Z" fill="#2A1A5E" mask="url(#path-1-inside-1_202_6849)"/>
<path d="M7.80109 16.1902C11.7081 16.1902 14.8754 14.9315 14.8754 13.3788C14.8754 11.8261 11.7081 10.5674 7.80109 10.5674C3.89407 10.5674 0.726807 11.8261 0.726807 13.3788C0.726807 14.9315 3.89407 16.1902 7.80109 16.1902Z" fill="white"/>
<mask id="path-4-inside-2_202_6849" fill="white">
<path fill-rule="evenodd" clip-rule="evenodd" d="M10.6656 4.37947C13.4558 4.8107 15.4235 5.85301 15.4235 7.07034C15.4235 7.10473 15.4219 7.13899 15.4188 7.1731H15.4235L14.8749 11.7217H14.8742C14.8128 13.2533 11.6694 14.4874 7.80085 14.4874C3.93226 14.4874 0.788947 13.2533 0.72748 11.7217H0.714913L0.177734 7.1731H0.182421C0.179305 7.13899 0.177734 7.10473 0.177734 7.07034C0.177734 5.46713 3.59065 4.16748 7.80064 4.16748C8.27288 4.16748 8.73509 4.18383 9.18358 4.21513L9.77804 0.624396C9.81233 0.407254 9.93803 0.224396 10.1209 0.11011C10.3037 -0.00417537 10.5323 -0.0270322 10.738 0.0301107L17.458 2.16725L17.0009 3.59583L11.1037 1.72154L10.6656 4.37947Z"/>
</mask>
<path fill-rule="evenodd" clip-rule="evenodd" d="M10.6656 4.37947C13.4558 4.8107 15.4235 5.85301 15.4235 7.07034C15.4235 7.10473 15.4219 7.13899 15.4188 7.1731H15.4235L14.8749 11.7217H14.8742C14.8128 13.2533 11.6694 14.4874 7.80085 14.4874C3.93226 14.4874 0.788947 13.2533 0.72748 11.7217H0.714913L0.177734 7.1731H0.182421C0.179305 7.13899 0.177734 7.10473 0.177734 7.07034C0.177734 5.46713 3.59065 4.16748 7.80064 4.16748C8.27288 4.16748 8.73509 4.18383 9.18358 4.21513L9.77804 0.624396C9.81233 0.407254 9.93803 0.224396 10.1209 0.11011C10.3037 -0.00417537 10.5323 -0.0270322 10.738 0.0301107L17.458 2.16725L17.0009 3.59583L11.1037 1.72154L10.6656 4.37947Z" fill="white"/>
<path d="M10.6656 4.37947L10.1722 4.29814L10.0901 4.79646L10.5892 4.8736L10.6656 4.37947ZM15.4188 7.1731L14.9209 7.12761L14.871 7.6731H15.4188V7.1731ZM15.4235 7.1731L15.9199 7.23296L15.9874 6.6731H15.4235V7.1731ZM14.8749 11.7217V12.2217H15.3183L15.3713 11.7815L14.8749 11.7217ZM14.8742 11.7217V11.2217H14.3939L14.3746 11.7016L14.8742 11.7217ZM0.72748 11.7217L1.22708 11.7016L1.20782 11.2217H0.72748V11.7217ZM0.714913 11.7217L0.218364 11.7803L0.270488 12.2217H0.714913V11.7217ZM0.177734 7.1731V6.6731H-0.38479L-0.318815 7.23174L0.177734 7.1731ZM0.182421 7.1731V7.6731H0.730185L0.680348 7.1276L0.182421 7.1731ZM9.18358 4.21513L9.14877 4.71392L9.60257 4.74559L9.67686 4.2968L9.18358 4.21513ZM9.77804 0.624396L10.2713 0.706064L10.2719 0.702377L9.77804 0.624396ZM10.1209 0.11011L10.3859 0.53411L10.3859 0.534109L10.1209 0.11011ZM10.738 0.0301107L10.8895 -0.446374L10.8807 -0.449175L10.8718 -0.451648L10.738 0.0301107ZM17.458 2.16725L17.9342 2.31963L18.0869 1.84257L17.6095 1.69077L17.458 2.16725ZM17.0009 3.59583L16.8495 4.07234L17.325 4.22349L17.4771 3.7482L17.0009 3.59583ZM11.1037 1.72154L11.2552 1.24503L10.7044 1.06997L10.6104 1.64021L11.1037 1.72154ZM10.5892 4.8736C11.9491 5.08377 13.0762 5.4388 13.8482 5.86729C14.6518 6.31336 14.9235 6.74934 14.9235 7.07034H15.9235C15.9235 6.17401 15.2113 5.48018 14.3335 4.99295C13.4241 4.48815 12.1723 4.1064 10.7419 3.88534L10.5892 4.8736ZM14.9235 7.07034C14.9235 7.08948 14.9226 7.10856 14.9209 7.12761L15.9167 7.21858C15.9212 7.16942 15.9235 7.11999 15.9235 7.07034H14.9235ZM15.4188 7.6731H15.4235V6.6731H15.4188V7.6731ZM14.9271 7.11323L14.3785 11.6618L15.3713 11.7815L15.9199 7.23296L14.9271 7.11323ZM14.8749 11.2217H14.8742V12.2217H14.8749V11.2217ZM14.3746 11.7016C14.3664 11.9061 14.2543 12.1537 13.9506 12.4302C13.6469 12.7065 13.1872 12.9767 12.5829 13.2133C11.3769 13.6854 9.68841 13.9874 7.80085 13.9874V14.9874C9.78188 14.9874 11.5993 14.6722 12.9475 14.1445C13.6203 13.8811 14.1997 13.5556 14.6236 13.1697C15.0474 12.784 15.3513 12.3031 15.3738 11.7417L14.3746 11.7016ZM7.80085 13.9874C5.91329 13.9874 4.2248 13.6854 3.01877 13.2133C2.41449 12.9767 1.95478 12.7065 1.65115 12.4302C1.34739 12.1537 1.23528 11.9061 1.22708 11.7016L0.227882 11.7417C0.25041 12.3031 0.554266 12.784 0.978062 13.1697C1.40199 13.5556 1.98142 13.8811 2.65422 14.1445C4.00236 14.6722 5.81982 14.9874 7.80085 14.9874V13.9874ZM0.72748 11.2217H0.714913V12.2217H0.72748V11.2217ZM1.21146 11.663L0.674284 7.11445L-0.318815 7.23174L0.218364 11.7803L1.21146 11.663ZM0.177734 7.6731H0.182421V6.6731H0.177734V7.6731ZM0.680348 7.1276C0.678608 7.10856 0.677734 7.08949 0.677734 7.07034H-0.322266C-0.322266 7.11998 -0.319997 7.16941 -0.315505 7.21859L0.680348 7.1276ZM0.677734 7.07034C0.677734 6.86083 0.787359 6.60368 1.11133 6.312C1.43518 6.02044 1.93193 5.73495 2.58838 5.48497C3.8978 4.98634 5.74048 4.66748 7.80064 4.66748V3.66748C5.65082 3.66748 3.68204 3.99845 2.2325 4.55044C1.50947 4.82578 0.889874 5.16581 0.442235 5.56883C-0.00527559 5.97173 -0.322266 6.47824 -0.322266 7.07034H0.677734ZM7.80064 4.66748C8.26138 4.66748 8.71198 4.68344 9.14877 4.71392L9.21839 3.71635C8.75821 3.68423 8.28438 3.66748 7.80064 3.66748V4.66748ZM9.67686 4.2968L10.2713 0.706062L9.28476 0.542731L8.69029 4.13347L9.67686 4.2968ZM10.2719 0.702377C10.2828 0.633552 10.3212 0.57452 10.3859 0.53411L9.85589 -0.313889C9.55483 -0.125728 9.34186 0.180955 9.28416 0.546416L10.2719 0.702377ZM10.3859 0.534109C10.4361 0.50274 10.5172 0.487712 10.6042 0.51187L10.8718 -0.451648C10.5474 -0.541776 10.1714 -0.511091 9.85588 -0.313888L10.3859 0.534109ZM10.5865 0.506595L17.3065 2.64374L17.6095 1.69077L10.8895 -0.446374L10.5865 0.506595ZM16.9818 2.01488L16.5247 3.44345L17.4771 3.7482L17.9342 2.31963L16.9818 2.01488ZM17.1524 3.11931L11.2552 1.24503L10.9523 2.19805L16.8495 4.07234L17.1524 3.11931ZM10.6104 1.64021L10.1722 4.29814L11.1589 4.4608L11.5971 1.80286L10.6104 1.64021Z" fill="#2A1A5E" mask="url(#path-4-inside-2_202_6849)"/>
<path d="M13.8027 7.13886C13.8027 7.29217 13.7028 7.48416 13.4128 7.69851C13.1277 7.90924 12.6991 8.10956 12.1471 8.28213C11.046 8.62636 9.50945 8.84314 7.80127 8.84314C6.09309 8.84314 4.55654 8.62636 3.45542 8.28213C2.90337 8.10955 2.4748 7.90924 2.18967 7.6985C1.89966 7.48416 1.7998 7.29217 1.7998 7.13886C1.7998 6.98555 1.89966 6.79355 2.18967 6.57921C2.4748 6.36847 2.90337 6.16816 3.45542 5.99558C4.55654 5.65135 6.09309 5.43457 7.80127 5.43457C9.50945 5.43457 11.046 5.65135 12.1471 5.99558C12.6991 6.16816 13.1277 6.36847 13.4128 6.57921C13.7028 6.79355 13.8027 6.98554 13.8027 7.13886Z" fill="white" stroke="#2A1A5E" stroke-width="0.5"/>
</svg>
