<svg width="25" height="28" viewBox="0 0 25 28" fill="none" xmlns="http://www.w3.org/2000/svg">
<mask id="path-1-inside-1_202_6815" fill="white">
<path fill-rule="evenodd" clip-rule="evenodd" d="M0.121094 14.5943C0.121094 14.5943 0.121094 14.5942 0.121094 14.5942C0.121137 11.7539 5.4937 9.45142 12.1211 9.45142C18.7485 9.45142 24.1211 11.7539 24.1211 14.5942C24.1211 14.5942 24.1211 14.5943 24.1211 14.5943V15.1885C24.1211 21.5428 19.2982 27.0514 12.9439 27.4514L12.9438 27.4514C12.6696 27.4628 12.3953 27.4742 12.1211 27.4742C11.8468 27.4742 11.5725 27.4628 11.2982 27.4514C4.95534 27.0514 0.121094 21.5542 0.121094 15.1885V14.5943Z"/>
</mask>
<path d="M0.121094 14.5942L-0.378906 14.5942V14.5942H0.121094ZM24.1211 14.5942H24.6211V14.5942L24.1211 14.5942ZM12.9439 27.4514L12.9717 27.9506L12.9753 27.9504L12.9439 27.4514ZM12.9438 27.4514L12.9646 27.951L12.9715 27.9506L12.9438 27.4514ZM11.2982 27.4514L11.2667 27.9505L11.2774 27.9509L11.2982 27.4514ZM-0.378906 14.5942V14.5942V14.5942C-0.378906 14.5942 -0.378906 14.5942 -0.378906 14.5942C-0.378906 14.5942 -0.378906 14.5942 -0.378906 14.5942C-0.378906 14.5942 -0.378906 14.5942 -0.378906 14.5942C-0.378906 14.5942 -0.378906 14.5942 -0.378906 14.5942C-0.378906 14.5942 -0.378906 14.5942 -0.378906 14.5942C-0.378906 14.5942 -0.378906 14.5942 -0.378906 14.5942V14.5942V14.5942C-0.378906 14.5942 -0.378906 14.5942 -0.378906 14.5942C-0.378906 14.5942 -0.378906 14.5942 -0.378906 14.5942C-0.378906 14.5942 -0.378906 14.5942 -0.378906 14.5942C-0.378906 14.5942 -0.378906 14.5942 -0.378906 14.5942C-0.378906 14.5942 -0.378906 14.5942 -0.378906 14.5942C-0.378906 14.5942 -0.378906 14.5942 -0.378906 14.5942V14.5942V14.5942V14.5942V14.5942C-0.378906 14.5942 -0.378906 14.5942 -0.378906 14.5942C-0.378906 14.5942 -0.378906 14.5942 -0.378906 14.5942C-0.378906 14.5942 -0.378906 14.5942 -0.378906 14.5942C-0.378906 14.5942 -0.378906 14.5942 -0.378906 14.5942C-0.378906 14.5943 -0.378906 14.5943 -0.378906 14.5943C-0.378906 14.5943 -0.378906 14.5943 -0.378906 14.5943V14.5943V14.5943C-0.378906 14.5943 -0.378906 14.5943 -0.378906 14.5943C-0.378906 14.5943 -0.378906 14.5943 -0.378906 14.5943C-0.378906 14.5943 -0.378906 14.5943 -0.378906 14.5943C-0.378906 14.5943 -0.378906 14.5943 -0.378906 14.5943C-0.378906 14.5943 -0.378906 14.5943 -0.378906 14.5943C-0.378906 14.5943 -0.378906 14.5943 -0.378906 14.5943V14.5943V14.5943V14.5943V14.5943C-0.378906 14.5943 -0.378906 14.5943 -0.378906 14.5943C-0.378906 14.5943 -0.378906 14.5943 -0.378906 14.5943C-0.378906 14.5943 -0.378906 14.5943 -0.378906 14.5943C-0.378906 14.5943 -0.378906 14.5943 -0.378906 14.5943C-0.378906 14.5943 -0.378906 14.5943 -0.378906 14.5943C-0.378906 14.5943 -0.378906 14.5943 -0.378906 14.5943V14.5943V14.5943C-0.378906 14.5943 -0.378906 14.5943 -0.378906 14.5943C-0.378906 14.5943 -0.378906 14.5943 -0.378906 14.5943C-0.378906 14.5943 -0.378906 14.5943 -0.378906 14.5943C-0.378906 14.5943 -0.378906 14.5943 -0.378906 14.5943C-0.378906 14.5943 -0.378906 14.5943 -0.378906 14.5943C-0.378906 14.5943 -0.378906 14.5943 -0.378906 14.5943V14.5943V14.5943V14.5943V14.5943C-0.378906 14.5943 -0.378906 14.5943 -0.378906 14.5943C-0.378906 14.5943 -0.378906 14.5943 -0.378906 14.5943C-0.378906 14.5943 -0.378906 14.5943 -0.378906 14.5943C-0.378906 14.5943 -0.378906 14.5943 -0.378906 14.5943C-0.378906 14.5943 -0.378906 14.5943 -0.378906 14.5943C-0.378906 14.5943 -0.378906 14.5943 -0.378906 14.5943V14.5943V14.5943C-0.378906 14.5943 -0.378906 14.5943 -0.378906 14.5943C-0.378906 14.5943 -0.378906 14.5943 -0.378906 14.5943C-0.378906 14.5943 -0.378906 14.5943 -0.378906 14.5943C-0.378906 14.5943 -0.378906 14.5943 -0.378906 14.5943C-0.378906 14.5943 -0.378906 14.5943 -0.378906 14.5943C-0.378906 14.5943 -0.378906 14.5943 -0.378906 14.5943V14.5943V14.5943H0.621094V14.5943V14.5943C0.621094 14.5943 0.621094 14.5943 0.621094 14.5943C0.621094 14.5943 0.621094 14.5943 0.621094 14.5943C0.621094 14.5943 0.621094 14.5943 0.621094 14.5943C0.621094 14.5943 0.621094 14.5943 0.621094 14.5943C0.621094 14.5943 0.621094 14.5943 0.621094 14.5943C0.621094 14.5943 0.621094 14.5943 0.621094 14.5943V14.5943V14.5943C0.621094 14.5943 0.621094 14.5943 0.621094 14.5943C0.621094 14.5943 0.621094 14.5943 0.621094 14.5943C0.621094 14.5943 0.621094 14.5943 0.621094 14.5943C0.621094 14.5943 0.621094 14.5943 0.621094 14.5943C0.621094 14.5943 0.621094 14.5943 0.621094 14.5943C0.621094 14.5943 0.621094 14.5943 0.621094 14.5943V14.5943V14.5943V14.5943V14.5943C0.621094 14.5943 0.621094 14.5943 0.621094 14.5943C0.621094 14.5943 0.621094 14.5943 0.621094 14.5943C0.621094 14.5943 0.621094 14.5943 0.621094 14.5943C0.621094 14.5943 0.621094 14.5943 0.621094 14.5943C0.621094 14.5943 0.621094 14.5943 0.621094 14.5943C0.621094 14.5943 0.621094 14.5943 0.621094 14.5943V14.5943V14.5943C0.621094 14.5943 0.621094 14.5943 0.621094 14.5943C0.621094 14.5943 0.621094 14.5943 0.621094 14.5943C0.621094 14.5943 0.621094 14.5943 0.621094 14.5943C0.621094 14.5943 0.621094 14.5943 0.621094 14.5943C0.621094 14.5943 0.621094 14.5943 0.621094 14.5943C0.621094 14.5943 0.621094 14.5943 0.621094 14.5943V14.5943V14.5943V14.5943V14.5943C0.621094 14.5943 0.621094 14.5943 0.621094 14.5943C0.621094 14.5943 0.621094 14.5943 0.621094 14.5943C0.621094 14.5943 0.621094 14.5943 0.621094 14.5943C0.621094 14.5943 0.621094 14.5943 0.621094 14.5943C0.621094 14.5943 0.621094 14.5943 0.621094 14.5943C0.621094 14.5943 0.621094 14.5943 0.621094 14.5943V14.5943V14.5943C0.621094 14.5943 0.621094 14.5943 0.621094 14.5943C0.621094 14.5943 0.621094 14.5943 0.621094 14.5942C0.621094 14.5942 0.621094 14.5942 0.621094 14.5942C0.621094 14.5942 0.621094 14.5942 0.621094 14.5942C0.621094 14.5942 0.621094 14.5942 0.621094 14.5942C0.621094 14.5942 0.621094 14.5942 0.621094 14.5942V14.5942V14.5942V14.5942V14.5942C0.621094 14.5942 0.621094 14.5942 0.621094 14.5942C0.621094 14.5942 0.621094 14.5942 0.621094 14.5942C0.621094 14.5942 0.621094 14.5942 0.621094 14.5942C0.621094 14.5942 0.621094 14.5942 0.621094 14.5942C0.621094 14.5942 0.621094 14.5942 0.621094 14.5942C0.621094 14.5942 0.621094 14.5942 0.621094 14.5942V14.5942V14.5942C0.621094 14.5942 0.621094 14.5942 0.621094 14.5942C0.621094 14.5942 0.621094 14.5942 0.621094 14.5942C0.621094 14.5942 0.621094 14.5942 0.621094 14.5942C0.621094 14.5942 0.621094 14.5942 0.621094 14.5942C0.621094 14.5942 0.621094 14.5942 0.621094 14.5942C0.621094 14.5942 0.621094 14.5942 0.621094 14.5942V14.5942V14.5942H-0.378906ZM12.1211 8.95142C8.75631 8.95142 5.68634 9.53495 3.43888 10.4981C2.31604 10.9794 1.37543 11.5652 0.708264 12.2412C0.0389763 12.9193 -0.378893 13.7151 -0.378906 14.5942L0.621094 14.5942C0.621102 14.0533 0.87482 13.496 1.42001 12.9436C1.96731 12.3891 2.78407 11.8667 3.8328 11.4173C5.92848 10.5191 8.85849 9.95142 12.1211 9.95142V8.95142ZM24.6211 14.5942C24.6211 13.7151 24.2032 12.9193 23.5339 12.2412C22.8668 11.5652 21.9261 10.9794 20.8033 10.4981C18.5559 9.53495 15.4859 8.95142 12.1211 8.95142V9.95142C15.3837 9.95142 18.3137 10.5191 20.4094 11.4173C21.4581 11.8667 22.2749 12.3891 22.8222 12.9436C23.3674 13.496 23.6211 14.0533 23.6211 14.5942L24.6211 14.5942ZM24.6211 14.5943V14.5943V14.5943C24.6211 14.5943 24.6211 14.5943 24.6211 14.5943C24.6211 14.5943 24.6211 14.5943 24.6211 14.5943C24.6211 14.5943 24.6211 14.5943 24.6211 14.5943C24.6211 14.5943 24.6211 14.5943 24.6211 14.5943C24.6211 14.5943 24.6211 14.5943 24.6211 14.5943C24.6211 14.5943 24.6211 14.5943 24.6211 14.5943V14.5943V14.5943C24.6211 14.5943 24.6211 14.5943 24.6211 14.5943C24.6211 14.5943 24.6211 14.5943 24.6211 14.5943C24.6211 14.5943 24.6211 14.5943 24.6211 14.5943C24.6211 14.5943 24.6211 14.5943 24.6211 14.5943C24.6211 14.5943 24.6211 14.5943 24.6211 14.5943C24.6211 14.5943 24.6211 14.5943 24.6211 14.5943V14.5943V14.5943V14.5943V14.5943C24.6211 14.5943 24.6211 14.5943 24.6211 14.5943C24.6211 14.5943 24.6211 14.5943 24.6211 14.5943C24.6211 14.5943 24.6211 14.5943 24.6211 14.5943C24.6211 14.5943 24.6211 14.5943 24.6211 14.5943C24.6211 14.5943 24.6211 14.5943 24.6211 14.5943C24.6211 14.5943 24.6211 14.5943 24.6211 14.5943V14.5943V14.5943C24.6211 14.5943 24.6211 14.5943 24.6211 14.5943C24.6211 14.5943 24.6211 14.5943 24.6211 14.5943C24.6211 14.5943 24.6211 14.5943 24.6211 14.5943C24.6211 14.5943 24.6211 14.5943 24.6211 14.5943C24.6211 14.5943 24.6211 14.5943 24.6211 14.5943C24.6211 14.5943 24.6211 14.5943 24.6211 14.5943V14.5943V14.5943V14.5943V14.5943C24.6211 14.5943 24.6211 14.5943 24.6211 14.5943C24.6211 14.5943 24.6211 14.5943 24.6211 14.5943C24.6211 14.5943 24.6211 14.5943 24.6211 14.5943C24.6211 14.5943 24.6211 14.5943 24.6211 14.5943C24.6211 14.5943 24.6211 14.5943 24.6211 14.5943C24.6211 14.5943 24.6211 14.5943 24.6211 14.5943V14.5943V14.5943C24.6211 14.5943 24.6211 14.5943 24.6211 14.5943C24.6211 14.5943 24.6211 14.5943 24.6211 14.5942C24.6211 14.5942 24.6211 14.5942 24.6211 14.5942C24.6211 14.5942 24.6211 14.5942 24.6211 14.5942C24.6211 14.5942 24.6211 14.5942 24.6211 14.5942C24.6211 14.5942 24.6211 14.5942 24.6211 14.5942V14.5942V14.5942V14.5942V14.5942C24.6211 14.5942 24.6211 14.5942 24.6211 14.5942C24.6211 14.5942 24.6211 14.5942 24.6211 14.5942C24.6211 14.5942 24.6211 14.5942 24.6211 14.5942C24.6211 14.5942 24.6211 14.5942 24.6211 14.5942C24.6211 14.5942 24.6211 14.5942 24.6211 14.5942C24.6211 14.5942 24.6211 14.5942 24.6211 14.5942V14.5942V14.5942C24.6211 14.5942 24.6211 14.5942 24.6211 14.5942C24.6211 14.5942 24.6211 14.5942 24.6211 14.5942C24.6211 14.5942 24.6211 14.5942 24.6211 14.5942C24.6211 14.5942 24.6211 14.5942 24.6211 14.5942C24.6211 14.5942 24.6211 14.5942 24.6211 14.5942C24.6211 14.5942 24.6211 14.5942 24.6211 14.5942V14.5942V14.5942H23.6211V14.5942V14.5942C23.6211 14.5942 23.6211 14.5942 23.6211 14.5942C23.6211 14.5942 23.6211 14.5942 23.6211 14.5942C23.6211 14.5942 23.6211 14.5942 23.6211 14.5942C23.6211 14.5942 23.6211 14.5942 23.6211 14.5942C23.6211 14.5942 23.6211 14.5942 23.6211 14.5942C23.6211 14.5942 23.6211 14.5942 23.6211 14.5942V14.5942V14.5942C23.6211 14.5942 23.6211 14.5942 23.6211 14.5942C23.6211 14.5942 23.6211 14.5942 23.6211 14.5942C23.6211 14.5942 23.6211 14.5942 23.6211 14.5942C23.6211 14.5942 23.6211 14.5942 23.6211 14.5942C23.6211 14.5942 23.6211 14.5942 23.6211 14.5942C23.6211 14.5942 23.6211 14.5942 23.6211 14.5942V14.5942V14.5942V14.5942V14.5942C23.6211 14.5942 23.6211 14.5942 23.6211 14.5942C23.6211 14.5942 23.6211 14.5942 23.6211 14.5942C23.6211 14.5942 23.6211 14.5942 23.6211 14.5942C23.6211 14.5942 23.6211 14.5942 23.6211 14.5942C23.6211 14.5943 23.6211 14.5943 23.6211 14.5943C23.6211 14.5943 23.6211 14.5943 23.6211 14.5943V14.5943V14.5943C23.6211 14.5943 23.6211 14.5943 23.6211 14.5943C23.6211 14.5943 23.6211 14.5943 23.6211 14.5943C23.6211 14.5943 23.6211 14.5943 23.6211 14.5943C23.6211 14.5943 23.6211 14.5943 23.6211 14.5943C23.6211 14.5943 23.6211 14.5943 23.6211 14.5943C23.6211 14.5943 23.6211 14.5943 23.6211 14.5943V14.5943V14.5943V14.5943V14.5943C23.6211 14.5943 23.6211 14.5943 23.6211 14.5943C23.6211 14.5943 23.6211 14.5943 23.6211 14.5943C23.6211 14.5943 23.6211 14.5943 23.6211 14.5943C23.6211 14.5943 23.6211 14.5943 23.6211 14.5943C23.6211 14.5943 23.6211 14.5943 23.6211 14.5943C23.6211 14.5943 23.6211 14.5943 23.6211 14.5943V14.5943V14.5943C23.6211 14.5943 23.6211 14.5943 23.6211 14.5943C23.6211 14.5943 23.6211 14.5943 23.6211 14.5943C23.6211 14.5943 23.6211 14.5943 23.6211 14.5943C23.6211 14.5943 23.6211 14.5943 23.6211 14.5943C23.6211 14.5943 23.6211 14.5943 23.6211 14.5943C23.6211 14.5943 23.6211 14.5943 23.6211 14.5943V14.5943V14.5943V14.5943V14.5943C23.6211 14.5943 23.6211 14.5943 23.6211 14.5943C23.6211 14.5943 23.6211 14.5943 23.6211 14.5943C23.6211 14.5943 23.6211 14.5943 23.6211 14.5943C23.6211 14.5943 23.6211 14.5943 23.6211 14.5943C23.6211 14.5943 23.6211 14.5943 23.6211 14.5943C23.6211 14.5943 23.6211 14.5943 23.6211 14.5943V14.5943V14.5943C23.6211 14.5943 23.6211 14.5943 23.6211 14.5943C23.6211 14.5943 23.6211 14.5943 23.6211 14.5943C23.6211 14.5943 23.6211 14.5943 23.6211 14.5943C23.6211 14.5943 23.6211 14.5943 23.6211 14.5943C23.6211 14.5943 23.6211 14.5943 23.6211 14.5943C23.6211 14.5943 23.6211 14.5943 23.6211 14.5943V14.5943V14.5943H24.6211ZM24.6211 15.1885V14.5943H23.6211V15.1885H24.6211ZM12.9753 27.9504C19.612 27.5326 24.6211 21.7874 24.6211 15.1885H23.6211C23.6211 21.2983 18.9844 26.5701 12.9125 26.9524L12.9753 27.9504ZM12.9715 27.9506L12.9717 27.9506L12.9162 26.9522L12.9161 26.9522L12.9715 27.9506ZM12.1211 27.9742C12.4075 27.9742 12.6921 27.9623 12.9646 27.951L12.923 26.9518C12.647 26.9633 12.3832 26.9742 12.1211 26.9742V27.9742ZM11.2774 27.9509C11.5499 27.9623 11.8347 27.9742 12.1211 27.9742V26.9742C11.859 26.9742 11.595 26.9633 11.319 26.9518L11.2774 27.9509ZM-0.378906 15.1885C-0.378906 21.7995 4.6422 27.5326 11.2667 27.9504L11.3297 26.9524C5.26849 26.5701 0.621094 21.309 0.621094 15.1885H-0.378906ZM-0.378906 14.5943V15.1885H0.621094V14.5943H-0.378906Z" fill="#2A1A5E" mask="url(#path-1-inside-1_202_6815)"/>
<path d="M22.2485 14.5942C22.2485 15.0446 22.0099 15.5024 21.5156 15.9476C21.0215 16.3928 20.2923 16.8052 19.37 17.1567C17.5272 17.8589 14.9644 18.2985 12.1213 18.2985C9.27817 18.2985 6.71542 17.8589 4.87257 17.1567C3.95027 16.8052 3.22114 16.3928 2.72697 15.9476C2.23274 15.5024 1.99414 15.0446 1.99414 14.5942C1.99414 14.1438 2.23274 13.686 2.72697 13.2407C3.22114 12.7955 3.95027 12.3831 4.87257 12.0317C6.71542 11.3295 9.27817 10.8899 12.1213 10.8899C14.9644 10.8899 17.5272 11.3295 19.37 12.0317C20.2923 12.3831 21.0215 12.7955 21.5156 13.2407C22.0099 13.686 22.2485 14.1438 22.2485 14.5942Z" fill="white" stroke="#2A1A5E" stroke-width="0.5"/>
<path d="M9.88611 0.903878C9.32992 1.97237 9.06323 2.99607 9.15629 4.03936C9.27903 5.41531 10.023 6.77419 11.4361 8.27418C12.9639 9.89885 12.7628 11.8085 12.1458 13.362C11.8377 14.1377 11.4298 14.8115 11.0975 15.2925C11.0926 15.2997 11.0877 15.3067 11.0828 15.3138C11.0867 15.2141 11.0879 15.109 11.0852 14.9996C11.0672 14.2671 10.8747 13.3207 10.158 12.5297C9.80842 12.1406 9.36469 11.8149 8.92001 11.5015C8.86095 11.4599 8.80185 11.4185 8.74281 11.3771C8.3501 11.1019 7.96032 10.8287 7.60436 10.5118C7.19813 10.1502 6.84649 9.74019 6.60505 9.22697C6.36426 8.71513 6.22681 8.08733 6.2678 7.28127L6.26781 7.28093C6.37812 5.05269 7.51226 3.28877 8.63605 2.07252C9.07883 1.59331 9.51749 1.20193 9.88611 0.903878Z" fill="white" stroke="#2A1A5E" stroke-width="0.5"/>
<path d="M13.6613 7.2589C13.9494 7.33165 14.2892 7.43274 14.6436 7.57041C15.6177 7.94882 16.6446 8.58116 17.0674 9.60429L17.0675 9.60464C17.4706 10.5757 17.434 11.3645 17.1743 12.0067C16.9114 12.6568 16.4088 13.1832 15.8358 13.5994C15.3359 13.9624 14.7938 14.2333 14.3394 14.4236C14.4038 14.3439 14.4693 14.2584 14.5346 14.1671C15.0239 13.4833 15.5099 12.4684 15.4798 11.1602C15.4495 9.8456 14.8243 8.71491 14.2247 7.92483C14.0294 7.66744 13.835 7.44376 13.6613 7.2589Z" fill="white" stroke="#2A1A5E" stroke-width="0.5"/>
</svg>
