<svg width="24" height="21" viewBox="0 0 24 21" fill="none" xmlns="http://www.w3.org/2000/svg">
<mask id="path-1-inside-1_202_6755" fill="white">
<path fill-rule="evenodd" clip-rule="evenodd" d="M0.416992 4.89111V4.89143V15.3597H0.417026C0.417003 15.3637 0.416992 15.3677 0.416992 15.3717C0.416992 18.0731 5.53374 20.2631 11.8456 20.2631C18.1574 20.2631 23.2741 18.0731 23.2741 15.3717C23.2741 15.3677 23.2741 15.3637 23.2741 15.3597H23.2741V4.89143V4.89111C23.2737 2.1898 18.1571 0 11.8456 0C5.53398 0 0.41739 2.1898 0.416992 4.89111Z"/>
</mask>
<path d="M0.416992 4.89111L-0.0830078 4.89104V4.89111H0.416992ZM0.416992 15.3597H-0.0830078V15.8597H0.416992V15.3597ZM0.417026 15.3597L0.917018 15.3625L0.919832 14.8597H0.417026V15.3597ZM23.2741 15.3597V14.8597H22.7712L22.7741 15.3626L23.2741 15.3597ZM23.2741 15.3597V15.8597H23.7741V15.3597H23.2741ZM23.2741 4.89111H23.7741V4.89104L23.2741 4.89111ZM0.916992 4.89143V4.89111H-0.0830078V4.89143H0.916992ZM0.916992 15.3597V4.89143H-0.0830078V15.3597H0.916992ZM0.417026 14.8597H0.416992V15.8597H0.417026V14.8597ZM-0.0829665 15.3569C-0.082994 15.3618 -0.0830078 15.3667 -0.0830078 15.3717H0.916992C0.916992 15.3686 0.917001 15.3655 0.917018 15.3625L-0.0829665 15.3569ZM-0.0830078 15.3717C-0.0830078 16.2163 0.319084 16.9791 0.959467 17.6271C1.59774 18.2729 2.49651 18.8317 3.56761 19.2901C5.71159 20.2077 8.63863 20.7631 11.8456 20.7631V19.7631C8.74067 19.7631 5.95342 19.2235 3.96108 18.3707C2.96401 17.944 2.1891 17.4487 1.67075 16.9242C1.15449 16.4018 0.916992 15.8777 0.916992 15.3717H-0.0830078ZM11.8456 20.7631C15.0525 20.7631 17.9795 20.2077 20.1235 19.2901C21.1946 18.8317 22.0934 18.2729 22.7317 17.6271C23.372 16.9791 23.7741 16.2163 23.7741 15.3717H22.7741C22.7741 15.8777 22.5366 16.4018 22.0204 16.9242C21.502 17.4487 20.7271 17.944 19.73 18.3707C17.7377 19.2235 14.9505 19.7631 11.8456 19.7631V20.7631ZM23.7741 15.3717C23.7741 15.3667 23.7741 15.3618 23.7741 15.3568L22.7741 15.3626C22.7741 15.3656 22.7741 15.3686 22.7741 15.3717H23.7741ZM23.2741 14.8597H23.2741V15.8597H23.2741V14.8597ZM22.7741 4.89143V15.3597H23.7741V4.89143H22.7741ZM22.7741 4.89111V4.89143H23.7741V4.89111H22.7741ZM11.8456 0.5C14.9503 0.5 17.7375 1.03957 19.7298 1.89223C20.7269 2.31895 21.5018 2.81423 22.0202 3.33874C22.5365 3.86111 22.7741 4.38516 22.7741 4.89119L23.7741 4.89104C23.774 4.0464 23.3718 3.28374 22.7314 2.63578C22.0931 1.98995 21.1944 1.43129 20.1233 0.972891C17.9793 0.0553295 15.0524 -0.5 11.8456 -0.5V0.5ZM0.916992 4.89119C0.917067 4.38516 1.15463 3.86111 1.67093 3.33874C2.18933 2.81423 2.96425 2.31895 3.96131 1.89223C5.95364 1.03957 8.74079 0.5 11.8456 0.5V-0.5C8.63876 -0.5 5.71182 0.0553295 3.56786 0.972891C2.49677 1.43129 1.598 1.98995 0.959692 2.63578C0.319278 3.28374 -0.0828834 4.0464 -0.0830078 4.89104L0.916992 4.89119Z" fill="#2A1A5E" mask="url(#path-1-inside-1_202_6755)"/>
<path d="M21.0817 4.89181C21.0817 5.3691 20.8572 5.84465 20.4082 6.29995C19.9582 6.75633 19.2946 7.17879 18.4548 7.53897C16.7762 8.25895 14.4398 8.71039 11.8459 8.71039C9.25211 8.71039 6.91569 8.25895 5.23708 7.53897C4.39733 7.17879 3.73372 6.75633 3.28367 6.29995C2.83469 5.84465 2.61023 5.3691 2.61023 4.89181C2.61023 4.41453 2.83469 3.93898 3.28367 3.48368C3.73372 3.0273 4.39733 2.60484 5.23708 2.24466C6.91569 1.52467 9.25211 1.07324 11.8459 1.07324C14.4398 1.07324 16.7762 1.52467 18.4548 2.24466C19.2946 2.60484 19.9582 3.0273 20.4082 3.48368C20.8572 3.93898 21.0817 4.41453 21.0817 4.89181Z" fill="white" stroke="#2A1A5E" stroke-width="0.5"/>
</svg>
