<svg width="25" height="27" viewBox="0 0 25 27" fill="none" xmlns="http://www.w3.org/2000/svg">
<path d="M20.275 6.77627L20.2756 6.77676L23.581 9.46421H1.15995L4.46531 6.77676L4.46591 6.77627C4.79464 6.50731 5.24029 6.35278 5.71333 6.35278H19.0276C19.5006 6.35278 19.9463 6.50731 20.275 6.77627Z" stroke="#2A1A5E" stroke-width="0.5"/>
<path d="M22.0353 3.83499L4.08588 2.30557L4.15598 1.48283L22.1054 3.01224L22.0353 3.83499Z" stroke="#2A1A5E" stroke-width="0.5"/>
<path d="M7.30179 7.55471L7.11859 7.3846C7.11344 7.39015 7.10829 7.39569 7.10314 7.40124C6.96551 7.54937 6.82992 7.6953 6.73357 7.86308C6.62691 8.04883 6.57181 8.25249 6.57181 8.51472C6.57181 8.77694 6.62691 8.9806 6.73357 9.16635C6.82992 9.33413 6.96551 9.48006 7.10315 9.6282C7.10829 9.63374 7.11344 9.63928 7.11859 9.64483L7.11855 9.64487L7.12232 9.64875C7.44259 9.97903 7.81379 10.3785 7.88526 11.0876H7.05264C7.02811 10.9382 6.98024 10.8082 6.91003 10.6859C6.81369 10.5182 6.67811 10.3723 6.5405 10.2241C6.53533 10.2186 6.53016 10.213 6.525 10.2075L6.52401 10.2064C6.17516 9.83505 5.74609 9.3715 5.74609 8.51472C5.74609 7.66404 6.15731 7.21345 6.50525 6.8322C6.51237 6.8244 6.51947 6.81662 6.52654 6.80887L6.3418 6.64043L6.525 6.81054C6.53017 6.80497 6.53533 6.79941 6.5405 6.79385C6.67811 6.64574 6.81369 6.49983 6.91003 6.33207C7.0167 6.14633 7.07181 5.94266 7.07181 5.68043C7.07181 5.41795 7.01657 5.21632 6.90894 5.03262C6.81649 4.87484 6.68727 4.73605 6.55677 4.5959C6.54618 4.58452 6.53558 4.57314 6.525 4.56174L6.525 4.56174L6.52401 4.56069C6.17516 4.18933 5.74609 3.72579 5.74609 2.869C5.74609 2.00537 6.17044 1.55367 6.51904 1.18261L6.52401 1.17731L6.52401 1.17731L6.525 1.17626C6.53016 1.17069 6.53533 1.16513 6.5405 1.15957C6.67811 1.01146 6.81369 0.865542 6.91003 0.697787C6.98024 0.575531 7.02811 0.445512 7.05264 0.296143H7.88496C7.81234 1.00041 7.43785 1.39905 7.12455 1.73254L7.11958 1.73783L7.11958 1.73783L7.11859 1.73889C7.11341 1.74447 7.10824 1.75004 7.10306 1.75561C6.96548 1.90369 6.83027 2.04921 6.73411 2.215C6.62748 2.39886 6.57181 2.59984 6.57181 2.85757C6.57181 3.11979 6.62691 3.32346 6.73357 3.50921C6.82992 3.67699 6.96551 3.82291 7.10314 3.97105C7.10829 3.97659 7.11344 3.98214 7.11859 3.98768L7.11859 3.98769L7.11958 3.98874C7.46843 4.36009 7.8975 4.82364 7.8975 5.68043C7.8975 6.53111 7.48628 6.98169 7.13835 7.36294C7.13122 7.37075 7.12412 7.37852 7.11705 7.38628L7.30179 7.55471ZM7.30179 7.55471L7.29662 7.56028C7.00253 7.87698 6.82181 8.07159 6.82181 8.51472C6.82181 8.95784 7.00253 9.15245 7.29662 9.46914L7.30179 9.47471V1.909L7.29649 1.91471C7.00247 2.23133 6.82181 2.42588 6.82181 2.85757C6.82181 3.30069 7.00253 3.4953 7.29662 3.812L7.30179 3.81757C7.65608 4.19471 8.1475 4.72043 8.1475 5.68043C8.1475 6.62856 7.67937 7.14121 7.32752 7.52653C7.31887 7.536 7.31029 7.54539 7.30179 7.55471Z" fill="white" stroke="#2A1A5E" stroke-width="0.5"/>
<path d="M9.62211 7.55471L9.43891 7.3846C9.43375 7.39015 9.4286 7.39569 9.42345 7.40124C9.28582 7.54937 9.15023 7.6953 9.05389 7.86308C8.94723 8.04883 8.89212 8.25249 8.89212 8.51472C8.89212 8.77694 8.94723 8.9806 9.05389 9.16635C9.15023 9.33413 9.28582 9.48006 9.42346 9.6282C9.42861 9.63374 9.43376 9.63928 9.4389 9.64483L9.43989 9.64588L9.4449 9.65122C9.7582 9.98471 10.1327 10.3833 10.2053 11.0876H9.37295C9.34842 10.9382 9.30055 10.8082 9.23034 10.6859C9.134 10.5182 8.99843 10.3723 8.86081 10.2241C8.85565 10.2186 8.85048 10.213 8.84531 10.2075L8.84432 10.2064C8.49547 9.83505 8.06641 9.3715 8.06641 8.51472C8.06641 7.66404 8.47762 7.21345 8.82556 6.8322C8.83268 6.8244 8.83978 6.81662 8.84685 6.80887L8.66211 6.64043L8.84531 6.81054C8.85048 6.80497 8.85565 6.79941 8.86081 6.79385C8.99843 6.64574 9.134 6.49983 9.23034 6.33207C9.33701 6.14633 9.39212 5.94266 9.39212 5.68043C9.39212 5.41795 9.33688 5.21632 9.22925 5.03262C9.13681 4.87484 9.00758 4.73605 8.87708 4.5959C8.86649 4.58452 8.85589 4.57314 8.84531 4.56174L8.84531 4.56174L8.84432 4.56069C8.49547 4.18933 8.06641 3.72579 8.06641 2.869C8.06641 2.00537 8.49076 1.55367 8.83935 1.18261L8.84432 1.17731L8.84432 1.17731L8.84531 1.17626C8.85048 1.17069 8.85565 1.16513 8.86081 1.15957C8.99843 1.01146 9.134 0.865542 9.23034 0.697787C9.30055 0.575531 9.34842 0.445512 9.37295 0.296143H10.2053C10.1327 1.00038 9.7582 1.39901 9.4449 1.7325L9.43989 1.73783L9.43989 1.73783L9.43891 1.73889C9.43373 1.74447 9.42855 1.75004 9.42337 1.75561C9.28579 1.90369 9.15058 2.04921 9.05443 2.215C8.9478 2.39886 8.89212 2.59984 8.89212 2.85757C8.89212 3.11979 8.94723 3.32346 9.05389 3.50921C9.15023 3.67699 9.28582 3.82291 9.42345 3.97105C9.4286 3.97659 9.43375 3.98214 9.43891 3.98768L9.4389 3.98769L9.43989 3.98874C9.78875 4.3601 10.2178 4.82364 10.2178 5.68043C10.2178 6.53107 9.80664 6.98165 9.4587 7.3629C9.45156 7.37072 9.44445 7.37851 9.43737 7.38628L9.62211 7.55471ZM9.62211 7.55471C9.63062 7.54538 9.63921 7.53597 9.64787 7.52649C9.99972 7.14117 10.4678 6.62852 10.4678 5.68043C10.4678 4.72043 9.97639 4.19471 9.62211 3.81757L10.4565 11.0876C10.3817 10.2832 9.95323 9.82712 9.63164 9.48486L9.62211 9.47471L9.61693 9.46914C9.32284 9.15245 9.14212 8.95784 9.14212 8.51472C9.14212 8.07159 9.32284 7.87698 9.61693 7.56028L9.62211 7.55471Z" fill="white" stroke="#2A1A5E" stroke-width="0.5"/>
<path d="M11.9424 7.55471L11.7592 7.3846C11.7541 7.39015 11.7489 7.39569 11.7438 7.40124C11.6061 7.54937 11.4705 7.6953 11.3742 7.86308C11.2675 8.04883 11.2124 8.25249 11.2124 8.51472C11.2124 8.77694 11.2675 8.9806 11.3742 9.16635C11.4705 9.33413 11.6061 9.48006 11.7438 9.6282C11.7489 9.63374 11.7541 9.63928 11.7592 9.64483L11.7602 9.64588L11.7652 9.65122C12.0785 9.98471 12.453 10.3833 12.5256 11.0876H11.6933C11.6687 10.9382 11.6209 10.8082 11.5507 10.6859C11.4543 10.5182 11.3187 10.3723 11.1811 10.2241C11.176 10.2186 11.1708 10.213 11.1656 10.2075L11.1646 10.2064C10.8158 9.83505 10.3867 9.3715 10.3867 8.51472C10.3867 7.66404 10.7979 7.21345 11.1459 6.8322C11.153 6.8244 11.1601 6.81662 11.1672 6.80887L10.9824 6.64043L11.1656 6.81054C11.1708 6.80497 11.176 6.79941 11.1811 6.79385C11.3187 6.64574 11.4543 6.49983 11.5507 6.33207C11.6573 6.14633 11.7124 5.94266 11.7124 5.68043C11.7124 5.41795 11.6572 5.21632 11.5496 5.03262C11.4571 4.87484 11.3279 4.73605 11.1974 4.5959C11.1868 4.58452 11.1762 4.57314 11.1656 4.56174L11.1656 4.56174L11.1646 4.56069C10.8158 4.18933 10.3867 3.72579 10.3867 2.869C10.3867 2.00537 10.8111 1.55367 11.1597 1.18261L11.1646 1.17731L11.1646 1.17731L11.1656 1.17626C11.1708 1.17069 11.176 1.16513 11.1811 1.15957C11.3187 1.01146 11.4543 0.865542 11.5507 0.697787C11.6209 0.575531 11.6687 0.445512 11.6933 0.296143H12.5256C12.453 1.00038 12.0785 1.39901 11.7652 1.7325L11.7602 1.73783L11.7602 1.73783L11.7592 1.73889C11.754 1.74447 11.7489 1.75004 11.7437 1.75561C11.6061 1.90369 11.4709 2.04921 11.3747 2.215C11.2681 2.39886 11.2124 2.59984 11.2124 2.85757C11.2124 3.11979 11.2675 3.32346 11.3742 3.50921C11.4705 3.67699 11.6061 3.82291 11.7438 3.97105C11.7489 3.97659 11.7541 3.98214 11.7592 3.98768L11.7592 3.98769L11.7602 3.98874C12.1091 4.3601 12.5382 4.82364 12.5382 5.68043C12.5382 6.53107 12.1269 6.98165 11.779 7.3629C11.7719 7.37072 11.7648 7.37851 11.7577 7.38628L11.9424 7.55471ZM11.9424 7.55471C11.9509 7.54538 11.9595 7.53597 11.9682 7.52649C12.32 7.14117 12.7882 6.62852 12.7882 5.68043C12.7882 4.72043 12.2967 4.19471 11.9424 3.81757L12.7768 11.0876C12.7021 10.2832 12.2735 9.82712 11.952 9.48486L11.9424 9.47471L11.9372 9.46914C11.6432 9.15245 11.4624 8.95784 11.4624 8.51472C11.4624 8.07159 11.6432 7.87698 11.9372 7.56028L11.9424 7.55471Z" fill="white" stroke="#2A1A5E" stroke-width="0.5"/>
<path d="M4.12402 1.07571V0.25H22.0812V1.07571H4.12402Z" fill="white" stroke="#2A1A5E" stroke-width="0.5"/>
<path d="M3.56028 25.1243L3.5603 25.1242L3.55969 25.1209L0.779522 9.9646H23.9966L21.2167 25.1194C21.2167 25.1196 21.2167 25.1198 21.2166 25.12C21.1174 25.6415 20.5672 26.0817 19.8738 26.0817H4.89094C4.19397 26.0817 3.6495 25.6507 3.56028 25.1243Z" stroke="#2A1A5E" stroke-width="0.5"/>
<mask id="path-8-inside-1_202_6773" fill="white">
<path fill-rule="evenodd" clip-rule="evenodd" d="M22.5133 9.7146L19.8047 17.2346C19.679 17.5775 19.359 17.806 18.9933 17.806H14.1258V18.7317H15.1994V19.4288H15.188C15.1308 20.9488 13.8966 22.1603 12.3766 22.1603C10.8451 22.1603 9.61087 20.9374 9.56515 19.4288H9.55371V18.7317H10.6172V17.806H5.74756C5.38184 17.806 5.06182 17.5775 4.93611 17.2346L2.22754 9.7146H22.5133Z"/>
</mask>
<path fill-rule="evenodd" clip-rule="evenodd" d="M22.5133 9.7146L19.8047 17.2346C19.679 17.5775 19.359 17.806 18.9933 17.806H14.1258V18.7317H15.1994V19.4288H15.188C15.1308 20.9488 13.8966 22.1603 12.3766 22.1603C10.8451 22.1603 9.61087 20.9374 9.56515 19.4288H9.55371V18.7317H10.6172V17.806H5.74756C5.38184 17.806 5.06182 17.5775 4.93611 17.2346L2.22754 9.7146H22.5133Z" fill="white"/>
<path d="M19.8047 17.2346L20.2741 17.4067L20.2751 17.404L19.8047 17.2346ZM22.5133 9.7146L22.9837 9.88403L23.2248 9.2146H22.5133V9.7146ZM14.1258 17.806V17.306H13.6258V17.806H14.1258ZM14.1258 18.7317H13.6258V19.2317H14.1258V18.7317ZM15.1994 18.7317H15.6994V18.2317H15.1994V18.7317ZM15.1994 19.4288V19.9288H15.6994V19.4288H15.1994ZM15.188 19.4288V18.9288H14.7064L14.6883 19.41L15.188 19.4288ZM9.56515 19.4288L10.0649 19.4137L10.0502 18.9288H9.56515V19.4288ZM9.55371 19.4288H9.05371V19.9288H9.55371V19.4288ZM9.55371 18.7317V18.2317H9.05371V18.7317H9.55371ZM10.6172 18.7317V19.2317H11.1172V18.7317H10.6172ZM10.6172 17.806H11.1172V17.306H10.6172V17.806ZM4.93611 17.2346L4.46568 17.404L4.46667 17.4067L4.93611 17.2346ZM2.22754 9.7146V9.2146H1.516L1.75712 9.88403L2.22754 9.7146ZM20.2751 17.404L22.9837 9.88403L22.0428 9.54516L19.3343 17.0652L20.2751 17.404ZM18.9933 18.306C19.5734 18.306 20.0778 17.9421 20.2741 17.4067L19.3352 17.0625C19.2801 17.2128 19.1445 17.306 18.9933 17.306V18.306ZM14.1258 18.306H18.9933V17.306H14.1258V18.306ZM14.6258 18.7317V17.806H13.6258V18.7317H14.6258ZM15.1994 18.2317H14.1258V19.2317H15.1994V18.2317ZM15.6994 19.4288V18.7317H14.6994V19.4288H15.6994ZM15.188 19.9288H15.1994V18.9288H15.188V19.9288ZM12.3766 22.6603C14.1709 22.6603 15.6206 21.2308 15.6876 19.4476L14.6883 19.41C14.6411 20.6669 13.6223 21.6603 12.3766 21.6603V22.6603ZM9.06538 19.444C9.11917 21.2192 10.5714 22.6603 12.3766 22.6603V21.6603C11.1188 21.6603 10.1026 20.6556 10.0649 19.4137L9.06538 19.444ZM9.55371 19.9288H9.56515V18.9288H9.55371V19.9288ZM9.05371 18.7317V19.4288H10.0537V18.7317H9.05371ZM10.6172 18.2317H9.55371V19.2317H10.6172V18.2317ZM10.1172 17.806V18.7317H11.1172V17.806H10.1172ZM5.74756 18.306H10.6172V17.306H5.74756V18.306ZM4.46667 17.4067C4.66297 17.9421 5.16742 18.306 5.74756 18.306V17.306C5.59627 17.306 5.46066 17.2128 5.40554 17.0625L4.46667 17.4067ZM1.75712 9.88403L4.46569 17.404L5.40652 17.0652L2.69796 9.54516L1.75712 9.88403ZM22.5133 9.2146H2.22754V10.2146H22.5133V9.2146Z" fill="#2A1A5E" mask="url(#path-8-inside-1_202_6773)"/>
</svg>
