<svg width="27" height="26" viewBox="0 0 27 26" fill="none" xmlns="http://www.w3.org/2000/svg">
<path d="M1.15055 23.1143L0.445469 22.4092L22.501 0.35364L23.2061 1.05872L1.15055 23.1143Z" stroke="#2A1A5E" stroke-width="0.5"/>
<path d="M1.44486 23.6114L0.841389 22.8177L25.6789 3.93376L26.2823 4.72748L1.44486 23.6114Z" stroke="#2A1A5E" stroke-width="0.5"/>
<path d="M13.6319 19.7143C19.1295 19.7143 23.5861 17.9081 23.5861 15.68C23.5861 13.452 19.1295 11.6458 13.6319 11.6458C8.13425 11.6458 3.67761 13.452 3.67761 15.68C3.67761 17.9081 8.13425 19.7143 13.6319 19.7143Z" fill="white"/>
<path d="M19.5644 22.9134L19.5421 22.962L19.5146 23.0128C19.2212 23.5548 18.5036 24.0697 17.4497 24.4495C16.4066 24.8254 15.0759 25.0533 13.6202 25.0533C12.1645 25.0533 10.8337 24.8254 9.79066 24.4495C8.7368 24.0697 8.01912 23.5548 7.72578 23.0128L7.67276 22.9149L7.676 22.9134L5.57119 18.3203C7.44351 19.3239 10.3661 19.9533 13.6316 19.9533C16.8927 19.9533 19.8116 19.3169 21.6687 18.3212L19.5644 22.9134ZM7.44872 23.0176L7.49448 22.9966V23.0086L7.47441 23.0176H7.44872Z" fill="white" stroke="#2A1A5E" stroke-width="0.5"/>
<path d="M23.3362 14.4571C23.3362 14.9245 23.1035 15.3942 22.631 15.847C22.1578 16.3004 21.4598 16.7202 20.5768 17.0781C18.812 17.7934 16.3568 18.2414 13.632 18.2414C10.9072 18.2414 8.45194 17.7934 6.68716 17.0781C5.80412 16.7202 5.10615 16.3004 4.63295 15.847C4.1604 15.3942 3.92773 14.9245 3.92773 14.4571C3.92773 13.9898 4.1604 13.5201 4.63295 13.0673C5.10615 12.6139 5.80412 12.194 6.68716 11.8362C8.45194 11.1209 10.9072 10.6729 13.632 10.6729C16.3568 10.6729 18.812 11.1209 20.5768 11.8362C21.4598 12.194 22.1578 12.6139 22.631 13.0673C23.1035 13.5201 23.3362 13.9898 23.3362 14.4571Z" fill="white" stroke="#2A1A5E" stroke-width="0.5"/>
<path d="M14.5925 14.7433C14.9582 13.6348 11.964 12.8462 11.964 12.8462C11.964 12.8462 12.2725 13.029 12.1697 13.3833L13.3011 14.069L12.0325 13.6462C11.9868 13.7033 11.9182 13.7719 11.8496 13.8405L13.1525 14.6291L11.5982 14.1033C11.5525 14.1605 11.5068 14.229 11.484 14.2862L12.8325 15.1091L11.4382 14.6405C11.5525 15.1319 12.4212 15.4862 13.0954 15.6919C12.364 15.5433 11.2325 15.3948 10.1811 15.6005L11.8269 15.8862L9.51829 15.7948C9.41544 15.829 9.31257 15.8748 9.22114 15.9319L11.0497 16.2519L8.83247 16.1605C8.72961 16.2291 8.63831 16.2862 8.53545 16.3319L10.0211 16.5948L8.10116 16.5148C7.46116 16.7319 6.93542 16.709 6.93542 16.709C6.93542 16.709 10.0097 17.4405 12.0325 16.7433C12.4097 16.6176 12.7296 16.4805 12.9925 16.3662C13.6211 16.0805 14.0897 15.7262 14.3411 15.349C14.4211 15.1319 14.5239 14.949 14.5925 14.7433Z" fill="#2A1A5E"/>
<path d="M17.4953 14.2857C16.2725 14.1371 15.5752 14.0228 15.5752 13.7943C15.5752 13.5771 16.1696 13.4286 17.1068 13.4286C17.5868 13.4286 18.0553 13.4628 18.501 13.5428C19.1867 13.6571 19.9639 13.5543 20.3868 13.3028L20.6496 13.1428C20.3867 13.0628 20.1238 12.9943 19.8495 12.9257C19.0381 12.7428 18.1581 12.6628 17.1753 12.6628C15.5981 12.6628 14.4324 12.8914 13.8838 13.28C14.6153 13.6457 15.2782 14.16 15.0725 14.7771C15.061 14.7886 15.061 14.8114 15.0496 14.8228C15.6553 14.96 16.3638 15.0514 17.0038 15.12C18.0781 15.2571 18.7753 15.3143 18.7753 15.5657C18.7753 15.8171 18.181 15.9657 17.1524 15.9657C16.1924 15.9657 15.301 15.8286 14.5924 15.5886C14.3638 15.84 14.0324 16.0914 13.6324 16.2971C14.5582 16.5714 15.7925 16.72 17.0953 16.72C19.4611 16.72 20.8552 16.2743 20.8552 15.4971C20.8781 14.6971 19.0039 14.4686 17.4953 14.2857Z" fill="#2A1A5E"/>
<path d="M9.22084 13.36L7.11789 11.4058C6.55789 11.6 6.05509 11.8286 5.60938 12.0686L8.24944 14.4458V15.2115H10.1808V14.4458L13.4265 11.4972H11.2323L9.22084 13.36Z" fill="#2A1A5E"/>
</svg>
