<svg width="18" height="25" viewBox="0 0 18 25" fill="none" xmlns="http://www.w3.org/2000/svg">
<path d="M13.0123 22.0757H2.57806L1.03516 7.84717H14.5666L13.0123 22.0757Z" fill="#FF671D"/>
<path d="M7.80064 7.17285H0.177734L0.714913 11.7214H7.80064H14.8749L15.4235 7.17285H7.80064Z" fill="#FF671D"/>
<path d="M7.80064 9.97319C12.0106 9.97319 15.4235 8.67354 15.4235 7.07034C15.4235 5.46713 12.0106 4.16748 7.80064 4.16748C3.59065 4.16748 0.177734 5.46713 0.177734 7.07034C0.177734 8.67354 3.59065 9.97319 7.80064 9.97319Z" fill="#FF671D"/>
<path d="M7.80085 16.1902C11.7079 16.1902 14.8751 14.9315 14.8751 13.3788C14.8751 11.8261 11.7079 10.5674 7.80085 10.5674C3.89383 10.5674 0.726562 11.8261 0.726562 13.3788C0.726562 14.9315 3.89383 16.1902 7.80085 16.1902Z" fill="white"/>
<path d="M7.80085 14.4871C11.7079 14.4871 14.8751 13.2284 14.8751 11.6757C14.8751 10.123 11.7079 8.86426 7.80085 8.86426C3.89383 8.86426 0.726562 10.123 0.726562 11.6757C0.726562 13.2284 3.89383 14.4871 7.80085 14.4871Z" fill="#FF671D"/>
<path d="M7.80099 24.7389C10.6855 24.7389 13.0238 23.5007 13.0238 21.9732C13.0238 20.4458 10.6855 19.2075 7.80099 19.2075C4.91649 19.2075 2.57812 20.4458 2.57812 21.9732C2.57812 23.5007 4.91649 24.7389 7.80099 24.7389Z" fill="#FF671D"/>
<path d="M7.80078 9.09314C11.2534 9.09314 14.0522 8.21818 14.0522 7.13886C14.0522 6.05953 11.2534 5.18457 7.80078 5.18457C4.34821 5.18457 1.54932 6.05953 1.54932 7.13886C1.54932 8.21818 4.34821 9.09314 7.80078 9.09314Z" fill="white"/>
<path d="M9.54946 11.1501L8.0752 10.9101L9.77804 0.624396C9.81233 0.407254 9.93803 0.224396 10.1209 0.11011C10.3037 -0.00417537 10.5323 -0.0270322 10.738 0.0301107L17.458 2.16725L17.0009 3.59583L11.1037 1.72154L9.54946 11.1501Z" fill="#FF671D"/>
</svg>
