<svg width="21" height="25" viewBox="0 0 21 25" fill="none" xmlns="http://www.w3.org/2000/svg">
<mask id="path-1-inside-1_202_6867" fill="white">
<path fill-rule="evenodd" clip-rule="evenodd" d="M0.457031 20.499C0.457031 23.2647 6.62849 24.0076 10.2742 24.0076C13.9199 24.0076 20.0799 23.2647 20.0913 20.499V20.419L18.2284 9.13898C18.1027 6.71613 13.1885 6.0647 10.2742 6.0647C7.35992 6.0647 2.44561 6.71613 2.31989 9.13898L0.457031 20.419V20.499Z"/>
</mask>
<path d="M20.0913 20.499L20.5913 20.501V20.499H20.0913ZM20.0913 20.419H20.5913V20.378L20.5846 20.3375L20.0913 20.419ZM18.2284 9.13898L17.7291 9.16489L17.7306 9.19284L17.7351 9.22045L18.2284 9.13898ZM2.31989 9.13898L2.81321 9.22045L2.81777 9.19284L2.81922 9.16489L2.31989 9.13898ZM0.457031 20.419L-0.0362867 20.3375L-0.0429688 20.378V20.419H0.457031ZM10.2742 23.5076C8.47479 23.5076 6.06795 23.3233 4.12696 22.8072C3.15336 22.5483 2.33507 22.2156 1.77085 21.8085C1.21324 21.4062 0.957031 20.9746 0.957031 20.499H-0.0429688C-0.0429688 21.4062 0.472257 22.1047 1.18572 22.6195C1.89258 23.1295 2.84501 23.5011 3.86999 23.7736C5.92616 24.3204 8.42791 24.5076 10.2742 24.5076V23.5076ZM19.5913 20.4969C19.5893 20.9735 19.3313 21.4058 18.7728 21.8084C18.2079 22.2157 17.3899 22.5484 16.417 22.8072C14.4775 23.3233 12.0736 23.5076 10.2742 23.5076V24.5076C12.1205 24.5076 14.6194 24.3204 16.6742 23.7736C17.6985 23.501 18.6504 23.1294 19.3576 22.6196C20.0714 22.105 20.5876 21.4074 20.5913 20.501L19.5913 20.4969ZM19.5913 20.419V20.499H20.5913V20.419H19.5913ZM17.7351 9.22045L19.598 20.5005L20.5846 20.3375L18.7218 9.05751L17.7351 9.22045ZM10.2742 6.5647C11.705 6.5647 13.6109 6.72564 15.158 7.17354C15.9333 7.39802 16.5839 7.68492 17.0381 8.03325C17.485 8.37594 17.7075 8.74835 17.7291 9.16489L18.7278 9.11307C18.6865 8.31819 18.2476 7.7006 17.6467 7.23972C17.053 6.78448 16.2693 6.45423 15.4361 6.21299C13.766 5.72947 11.7577 5.5647 10.2742 5.5647V6.5647ZM2.81922 9.16489C2.84084 8.74835 3.06336 8.37594 3.51024 8.03325C3.96446 7.68492 4.61503 7.39802 5.39038 7.17354C6.93745 6.72564 8.84339 6.5647 10.2742 6.5647V5.5647C8.79073 5.5647 6.78238 5.72947 5.11229 6.21299C4.27906 6.45423 3.49534 6.78448 2.9017 7.23972C2.30072 7.70059 1.86181 8.31819 1.82057 9.11307L2.81922 9.16489ZM0.950349 20.5005L2.81321 9.22045L1.82658 9.05751L-0.0362867 20.3375L0.950349 20.5005ZM0.957031 20.499V20.419H-0.0429688V20.499H0.957031Z" fill="#2A1A5E" mask="url(#path-1-inside-1_202_6867)"/>
<mask id="path-3-inside-2_202_6867" fill="white">
<path fill-rule="evenodd" clip-rule="evenodd" d="M17.2456 9.23013C17.2456 9.23006 17.2456 9.23 17.2456 9.22993C17.2456 8.01806 14.1244 7.03564 10.2742 7.03564C6.42399 7.03564 3.30273 8.01806 3.30273 9.22993C3.30273 9.23061 3.30274 9.23129 3.30274 9.23198L3.00586 11.2187C3.00586 11.6644 3.44018 12.0758 4.18304 12.4187C4.46875 12.5558 4.65158 12.8416 4.65158 13.1616V16.9216C4.65158 17.3216 4.98302 17.653 5.38302 17.653C5.78302 17.653 6.11447 17.3216 6.11447 16.9216V15.493C6.11447 14.9444 6.56019 14.4873 7.12019 14.4873C7.66876 14.4873 8.12591 14.933 8.12591 15.493V15.8358C8.12591 16.3387 8.53732 16.7501 9.04018 16.7501C9.54304 16.7501 9.95445 16.3387 9.95445 15.8358V14.2016C9.95445 13.7558 10.3202 13.3787 10.7659 13.3787C10.9633 13.3787 11.1498 13.3732 11.2651 13.3699C11.3166 13.3684 11.3539 13.3673 11.3716 13.3673C11.4459 13.3616 11.5202 13.3587 11.5944 13.3558C11.6687 13.353 11.743 13.3501 11.8173 13.3444C12.2745 13.3101 12.7201 13.2644 13.143 13.2187C13.6344 13.1501 14.0687 13.5387 14.0687 14.0301V16.773C14.0687 17.2187 14.4344 17.5844 14.8802 17.5844C15.3259 17.5844 15.6916 17.2187 15.6916 16.773V13.2301C15.6916 12.8987 15.8859 12.6016 16.1945 12.4758C17.0402 12.1216 17.543 11.6758 17.543 11.2073L17.2459 9.23013H17.2456Z"/>
</mask>
<path fill-rule="evenodd" clip-rule="evenodd" d="M17.2456 9.23013C17.2456 9.23006 17.2456 9.23 17.2456 9.22993C17.2456 8.01806 14.1244 7.03564 10.2742 7.03564C6.42399 7.03564 3.30273 8.01806 3.30273 9.22993C3.30273 9.23061 3.30274 9.23129 3.30274 9.23198L3.00586 11.2187C3.00586 11.6644 3.44018 12.0758 4.18304 12.4187C4.46875 12.5558 4.65158 12.8416 4.65158 13.1616V16.9216C4.65158 17.3216 4.98302 17.653 5.38302 17.653C5.78302 17.653 6.11447 17.3216 6.11447 16.9216V15.493C6.11447 14.9444 6.56019 14.4873 7.12019 14.4873C7.66876 14.4873 8.12591 14.933 8.12591 15.493V15.8358C8.12591 16.3387 8.53732 16.7501 9.04018 16.7501C9.54304 16.7501 9.95445 16.3387 9.95445 15.8358V14.2016C9.95445 13.7558 10.3202 13.3787 10.7659 13.3787C10.9633 13.3787 11.1498 13.3732 11.2651 13.3699C11.3166 13.3684 11.3539 13.3673 11.3716 13.3673C11.4459 13.3616 11.5202 13.3587 11.5944 13.3558C11.6687 13.353 11.743 13.3501 11.8173 13.3444C12.2745 13.3101 12.7201 13.2644 13.143 13.2187C13.6344 13.1501 14.0687 13.5387 14.0687 14.0301V16.773C14.0687 17.2187 14.4344 17.5844 14.8802 17.5844C15.3259 17.5844 15.6916 17.2187 15.6916 16.773V13.2301C15.6916 12.8987 15.8859 12.6016 16.1945 12.4758C17.0402 12.1216 17.543 11.6758 17.543 11.2073L17.2459 9.23013H17.2456Z" fill="white"/>
<path d="M17.2456 9.23013H16.7456V9.73013H17.2456V9.23013ZM3.30274 9.23198L3.79725 9.30587L3.80284 9.26841L3.80274 9.23053L3.30274 9.23198ZM3.00586 11.2187L2.51135 11.1448L2.50586 11.1815V11.2187H3.00586ZM4.18304 12.4187L4.39943 11.9679L4.39256 11.9647L4.18304 12.4187ZM11.2651 13.3699L11.2797 13.8697H11.2797L11.2651 13.3699ZM11.3716 13.3673V13.8673H11.3908L11.4099 13.8658L11.3716 13.3673ZM11.5944 13.3558L11.5752 12.8562L11.5944 13.3558ZM11.8173 13.3444L11.7799 12.8458L11.779 12.8459L11.8173 13.3444ZM13.143 13.2187L13.1967 13.7158L13.2044 13.715L13.2121 13.7139L13.143 13.2187ZM16.1945 12.4758L16.3831 12.9389L16.3877 12.937L16.1945 12.4758ZM17.543 11.2073H18.043V11.1699L18.0375 11.133L17.543 11.2073ZM17.2459 9.23013L17.7403 9.15582L17.6764 8.73013H17.2459V9.23013ZM17.7456 9.23013C17.7456 9.23013 17.7456 9.23013 17.7456 9.23013V9.23013C17.7456 9.23013 17.7456 9.23013 17.7456 9.23013C17.7456 9.23013 17.7456 9.23013 17.7456 9.23013V9.23013C17.7456 9.23013 17.7456 9.23013 17.7456 9.23013V9.23013C17.7456 9.23013 17.7456 9.23013 17.7456 9.23013C17.7456 9.23013 17.7456 9.23013 17.7456 9.23013V9.23012C17.7456 9.23012 17.7456 9.23012 17.7456 9.23012C17.7456 9.23012 17.7456 9.23012 17.7456 9.23012V9.23012C17.7456 9.23012 17.7456 9.23012 17.7456 9.23012V9.23012C17.7456 9.23012 17.7456 9.23012 17.7456 9.23012C17.7456 9.23012 17.7456 9.23012 17.7456 9.23012V9.23012C17.7456 9.23012 17.7456 9.23012 17.7456 9.23012C17.7456 9.23012 17.7456 9.23012 17.7456 9.23012V9.23012C17.7456 9.23012 17.7456 9.23012 17.7456 9.23012V9.23012C17.7456 9.23012 17.7456 9.23012 17.7456 9.23012C17.7456 9.23012 17.7456 9.23012 17.7456 9.23012V9.23012C17.7456 9.23012 17.7456 9.23012 17.7456 9.23012C17.7456 9.23012 17.7456 9.23012 17.7456 9.23012V9.23012C17.7456 9.23012 17.7456 9.23012 17.7456 9.23012V9.23012C17.7456 9.23012 17.7456 9.23012 17.7456 9.23012C17.7456 9.23012 17.7456 9.23012 17.7456 9.23012V9.23012C17.7456 9.23012 17.7456 9.23012 17.7456 9.23012C17.7456 9.23011 17.7456 9.23011 17.7456 9.23011V9.23011C17.7456 9.23011 17.7456 9.23011 17.7456 9.23011C17.7456 9.23011 17.7456 9.23011 17.7456 9.23011V9.23011C17.7456 9.23011 17.7456 9.23011 17.7456 9.23011V9.23011C17.7456 9.23011 17.7456 9.23011 17.7456 9.23011C17.7456 9.23011 17.7456 9.23011 17.7456 9.23011V9.23011C17.7456 9.23011 17.7456 9.23011 17.7456 9.23011C17.7456 9.23011 17.7456 9.23011 17.7456 9.23011V9.23011C17.7456 9.23011 17.7456 9.23011 17.7456 9.23011V9.23011C17.7456 9.23011 17.7456 9.23011 17.7456 9.23011C17.7456 9.23011 17.7456 9.23011 17.7456 9.23011V9.23011C17.7456 9.23011 17.7456 9.23011 17.7456 9.23011C17.7456 9.23011 17.7456 9.23011 17.7456 9.23011V9.23011C17.7456 9.23011 17.7456 9.23011 17.7456 9.23011V9.23011C17.7456 9.23011 17.7456 9.23011 17.7456 9.23011C17.7456 9.23011 17.7456 9.23011 17.7456 9.23011V9.23011C17.7456 9.2301 17.7456 9.2301 17.7456 9.2301C17.7456 9.2301 17.7456 9.2301 17.7456 9.2301V9.2301C17.7456 9.2301 17.7456 9.2301 17.7456 9.2301V9.2301C17.7456 9.2301 17.7456 9.2301 17.7456 9.2301C17.7456 9.2301 17.7456 9.2301 17.7456 9.2301V9.2301C17.7456 9.2301 17.7456 9.2301 17.7456 9.2301C17.7456 9.2301 17.7456 9.2301 17.7456 9.2301V9.2301C17.7456 9.2301 17.7456 9.2301 17.7456 9.2301V9.2301C17.7456 9.2301 17.7456 9.2301 17.7456 9.2301C17.7456 9.2301 17.7456 9.2301 17.7456 9.2301V9.2301C17.7456 9.2301 17.7456 9.2301 17.7456 9.2301C17.7456 9.2301 17.7456 9.2301 17.7456 9.2301V9.2301C17.7456 9.2301 17.7456 9.2301 17.7456 9.2301C17.7456 9.2301 17.7456 9.2301 17.7456 9.2301V9.2301C17.7456 9.2301 17.7456 9.2301 17.7456 9.2301V9.2301C17.7456 9.2301 17.7456 9.2301 17.7456 9.2301C17.7456 9.2301 17.7456 9.2301 17.7456 9.23009V9.23009C17.7456 9.23009 17.7456 9.23009 17.7456 9.23009C17.7456 9.23009 17.7456 9.23009 17.7456 9.23009V9.23009C17.7456 9.23009 17.7456 9.23009 17.7456 9.23009V9.23009C17.7456 9.23009 17.7456 9.23009 17.7456 9.23009C17.7456 9.23009 17.7456 9.23009 17.7456 9.23009V9.23009C17.7456 9.23009 17.7456 9.23009 17.7456 9.23009C17.7456 9.23009 17.7456 9.23009 17.7456 9.23009V9.23009C17.7456 9.23009 17.7456 9.23009 17.7456 9.23009V9.23009C17.7456 9.23009 17.7456 9.23009 17.7456 9.23009C17.7456 9.23009 17.7456 9.23009 17.7456 9.23009V9.23009C17.7456 9.23009 17.7456 9.23009 17.7456 9.23009C17.7456 9.23009 17.7456 9.23009 17.7456 9.23009V9.23009C17.7456 9.23009 17.7456 9.23009 17.7456 9.23009V9.23009C17.7456 9.23009 17.7456 9.23009 17.7456 9.23009C17.7456 9.23009 17.7456 9.23009 17.7456 9.23009V9.23009C17.7456 9.23009 17.7456 9.23009 17.7456 9.23008C17.7456 9.23008 17.7456 9.23008 17.7456 9.23008V9.23008C17.7456 9.23008 17.7456 9.23008 17.7456 9.23008V9.23008C17.7456 9.23008 17.7456 9.23008 17.7456 9.23008C17.7456 9.23008 17.7456 9.23008 17.7456 9.23008V9.23008C17.7456 9.23008 17.7456 9.23008 17.7456 9.23008C17.7456 9.23008 17.7456 9.23008 17.7456 9.23008V9.23008C17.7456 9.23008 17.7456 9.23008 17.7456 9.23008V9.23008C17.7456 9.23008 17.7456 9.23008 17.7456 9.23008C17.7456 9.23008 17.7456 9.23008 17.7456 9.23008V9.23008C17.7456 9.23008 17.7456 9.23008 17.7456 9.23008C17.7456 9.23008 17.7456 9.23008 17.7456 9.23008V9.23008C17.7456 9.23008 17.7456 9.23008 17.7456 9.23008V9.23008C17.7456 9.23008 17.7456 9.23008 17.7456 9.23008C17.7456 9.23008 17.7456 9.23008 17.7456 9.23008V9.23008C17.7456 9.23008 17.7456 9.23008 17.7456 9.23008C17.7456 9.23008 17.7456 9.23008 17.7456 9.23008V9.23007C17.7456 9.23007 17.7456 9.23007 17.7456 9.23007V9.23007C17.7456 9.23007 17.7456 9.23007 17.7456 9.23007C17.7456 9.23007 17.7456 9.23007 17.7456 9.23007V9.23007C17.7456 9.23007 17.7456 9.23007 17.7456 9.23007C17.7456 9.23007 17.7456 9.23007 17.7456 9.23007V9.23007C17.7456 9.23007 17.7456 9.23007 17.7456 9.23007C17.7456 9.23007 17.7456 9.23007 17.7456 9.23007V9.23007C17.7456 9.23007 17.7456 9.23007 17.7456 9.23007V9.23007C17.7456 9.23007 17.7456 9.23007 17.7456 9.23007C17.7456 9.23007 17.7456 9.23007 17.7456 9.23007V9.23007C17.7456 9.23007 17.7456 9.23007 17.7456 9.23007C17.7456 9.23007 17.7456 9.23007 17.7456 9.23007V9.23007C17.7456 9.23007 17.7456 9.23007 17.7456 9.23007V9.23007C17.7456 9.23007 17.7456 9.23007 17.7456 9.23007C17.7456 9.23007 17.7456 9.23007 17.7456 9.23007V9.23007C17.7456 9.23007 17.7456 9.23007 17.7456 9.23007C17.7456 9.23007 17.7456 9.23006 17.7456 9.23006V9.23006C17.7456 9.23006 17.7456 9.23006 17.7456 9.23006V9.23006C17.7456 9.23006 17.7456 9.23006 17.7456 9.23006C17.7456 9.23006 17.7456 9.23006 17.7456 9.23006V9.23006C17.7456 9.23006 17.7456 9.23006 17.7456 9.23006C17.7456 9.23006 17.7456 9.23006 17.7456 9.23006V9.23006C17.7456 9.23006 17.7456 9.23006 17.7456 9.23006V9.23006C17.7456 9.23006 17.7456 9.23006 17.7456 9.23006C17.7456 9.23006 17.7456 9.23006 17.7456 9.23006V9.23006C17.7456 9.23006 17.7456 9.23006 17.7456 9.23006C17.7456 9.23006 17.7456 9.23006 17.7456 9.23006V9.23006C17.7456 9.23006 17.7456 9.23006 17.7456 9.23006V9.23006C17.7456 9.23006 17.7456 9.23006 17.7456 9.23006C17.7456 9.23006 17.7456 9.23006 17.7456 9.23006V9.23006C17.7456 9.23006 17.7456 9.23006 17.7456 9.23006C17.7456 9.23006 17.7456 9.23006 17.7456 9.23006V9.23006C17.7456 9.23005 17.7456 9.23005 17.7456 9.23005V9.23005C17.7456 9.23005 17.7456 9.23005 17.7456 9.23005C17.7456 9.23005 17.7456 9.23005 17.7456 9.23005V9.23005C17.7456 9.23005 17.7456 9.23005 17.7456 9.23005C17.7456 9.23005 17.7456 9.23005 17.7456 9.23005V9.23005C17.7456 9.23005 17.7456 9.23005 17.7456 9.23005V9.23005C17.7456 9.23005 17.7456 9.23005 17.7456 9.23005C17.7456 9.23005 17.7456 9.23005 17.7456 9.23005V9.23005C17.7456 9.23005 17.7456 9.23005 17.7456 9.23005C17.7456 9.23005 17.7456 9.23005 17.7456 9.23005V9.23005C17.7456 9.23005 17.7456 9.23005 17.7456 9.23005V9.23005C17.7456 9.23005 17.7456 9.23005 17.7456 9.23005C17.7456 9.23005 17.7456 9.23005 17.7456 9.23005V9.23005C17.7456 9.23005 17.7456 9.23005 17.7456 9.23005C17.7456 9.23005 17.7456 9.23005 17.7456 9.23005V9.23005C17.7456 9.23005 17.7456 9.23005 17.7456 9.23005V9.23005C17.7456 9.23004 17.7456 9.23004 17.7456 9.23004C17.7456 9.23004 17.7456 9.23004 17.7456 9.23004V9.23004C17.7456 9.23004 17.7456 9.23004 17.7456 9.23004C17.7456 9.23004 17.7456 9.23004 17.7456 9.23004V9.23004C17.7456 9.23004 17.7456 9.23004 17.7456 9.23004V9.23004C17.7456 9.23004 17.7456 9.23004 17.7456 9.23004C17.7456 9.23004 17.7456 9.23004 17.7456 9.23004V9.23004C17.7456 9.23004 17.7456 9.23004 17.7456 9.23004C17.7456 9.23004 17.7456 9.23004 17.7456 9.23004V9.23004C17.7456 9.23004 17.7456 9.23004 17.7456 9.23004V9.23004C17.7456 9.23004 17.7456 9.23004 17.7456 9.23004C17.7456 9.23004 17.7456 9.23004 17.7456 9.23004V9.23004C17.7456 9.23004 17.7456 9.23004 17.7456 9.23004C17.7456 9.23004 17.7456 9.23004 17.7456 9.23004V9.23004C17.7456 9.23004 17.7456 9.23004 17.7456 9.23004V9.23004C17.7456 9.23004 17.7456 9.23004 17.7456 9.23004C17.7456 9.23004 17.7456 9.23004 17.7456 9.23003V9.23003C17.7456 9.23003 17.7456 9.23003 17.7456 9.23003C17.7456 9.23003 17.7456 9.23003 17.7456 9.23003V9.23003C17.7456 9.23003 17.7456 9.23003 17.7456 9.23003V9.23003C17.7456 9.23003 17.7456 9.23003 17.7456 9.23003C17.7456 9.23003 17.7456 9.23003 17.7456 9.23003V9.23003C17.7456 9.23003 17.7456 9.23003 17.7456 9.23003C17.7456 9.23003 17.7456 9.23003 17.7456 9.23003V9.23003C17.7456 9.23003 17.7456 9.23003 17.7456 9.23003V9.23003C17.7456 9.23003 17.7456 9.23003 17.7456 9.23003C17.7456 9.23003 17.7456 9.23003 17.7456 9.23003V9.23003C17.7456 9.23003 17.7456 9.23003 17.7456 9.23003C17.7456 9.23003 17.7456 9.23003 17.7456 9.23003V9.23003C17.7456 9.23003 17.7456 9.23003 17.7456 9.23003C17.7456 9.23003 17.7456 9.23003 17.7456 9.23003V9.23003C17.7456 9.23003 17.7456 9.23003 17.7456 9.23003V9.23003C17.7456 9.23003 17.7456 9.23003 17.7456 9.23002C17.7456 9.23002 17.7456 9.23002 17.7456 9.23002V9.23002C17.7456 9.23002 17.7456 9.23002 17.7456 9.23002C17.7456 9.23002 17.7456 9.23002 17.7456 9.23002V9.23002C17.7456 9.23002 17.7456 9.23002 17.7456 9.23002V9.23002C17.7456 9.23002 17.7456 9.23002 17.7456 9.23002C17.7456 9.23002 17.7456 9.23002 17.7456 9.23002V9.23002C17.7456 9.23002 17.7456 9.23002 17.7456 9.23002C17.7456 9.23002 17.7456 9.23002 17.7456 9.23002V9.23002C17.7456 9.23002 17.7456 9.23002 17.7456 9.23002V9.23002C17.7456 9.23002 17.7456 9.23002 17.7456 9.23002C17.7456 9.23002 17.7456 9.23002 17.7456 9.23002V9.23002C17.7456 9.23002 17.7456 9.23002 17.7456 9.23002C17.7456 9.23002 17.7456 9.23002 17.7456 9.23002V9.23002C17.7456 9.23002 17.7456 9.23002 17.7456 9.23002V9.23002C17.7456 9.23002 17.7456 9.23002 17.7456 9.23002C17.7456 9.23002 17.7456 9.23002 17.7456 9.23002V9.23001C17.7456 9.23001 17.7456 9.23001 17.7456 9.23001C17.7456 9.23001 17.7456 9.23001 17.7456 9.23001V9.23001C17.7456 9.23001 17.7456 9.23001 17.7456 9.23001V9.23001C17.7456 9.23001 17.7456 9.23001 17.7456 9.23001C17.7456 9.23001 17.7456 9.23001 17.7456 9.23001V9.23001C17.7456 9.23001 17.7456 9.23001 17.7456 9.23001C17.7456 9.23001 17.7456 9.23001 17.7456 9.23001V9.23001C17.7456 9.23001 17.7456 9.23001 17.7456 9.23001V9.23001C17.7456 9.23001 17.7456 9.23001 17.7456 9.23001C17.7456 9.23001 17.7456 9.23001 17.7456 9.23001V9.23001C17.7456 9.23001 17.7456 9.23001 17.7456 9.23001C17.7456 9.23001 17.7456 9.23001 17.7456 9.23001V9.23001C17.7456 9.23001 17.7456 9.23001 17.7456 9.23001V9.23001C17.7456 9.23001 17.7456 9.23001 17.7456 9.23001C17.7456 9.23001 17.7456 9.23001 17.7456 9.23001V9.23001C17.7456 9.23001 17.7456 9.23001 17.7456 9.23001C17.7456 9.23001 17.7456 9.23 17.7456 9.23V9.23C17.7456 9.23 17.7456 9.23 17.7456 9.23V9.23C17.7456 9.23 17.7456 9.23 17.7456 9.23C17.7456 9.23 17.7456 9.23 17.7456 9.23V9.23C17.7456 9.23 17.7456 9.23 17.7456 9.23C17.7456 9.23 17.7456 9.23 17.7456 9.23V9.23C17.7456 9.23 17.7456 9.23 17.7456 9.23V9.23C17.7456 9.23 17.7456 9.23 17.7456 9.23C17.7456 9.23 17.7456 9.23 17.7456 9.23V9.23C17.7456 9.23 17.7456 9.23 17.7456 9.23C17.7456 9.23 17.7456 9.23 17.7456 9.23V9.23C17.7456 9.23 17.7456 9.23 17.7456 9.23V9.23C17.7456 9.23 17.7456 9.23 17.7456 9.23C17.7456 9.23 17.7456 9.23 17.7456 9.23V9.23C17.7456 9.23 17.7456 9.23 17.7456 9.23C17.7456 9.23 17.7456 9.23 17.7456 9.23V9.23C17.7456 9.22999 17.7456 9.22999 17.7456 9.22999V9.22999C17.7456 9.22999 17.7456 9.22999 17.7456 9.22999C17.7456 9.22999 17.7456 9.22999 17.7456 9.22999V9.22999C17.7456 9.22999 17.7456 9.22999 17.7456 9.22999C17.7456 9.22999 17.7456 9.22999 17.7456 9.22999V9.22999C17.7456 9.22999 17.7456 9.22999 17.7456 9.22999V9.22999C17.7456 9.22999 17.7456 9.22999 17.7456 9.22999C17.7456 9.22999 17.7456 9.22999 17.7456 9.22999V9.22999C17.7456 9.22999 17.7456 9.22999 17.7456 9.22999C17.7456 9.22999 17.7456 9.22999 17.7456 9.22999V9.22999C17.7456 9.22999 17.7456 9.22999 17.7456 9.22999V9.22999C17.7456 9.22999 17.7456 9.22999 17.7456 9.22999C17.7456 9.22999 17.7456 9.22999 17.7456 9.22999V9.22999C17.7456 9.22999 17.7456 9.22999 17.7456 9.22999C17.7456 9.22999 17.7456 9.22999 17.7456 9.22999V9.22999C17.7456 9.22999 17.7456 9.22999 17.7456 9.22999C17.7456 9.22999 17.7456 9.22998 17.7456 9.22998V9.22998C17.7456 9.22998 17.7456 9.22998 17.7456 9.22998V9.22998C17.7456 9.22998 17.7456 9.22998 17.7456 9.22998C17.7456 9.22998 17.7456 9.22998 17.7456 9.22998V9.22998C17.7456 9.22998 17.7456 9.22998 17.7456 9.22998C17.7456 9.22998 17.7456 9.22998 17.7456 9.22998V9.22998C17.7456 9.22998 17.7456 9.22998 17.7456 9.22998V9.22998C17.7456 9.22998 17.7456 9.22998 17.7456 9.22998C17.7456 9.22998 17.7456 9.22998 17.7456 9.22998V9.22998C17.7456 9.22998 17.7456 9.22998 17.7456 9.22998C17.7456 9.22998 17.7456 9.22998 17.7456 9.22998V9.22998C17.7456 9.22998 17.7456 9.22998 17.7456 9.22998V9.22998C17.7456 9.22998 17.7456 9.22998 17.7456 9.22998C17.7456 9.22998 17.7456 9.22998 17.7456 9.22998V9.22998C17.7456 9.22998 17.7456 9.22998 17.7456 9.22998C17.7456 9.22998 17.7456 9.22998 17.7456 9.22998V9.22998C17.7456 9.22997 17.7456 9.22997 17.7456 9.22997V9.22997C17.7456 9.22997 17.7456 9.22997 17.7456 9.22997C17.7456 9.22997 17.7456 9.22997 17.7456 9.22997V9.22997C17.7456 9.22997 17.7456 9.22997 17.7456 9.22997C17.7456 9.22997 17.7456 9.22997 17.7456 9.22997V9.22997C17.7456 9.22997 17.7456 9.22997 17.7456 9.22997V9.22997C17.7456 9.22997 17.7456 9.22997 17.7456 9.22997C17.7456 9.22997 17.7456 9.22997 17.7456 9.22997V9.22997C17.7456 9.22997 17.7456 9.22997 17.7456 9.22997C17.7456 9.22997 17.7456 9.22997 17.7456 9.22997V9.22997C17.7456 9.22997 17.7456 9.22997 17.7456 9.22997V9.22997C17.7456 9.22997 17.7456 9.22997 17.7456 9.22997C17.7456 9.22997 17.7456 9.22997 17.7456 9.22997V9.22997C17.7456 9.22997 17.7456 9.22997 17.7456 9.22997C17.7456 9.22997 17.7456 9.22997 17.7456 9.22997V9.22997C17.7456 9.22997 17.7456 9.22997 17.7456 9.22997V9.22997C17.7456 9.22996 17.7456 9.22996 17.7456 9.22996C17.7456 9.22996 17.7456 9.22996 17.7456 9.22996V9.22996C17.7456 9.22996 17.7456 9.22996 17.7456 9.22996C17.7456 9.22996 17.7456 9.22996 17.7456 9.22996V9.22996C17.7456 9.22996 17.7456 9.22996 17.7456 9.22996V9.22996C17.7456 9.22996 17.7456 9.22996 17.7456 9.22996C17.7456 9.22996 17.7456 9.22996 17.7456 9.22996V9.22996C17.7456 9.22996 17.7456 9.22996 17.7456 9.22996C17.7456 9.22996 17.7456 9.22996 17.7456 9.22996V9.22996C17.7456 9.22996 17.7456 9.22996 17.7456 9.22996C17.7456 9.22996 17.7456 9.22996 17.7456 9.22996V9.22996C17.7456 9.22996 17.7456 9.22996 17.7456 9.22996V9.22996C17.7456 9.22996 17.7456 9.22996 17.7456 9.22996C17.7456 9.22996 17.7456 9.22996 17.7456 9.22996V9.22996C17.7456 9.22996 17.7456 9.22996 17.7456 9.22996C17.7456 9.22996 17.7456 9.22996 17.7456 9.22996V9.22996C17.7456 9.22996 17.7456 9.22996 17.7456 9.22995V9.22995C17.7456 9.22995 17.7456 9.22995 17.7456 9.22995C17.7456 9.22995 17.7456 9.22995 17.7456 9.22995V9.22995C17.7456 9.22995 17.7456 9.22995 17.7456 9.22995C17.7456 9.22995 17.7456 9.22995 17.7456 9.22995V9.22995C17.7456 9.22995 17.7456 9.22995 17.7456 9.22995V9.22995C17.7456 9.22995 17.7456 9.22995 17.7456 9.22995C17.7456 9.22995 17.7456 9.22995 17.7456 9.22995V9.22995C17.7456 9.22995 17.7456 9.22995 17.7456 9.22995C17.7456 9.22995 17.7456 9.22995 17.7456 9.22995V9.22995C17.7456 9.22995 17.7456 9.22995 17.7456 9.22995V9.22995C17.7456 9.22995 17.7456 9.22995 17.7456 9.22995C17.7456 9.22995 17.7456 9.22995 17.7456 9.22995V9.22995C17.7456 9.22995 17.7456 9.22995 17.7456 9.22995C17.7456 9.22995 17.7456 9.22995 17.7456 9.22995V9.22995C17.7456 9.22995 17.7456 9.22995 17.7456 9.22995V9.22995C17.7456 9.22995 17.7456 9.22994 17.7456 9.22994C17.7456 9.22994 17.7456 9.22994 17.7456 9.22994V9.22994C17.7456 9.22994 17.7456 9.22994 17.7456 9.22994C17.7456 9.22994 17.7456 9.22994 17.7456 9.22994V9.22994C17.7456 9.22994 17.7456 9.22994 17.7456 9.22994C17.7456 9.22994 17.7456 9.22994 17.7456 9.22994V9.22994C17.7456 9.22994 17.7456 9.22994 17.7456 9.22994V9.22994C17.7456 9.22994 17.7456 9.22994 17.7456 9.22994C17.7456 9.22994 17.7456 9.22994 17.7456 9.22994V9.22994C17.7456 9.22994 17.7456 9.22994 17.7456 9.22994C17.7456 9.22994 17.7456 9.22994 17.7456 9.22994V9.22994C17.7456 9.22994 17.7456 9.22994 17.7456 9.22994V9.22994C17.7456 9.22994 17.7456 9.22994 17.7456 9.22994C17.7456 9.22994 17.7456 9.22994 17.7456 9.22994V9.22994C17.7456 9.22994 17.7456 9.22994 17.7456 9.22994C17.7456 9.22994 17.7456 9.22994 17.7456 9.22994V9.22994C17.7456 9.22994 17.7456 9.22994 17.7456 9.22994V9.22993C17.7456 9.22993 17.7456 9.22993 17.7456 9.22993C17.7456 9.22993 17.7456 9.22993 17.7456 9.22993V9.22993C17.7456 9.22993 17.7456 9.22993 17.7456 9.22993C17.7456 9.22993 17.7456 9.22993 17.7456 9.22993V9.22993C17.7456 9.22993 17.7456 9.22993 17.7456 9.22993V9.22993C17.7456 9.22993 17.7456 9.22993 17.7456 9.22993C17.7456 9.22993 17.7456 9.22993 17.7456 9.22993V9.22993C17.7456 9.22993 17.7456 9.22993 17.7456 9.22993H16.7456C16.7456 9.22993 16.7456 9.22993 16.7456 9.22993V9.22993C16.7456 9.22993 16.7456 9.22993 16.7456 9.22993C16.7456 9.22993 16.7456 9.22993 16.7456 9.22993V9.22993C16.7456 9.22993 16.7456 9.22993 16.7456 9.22993V9.22993C16.7456 9.22993 16.7456 9.22993 16.7456 9.22993C16.7456 9.22993 16.7456 9.22993 16.7456 9.22993V9.22993C16.7456 9.22993 16.7456 9.22993 16.7456 9.22993C16.7456 9.22993 16.7456 9.22993 16.7456 9.22993V9.22994C16.7456 9.22994 16.7456 9.22994 16.7456 9.22994V9.22994C16.7456 9.22994 16.7456 9.22994 16.7456 9.22994C16.7456 9.22994 16.7456 9.22994 16.7456 9.22994V9.22994C16.7456 9.22994 16.7456 9.22994 16.7456 9.22994C16.7456 9.22994 16.7456 9.22994 16.7456 9.22994V9.22994C16.7456 9.22994 16.7456 9.22994 16.7456 9.22994V9.22994C16.7456 9.22994 16.7456 9.22994 16.7456 9.22994C16.7456 9.22994 16.7456 9.22994 16.7456 9.22994V9.22994C16.7456 9.22994 16.7456 9.22994 16.7456 9.22994C16.7456 9.22994 16.7456 9.22994 16.7456 9.22994V9.22994C16.7456 9.22994 16.7456 9.22994 16.7456 9.22994V9.22994C16.7456 9.22994 16.7456 9.22994 16.7456 9.22994C16.7456 9.22994 16.7456 9.22994 16.7456 9.22994V9.22994C16.7456 9.22994 16.7456 9.22994 16.7456 9.22994C16.7456 9.22994 16.7456 9.22994 16.7456 9.22994V9.22994C16.7456 9.22994 16.7456 9.22994 16.7456 9.22994C16.7456 9.22994 16.7456 9.22995 16.7456 9.22995V9.22995C16.7456 9.22995 16.7456 9.22995 16.7456 9.22995V9.22995C16.7456 9.22995 16.7456 9.22995 16.7456 9.22995C16.7456 9.22995 16.7456 9.22995 16.7456 9.22995V9.22995C16.7456 9.22995 16.7456 9.22995 16.7456 9.22995C16.7456 9.22995 16.7456 9.22995 16.7456 9.22995V9.22995C16.7456 9.22995 16.7456 9.22995 16.7456 9.22995V9.22995C16.7456 9.22995 16.7456 9.22995 16.7456 9.22995C16.7456 9.22995 16.7456 9.22995 16.7456 9.22995V9.22995C16.7456 9.22995 16.7456 9.22995 16.7456 9.22995C16.7456 9.22995 16.7456 9.22995 16.7456 9.22995V9.22995C16.7456 9.22995 16.7456 9.22995 16.7456 9.22995V9.22995C16.7456 9.22995 16.7456 9.22995 16.7456 9.22995C16.7456 9.22995 16.7456 9.22995 16.7456 9.22995V9.22995C16.7456 9.22995 16.7456 9.22995 16.7456 9.22995C16.7456 9.22995 16.7456 9.22995 16.7456 9.22995V9.22995C16.7456 9.22996 16.7456 9.22996 16.7456 9.22996V9.22996C16.7456 9.22996 16.7456 9.22996 16.7456 9.22996C16.7456 9.22996 16.7456 9.22996 16.7456 9.22996V9.22996C16.7456 9.22996 16.7456 9.22996 16.7456 9.22996C16.7456 9.22996 16.7456 9.22996 16.7456 9.22996V9.22996C16.7456 9.22996 16.7456 9.22996 16.7456 9.22996V9.22996C16.7456 9.22996 16.7456 9.22996 16.7456 9.22996C16.7456 9.22996 16.7456 9.22996 16.7456 9.22996V9.22996C16.7456 9.22996 16.7456 9.22996 16.7456 9.22996C16.7456 9.22996 16.7456 9.22996 16.7456 9.22996V9.22996C16.7456 9.22996 16.7456 9.22996 16.7456 9.22996C16.7456 9.22996 16.7456 9.22996 16.7456 9.22996V9.22996C16.7456 9.22996 16.7456 9.22996 16.7456 9.22996V9.22996C16.7456 9.22996 16.7456 9.22996 16.7456 9.22996C16.7456 9.22996 16.7456 9.22996 16.7456 9.22996V9.22996C16.7456 9.22996 16.7456 9.22996 16.7456 9.22996C16.7456 9.22996 16.7456 9.22996 16.7456 9.22997V9.22997C16.7456 9.22997 16.7456 9.22997 16.7456 9.22997V9.22997C16.7456 9.22997 16.7456 9.22997 16.7456 9.22997C16.7456 9.22997 16.7456 9.22997 16.7456 9.22997V9.22997C16.7456 9.22997 16.7456 9.22997 16.7456 9.22997C16.7456 9.22997 16.7456 9.22997 16.7456 9.22997V9.22997C16.7456 9.22997 16.7456 9.22997 16.7456 9.22997V9.22997C16.7456 9.22997 16.7456 9.22997 16.7456 9.22997C16.7456 9.22997 16.7456 9.22997 16.7456 9.22997V9.22997C16.7456 9.22997 16.7456 9.22997 16.7456 9.22997C16.7456 9.22997 16.7456 9.22997 16.7456 9.22997V9.22997C16.7456 9.22997 16.7456 9.22997 16.7456 9.22997V9.22997C16.7456 9.22997 16.7456 9.22997 16.7456 9.22997C16.7456 9.22997 16.7456 9.22997 16.7456 9.22997V9.22997C16.7456 9.22997 16.7456 9.22997 16.7456 9.22997C16.7456 9.22997 16.7456 9.22997 16.7456 9.22997V9.22997C16.7456 9.22997 16.7456 9.22997 16.7456 9.22998V9.22998C16.7456 9.22998 16.7456 9.22998 16.7456 9.22998C16.7456 9.22998 16.7456 9.22998 16.7456 9.22998V9.22998C16.7456 9.22998 16.7456 9.22998 16.7456 9.22998C16.7456 9.22998 16.7456 9.22998 16.7456 9.22998V9.22998C16.7456 9.22998 16.7456 9.22998 16.7456 9.22998V9.22998C16.7456 9.22998 16.7456 9.22998 16.7456 9.22998C16.7456 9.22998 16.7456 9.22998 16.7456 9.22998V9.22998C16.7456 9.22998 16.7456 9.22998 16.7456 9.22998C16.7456 9.22998 16.7456 9.22998 16.7456 9.22998V9.22998C16.7456 9.22998 16.7456 9.22998 16.7456 9.22998V9.22998C16.7456 9.22998 16.7456 9.22998 16.7456 9.22998C16.7456 9.22998 16.7456 9.22998 16.7456 9.22998V9.22998C16.7456 9.22998 16.7456 9.22998 16.7456 9.22998C16.7456 9.22998 16.7456 9.22998 16.7456 9.22998V9.22998C16.7456 9.22998 16.7456 9.22998 16.7456 9.22998V9.22998C16.7456 9.22998 16.7456 9.22999 16.7456 9.22999C16.7456 9.22999 16.7456 9.22999 16.7456 9.22999V9.22999C16.7456 9.22999 16.7456 9.22999 16.7456 9.22999C16.7456 9.22999 16.7456 9.22999 16.7456 9.22999V9.22999C16.7456 9.22999 16.7456 9.22999 16.7456 9.22999C16.7456 9.22999 16.7456 9.22999 16.7456 9.22999V9.22999C16.7456 9.22999 16.7456 9.22999 16.7456 9.22999V9.22999C16.7456 9.22999 16.7456 9.22999 16.7456 9.22999C16.7456 9.22999 16.7456 9.22999 16.7456 9.22999V9.22999C16.7456 9.22999 16.7456 9.22999 16.7456 9.22999C16.7456 9.22999 16.7456 9.22999 16.7456 9.22999V9.22999C16.7456 9.22999 16.7456 9.22999 16.7456 9.22999V9.22999C16.7456 9.22999 16.7456 9.22999 16.7456 9.22999C16.7456 9.22999 16.7456 9.22999 16.7456 9.22999V9.22999C16.7456 9.22999 16.7456 9.22999 16.7456 9.22999C16.7456 9.22999 16.7456 9.22999 16.7456 9.22999V9.22999C16.7456 9.22999 16.7456 9.22999 16.7456 9.23V9.23C16.7456 9.23 16.7456 9.23 16.7456 9.23C16.7456 9.23 16.7456 9.23 16.7456 9.23V9.23C16.7456 9.23 16.7456 9.23 16.7456 9.23C16.7456 9.23 16.7456 9.23 16.7456 9.23V9.23C16.7456 9.23 16.7456 9.23 16.7456 9.23V9.23C16.7456 9.23 16.7456 9.23 16.7456 9.23C16.7456 9.23 16.7456 9.23 16.7456 9.23V9.23C16.7456 9.23 16.7456 9.23 16.7456 9.23C16.7456 9.23 16.7456 9.23 16.7456 9.23V9.23C16.7456 9.23 16.7456 9.23 16.7456 9.23V9.23C16.7456 9.23 16.7456 9.23 16.7456 9.23C16.7456 9.23 16.7456 9.23 16.7456 9.23V9.23C16.7456 9.23 16.7456 9.23 16.7456 9.23C16.7456 9.23 16.7456 9.23 16.7456 9.23V9.23C16.7456 9.23 16.7456 9.23 16.7456 9.23V9.23C16.7456 9.23 16.7456 9.23001 16.7456 9.23001C16.7456 9.23001 16.7456 9.23001 16.7456 9.23001V9.23001C16.7456 9.23001 16.7456 9.23001 16.7456 9.23001C16.7456 9.23001 16.7456 9.23001 16.7456 9.23001V9.23001C16.7456 9.23001 16.7456 9.23001 16.7456 9.23001V9.23001C16.7456 9.23001 16.7456 9.23001 16.7456 9.23001C16.7456 9.23001 16.7456 9.23001 16.7456 9.23001V9.23001C16.7456 9.23001 16.7456 9.23001 16.7456 9.23001C16.7456 9.23001 16.7456 9.23001 16.7456 9.23001V9.23001C16.7456 9.23001 16.7456 9.23001 16.7456 9.23001V9.23001C16.7456 9.23001 16.7456 9.23001 16.7456 9.23001C16.7456 9.23001 16.7456 9.23001 16.7456 9.23001V9.23001C16.7456 9.23001 16.7456 9.23001 16.7456 9.23001C16.7456 9.23001 16.7456 9.23001 16.7456 9.23001V9.23001C16.7456 9.23001 16.7456 9.23001 16.7456 9.23001V9.23001C16.7456 9.23001 16.7456 9.23001 16.7456 9.23001C16.7456 9.23001 16.7456 9.23001 16.7456 9.23001V9.23002C16.7456 9.23002 16.7456 9.23002 16.7456 9.23002C16.7456 9.23002 16.7456 9.23002 16.7456 9.23002V9.23002C16.7456 9.23002 16.7456 9.23002 16.7456 9.23002V9.23002C16.7456 9.23002 16.7456 9.23002 16.7456 9.23002C16.7456 9.23002 16.7456 9.23002 16.7456 9.23002V9.23002C16.7456 9.23002 16.7456 9.23002 16.7456 9.23002C16.7456 9.23002 16.7456 9.23002 16.7456 9.23002V9.23002C16.7456 9.23002 16.7456 9.23002 16.7456 9.23002V9.23002C16.7456 9.23002 16.7456 9.23002 16.7456 9.23002C16.7456 9.23002 16.7456 9.23002 16.7456 9.23002V9.23002C16.7456 9.23002 16.7456 9.23002 16.7456 9.23002C16.7456 9.23002 16.7456 9.23002 16.7456 9.23002V9.23002C16.7456 9.23002 16.7456 9.23002 16.7456 9.23002V9.23002C16.7456 9.23002 16.7456 9.23002 16.7456 9.23002C16.7456 9.23002 16.7456 9.23002 16.7456 9.23002V9.23002C16.7456 9.23002 16.7456 9.23002 16.7456 9.23002C16.7456 9.23003 16.7456 9.23003 16.7456 9.23003V9.23003C16.7456 9.23003 16.7456 9.23003 16.7456 9.23003V9.23003C16.7456 9.23003 16.7456 9.23003 16.7456 9.23003C16.7456 9.23003 16.7456 9.23003 16.7456 9.23003V9.23003C16.7456 9.23003 16.7456 9.23003 16.7456 9.23003C16.7456 9.23003 16.7456 9.23003 16.7456 9.23003V9.23003C16.7456 9.23003 16.7456 9.23003 16.7456 9.23003C16.7456 9.23003 16.7456 9.23003 16.7456 9.23003V9.23003C16.7456 9.23003 16.7456 9.23003 16.7456 9.23003V9.23003C16.7456 9.23003 16.7456 9.23003 16.7456 9.23003C16.7456 9.23003 16.7456 9.23003 16.7456 9.23003V9.23003C16.7456 9.23003 16.7456 9.23003 16.7456 9.23003C16.7456 9.23003 16.7456 9.23003 16.7456 9.23003V9.23003C16.7456 9.23003 16.7456 9.23003 16.7456 9.23003V9.23003C16.7456 9.23003 16.7456 9.23003 16.7456 9.23003C16.7456 9.23003 16.7456 9.23003 16.7456 9.23003V9.23003C16.7456 9.23004 16.7456 9.23004 16.7456 9.23004C16.7456 9.23004 16.7456 9.23004 16.7456 9.23004V9.23004C16.7456 9.23004 16.7456 9.23004 16.7456 9.23004V9.23004C16.7456 9.23004 16.7456 9.23004 16.7456 9.23004C16.7456 9.23004 16.7456 9.23004 16.7456 9.23004V9.23004C16.7456 9.23004 16.7456 9.23004 16.7456 9.23004C16.7456 9.23004 16.7456 9.23004 16.7456 9.23004V9.23004C16.7456 9.23004 16.7456 9.23004 16.7456 9.23004V9.23004C16.7456 9.23004 16.7456 9.23004 16.7456 9.23004C16.7456 9.23004 16.7456 9.23004 16.7456 9.23004V9.23004C16.7456 9.23004 16.7456 9.23004 16.7456 9.23004C16.7456 9.23004 16.7456 9.23004 16.7456 9.23004V9.23004C16.7456 9.23004 16.7456 9.23004 16.7456 9.23004V9.23004C16.7456 9.23004 16.7456 9.23004 16.7456 9.23004C16.7456 9.23004 16.7456 9.23004 16.7456 9.23004V9.23004C16.7456 9.23004 16.7456 9.23004 16.7456 9.23004C16.7456 9.23004 16.7456 9.23004 16.7456 9.23005V9.23005C16.7456 9.23005 16.7456 9.23005 16.7456 9.23005V9.23005C16.7456 9.23005 16.7456 9.23005 16.7456 9.23005C16.7456 9.23005 16.7456 9.23005 16.7456 9.23005V9.23005C16.7456 9.23005 16.7456 9.23005 16.7456 9.23005C16.7456 9.23005 16.7456 9.23005 16.7456 9.23005V9.23005C16.7456 9.23005 16.7456 9.23005 16.7456 9.23005V9.23005C16.7456 9.23005 16.7456 9.23005 16.7456 9.23005C16.7456 9.23005 16.7456 9.23005 16.7456 9.23005V9.23005C16.7456 9.23005 16.7456 9.23005 16.7456 9.23005C16.7456 9.23005 16.7456 9.23005 16.7456 9.23005V9.23005C16.7456 9.23005 16.7456 9.23005 16.7456 9.23005V9.23005C16.7456 9.23005 16.7456 9.23005 16.7456 9.23005C16.7456 9.23005 16.7456 9.23005 16.7456 9.23005V9.23005C16.7456 9.23005 16.7456 9.23005 16.7456 9.23005C16.7456 9.23005 16.7456 9.23005 16.7456 9.23005V9.23005C16.7456 9.23005 16.7456 9.23005 16.7456 9.23006V9.23006C16.7456 9.23006 16.7456 9.23006 16.7456 9.23006C16.7456 9.23006 16.7456 9.23006 16.7456 9.23006V9.23006C16.7456 9.23006 16.7456 9.23006 16.7456 9.23006C16.7456 9.23006 16.7456 9.23006 16.7456 9.23006V9.23006C16.7456 9.23006 16.7456 9.23006 16.7456 9.23006V9.23006C16.7456 9.23006 16.7456 9.23006 16.7456 9.23006C16.7456 9.23006 16.7456 9.23006 16.7456 9.23006V9.23006C16.7456 9.23006 16.7456 9.23006 16.7456 9.23006C16.7456 9.23006 16.7456 9.23006 16.7456 9.23006V9.23006C16.7456 9.23006 16.7456 9.23006 16.7456 9.23006V9.23006C16.7456 9.23006 16.7456 9.23006 16.7456 9.23006C16.7456 9.23006 16.7456 9.23006 16.7456 9.23006V9.23006C16.7456 9.23006 16.7456 9.23006 16.7456 9.23006C16.7456 9.23006 16.7456 9.23006 16.7456 9.23006V9.23006C16.7456 9.23006 16.7456 9.23006 16.7456 9.23006V9.23006C16.7456 9.23006 16.7456 9.23007 16.7456 9.23007C16.7456 9.23007 16.7456 9.23007 16.7456 9.23007V9.23007C16.7456 9.23007 16.7456 9.23007 16.7456 9.23007C16.7456 9.23007 16.7456 9.23007 16.7456 9.23007V9.23007C16.7456 9.23007 16.7456 9.23007 16.7456 9.23007V9.23007C16.7456 9.23007 16.7456 9.23007 16.7456 9.23007C16.7456 9.23007 16.7456 9.23007 16.7456 9.23007V9.23007C16.7456 9.23007 16.7456 9.23007 16.7456 9.23007C16.7456 9.23007 16.7456 9.23007 16.7456 9.23007V9.23007C16.7456 9.23007 16.7456 9.23007 16.7456 9.23007V9.23007C16.7456 9.23007 16.7456 9.23007 16.7456 9.23007C16.7456 9.23007 16.7456 9.23007 16.7456 9.23007V9.23007C16.7456 9.23007 16.7456 9.23007 16.7456 9.23007C16.7456 9.23007 16.7456 9.23007 16.7456 9.23007V9.23007C16.7456 9.23007 16.7456 9.23007 16.7456 9.23007C16.7456 9.23007 16.7456 9.23007 16.7456 9.23007V9.23007C16.7456 9.23007 16.7456 9.23007 16.7456 9.23007V9.23008C16.7456 9.23008 16.7456 9.23008 16.7456 9.23008C16.7456 9.23008 16.7456 9.23008 16.7456 9.23008V9.23008C16.7456 9.23008 16.7456 9.23008 16.7456 9.23008C16.7456 9.23008 16.7456 9.23008 16.7456 9.23008V9.23008C16.7456 9.23008 16.7456 9.23008 16.7456 9.23008V9.23008C16.7456 9.23008 16.7456 9.23008 16.7456 9.23008C16.7456 9.23008 16.7456 9.23008 16.7456 9.23008V9.23008C16.7456 9.23008 16.7456 9.23008 16.7456 9.23008C16.7456 9.23008 16.7456 9.23008 16.7456 9.23008V9.23008C16.7456 9.23008 16.7456 9.23008 16.7456 9.23008V9.23008C16.7456 9.23008 16.7456 9.23008 16.7456 9.23008C16.7456 9.23008 16.7456 9.23008 16.7456 9.23008V9.23008C16.7456 9.23008 16.7456 9.23008 16.7456 9.23008C16.7456 9.23008 16.7456 9.23008 16.7456 9.23008V9.23008C16.7456 9.23008 16.7456 9.23008 16.7456 9.23008V9.23008C16.7456 9.23008 16.7456 9.23008 16.7456 9.23008C16.7456 9.23009 16.7456 9.23009 16.7456 9.23009V9.23009C16.7456 9.23009 16.7456 9.23009 16.7456 9.23009C16.7456 9.23009 16.7456 9.23009 16.7456 9.23009V9.23009C16.7456 9.23009 16.7456 9.23009 16.7456 9.23009V9.23009C16.7456 9.23009 16.7456 9.23009 16.7456 9.23009C16.7456 9.23009 16.7456 9.23009 16.7456 9.23009V9.23009C16.7456 9.23009 16.7456 9.23009 16.7456 9.23009C16.7456 9.23009 16.7456 9.23009 16.7456 9.23009V9.23009C16.7456 9.23009 16.7456 9.23009 16.7456 9.23009V9.23009C16.7456 9.23009 16.7456 9.23009 16.7456 9.23009C16.7456 9.23009 16.7456 9.23009 16.7456 9.23009V9.23009C16.7456 9.23009 16.7456 9.23009 16.7456 9.23009C16.7456 9.23009 16.7456 9.23009 16.7456 9.23009V9.23009C16.7456 9.23009 16.7456 9.23009 16.7456 9.23009V9.23009C16.7456 9.23009 16.7456 9.23009 16.7456 9.23009C16.7456 9.23009 16.7456 9.23009 16.7456 9.23009V9.23009C16.7456 9.2301 16.7456 9.2301 16.7456 9.2301C16.7456 9.2301 16.7456 9.2301 16.7456 9.2301V9.2301C16.7456 9.2301 16.7456 9.2301 16.7456 9.2301V9.2301C16.7456 9.2301 16.7456 9.2301 16.7456 9.2301C16.7456 9.2301 16.7456 9.2301 16.7456 9.2301V9.2301C16.7456 9.2301 16.7456 9.2301 16.7456 9.2301C16.7456 9.2301 16.7456 9.2301 16.7456 9.2301V9.2301C16.7456 9.2301 16.7456 9.2301 16.7456 9.2301C16.7456 9.2301 16.7456 9.2301 16.7456 9.2301V9.2301C16.7456 9.2301 16.7456 9.2301 16.7456 9.2301V9.2301C16.7456 9.2301 16.7456 9.2301 16.7456 9.2301C16.7456 9.2301 16.7456 9.2301 16.7456 9.2301V9.2301C16.7456 9.2301 16.7456 9.2301 16.7456 9.2301C16.7456 9.2301 16.7456 9.2301 16.7456 9.2301V9.2301C16.7456 9.2301 16.7456 9.2301 16.7456 9.2301V9.2301C16.7456 9.2301 16.7456 9.2301 16.7456 9.2301C16.7456 9.2301 16.7456 9.2301 16.7456 9.23011V9.23011C16.7456 9.23011 16.7456 9.23011 16.7456 9.23011C16.7456 9.23011 16.7456 9.23011 16.7456 9.23011V9.23011C16.7456 9.23011 16.7456 9.23011 16.7456 9.23011V9.23011C16.7456 9.23011 16.7456 9.23011 16.7456 9.23011C16.7456 9.23011 16.7456 9.23011 16.7456 9.23011V9.23011C16.7456 9.23011 16.7456 9.23011 16.7456 9.23011C16.7456 9.23011 16.7456 9.23011 16.7456 9.23011V9.23011C16.7456 9.23011 16.7456 9.23011 16.7456 9.23011V9.23011C16.7456 9.23011 16.7456 9.23011 16.7456 9.23011C16.7456 9.23011 16.7456 9.23011 16.7456 9.23011V9.23011C16.7456 9.23011 16.7456 9.23011 16.7456 9.23011C16.7456 9.23011 16.7456 9.23011 16.7456 9.23011V9.23011C16.7456 9.23011 16.7456 9.23011 16.7456 9.23011V9.23011C16.7456 9.23011 16.7456 9.23011 16.7456 9.23011C16.7456 9.23011 16.7456 9.23011 16.7456 9.23011V9.23011C16.7456 9.23011 16.7456 9.23011 16.7456 9.23012C16.7456 9.23012 16.7456 9.23012 16.7456 9.23012V9.23012C16.7456 9.23012 16.7456 9.23012 16.7456 9.23012C16.7456 9.23012 16.7456 9.23012 16.7456 9.23012V9.23012C16.7456 9.23012 16.7456 9.23012 16.7456 9.23012V9.23012C16.7456 9.23012 16.7456 9.23012 16.7456 9.23012C16.7456 9.23012 16.7456 9.23012 16.7456 9.23012V9.23012C16.7456 9.23012 16.7456 9.23012 16.7456 9.23012C16.7456 9.23012 16.7456 9.23012 16.7456 9.23012V9.23012C16.7456 9.23012 16.7456 9.23012 16.7456 9.23012V9.23012C16.7456 9.23012 16.7456 9.23012 16.7456 9.23012C16.7456 9.23012 16.7456 9.23012 16.7456 9.23012V9.23012C16.7456 9.23012 16.7456 9.23012 16.7456 9.23012C16.7456 9.23012 16.7456 9.23012 16.7456 9.23012V9.23012C16.7456 9.23012 16.7456 9.23012 16.7456 9.23012V9.23012C16.7456 9.23012 16.7456 9.23012 16.7456 9.23012C16.7456 9.23012 16.7456 9.23012 16.7456 9.23012V9.23013C16.7456 9.23013 16.7456 9.23013 16.7456 9.23013C16.7456 9.23013 16.7456 9.23013 16.7456 9.23013V9.23013C16.7456 9.23013 16.7456 9.23013 16.7456 9.23013V9.23013C16.7456 9.23013 16.7456 9.23013 16.7456 9.23013C16.7456 9.23013 16.7456 9.23013 16.7456 9.23013V9.23013C16.7456 9.23013 16.7456 9.23013 16.7456 9.23013H17.7456ZM17.7456 9.22993C17.7456 8.69546 17.4022 8.2768 16.9963 7.9747C16.581 7.66569 16.012 7.40857 15.3539 7.2014C14.0316 6.78522 12.2358 6.53564 10.2742 6.53564V7.53564C12.1628 7.53564 13.8527 7.77728 15.0536 8.15527C15.657 8.34519 16.109 8.5609 16.3993 8.77694C16.6988 8.99987 16.7456 9.15847 16.7456 9.22993H17.7456ZM10.2742 6.53564C8.31263 6.53564 6.51678 6.78522 5.19452 7.2014C4.53634 7.40857 3.96733 7.66569 3.55209 7.97469C3.14612 8.2768 2.80273 8.69545 2.80273 9.22993H3.80273C3.80273 9.15847 3.8495 8.99987 4.14909 8.77694C4.4394 8.5609 4.89135 8.34519 5.49476 8.15527C6.69568 7.77728 8.38556 7.53564 10.2742 7.53564V6.53564ZM2.80273 9.22993C2.80273 9.23111 2.80274 9.23227 2.80274 9.23342L3.80274 9.23053C3.80273 9.23032 3.80273 9.23012 3.80273 9.22993H2.80273ZM2.80823 9.15808L2.51135 11.1448L3.50037 11.2926L3.79725 9.30587L2.80823 9.15808ZM2.50586 11.2187C2.50586 11.6165 2.70202 11.9505 2.96233 12.2108C3.22078 12.4693 3.57253 12.6876 3.97351 12.8727L4.39256 11.9647C4.05068 11.8069 3.81384 11.6481 3.66942 11.5037C3.52686 11.3612 3.50586 11.2666 3.50586 11.2187H2.50586ZM3.96667 12.8695C4.08108 12.9244 4.15158 13.0361 4.15158 13.1616H5.15158C5.15158 12.647 4.85642 12.1873 4.3994 11.9679L3.96667 12.8695ZM4.15158 13.1616V16.9216H5.15158V13.1616H4.15158ZM4.15158 16.9216C4.15158 17.5977 4.70689 18.153 5.38302 18.153V17.153C5.25915 17.153 5.15158 17.0454 5.15158 16.9216H4.15158ZM5.38302 18.153C6.05915 18.153 6.61447 17.5977 6.61447 16.9216H5.61447C5.61447 17.0454 5.5069 17.153 5.38302 17.153V18.153ZM6.61447 16.9216V15.493H5.61447V16.9216H6.61447ZM6.61447 15.493C6.61447 15.2169 6.84001 14.9873 7.12019 14.9873V13.9873C6.28036 13.9873 5.61447 14.672 5.61447 15.493H6.61447ZM7.12019 14.9873C7.39632 14.9873 7.62591 15.2128 7.62591 15.493H8.62591C8.62591 14.6531 7.94119 13.9873 7.12019 13.9873V14.9873ZM7.62591 15.493V15.8358H8.62591V15.493H7.62591ZM7.62591 15.8358C7.62591 16.6148 8.26117 17.2501 9.04018 17.2501V16.2501C8.81347 16.2501 8.62591 16.0626 8.62591 15.8358H7.62591ZM9.04018 17.2501C9.81919 17.2501 10.4545 16.6148 10.4545 15.8358H9.45445C9.45445 16.0626 9.26688 16.2501 9.04018 16.2501V17.2501ZM10.4545 15.8358V14.2016H9.45445V15.8358H10.4545ZM10.4545 14.2016C10.4545 14.0229 10.6053 13.8787 10.7659 13.8787V12.8787C10.035 12.8787 9.45445 13.4888 9.45445 14.2016H10.4545ZM10.7659 13.8787C10.9715 13.8787 11.1646 13.873 11.2797 13.8697L11.2505 12.8701C11.1351 12.8735 10.9552 12.8787 10.7659 12.8787V13.8787ZM11.2797 13.8697C11.3058 13.8689 11.327 13.8683 11.3439 13.8678C11.3522 13.8676 11.3589 13.8675 11.364 13.8674C11.3695 13.8673 11.3716 13.8673 11.3716 13.8673V12.8673C11.3445 12.8673 11.2967 12.8687 11.2505 12.8701L11.2797 13.8697ZM11.4099 13.8658C11.4731 13.8609 11.5378 13.8584 11.6137 13.8555L11.5752 12.8562C11.5025 12.859 11.4187 12.8622 11.3332 12.8687L11.4099 13.8658ZM11.6137 13.8555C11.6864 13.8527 11.7702 13.8495 11.8557 13.8429L11.779 12.8459C11.7158 12.8507 11.6511 12.8533 11.5752 12.8562L11.6137 13.8555ZM11.8547 13.843C12.3202 13.8081 12.7724 13.7617 13.1967 13.7158L13.0893 12.7216C12.6678 12.7672 12.2287 12.8122 11.7799 12.8458L11.8547 13.843ZM13.2121 13.7139C13.3959 13.6883 13.5687 13.8353 13.5687 14.0301H14.5687C14.5687 13.2421 13.873 12.612 13.0739 12.7235L13.2121 13.7139ZM13.5687 14.0301V16.773H14.5687V14.0301H13.5687ZM13.5687 16.773C13.5687 17.4949 14.1583 18.0844 14.8802 18.0844V17.0844C14.7106 17.0844 14.5687 16.9425 14.5687 16.773H13.5687ZM14.8802 18.0844C15.602 18.0844 16.1916 17.4949 16.1916 16.773H15.1916C15.1916 16.9425 15.0498 17.0844 14.8802 17.0844V18.0844ZM16.1916 16.773V13.2301H15.1916V16.773H16.1916ZM16.1916 13.2301C16.1916 13.0968 16.2676 12.9859 16.3831 12.9389L16.0058 12.0128C15.5042 12.2172 15.1916 12.7006 15.1916 13.2301H16.1916ZM16.3877 12.937C16.8408 12.7472 17.2357 12.5197 17.5256 12.2513C17.814 11.9843 18.043 11.6324 18.043 11.2073H17.043C17.043 11.2507 17.0207 11.356 16.8462 11.5175C16.6732 11.6777 16.3939 11.8502 16.0013 12.0147L16.3877 12.937ZM18.0375 11.133L17.7403 9.15582L16.7514 9.30444L17.0486 11.2816L18.0375 11.133ZM17.2459 8.73013H17.2456V9.73013H17.2459V8.73013Z" fill="#2A1A5E" mask="url(#path-3-inside-2_202_6867)"/>
<mask id="path-5-inside-3_202_6867" fill="white">
<path fill-rule="evenodd" clip-rule="evenodd" d="M7.3489 2.03146L7.34861 2.03019C7.25718 1.66448 7.32572 1.44734 7.6 0.784478C7.87429 0.121621 7.93147 0.0416204 8.13718 0.0073347C8.3429 -0.026951 8.42286 0.0416207 8.88 0.590192C9.33714 1.13876 9.46283 1.32162 9.49712 1.69876C9.50134 1.75373 9.50166 1.80479 9.49937 1.8515C11.0857 1.39323 12.9366 2.18685 13.5196 3.98442L14.6395 7.44728C14.9938 8.54442 14.171 9.67585 13.0281 9.67585L9.38243 9.66442C7.49147 9.65631 6.17108 8.13249 6.12514 6.47624C6.0729 6.49712 6.01221 6.51688 5.9428 6.5329C5.57708 6.6129 5.34855 6.55576 4.69712 6.28147C4.04569 6.01861 3.95427 5.96147 3.91999 5.75576C3.89713 5.55004 3.95421 5.47004 4.50279 5.0129C5.05136 4.55576 5.23425 4.41862 5.61139 4.39576C5.62553 4.39471 5.63939 4.3939 5.65295 4.39332C5.4032 4.16313 5.25055 3.84434 4.97141 3.17265C4.59427 2.29265 4.57139 2.15551 4.73139 1.92694C4.89139 1.69836 5.04 1.68694 5.98857 1.76694C6.70516 1.82665 7.05879 1.87363 7.3489 2.03146Z"/>
</mask>
<path fill-rule="evenodd" clip-rule="evenodd" d="M7.3489 2.03146L7.34861 2.03019C7.25718 1.66448 7.32572 1.44734 7.6 0.784478C7.87429 0.121621 7.93147 0.0416204 8.13718 0.0073347C8.3429 -0.026951 8.42286 0.0416207 8.88 0.590192C9.33714 1.13876 9.46283 1.32162 9.49712 1.69876C9.50134 1.75373 9.50166 1.80479 9.49937 1.8515C11.0857 1.39323 12.9366 2.18685 13.5196 3.98442L14.6395 7.44728C14.9938 8.54442 14.171 9.67585 13.0281 9.67585L9.38243 9.66442C7.49147 9.65631 6.17108 8.13249 6.12514 6.47624C6.0729 6.49712 6.01221 6.51688 5.9428 6.5329C5.57708 6.6129 5.34855 6.55576 4.69712 6.28147C4.04569 6.01861 3.95427 5.96147 3.91999 5.75576C3.89713 5.55004 3.95421 5.47004 4.50279 5.0129C5.05136 4.55576 5.23425 4.41862 5.61139 4.39576C5.62553 4.39471 5.63939 4.3939 5.65295 4.39332C5.4032 4.16313 5.25055 3.84434 4.97141 3.17265C4.59427 2.29265 4.57139 2.15551 4.73139 1.92694C4.89139 1.69836 5.04 1.68694 5.98857 1.76694C6.70516 1.82665 7.05879 1.87363 7.3489 2.03146Z" fill="white"/>
<path d="M7.34861 2.03019L7.83583 1.91753L7.83368 1.90892L7.34861 2.03019ZM7.3489 2.03146L7.10996 2.47067L8.0865 3.00194L7.83605 1.91882L7.3489 2.03146ZM7.6 0.784478L7.138 0.593302L7.6 0.784478ZM8.88 0.590192L8.49589 0.910284V0.910285L8.88 0.590192ZM9.49712 1.69876L9.99569 1.66041L9.99506 1.6535L9.49712 1.69876ZM9.49937 1.8515L8.99997 1.82701L8.96568 2.52612L9.63814 2.33186L9.49937 1.8515ZM13.5196 3.98442L13.9953 3.83056L13.9952 3.83017L13.5196 3.98442ZM14.6395 7.44728L15.1153 7.29363L15.1153 7.29341L14.6395 7.44728ZM13.0281 9.67585L13.0266 10.1759H13.0281V9.67585ZM9.38243 9.66442L9.38028 10.1644L9.38086 10.1644L9.38243 9.66442ZM6.12514 6.47624L6.62495 6.46238L6.60508 5.74596L5.93957 6.01195L6.12514 6.47624ZM5.9428 6.5329L6.04965 7.02138L6.05523 7.0201L5.9428 6.5329ZM4.69712 6.28147L4.89117 5.8206L4.88422 5.8178L4.69712 6.28147ZM3.91999 5.75576L3.42305 5.81097L3.42455 5.82452L3.42679 5.83796L3.91999 5.75576ZM4.50279 5.0129L4.82288 5.39701L4.50279 5.0129ZM5.61139 4.39576L5.64164 4.89489L5.64833 4.89439L5.61139 4.39576ZM5.65295 4.39332L5.67459 4.89285L6.87623 4.8408L5.99181 4.02565L5.65295 4.39332ZM4.97141 3.17265L5.43316 2.98076L5.43098 2.97569L4.97141 3.17265ZM4.73139 1.92694L5.141 2.21367L5.141 2.21367L4.73139 1.92694ZM5.98857 1.76694L5.94655 2.26517L5.94705 2.26521L5.98857 1.76694ZM6.86146 2.14284L6.86176 2.14411L7.83605 1.91882L7.83576 1.91755L6.86146 2.14284ZM7.138 0.593302C7.00452 0.915861 6.8999 1.17785 6.84871 1.41194C6.79064 1.67744 6.80105 1.90153 6.86354 2.15146L7.83368 1.90892C7.80474 1.79314 7.8037 1.7258 7.82562 1.62559C7.85441 1.49396 7.9212 1.31595 8.06201 0.975654L7.138 0.593302ZM8.05498 -0.485862C7.97883 -0.47317 7.8671 -0.4489 7.75163 -0.381015C7.63324 -0.311411 7.5486 -0.218706 7.48343 -0.124721C7.37171 0.0363838 7.26769 0.279867 7.138 0.593302L8.06201 0.975654C8.13036 0.810472 8.18181 0.689886 8.22399 0.599289C8.26737 0.506126 8.29249 0.463422 8.30519 0.445105C8.31431 0.431947 8.29968 0.456795 8.25844 0.481041C8.22012 0.503569 8.19268 0.504982 8.21938 0.500532L8.05498 -0.485862ZM9.26411 0.2701C9.04898 0.0119419 8.8776 -0.190737 8.72468 -0.311815C8.63574 -0.382232 8.52628 -0.448134 8.3895 -0.48009C8.25428 -0.511681 8.13639 -0.49943 8.05498 -0.485862L8.21938 0.500532C8.24084 0.496956 8.21008 0.504921 8.162 0.493688C8.11235 0.48209 8.09003 0.461188 8.10393 0.472199C8.12225 0.486701 8.15938 0.520981 8.22894 0.598004C8.29656 0.672868 8.38158 0.77312 8.49589 0.910284L9.26411 0.2701ZM9.99506 1.6535C9.97224 1.40246 9.91381 1.19115 9.78055 0.959468C9.66231 0.753897 9.48719 0.537793 9.26411 0.2701L8.49589 0.910285C8.72995 1.19116 8.84625 1.34077 8.91371 1.45806C8.96615 1.54923 8.9877 1.61792 8.99917 1.74403L9.99506 1.6535ZM9.99877 1.876C10.002 1.80919 10.0015 1.73712 9.99564 1.66042L8.99859 1.73711C9.00114 1.77034 9.00128 1.80039 8.99997 1.82701L9.99877 1.876ZM13.9952 3.83017C13.3217 1.75367 11.1831 0.844652 9.3606 1.37114L9.63814 2.33186C10.9883 1.94181 12.5514 2.62003 13.044 4.13868L13.9952 3.83017ZM15.1153 7.29341L13.9953 3.83056L13.0438 4.13829L14.1638 7.60115L15.1153 7.29341ZM13.0281 10.1759C14.5129 10.1759 15.5731 8.71122 15.1153 7.29363L14.1637 7.60093C14.4145 8.37762 13.8291 9.17585 13.0281 9.17585V10.1759ZM9.38086 10.1644L13.0266 10.1758L13.0297 9.17585L9.38399 9.16442L9.38086 10.1644ZM5.62533 6.4901C5.67807 8.39155 7.19546 10.155 9.38028 10.1644L9.38457 9.16443C7.78749 9.15757 6.66408 7.87343 6.62495 6.46238L5.62533 6.4901ZM6.05523 7.0201C6.15032 6.99815 6.23543 6.97062 6.31071 6.94053L5.93957 6.01195C5.91036 6.02362 5.87411 6.03561 5.83037 6.04571L6.05523 7.0201ZM4.50309 6.74229C4.82625 6.87836 5.08726 6.97975 5.32467 7.02944C5.58755 7.08446 5.8081 7.07419 6.04965 7.02135L5.83595 6.04445C5.71178 6.07161 5.63521 6.07277 5.52954 6.05065C5.39839 6.0232 5.21942 5.95887 4.89115 5.82065L4.50309 6.74229ZM3.42679 5.83796C3.44043 5.91978 3.46688 6.03321 3.53817 6.14932C3.61021 6.26666 3.70475 6.34944 3.79851 6.41237C3.96019 6.52086 4.20285 6.6212 4.51002 6.74515L4.88422 5.8178C4.72154 5.75215 4.60213 5.70266 4.51168 5.66177C4.41875 5.61975 4.37518 5.59505 4.35574 5.58201C4.34093 5.57207 4.36548 5.58557 4.39038 5.62612C4.41452 5.66545 4.41669 5.6946 4.41318 5.67356L3.42679 5.83796ZM4.18269 4.62879C3.92215 4.84591 3.72264 5.01705 3.6024 5.17168C3.53255 5.2615 3.47068 5.36779 3.43871 5.49785C3.40755 5.62463 3.41469 5.73579 3.42305 5.81097L4.41693 5.70054C4.41385 5.67287 4.41956 5.69689 4.40981 5.73652C4.39927 5.77944 4.38166 5.79859 4.3918 5.78555C4.40574 5.76762 4.43905 5.73078 4.51423 5.66213C4.58745 5.59528 4.68648 5.51067 4.82288 5.39701L4.18269 4.62879ZM5.58115 3.89667C5.31985 3.91251 5.10293 3.97322 4.86921 4.10972C4.66443 4.22932 4.44749 4.40812 4.18269 4.62879L4.82288 5.39701C5.10665 5.16054 5.25544 5.0422 5.37354 4.97323C5.4627 4.92116 5.52579 4.90186 5.64164 4.89484L5.58115 3.89667ZM5.63131 3.89378C5.61267 3.89459 5.59372 3.8957 5.57445 3.89712L5.64833 4.89439C5.65735 4.89372 5.66611 4.89321 5.67459 4.89285L5.63131 3.89378ZM4.5097 3.36453C4.77928 4.01322 4.96904 4.44296 5.31409 4.76098L5.99181 4.02565C5.83736 3.88331 5.72183 3.67545 5.43313 2.98077L4.5097 3.36453ZM4.32177 1.64021C4.26632 1.71943 4.19857 1.82964 4.16285 1.97474C4.12648 2.12247 4.1332 2.26439 4.15877 2.39889C4.204 2.63683 4.33049 2.94646 4.51184 3.36961L5.43098 2.97569C5.23519 2.51884 5.16166 2.3199 5.14117 2.21212C5.13388 2.17377 5.1413 2.18355 5.13386 2.21377C5.12707 2.24138 5.11646 2.24873 5.141 2.21367L4.32177 1.64021ZM6.03059 1.2687C5.57669 1.23042 5.24249 1.20578 5.00374 1.2349C4.86917 1.25131 4.72932 1.2877 4.59734 1.37C4.46583 1.45202 4.38083 1.55583 4.32177 1.64021L5.141 2.21367C5.16194 2.18375 5.15552 2.20043 5.12652 2.21851C5.09705 2.23689 5.08364 2.23256 5.12479 2.22755C5.23749 2.2138 5.45188 2.22345 5.94655 2.26517L6.03059 1.2687ZM7.58785 1.59225C7.18796 1.3747 6.72093 1.32623 6.03009 1.26866L5.94705 2.26521C6.6894 2.32707 6.92962 2.37256 7.10996 2.47067L7.58785 1.59225Z" fill="#2A1A5E" mask="url(#path-5-inside-3_202_6867)"/>
</svg>
