<svg width="20" height="27" viewBox="0 0 20 27" fill="none" xmlns="http://www.w3.org/2000/svg">
<path d="M8.19583 1.00325C8.10305 1.3354 8.06529 1.66571 8.09189 2.00143C8.14818 2.71185 8.48938 3.40514 9.11894 4.15746C9.74826 4.9108 9.67273 5.80374 9.40809 6.5539C9.34288 6.73873 9.26709 6.91174 9.18987 7.06752C9.14334 6.75815 9.03036 6.41255 8.7847 6.10721C8.62108 5.90231 8.41551 5.73326 8.22071 5.57872C8.19437 5.55782 8.1682 5.53717 8.14223 5.51668C7.96973 5.38054 7.80587 5.25122 7.65603 5.10107C7.32801 4.77236 7.07257 4.34915 7.10655 3.5969L7.10656 3.59661C7.1535 2.52926 7.63598 1.68309 8.11679 1.0973C8.1432 1.06512 8.16957 1.03377 8.19583 1.00325Z" stroke="#2A1A5E" stroke-width="0.5"/>
<mask id="path-2-inside-1_202_6762" fill="white">
<path d="M9.85352 3C9.85352 3 10.8243 3.9007 10.8483 5.11469C10.8724 6.32867 10.0746 7 10.0746 7C10.0746 7 12.4343 6.31189 11.7182 4.3035C11.3289 3.20699 9.85352 3 9.85352 3Z"/>
</mask>
<path d="M9.85352 3L9.92298 2.50485L8.34627 2.28365L9.51344 3.36654L9.85352 3ZM10.0746 7L9.75267 6.61743L10.2146 7.48001L10.0746 7ZM11.7182 4.3035L11.247 4.47078L11.2473 4.47142L11.7182 4.3035ZM9.85352 3C9.51344 3.36654 9.51333 3.36643 9.51322 3.36633C9.51319 3.3663 9.51308 3.3662 9.51302 3.36614C9.51289 3.36602 9.51277 3.36592 9.51267 3.36582C9.51247 3.36564 9.51233 3.3655 9.51224 3.36542C9.51207 3.36526 9.51212 3.36531 9.51239 3.36556C9.51292 3.36607 9.51433 3.3674 9.51654 3.36955C9.52097 3.37384 9.52862 3.38135 9.53905 3.39193C9.55993 3.41313 9.59174 3.44647 9.63092 3.49081C9.70965 3.57989 9.81609 3.71105 9.92306 3.87514C10.1407 4.20907 10.339 4.64594 10.3484 5.12458L11.3483 5.10479C11.3337 4.36945 11.0345 3.74897 10.7608 3.32905C10.622 3.11623 10.4843 2.94633 10.3802 2.8286C10.328 2.76953 10.2838 2.72302 10.2515 2.69022C10.2353 2.6738 10.2221 2.66077 10.2123 2.65128C10.2074 2.64653 10.2034 2.64266 10.2002 2.63968C10.1986 2.6382 10.1973 2.63693 10.1962 2.63589C10.1956 2.63538 10.1951 2.63491 10.1947 2.63451C10.1945 2.6343 10.1943 2.63412 10.1941 2.63394C10.194 2.63385 10.1939 2.63373 10.1938 2.63369C10.1937 2.63357 10.1936 2.63346 9.85352 3ZM10.3484 5.12458C10.3582 5.61543 10.2026 5.99352 10.0445 6.25076C9.96517 6.37984 9.88594 6.47703 9.82881 6.53991C9.80037 6.57121 9.77781 6.59357 9.76403 6.60669C9.75716 6.61323 9.75252 6.61743 9.75049 6.61924C9.74948 6.62015 9.74912 6.62045 9.74947 6.62015C9.74964 6.62 9.74999 6.6197 9.75052 6.61925C9.75079 6.61902 9.7511 6.61876 9.75145 6.61845C9.75163 6.6183 9.75182 6.61814 9.75203 6.61797C9.75213 6.61789 9.75229 6.61775 9.75234 6.61771C9.7525 6.61757 9.75267 6.61743 10.0746 7C10.3965 7.38257 10.3967 7.38243 10.3969 7.38228C10.3969 7.38222 10.3971 7.38207 10.3972 7.38197C10.3975 7.38176 10.3978 7.38153 10.398 7.3813C10.3986 7.38083 10.3992 7.38032 10.3998 7.37977C10.4011 7.37866 10.4026 7.37738 10.4043 7.37592C10.4077 7.37301 10.4118 7.36939 10.4166 7.36509C10.4263 7.35647 10.4387 7.34506 10.4536 7.33088C10.4834 7.30254 10.523 7.26297 10.5689 7.21237C10.6606 7.11143 10.7794 6.96491 10.8964 6.77442C11.1312 6.39249 11.3626 5.82793 11.3483 5.10479L10.3484 5.12458ZM10.0746 7C10.2146 7.48001 10.2148 7.47995 10.215 7.47988C10.2151 7.47986 10.2153 7.47979 10.2155 7.47974C10.2158 7.47964 10.2162 7.47952 10.2166 7.4794C10.2175 7.47915 10.2185 7.47886 10.2196 7.47853C10.2218 7.47786 10.2246 7.477 10.228 7.47597C10.2348 7.4739 10.2437 7.4711 10.2547 7.46754C10.2767 7.46044 10.3069 7.45029 10.344 7.43692C10.4181 7.41025 10.5204 7.37043 10.6398 7.31594C10.8758 7.20817 11.1917 7.03704 11.4878 6.78672C11.784 6.53625 12.0776 6.19177 12.2358 5.73619C12.3971 5.27191 12.4028 4.73482 12.1892 4.13558L11.2473 4.47142C11.3916 4.87637 11.371 5.17844 11.2912 5.40804C11.2084 5.64634 11.0463 5.85047 10.8421 6.02307C10.6378 6.19583 10.4085 6.32225 10.2245 6.40626C10.1338 6.44767 10.0573 6.4773 10.0051 6.4961C9.97913 6.50547 9.95937 6.51207 9.94714 6.51602C9.94103 6.518 9.93682 6.5193 9.93468 6.51996C9.93361 6.52029 9.93305 6.52046 9.93304 6.52046C9.93303 6.52046 9.93315 6.52042 9.93342 6.52035C9.93355 6.52031 9.93372 6.52026 9.93392 6.5202C9.93402 6.52017 9.9342 6.52012 9.93425 6.5201C9.93443 6.52005 9.93462 6.51999 10.0746 7ZM12.1894 4.13622C11.9289 3.40236 11.3179 2.99841 10.8459 2.78498C10.6037 2.67543 10.3778 2.6065 10.2128 2.56475C10.1297 2.54374 10.0607 2.52926 10.0109 2.51981C9.98598 2.51507 9.96577 2.51158 9.95092 2.50915C9.94349 2.50794 9.9374 2.50699 9.93272 2.50628C9.93038 2.50592 9.92839 2.50563 9.92677 2.50539C9.92595 2.50527 9.92523 2.50517 9.9246 2.50508C9.92428 2.50503 9.92399 2.50499 9.92372 2.50495C9.92359 2.50493 9.9234 2.50491 9.92333 2.5049C9.92316 2.50487 9.92298 2.50485 9.85352 3C9.78405 3.49515 9.78389 3.49513 9.78373 3.49511C9.78369 3.4951 9.78353 3.49508 9.78344 3.49507C9.78326 3.49504 9.78311 3.49502 9.78297 3.495C9.7827 3.49496 9.78251 3.49493 9.78241 3.49492C9.7822 3.49489 9.78234 3.49491 9.7828 3.49498C9.78373 3.49512 9.78596 3.49546 9.78944 3.49603C9.7964 3.49717 9.80826 3.4992 9.82444 3.50227C9.85686 3.50842 9.90612 3.51867 9.96748 3.5342C10.0913 3.56553 10.2586 3.61687 10.4339 3.69614C10.7969 3.86033 11.1183 4.10813 11.247 4.47078L12.1894 4.13622Z" fill="#2A1A5E" mask="url(#path-2-inside-1_202_6762)"/>
<mask id="path-4-inside-2_202_6762" fill="white">
<path fill-rule="evenodd" clip-rule="evenodd" d="M1.78711 16.1487H17.9333V23.5448H17.9329C17.9329 23.5448 17.9329 23.5448 17.9329 23.5448C17.9329 25.4531 14.3164 27.0001 9.85512 27.0001C5.39388 27.0001 1.77734 25.4531 1.77734 23.5448C1.77734 23.4874 1.78062 23.4302 1.78711 23.3734V16.1487Z"/>
</mask>
<path d="M17.9333 16.1487H18.4333V15.6487H17.9333V16.1487ZM1.78711 16.1487V15.6487H1.28711V16.1487H1.78711ZM17.9333 23.5448V24.0448H18.4333V23.5448H17.9333ZM17.9329 23.5448V23.0448H17.4329V23.5448H17.9329ZM1.78711 23.3734L2.28388 23.4302L2.28711 23.4019V23.3734H1.78711ZM17.9333 15.6487H1.78711V16.6487H17.9333V15.6487ZM18.4333 23.5448V16.1487H17.4333V23.5448H18.4333ZM17.9329 24.0448H17.9333V23.0448H17.9329V24.0448ZM18.4329 23.5448V23.5448V23.5448V23.5448V23.5448V23.5448V23.5448V23.5448V23.5448V23.5448V23.5448V23.5448V23.5448V23.5448V23.5448V23.5448V23.5448C18.4329 23.5448 18.4329 23.5448 18.4329 23.5448C18.4329 23.5448 18.4329 23.5448 18.4329 23.5448C18.4329 23.5448 18.4329 23.5448 18.4329 23.5448C18.4329 23.5448 18.4329 23.5448 18.4329 23.5448C18.4329 23.5448 18.4329 23.5448 18.4329 23.5448C18.4329 23.5448 18.4329 23.5448 18.4329 23.5448C18.4329 23.5448 18.4329 23.5448 18.4329 23.5448C18.4329 23.5448 18.4329 23.5448 18.4329 23.5448C18.4329 23.5448 18.4329 23.5448 18.4329 23.5448C18.4329 23.5448 18.4329 23.5448 18.4329 23.5448C18.4329 23.5448 18.4329 23.5448 18.4329 23.5448C18.4329 23.5448 18.4329 23.5448 18.4329 23.5448C18.4329 23.5448 18.4329 23.5448 18.4329 23.5448C18.4329 23.5448 18.4329 23.5448 18.4329 23.5448C18.4329 23.5448 18.4329 23.5448 18.4329 23.5448C18.4329 23.5448 18.4329 23.5448 18.4329 23.5448C18.4329 23.5448 18.4329 23.5448 18.4329 23.5448C18.4329 23.5448 18.4329 23.5448 18.4329 23.5448C18.4329 23.5448 18.4329 23.5448 18.4329 23.5448C18.4329 23.5448 18.4329 23.5448 18.4329 23.5448C18.4329 23.5448 18.4329 23.5448 18.4329 23.5448C18.4329 23.5448 18.4329 23.5448 18.4329 23.5448C18.4329 23.5448 18.4329 23.5448 18.4329 23.5448C18.4329 23.5448 18.4329 23.5448 18.4329 23.5448C18.4329 23.5448 18.4329 23.5448 18.4329 23.5448C18.4329 23.5448 18.4329 23.5448 18.4329 23.5448C18.4329 23.5448 18.4329 23.5448 18.4329 23.5448C18.4329 23.5448 18.4329 23.5448 18.4329 23.5448C18.4329 23.5448 18.4329 23.5448 18.4329 23.5448C18.4329 23.5448 18.4329 23.5448 18.4329 23.5448C18.4329 23.5448 18.4329 23.5448 18.4329 23.5448V23.5448V23.5448V23.5448V23.5448V23.5448V23.5448V23.5448V23.5448V23.5448V23.5448V23.5448V23.5448C18.4329 23.5448 18.4329 23.5448 18.4329 23.5448C18.4329 23.5448 18.4329 23.5448 18.4329 23.5448C18.4329 23.5448 18.4329 23.5448 18.4329 23.5448C18.4329 23.5448 18.4329 23.5448 18.4329 23.5448C18.4329 23.5448 18.4329 23.5448 18.4329 23.5448C18.4329 23.5448 18.4329 23.5448 18.4329 23.5448C18.4329 23.5448 18.4329 23.5448 18.4329 23.5448C18.4329 23.5448 18.4329 23.5448 18.4329 23.5448C18.4329 23.5448 18.4329 23.5448 18.4329 23.5448C18.4329 23.5448 18.4329 23.5448 18.4329 23.5448C18.4329 23.5448 18.4329 23.5448 18.4329 23.5448C18.4329 23.5448 18.4329 23.5448 18.4329 23.5448C18.4329 23.5448 18.4329 23.5448 18.4329 23.5448C18.4329 23.5448 18.4329 23.5448 18.4329 23.5448C18.4329 23.5448 18.4329 23.5448 18.4329 23.5448C18.4329 23.5448 18.4329 23.5448 18.4329 23.5448C18.4329 23.5448 18.4329 23.5448 18.4329 23.5448C18.4329 23.5448 18.4329 23.5448 18.4329 23.5448C18.4329 23.5448 18.4329 23.5448 18.4329 23.5448C18.4329 23.5448 18.4329 23.5448 18.4329 23.5448C18.4329 23.5448 18.4329 23.5448 18.4329 23.5448C18.4329 23.5448 18.4329 23.5448 18.4329 23.5448V23.5448V23.5448V23.5448V23.5448V23.5448V23.5448V23.5448V23.5448V23.5448V23.5448C18.4329 23.5448 18.4329 23.5448 18.4329 23.5448C18.4329 23.5448 18.4329 23.5448 18.4329 23.5448C18.4329 23.5448 18.4329 23.5448 18.4329 23.5448C18.4329 23.5448 18.4329 23.5448 18.4329 23.5448C18.4329 23.5448 18.4329 23.5448 18.4329 23.5448C18.4329 23.5448 18.4329 23.5448 18.4329 23.5448C18.4329 23.5448 18.4329 23.5448 18.4329 23.5448C18.4329 23.5448 18.4329 23.5448 18.4329 23.5448C18.4329 23.5448 18.4329 23.5448 18.4329 23.5448C18.4329 23.5448 18.4329 23.5448 18.4329 23.5448C18.4329 23.5448 18.4329 23.5448 18.4329 23.5448C18.4329 23.5448 18.4329 23.5448 18.4329 23.5448C18.4329 23.5448 18.4329 23.5448 18.4329 23.5448C18.4329 23.5448 18.4329 23.5448 18.4329 23.5448C18.4329 23.5448 18.4329 23.5448 18.4329 23.5448C18.4329 23.5448 18.4329 23.5448 18.4329 23.5448C18.4329 23.5448 18.4329 23.5448 18.4329 23.5448C18.4329 23.5448 18.4329 23.5448 18.4329 23.5448C18.4329 23.5448 18.4329 23.5448 18.4329 23.5448C18.4329 23.5448 18.4329 23.5448 18.4329 23.5448C18.4329 23.5448 18.4329 23.5448 18.4329 23.5448C18.4329 23.5448 18.4329 23.5448 18.4329 23.5448V23.5448V23.5448V23.5448V23.5448V23.5448V23.5448V23.5448V23.5448V23.5448V23.5448V23.5448V23.5448C18.4329 23.5448 18.4329 23.5448 18.4329 23.5448C18.4329 23.5448 18.4329 23.5448 18.4329 23.5448C18.4329 23.5448 18.4329 23.5448 18.4329 23.5448C18.4329 23.5448 18.4329 23.5448 18.4329 23.5448C18.4329 23.5448 18.4329 23.5448 18.4329 23.5448C18.4329 23.5448 18.4329 23.5448 18.4329 23.5448C18.4329 23.5448 18.4329 23.5448 18.4329 23.5448C18.4329 23.5448 18.4329 23.5448 18.4329 23.5448C18.4329 23.5448 18.4329 23.5448 18.4329 23.5448C18.4329 23.5448 18.4329 23.5448 18.4329 23.5448C18.4329 23.5448 18.4329 23.5448 18.4329 23.5448C18.4329 23.5448 18.4329 23.5448 18.4329 23.5448C18.4329 23.5448 18.4329 23.5448 18.4329 23.5448C18.4329 23.5448 18.4329 23.5448 18.4329 23.5448C18.4329 23.5448 18.4329 23.5448 18.4329 23.5448C18.4329 23.5448 18.4329 23.5448 18.4329 23.5448C18.4329 23.5448 18.4329 23.5448 18.4329 23.5448C18.4329 23.5448 18.4329 23.5448 18.4329 23.5448C18.4329 23.5448 18.4329 23.5448 18.4329 23.5448C18.4329 23.5448 18.4329 23.5448 18.4329 23.5448C18.4329 23.5448 18.4329 23.5448 18.4329 23.5448C18.4329 23.5448 18.4329 23.5448 18.4329 23.5448C18.4329 23.5448 18.4329 23.5448 18.4329 23.5448C18.4329 23.5448 18.4329 23.5448 18.4329 23.5448C18.4329 23.5448 18.4329 23.5448 18.4329 23.5448C18.4329 23.5448 18.4329 23.5448 18.4329 23.5448C18.4329 23.5448 18.4329 23.5448 18.4329 23.5448C18.4329 23.5448 18.4329 23.5448 18.4329 23.5448C18.4329 23.5448 18.4329 23.5448 18.4329 23.5448C18.4329 23.5448 18.4329 23.5448 18.4329 23.5448C18.4329 23.5448 18.4329 23.5448 18.4329 23.5448V23.5448V23.5448V23.5448V23.5448V23.5448V23.5448V23.5448V23.5448V23.5448V23.5448V23.5448V23.5448V23.5448V23.5448V23.5448V23.5448H17.4329V23.5448V23.5448V23.5448V23.5448V23.5448V23.5448V23.5448V23.5448V23.5448V23.5448V23.5448V23.5448V23.5448V23.5448V23.5448V23.5448C17.4329 23.5448 17.4329 23.5448 17.4329 23.5448C17.4329 23.5448 17.4329 23.5448 17.4329 23.5448C17.4329 23.5448 17.4329 23.5448 17.4329 23.5448C17.4329 23.5448 17.4329 23.5448 17.4329 23.5448C17.4329 23.5448 17.4329 23.5448 17.4329 23.5448C17.4329 23.5448 17.4329 23.5448 17.4329 23.5448C17.4329 23.5448 17.4329 23.5448 17.4329 23.5448C17.4329 23.5448 17.4329 23.5448 17.4329 23.5448C17.4329 23.5448 17.4329 23.5448 17.4329 23.5448C17.4329 23.5448 17.4329 23.5448 17.4329 23.5448C17.4329 23.5448 17.4329 23.5448 17.4329 23.5448C17.4329 23.5448 17.4329 23.5448 17.4329 23.5448C17.4329 23.5448 17.4329 23.5448 17.4329 23.5448C17.4329 23.5448 17.4329 23.5448 17.4329 23.5448C17.4329 23.5448 17.4329 23.5448 17.4329 23.5448C17.4329 23.5448 17.4329 23.5448 17.4329 23.5448C17.4329 23.5448 17.4329 23.5448 17.4329 23.5448C17.4329 23.5448 17.4329 23.5448 17.4329 23.5448C17.4329 23.5448 17.4329 23.5448 17.4329 23.5448C17.4329 23.5448 17.4329 23.5448 17.4329 23.5448C17.4329 23.5448 17.4329 23.5448 17.4329 23.5448C17.4329 23.5448 17.4329 23.5448 17.4329 23.5448C17.4329 23.5448 17.4329 23.5448 17.4329 23.5448C17.4329 23.5448 17.4329 23.5448 17.4329 23.5448C17.4329 23.5448 17.4329 23.5448 17.4329 23.5448C17.4329 23.5448 17.4329 23.5448 17.4329 23.5448C17.4329 23.5448 17.4329 23.5448 17.4329 23.5448C17.4329 23.5448 17.4329 23.5448 17.4329 23.5448C17.4329 23.5448 17.4329 23.5448 17.4329 23.5448C17.4329 23.5448 17.4329 23.5448 17.4329 23.5448C17.4329 23.5448 17.4329 23.5448 17.4329 23.5448V23.5448V23.5448V23.5448V23.5448V23.5448V23.5448V23.5448V23.5448V23.5448V23.5448V23.5448V23.5448C17.4329 23.5448 17.4329 23.5448 17.4329 23.5448C17.4329 23.5448 17.4329 23.5448 17.4329 23.5448C17.4329 23.5448 17.4329 23.5448 17.4329 23.5448C17.4329 23.5448 17.4329 23.5448 17.4329 23.5448C17.4329 23.5448 17.4329 23.5448 17.4329 23.5448C17.4329 23.5448 17.4329 23.5448 17.4329 23.5448C17.4329 23.5448 17.4329 23.5448 17.4329 23.5448C17.4329 23.5448 17.4329 23.5448 17.4329 23.5448C17.4329 23.5448 17.4329 23.5448 17.4329 23.5448C17.4329 23.5448 17.4329 23.5448 17.4329 23.5448C17.4329 23.5448 17.4329 23.5448 17.4329 23.5448C17.4329 23.5448 17.4329 23.5448 17.4329 23.5448C17.4329 23.5448 17.4329 23.5448 17.4329 23.5448C17.4329 23.5448 17.4329 23.5448 17.4329 23.5448C17.4329 23.5448 17.4329 23.5448 17.4329 23.5448C17.4329 23.5448 17.4329 23.5448 17.4329 23.5448C17.4329 23.5448 17.4329 23.5448 17.4329 23.5448C17.4329 23.5448 17.4329 23.5448 17.4329 23.5448C17.4329 23.5448 17.4329 23.5448 17.4329 23.5448C17.4329 23.5448 17.4329 23.5448 17.4329 23.5448C17.4329 23.5448 17.4329 23.5448 17.4329 23.5448C17.4329 23.5448 17.4329 23.5448 17.4329 23.5448V23.5448V23.5448V23.5448V23.5448V23.5448V23.5448V23.5448V23.5448V23.5448V23.5448C17.4329 23.5448 17.4329 23.5448 17.4329 23.5448C17.4329 23.5448 17.4329 23.5448 17.4329 23.5448C17.4329 23.5448 17.4329 23.5448 17.4329 23.5448C17.4329 23.5448 17.4329 23.5448 17.4329 23.5448C17.4329 23.5448 17.4329 23.5448 17.4329 23.5448C17.4329 23.5448 17.4329 23.5448 17.4329 23.5448C17.4329 23.5448 17.4329 23.5448 17.4329 23.5448C17.4329 23.5448 17.4329 23.5448 17.4329 23.5448C17.4329 23.5448 17.4329 23.5448 17.4329 23.5448C17.4329 23.5448 17.4329 23.5448 17.4329 23.5448C17.4329 23.5448 17.4329 23.5448 17.4329 23.5448C17.4329 23.5448 17.4329 23.5448 17.4329 23.5448C17.4329 23.5448 17.4329 23.5448 17.4329 23.5448C17.4329 23.5448 17.4329 23.5448 17.4329 23.5448C17.4329 23.5448 17.4329 23.5448 17.4329 23.5448C17.4329 23.5448 17.4329 23.5448 17.4329 23.5448C17.4329 23.5448 17.4329 23.5448 17.4329 23.5448C17.4329 23.5448 17.4329 23.5448 17.4329 23.5448C17.4329 23.5448 17.4329 23.5448 17.4329 23.5448C17.4329 23.5448 17.4329 23.5448 17.4329 23.5448C17.4329 23.5448 17.4329 23.5448 17.4329 23.5448C17.4329 23.5448 17.4329 23.5448 17.4329 23.5448V23.5448V23.5448V23.5448V23.5448V23.5448V23.5448V23.5448V23.5448V23.5448V23.5448V23.5448V23.5448C17.4329 23.5448 17.4329 23.5448 17.4329 23.5448C17.4329 23.5448 17.4329 23.5448 17.4329 23.5448C17.4329 23.5448 17.4329 23.5448 17.4329 23.5448C17.4329 23.5448 17.4329 23.5448 17.4329 23.5448C17.4329 23.5448 17.4329 23.5448 17.4329 23.5448C17.4329 23.5448 17.4329 23.5448 17.4329 23.5448C17.4329 23.5448 17.4329 23.5448 17.4329 23.5448C17.4329 23.5448 17.4329 23.5448 17.4329 23.5448C17.4329 23.5448 17.4329 23.5448 17.4329 23.5448C17.4329 23.5448 17.4329 23.5448 17.4329 23.5448C17.4329 23.5448 17.4329 23.5448 17.4329 23.5448C17.4329 23.5448 17.4329 23.5448 17.4329 23.5448C17.4329 23.5448 17.4329 23.5448 17.4329 23.5448C17.4329 23.5448 17.4329 23.5448 17.4329 23.5448C17.4329 23.5448 17.4329 23.5448 17.4329 23.5448C17.4329 23.5448 17.4329 23.5448 17.4329 23.5448C17.4329 23.5448 17.4329 23.5448 17.4329 23.5448C17.4329 23.5448 17.4329 23.5448 17.4329 23.5448C17.4329 23.5448 17.4329 23.5448 17.4329 23.5448C17.4329 23.5448 17.4329 23.5448 17.4329 23.5448C17.4329 23.5448 17.4329 23.5448 17.4329 23.5448C17.4329 23.5448 17.4329 23.5448 17.4329 23.5448C17.4329 23.5448 17.4329 23.5448 17.4329 23.5448C17.4329 23.5448 17.4329 23.5448 17.4329 23.5448C17.4329 23.5448 17.4329 23.5448 17.4329 23.5448C17.4329 23.5448 17.4329 23.5448 17.4329 23.5448C17.4329 23.5448 17.4329 23.5448 17.4329 23.5448C17.4329 23.5448 17.4329 23.5448 17.4329 23.5448C17.4329 23.5448 17.4329 23.5448 17.4329 23.5448C17.4329 23.5448 17.4329 23.5448 17.4329 23.5448C17.4329 23.5448 17.4329 23.5448 17.4329 23.5448V23.5448V23.5448V23.5448V23.5448V23.5448V23.5448V23.5448V23.5448V23.5448V23.5448V23.5448V23.5448V23.5448V23.5448V23.5448V23.5448H18.4329ZM9.85512 27.5001C12.1367 27.5001 14.226 27.1055 15.7636 26.4478C16.5315 26.1193 17.1849 25.7154 17.6536 25.2413C18.1245 24.7652 18.4329 24.1913 18.4329 23.5448H17.4329C17.4329 23.8525 17.2893 24.1876 16.9426 24.5382C16.5938 24.8909 16.0642 25.2315 15.3703 25.5283C13.9843 26.1212 12.0348 26.5001 9.85512 26.5001V27.5001ZM1.27734 23.5448C1.27734 24.1913 1.58577 24.7652 2.0566 25.2413C2.52533 25.7154 3.17874 26.1193 3.94663 26.4478C5.48421 27.1055 7.57352 27.5001 9.85512 27.5001V26.5001C7.67548 26.5001 5.7259 26.1212 4.33991 25.5283C3.64601 25.2315 3.11646 24.8909 2.76767 24.5382C2.42098 24.1876 2.27734 23.8525 2.27734 23.5448H1.27734ZM1.29034 23.3167C1.28171 23.3922 1.27734 23.4683 1.27734 23.5448H2.27734C2.27734 23.5064 2.27953 23.4682 2.28388 23.4302L1.29034 23.3167ZM1.28711 16.1487V23.3734H2.28711V16.1487H1.28711Z" fill="#2A1A5E" mask="url(#path-4-inside-2_202_6762)"/>
<path d="M19.4556 17.9512C19.4556 20.6407 15.1599 22.8166 9.86503 22.8166C4.57012 22.8166 0.274414 20.6407 0.274414 17.9512C0.274414 15.2617 4.57012 12.3855 9.86503 12.3855C15.1599 12.3855 19.4556 15.2617 19.4556 17.9512Z" fill="white"/>
<mask id="path-7-inside-3_202_6762" fill="white">
<path fill-rule="evenodd" clip-rule="evenodd" d="M19.022 14.8878C19.3038 15.3856 19.4556 15.8968 19.4556 16.4007C19.4556 19.0902 15.1599 21.266 9.86503 21.266C4.57012 21.266 0.274414 19.0902 0.274414 16.4007C0.274414 15.9076 0.418794 15.4083 0.68724 14.9215C0.824501 14.526 1.00657 14.1274 1.17109 13.8516C1.28832 13.6575 1.28656 13.3498 1.28473 13.0298C1.28234 12.6105 1.27983 12.1702 1.54464 11.9372C1.75162 11.7543 2.12732 11.7872 2.51444 11.8212C2.87833 11.8531 3.25231 11.8859 3.50571 11.7411C3.72799 11.6147 3.86687 11.3011 4.00875 10.9808C4.17085 10.6148 4.33687 10.24 4.63567 10.1255C4.89702 10.0257 5.243 10.1726 5.59609 10.3224C5.93691 10.4671 6.28437 10.6145 6.56874 10.5457C6.82774 10.4832 7.05258 10.2072 7.28001 9.92791C7.52819 9.6232 7.77945 9.31469 8.08157 9.27571C8.36831 9.24225 8.67218 9.47295 8.9794 9.70619C9.27249 9.9287 9.56863 10.1535 9.85587 10.1535C10.1431 10.1535 10.4393 9.9287 10.7323 9.70619C11.0396 9.47295 11.3434 9.24225 11.6302 9.27571C11.9346 9.31008 12.1874 9.62071 12.4375 9.92794C12.6629 10.205 12.8862 10.4793 13.143 10.5457C13.4274 10.6145 13.7748 10.4671 14.1157 10.3224C14.4687 10.1726 14.8147 10.0257 15.0761 10.1255C15.3749 10.24 15.5409 10.6148 15.703 10.9808C15.8449 11.3011 15.9838 11.6147 16.206 11.7411C16.4626 11.8923 16.8428 11.8591 17.2121 11.827C17.5955 11.7935 17.9671 11.7612 18.1765 11.9372C18.4413 12.1702 18.4387 12.6105 18.4363 13.0298C18.4345 13.3498 18.4328 13.6575 18.55 13.8516C18.7098 14.1195 18.8862 14.5034 19.022 14.8878Z"/>
</mask>
<path d="M19.022 14.8878L18.5506 15.0543L18.5652 15.0958L18.5869 15.134L19.022 14.8878ZM0.68724 14.9215L1.12507 15.163L1.14564 15.1257L1.1596 15.0855L0.68724 14.9215ZM1.17109 13.8516L0.743124 13.593L0.741679 13.5954L1.17109 13.8516ZM1.28473 13.0298L0.784741 13.0326L1.28473 13.0298ZM1.54464 11.9372L1.87495 12.3125L1.87573 12.3118L1.54464 11.9372ZM2.51444 11.8212L2.55812 11.3231H2.55812L2.51444 11.8212ZM3.50571 11.7411L3.25856 11.3064L3.25764 11.3069L3.50571 11.7411ZM4.00875 10.9808L3.55159 10.7783V10.7783L4.00875 10.9808ZM4.63567 10.1255L4.45732 9.6584L4.4567 9.65864L4.63567 10.1255ZM5.59609 10.3224L5.40075 10.7827L5.59609 10.3224ZM6.56874 10.5457L6.45142 10.0597L6.45116 10.0598L6.56874 10.5457ZM7.28001 9.92791L6.89233 9.61216L6.89233 9.61216L7.28001 9.92791ZM8.08157 9.27571L8.02362 8.77904L8.01758 8.77982L8.08157 9.27571ZM8.9794 9.70619L8.67706 10.1044L8.67706 10.1044L8.9794 9.70619ZM10.7323 9.70619L10.43 9.30795V9.30795L10.7323 9.70619ZM11.6302 9.27571L11.5722 9.77234L11.5741 9.77255L11.6302 9.27571ZM12.4375 9.92794L12.8253 9.61233V9.61233L12.4375 9.92794ZM13.143 10.5457L13.0178 11.0299L13.0254 11.0317L13.143 10.5457ZM14.1157 10.3224L13.9203 9.86216V9.86216L14.1157 10.3224ZM15.0761 10.1255L15.255 9.65864L15.2544 9.6584L15.0761 10.1255ZM15.703 10.9808L15.2458 11.1833V11.1833L15.703 10.9808ZM16.206 11.7411L16.4599 11.3102L16.4532 11.3064L16.206 11.7411ZM17.2121 11.827L17.2555 12.3251L17.2121 11.827ZM18.1765 11.9372L18.5068 11.5617L18.4983 11.5545L18.1765 11.9372ZM18.4363 13.0298L17.9364 13.0269V13.0269L18.4363 13.0298ZM18.55 13.8516L18.9794 13.5954L18.9779 13.593L18.55 13.8516ZM18.5869 15.134C18.8347 15.5719 18.9556 15.9989 18.9556 16.4007H19.9556C19.9556 15.7947 19.7729 15.1994 19.4572 14.6415L18.5869 15.134ZM18.9556 16.4007C18.9556 17.4578 18.0997 18.5442 16.4198 19.396C14.7677 20.2337 12.4507 20.766 9.86503 20.766V21.766C12.5742 21.766 15.0526 21.2105 16.872 20.2879C18.6637 19.3794 19.9556 18.0331 19.9556 16.4007H18.9556ZM9.86503 20.766C7.27931 20.766 4.96235 20.2337 3.31025 19.396C1.63034 18.5442 0.774414 17.4578 0.774414 16.4007H-0.225586C-0.225586 18.0331 1.06634 19.3794 2.85801 20.2879C4.67749 21.2105 7.15583 21.766 9.86503 21.766V20.766ZM0.774414 16.4007C0.774414 16.0069 0.889591 15.59 1.12507 15.163L0.249412 14.6801C-0.0520042 15.2266 -0.225586 15.8084 -0.225586 16.4007H0.774414ZM1.1596 15.0855C1.28808 14.7153 1.45674 14.3487 1.6005 14.1077L0.741679 13.5954C0.556406 13.906 0.360922 14.3368 0.214879 14.7576L1.1596 15.0855ZM1.59905 14.1101C1.71471 13.9187 1.75343 13.7057 1.77012 13.5372C1.78718 13.365 1.7856 13.1804 1.78472 13.0269L0.784741 13.0326C0.785691 13.1991 0.785907 13.3284 0.774991 13.4386C0.769771 13.4913 0.762784 13.5299 0.755417 13.5576C0.748053 13.5852 0.742253 13.5945 0.743131 13.593L1.59905 14.1101ZM1.78472 13.0269C1.78347 12.807 1.7839 12.6375 1.80758 12.4964C1.83082 12.358 1.86554 12.3208 1.87495 12.3125L1.21432 11.5618C0.95892 11.7866 0.862497 12.086 0.821387 12.3308C0.780724 12.573 0.783603 12.8333 0.784741 13.0326L1.78472 13.0269ZM1.87573 12.3118C1.85515 12.33 1.86566 12.3047 1.9928 12.2969C2.11635 12.2893 2.26727 12.3014 2.47076 12.3192L2.55812 11.3231C2.37449 11.307 2.144 11.2856 1.93118 11.2988C1.72194 11.3117 1.44111 11.3614 1.21354 11.5625L1.87573 12.3118ZM2.47075 12.3192C2.64585 12.3346 2.86197 12.3542 3.06882 12.3471C3.27398 12.34 3.52497 12.3059 3.75378 12.1752L3.25764 11.3069C3.23304 11.321 3.17035 11.343 3.0342 11.3477C2.89974 11.3523 2.74692 11.3396 2.55812 11.3231L2.47075 12.3192ZM3.75286 12.1757C3.97465 12.0496 4.11932 11.8528 4.21654 11.6902C4.31543 11.5248 4.39802 11.3366 4.46591 11.1833L3.55159 10.7783C3.4776 10.9454 3.41981 11.0741 3.35822 11.1771C3.32888 11.2262 3.30436 11.2594 3.28485 11.2813C3.26564 11.3029 3.25641 11.3076 3.25856 11.3064L3.75286 12.1757ZM4.46591 11.1833C4.55078 10.9917 4.61721 10.8446 4.6912 10.7298C4.76512 10.6151 4.80856 10.5947 4.81464 10.5924L4.4567 9.65864C4.16398 9.77085 3.97501 9.99513 3.85069 10.188C3.72645 10.3807 3.62882 10.604 3.55159 10.7783L4.46591 11.1833ZM4.81402 10.5926C4.80056 10.5978 4.8299 10.5812 4.95424 10.6139C5.07585 10.6459 5.21563 10.7041 5.40075 10.7827L5.79144 9.86216C5.62346 9.79087 5.4137 9.70075 5.20871 9.64681C5.00645 9.59359 4.73213 9.55347 4.45732 9.6584L4.81402 10.5926ZM5.40075 10.7827C5.56438 10.8521 5.76689 10.9389 5.96838 10.9955C6.16833 11.0517 6.42333 11.0953 6.68631 11.0317L6.45116 10.0598C6.42977 10.0649 6.36886 10.0693 6.23879 10.0328C6.11026 9.99665 5.96862 9.93736 5.79144 9.86216L5.40075 10.7827ZM6.68606 11.0318C6.94165 10.9701 7.13981 10.815 7.28152 10.6797C7.42548 10.5422 7.55882 10.3773 7.6677 10.2437L6.89233 9.61216C6.77377 9.75773 6.68098 9.87048 6.59091 9.95649C6.54798 9.99748 6.51394 10.0241 6.48783 10.0408C6.46217 10.0572 6.45057 10.0599 6.45142 10.0597L6.68606 11.0318ZM7.6677 10.2437C7.7975 10.0843 7.89851 9.96191 7.99759 9.8715C8.09765 9.78019 8.14296 9.77193 8.14555 9.7716L8.01758 8.77982C7.71806 8.81847 7.48668 8.98395 7.32353 9.13282C7.15941 9.28259 7.0107 9.46682 6.89233 9.61216L7.6677 10.2437ZM8.13951 9.77234C8.13146 9.77328 8.16831 9.76658 8.28178 9.82901C8.39367 9.89057 8.51605 9.98218 8.67706 10.1044L9.28174 9.30795C9.13553 9.19695 8.95237 9.0566 8.76383 8.95287C8.57688 8.85001 8.31842 8.74468 8.02363 8.77908L8.13951 9.77234ZM8.67706 10.1044C8.81758 10.2111 8.99135 10.344 9.17117 10.4471C9.34958 10.5493 9.5855 10.6535 9.85587 10.6535V9.65352C9.839 9.65352 9.78324 9.64529 9.66849 9.57951C9.55515 9.51455 9.43431 9.42378 9.28174 9.30795L8.67706 10.1044ZM9.85587 10.6535C10.1262 10.6535 10.3622 10.5493 10.5406 10.4471C10.7204 10.344 10.8942 10.2111 11.0347 10.1044L10.43 9.30795C10.2774 9.42378 10.1566 9.51454 10.0433 9.57951C9.92851 9.64529 9.87274 9.65352 9.85587 9.65352V10.6535ZM11.0347 10.1044C11.1957 9.98219 11.3181 9.89057 11.43 9.82901C11.5434 9.76658 11.5803 9.77328 11.5722 9.77234L11.6881 8.77908C11.3933 8.74468 11.1349 8.85001 10.9479 8.95286C10.7594 9.0566 10.5762 9.19695 10.43 9.30795L11.0347 10.1044ZM11.5741 9.77255C11.5742 9.77256 11.6178 9.7786 11.718 9.86962C11.8174 9.95982 11.9188 10.0827 12.0496 10.2435L12.8253 9.61233C12.7061 9.46592 12.5561 9.2799 12.3904 9.12939C12.2256 8.97969 11.9907 8.81323 11.6863 8.77887L11.5741 9.77255ZM12.0496 10.2435C12.1577 10.3763 12.2897 10.5397 12.4321 10.6764C12.5723 10.8111 12.7672 10.965 13.0178 11.0298L13.2682 10.0617C13.262 10.0601 13.2168 10.0436 13.1248 9.95523C13.035 9.86898 12.9427 9.75664 12.8253 9.61233L12.0496 10.2435ZM13.0254 11.0317C13.2884 11.0953 13.5434 11.0517 13.7434 10.9955C13.9449 10.9389 14.1474 10.8521 14.311 10.7827L13.9203 9.86216C13.7431 9.93736 13.6015 9.99665 13.473 10.0328C13.3429 10.0693 13.282 10.0649 13.2606 10.0598L13.0254 11.0317ZM14.311 10.7827C14.4961 10.7041 14.6359 10.6459 14.7575 10.6139C14.8818 10.5812 14.9112 10.5978 14.8977 10.5926L15.2544 9.6584C14.9796 9.55347 14.7053 9.59359 14.503 9.64681C14.298 9.70075 14.0883 9.79087 13.9203 9.86216L14.311 10.7827ZM14.8971 10.5924C14.9032 10.5947 14.9466 10.6151 15.0205 10.7298C15.0945 10.8446 15.161 10.9917 15.2458 11.1833L16.1602 10.7783C16.0829 10.604 15.9853 10.3807 15.861 10.188C15.7367 9.99513 15.5478 9.77085 15.255 9.65864L14.8971 10.5924ZM15.2458 11.1833C15.3137 11.3366 15.3963 11.5248 15.4952 11.6902C15.5924 11.8528 15.7371 12.0496 15.9589 12.1757L16.4532 11.3064C16.4553 11.3076 16.4461 11.3029 16.4269 11.2813C16.4074 11.2594 16.3829 11.2262 16.3535 11.1771C16.2919 11.0741 16.2341 10.9454 16.1602 10.7783L15.2458 11.1833ZM15.9522 12.1718C16.1837 12.3083 16.4389 12.3445 16.6478 12.3524C16.8581 12.3604 17.0779 12.3405 17.2555 12.3251L17.1687 11.3288C16.977 11.3455 16.8221 11.3583 16.6858 11.3531C16.5481 11.3479 16.4849 11.3251 16.4599 11.3103L15.9522 12.1718ZM17.2555 12.3251C17.4568 12.3075 17.6069 12.2955 17.7305 12.3027C17.8577 12.3101 17.8726 12.3349 17.8547 12.3199L18.4983 11.5545C18.271 11.3634 17.9954 11.3164 17.7886 11.3044C17.5782 11.2921 17.3508 11.313 17.1687 11.3288L17.2555 12.3251ZM17.8461 12.3125C17.8555 12.3208 17.8903 12.358 17.9135 12.4964C17.9372 12.6375 17.9376 12.807 17.9364 13.0269L18.9363 13.0326C18.9375 12.8333 18.9404 12.573 18.8997 12.3308C18.8586 12.086 18.7622 11.7866 18.5068 11.5618L17.8461 12.3125ZM17.9364 13.0269C17.9355 13.1804 17.9339 13.365 17.951 13.5372C17.9676 13.7057 18.0064 13.9187 18.122 14.1101L18.9779 13.593C18.9788 13.5945 18.973 13.5852 18.9657 13.5576C18.9583 13.5299 18.9513 13.4913 18.9461 13.4386C18.9352 13.3284 18.9354 13.1991 18.9363 13.0326L17.9364 13.0269ZM18.1206 14.1077C18.2601 14.3416 18.4234 14.6943 18.5506 15.0543L19.4935 14.7212C19.3491 14.3126 19.1596 13.8974 18.9794 13.5954L18.1206 14.1077Z" fill="#2A1A5E" mask="url(#path-7-inside-3_202_6762)"/>
</svg>
